<svg xmlns="http://www.w3.org/2000/svg" width="35" height="28" viewBox="0 0 35 28"><g><g><path fill="#fff" d="M33.985 21.307c-.477.05-.954.104-1.431.157.624.615 1.012 1.432.925 2.379-.168 1.846-1.52 3.195-3.375 3.492-.038.005-.073.004-.11.006a1.12 1.12 0 0 1-.315.03c-2.206-.116-4.514-1.76-3.781-4.096.132-.42.35-.815.63-1.173-2.896.282-5.755.522-8.664.57.333.516.512 1.124.45 1.798-.168 1.846-1.52 3.195-3.376 3.492-.038.005-.072.003-.109.006-.096.022-.199.037-.315.03-1.008-.053-2.078-.283-2.825-1.003-.718-.693-1.003-1.626-1-2.594a.973.973 0 0 1 .036-.515c.174-.52.417-.977.719-1.37-1.718-.296-3.21-1.037-3.645-2.834-.145-.598-.092-1.225.212-1.768.138-.245 1.384-1.202 1.377-1.29-.112-1.43-.253-2.858-.537-4.264C7.905 7.673 5.687 3.474.749 2.063-.565 1.688-.006-.33 1.314.047a15.806 15.806 0 0 1 5.25 2.615c.069.052.129.109.18.169 8.978-.104 17.957-.218 26.921-.73.15-.008.279.013.396.05.499.032.943.36.88.996-.403 4.069-.53 8.15-.638 12.235a1.115 1.115 0 0 1-.024.188c.063.458-.153.921-.756 1.029-1.942.347-3.891.624-5.85.872a92.574 92.574 0 0 1-10.669.723c-1.372.014-2.73.027-4.098-.077-.978-.075-2.374-.134-3.028.784-.006.638.23 1.069.932 1.328.049.017.094.04.14.063 7.68.944 15.397-.276 23.034-1.077 1.363-.143 1.349 1.95.001 2.092zm-1.739-8.229c-1.743-.02-3.487-.013-5.23.01.023.785.035 1.57.044 2.356a99.649 99.649 0 0 0 5.136-.737c.015-.543.034-1.086.05-1.629zm.15-3.973c-1.856-.011-3.71.01-5.567.039.039.62.075 1.24.103 1.86 1.795-.028 3.59-.037 5.388-.017.024-.627.047-1.254.077-1.882zm-5.93-4.587c.083.846.159 1.69.225 2.537 1.94-.032 3.88-.054 5.82-.04.057-.925.124-1.85.204-2.773-2.082.112-4.165.2-6.249.276zm-1.575 8.608a147.8 147.8 0 0 0-6.32.285c.125.884.252 1.767.375 2.651a99.91 99.91 0 0 0 5.99-.394c-.007-.848-.02-1.696-.045-2.542zm-.185-3.946c-2.229.046-4.457.104-6.685.153.087.675.174 1.349.266 2.022a151.71 151.71 0 0 1 6.52-.31c-.028-.622-.063-1.244-.1-1.865zm-7.193-4.414c.073.829.162 1.656.255 2.483 2.266-.05 4.533-.11 6.8-.157-.065-.834-.14-1.667-.221-2.5-2.278.072-4.556.13-6.834.174zm-1.048 8.802c-1.738.148-3.475.335-5.207.566.082.635.151 1.272.208 1.91 1.787.074 3.574.096 5.359.072-.119-.85-.24-1.699-.36-2.548zm-.571-4.192c-1.872.033-3.743.054-5.615.048.267.87.479 1.76.652 2.662 1.746-.23 3.496-.417 5.248-.569-.098-.713-.194-1.427-.285-2.141zM9.507 7.331c2.046.015 4.091-.005 6.137-.04-.094-.829-.18-1.657-.254-2.488-2.395.04-4.79.073-7.187.102.51.774.938 1.587 1.304 2.426zm6.681 17.139c.016-.91-.654-1.306-1.457-1.483-.882.069-1.575.457-1.916 1.362-.01 1.105.526 1.496 1.699 1.558.008 0 .016.003.025.004.748-.154 1.634-.572 1.65-1.441zm15.166-.628c.016-.91-.654-1.305-1.458-1.482-.882.068-1.574.456-1.916 1.362-.009 1.105.526 1.496 1.7 1.558.008 0 .015.003.024.004.749-.154 1.634-.573 1.65-1.442z"/></g></g></svg>