<svg xmlns="http://www.w3.org/2000/svg" width="29" height="29" viewBox="0 0 29 29"><g><g><path fill="#fff" d="M27.672 9.829c1.924 4.536 1.98 9.743-1.336 13.661-5.26 6.213-17.054 7.75-22.89 1.454C1.63 22.982.617 20.437.21 17.759a.794.794 0 0 1-.049-.372c-.34-2.613-.123-5.332.484-7.746.704-2.793 2.044-5.507 4.382-7.3A10.44 10.44 0 0 1 8.372.64c.984-.297 2.214-.692 3.246-.634 3.237.183 6.625.462 9.514 2.058 3.093 1.709 5.184 4.566 6.54 7.765zM2.923 8.079a36.206 36.206 0 0 1 4.22-1.135c.986-2.005 2.404-3.773 4.279-5.107-2.932.196-5.67 1.348-7.368 4.014a13.233 13.233 0 0 0-1.13 2.229zM1.9 16.983a16.41 16.41 0 0 0 3.956 1.568c-.683-3.22-.535-6.644.5-9.702a35.726 35.726 0 0 0-4.073 1.243c-.525 2.143-.621 4.405-.42 6.585.01.104.026.204.037.306zm8.237 9.824c-1.747-1.772-3.018-4.005-3.796-6.429a19.185 19.185 0 0 1-4.054-1.305c.987 3.73 3.472 6.608 7.564 7.666.095.025.191.045.286.068zm2.197-.257a68.27 68.27 0 0 1-.277-5.586 33.626 33.626 0 0 1-3.862-.27c.87 2.303 2.256 4.36 4.139 5.856zm.15-18.611a34.04 34.04 0 0 0-4.152.493c-1.362 3.22-1.569 7.035-.69 10.5a28.26 28.26 0 0 0 4.411.368c.024-3.785.257-7.573.432-11.361zm.171-4.905c-1.386.939-2.504 2.15-3.365 3.534a35.127 35.127 0 0 1 3.267-.313c.042-1.073.078-2.148.098-3.221zm3.085-.918a24.036 24.036 0 0 1 3.397 4.475c1.988.309 3.942.811 5.827 1.524-.95-1.597-2.169-3.02-3.687-3.998-1.704-1.098-3.589-1.672-5.537-2.001zm-1.487 4.1c.908.001 1.815.04 2.718.116a22.395 22.395 0 0 0-2.622-3.224c-.021 1.036-.055 2.072-.096 3.108zm-.506 13.064a49.122 49.122 0 0 0 5.69-.536c.39-1.304.565-2.692.464-4.158-.157-2.305-.835-4.476-1.877-6.473a30.428 30.428 0 0 0-3.843-.225c-.174 3.798-.409 7.596-.434 11.392zm4.98 1.291c-1.654.221-3.319.35-4.975.385.02 1.775.094 3.55.252 5.324 1.99-1.59 3.667-3.507 4.724-5.709zm8.21-1.853a48.278 48.278 0 0 1-6.274 1.556c-1.017 2.64-2.794 4.908-5.059 6.848 2.457-.27 4.857-1.085 6.883-2.448 2.236-1.505 3.765-3.592 4.45-5.956zm.011-5.83a20.557 20.557 0 0 0-.878-2.566.916.916 0 0 1-.342-.082 25.79 25.79 0 0 0-5.634-1.795c.947 2.088 1.519 4.326 1.52 6.627 0 1.177-.137 2.295-.387 3.36a45.93 45.93 0 0 0 5.975-1.564c.03-.01.058-.013.086-.02a11.044 11.044 0 0 0-.34-3.96z"/></g></g></svg>