<svg xmlns="http://www.w3.org/2000/svg" width="18" height="25" viewBox="0 0 18 25"><g><g><path fill="#fff" d="M18 9.054c0 6.195-8.054 15.29-8.397 15.675a.808.808 0 0 1-1.206 0C8.054 24.345 0 15.25 0 9.054 0 4.06 4.037 0 9 0s9 4.061 9 9.054zm-1.62 0c0-4.093-3.311-7.424-7.38-7.424S1.62 4.96 1.62 9.054c0 4.252 4.67 10.643 7.38 13.881 2.711-3.24 7.38-9.629 7.38-13.881zm-2.852 0c0 2.512-2.031 4.555-4.528 4.555-2.497 0-4.528-2.043-4.528-4.555 0-2.512 2.031-4.555 4.528-4.555 2.497 0 4.528 2.043 4.528 4.555zm-1.62 0A2.92 2.92 0 0 0 9 6.129a2.92 2.92 0 0 0-2.907 2.925A2.92 2.92 0 0 0 9 11.979a2.92 2.92 0 0 0 2.907-2.925z"/></g></g></svg>