<?xml version="1.0" encoding="UTF-8" ?>
<!DOCTYPE svg PUBLIC "-//W3C//DTD SVG 1.1//EN" "http://www.w3.org/Graphics/SVG/1.1/DTD/svg11.dtd">
<svg width="240pt" height="73pt" viewBox="0 0 240 73" version="1.1" xmlns="http://www.w3.org/2000/svg">
<g id="#ffffffff">
<path fill="#ffffff" opacity="1.00" d=" M 0.70 0.78 C 2.68 -0.80 4.03 2.52 4.92 3.85 C 3.57 7.12 -0.92 2.43 0.70 0.78 Z" />
<path fill="#ffffff" opacity="1.00" d=" M 7.34 10.00 C 7.73 9.51 8.51 8.53 8.90 8.04 C 10.81 9.98 12.99 11.73 14.44 14.06 C 14.08 14.49 13.35 15.33 12.99 15.75 C 10.79 14.17 8.86 12.22 7.34 10.00 Z" />
<path fill="#ffffff" opacity="1.00" d=" M 18.05 19.09 L 18.91 18.36 C 20.90 20.25 24.95 21.84 24.29 25.06 C 21.18 25.44 19.18 21.86 17.17 19.93 L 18.05 19.09 Z" />
<path fill="#ffffff" opacity="1.00" d=" M 29.08 28.01 C 31.85 28.37 33.85 31.03 35.81 32.87 C 35.41 33.27 34.59 34.07 34.18 34.47 C 31.82 33.06 29.36 31.49 27.93 29.05 L 29.08 28.01 Z" />
<path fill="#ffffff" opacity="1.00" d=" M 38.98 37.83 C 39.47 37.46 40.44 36.73 40.93 36.37 C 42.91 37.99 47.09 38.82 46.93 41.86 L 45.86 42.67 C 43.31 41.47 41.02 39.76 38.98 37.83 Z" />
<path fill="#ffffff" opacity="1.00" d=" M 52.18 44.33 C 55.00 44.34 57.38 46.76 59.78 48.12 C 59.29 48.53 58.32 49.36 57.83 49.78 C 55.51 48.90 53.31 47.60 51.40 46.02 C 51.60 45.60 51.99 44.75 52.18 44.33 Z" />
<path fill="#ffffff" opacity="1.00" d=" M 64.15 51.21 C 66.43 50.31 68.64 52.50 70.76 53.23 C 73.41 53.70 71.25 57.31 69.29 55.66 C 67.43 54.51 63.19 54.13 64.15 51.21 Z" />
<path fill="#ffffff" opacity="1.00" d=" M 77.00 58.83 C 77.18 58.17 77.55 56.87 77.73 56.21 C 80.28 57.77 85.34 57.35 85.26 61.32 C 82.35 61.14 79.59 60.08 77.00 58.83 Z" />
<path fill="#ffffff" opacity="1.00" d=" M 89.67 62.87 C 91.60 59.75 94.95 62.24 97.57 62.83 C 98.95 62.98 98.91 64.85 97.95 65.53 C 95.04 65.27 92.19 64.35 89.67 62.87 Z" />
<path fill="#ffffff" opacity="1.00" d=" M 230.95 63.60 C 233.63 63.09 236.36 62.33 239.10 62.69 C 239.13 63.24 239.19 64.36 239.22 64.91 C 236.61 65.72 233.87 65.88 231.16 66.02 C 231.11 65.41 231.00 64.21 230.95 63.60 Z" />
<path fill="#ffffff" opacity="1.00" d=" M 104.18 65.26 C 106.63 64.26 109.44 65.63 111.91 66.24 C 112.02 66.68 112.25 67.56 112.36 68.00 C 110.07 69.57 106.60 67.74 104.09 66.98 C 104.11 66.55 104.16 65.69 104.18 65.26 Z" />
<path fill="#ffffff" opacity="1.00" d=" M 217.26 65.43 C 219.81 64.81 222.45 64.45 225.09 64.55 C 225.10 65.15 225.12 66.35 225.12 66.95 C 222.39 67.55 219.61 67.95 216.81 67.90 C 216.92 67.28 217.15 66.05 217.26 65.43 Z" />
<path fill="#ffffff" opacity="1.00" d=" M 209.32 66.32 C 210.60 65.71 212.39 67.91 210.78 68.71 C 208.86 69.37 206.81 69.51 204.81 69.70 C 203.34 70.33 201.99 68.43 203.18 67.25 C 205.17 66.66 207.26 66.48 209.32 66.32 Z" />
<path fill="#ffffff" opacity="1.00" d=" M 117.94 67.77 C 120.89 67.13 124.01 67.82 126.77 68.93 C 126.56 69.44 126.14 70.47 125.93 70.98 C 123.37 70.72 120.72 70.69 118.27 69.81 C 118.19 69.30 118.02 68.28 117.94 67.77 Z" />
<path fill="#ffffff" opacity="1.00" d=" M 189.57 68.63 C 191.84 68.31 198.42 66.35 196.72 70.50 C 194.13 70.82 191.23 71.76 188.76 70.67 C 188.96 70.16 189.37 69.14 189.57 68.63 Z" />
<path fill="#ffffff" opacity="1.00" d=" M 132.51 69.49 C 134.87 68.56 137.93 69.47 140.47 69.89 C 140.43 70.44 140.36 71.55 140.32 72.10 C 137.59 72.11 134.22 72.79 131.94 70.97 C 132.08 70.60 132.37 69.86 132.51 69.49 Z" />
<path fill="#ffffff" opacity="1.00" d=" M 175.10 69.67 C 177.54 69.34 180.01 69.19 182.47 68.97 C 182.70 69.97 183.60 71.41 182.08 71.84 C 179.62 72.17 177.13 72.31 174.64 72.24 C 174.75 71.60 174.98 70.31 175.10 69.67 Z" />
<path fill="#ffffff" opacity="1.00" d=" M 146.67 70.09 C 149.57 70.14 152.92 69.19 155.40 71.22 C 153.35 73.86 149.63 72.57 146.81 72.57 L 146.09 71.38 L 146.67 70.09 Z" />
<path fill="#ffffff" opacity="1.00" d=" M 160.79 70.16 C 163.49 70.29 166.90 68.96 169.11 70.94 C 168.00 74.28 163.45 72.27 160.78 72.67 C 160.78 72.04 160.79 70.78 160.79 70.16 Z" />
</g>
</svg>
