<svg xmlns="http://www.w3.org/2000/svg" width="49" height="37" viewBox="0 0 49 37"><g><g transform="rotate(173.43 24.5 18.5)"><path fill="#fff" d="M.925 18.558C.612 4.788 15.216-1.432 26.805.76 38.94 3.057 50.418 12.407 48.72 25.893c-.078.615-.982.658-.984 0 0-.08-.006-.158-.007-.238a.706.706 0 0 1-.198.207c.466.527.762 1.148.574 1.851-.366 1.361-1.815 1.702-3.064 1.872-.506 1.477-1.438 3.378-3.228 3.272-1.568-.092-3.384-1.633-3.353-3.296.007-.388.436-.524.708-.296.84.703 1.278 2.453 2.645 2.376 1.339-.074 1.936-1.653 2.199-2.765a.592.592 0 0 1 .419-.423c.434-.09 2.406-.393 2.354-1.107-.061-.832-.9-1.663-1.416-2.238a.374.374 0 0 1-.064-.404c-5.676-4.028-13.788-5.272-20.41-5.862-6.687-.596-13.643-.665-20.135 1.271-1.457 2.625-1.8 4.314 1.294 6.084.128.077.23.18.306.31.371.638.295 1.867.215 2.903.92-.221 1.887-.428 2.593-.99.555-.441 1.488-.215 1.476.617-.072 4.92 5.977 6.582 5.102.743-.06-.399.094-.943.57-1.013.89-.133 2.636-.143 3.29-.823.457-.475 1.12-.18 1.334.355l4.694 1.113c.179-.254.654-.108.534.227-.072.201-.152.375-.23.553a.725.725 0 0 1 .174.417c.09 1.51.21 3.565 1.845 4.275 1.883.818 2.617-1.504 2.912-2.907.133-.628 1.104-.772 1.388-.182.676 1.405 2.02 3.347 3.862 2.582 1.529-.635 1.892-2.2 1.347-3.665-.158-.424.482-.66.702-.298 1.194 1.965.553 4.182-1.552 5.153-1.892.873-3.594-.177-4.764-1.623-.728 1.742-2.13 3.401-4.162 2.54-1.848-.782-2.916-2.54-3.094-4.457-1.525 1.078-3.406-.13-4.708-2.35-.541.23-1.167.326-1.707.427-1.617.304-.684-.15-.65 1.41.03 1.397-.784 3.04-2.112 3.589-3.451 1.426-5.818-1.565-6.375-4.647-.984.417-1.978.541-3.187 1.011-.543.211-1.121-.322-1.118-.858.016-2.543-.312-2.55-1.652-4.288-.438-.568-1.051-1.23-1.168-1.98-.29-1.864.081-3.348 1.114-4.79a1.36 1.36 0 0 1-.08-.59C2.565 20 .952 19.7.926 18.559zm2.169-.06c.128-.238.34-.44.659-.552 7.367-2.576 16.116-2.134 23.71-1.052 6.98.995 15.047 2.744 20.17 8.026.037.038.052.078.078.117C47.218 13.67 37.646 5.223 26.914 3.219c-5.23-.977-11.183-.786-15.852 2.08-5.115 3.14-6.601 7.697-7.968 13.2zm24.435 7.04c.203.38.425 2.246.804 2.24.797-.012 1.44-.131 2.058-.686.616-.552.863-.942 1.703-.797.515.088.893.15 1.335.105-.23-.695-.833-1.151-1.167-1.855a.44.44 0 0 1 .757-.446c.812 1.112 1.664 1.328 1.852 2.843.038.3-.233.573-.493.653-.524.162-1.013.285-1.562.249-.364-.025-.77-.312-1.078-.03-.687.624-1.371 1.152-2.292 1.346-.69.145-1.814.297-2.32-.346-.64-.809-.631-1.753-.875-2.733-.19-.763.892-1.262 1.278-.543zm-16.63-5.116c.443-.286 1.18-.027 1.276.523.125.713-.022 1.253-.59 1.742-.176.153-.388.285-.553.45.23-.23.373-.178.537-.02.165-.083.334-.16.566-.204.437-.082.77.06 1.028.422.256.36.899 1.578 1.296 1.457.794-.243 1.576-.518 2.375-.747.586-.167 1.76 1.2 2.083.78.534-.692.811-1.628 1.23-2.396.337-.62 1.416-.19 1.15.49-.367.942-.652 2.78-1.66 3.313-.363.193-.704.307-1.118.248-.442-.062-1.452-.778-1.81-.657-.907.306-1.968.927-2.954.674-.653-.167-1.159-.877-1.596-1.486-.48.299-.96.5-1.532.027-.64-.532-1.321-1.063-1.55-1.901-.275-1.01 1.096-2.246 1.823-2.715z"/></g></g></svg>