<svg xmlns="http://www.w3.org/2000/svg" width="49" height="35" viewBox="0 0 49 35"><g><g><path fill="#fff" d="M19.498.226c.269.273.373.596.508 1.57.079.567.09.99.062 2.248-.038 1.682-.023 1.791.265 1.943.255.134.413.108 1.462-.24 1.133-.374 3.721-1.048 5.56-1.449C36.16 2.384 39.688 1.55 41.212 1.02 42.418.6 43.158.502 43.546.71c.16.087.278.247.53.721.237.445.486.791.916 1.276.97 1.094 1.946 2.52 2.542 3.712.633 1.267 1.001 2.97 1.343 6.209.12 1.144.129 1.498.12 4.931-.01 4.348-.095 8.982-.183 10.043-.256 3.063-.959 4.974-2.074 5.641-.253.152-.33.165-1.186.197-.504.02-1.169.084-1.477.143-.446.085-.738.1-1.418.074-1.428-.056-2.593-.295-5.17-1.061l-3.073-.912a115.075 115.075 0 0 1-7.02-2.39c-1.808-.695-2.048-.74-2.342-.441-.215.219-.285.643-.354 2.147-.072 1.551-.153 1.92-.64 2.917-.457.934-.605 1.082-1.083 1.082-.255 0-.629-.176-3.58-1.683-3.198-1.633-3.91-2.006-5.778-3.025-3.967-2.164-7.434-4.475-10.043-6.696-1.71-1.456-1.765-1.54-1.857-2.788-.06-.824-.304-1.989-.886-4.24-.27-1.047-.36-1.638-.36-2.365 0-.629-.06-.863-.295-1.161C.01 12.828 0 12.786 0 12.278v-.536l.249-.168c.137-.092 1.009-.553 1.938-1.024 3.275-1.659 5.011-2.73 11.018-6.798a434.3 434.3 0 0 1 3.84-2.58c.358-.231.79-.536.962-.678.494-.41.664-.495.98-.495.255 0 .314.026.512.227zm-2.334 2.822c-.13.087-1.207.85-2.393 1.694-4.858 3.461-7.768 5.328-10.507 6.74-1.007.52-1.25.735-1.25 1.103 0 .141.049.335.11.437.148.248 2.473 2.44 4.59 4.33a144.875 144.875 0 0 0 8.264 6.837c1.493 1.144 1.712 1.236 2.072.869.282-.287.304-.594.146-2.056-.156-1.445-.138-2.063.069-2.441.32-.582.69-.634 1.514-.213.551.282 1.472.593 3.411 1.152 1.863.536 5.003 1.378 6.352 1.703 5.1 1.228 5.472 1.326 7.03 1.854 1.097.371 1.743.633 2.424.982.735.376 1.05.38 1.284.015.089-.137.11-.374.142-1.606.042-1.573.15-2.547.5-4.526l.352-1.997c.216-1.223.604-3.971.762-5.387.24-2.165.42-5.057.368-5.933-.173-2.914-.204-3.115-.518-3.384-.237-.203-.545-.203-1.123-.003-1.403.488-3.85 1.133-6.257 1.65-3.203.687-9.907 1.797-13.082 2.166-.582.068-1.265.177-1.517.243-.252.065-.596.119-.765.119-.268 0-.33-.025-.502-.2-.305-.31-.348-.575-.263-1.63.117-1.44.01-2.318-.316-2.597-.154-.132-.218-.15-.421-.117-.132.021-.346.11-.476.196zm27.404 2.47c-.16.103-.21.461-.258 1.818a39.816 39.816 0 0 1-.295 3.848 299.984 299.984 0 0 1-1.06 8.33c-.307 2.221-.368 2.83-.474 4.72-.132 2.331-.284 3.112-.687 3.522-.447.456-1.174.665-1.776.511-.156-.04-.7-.272-1.208-.515-1.13-.541-2.095-.902-3.567-1.333-1.287-.378-4.122-1.07-6.233-1.521-4.008-.858-5.189-1.157-7.001-1.774-1.187-.405-1.267-.421-1.526-.311-.33.14-.357.245-.398 1.542-.043 1.372-.12 1.67-.542 2.085-.283.278-.528.414-1.157.644-.79.288-1.135.214-2.758-.594-2.432-1.21-4.562-2.762-7.504-5.47-.357-.328-1.5-1.455-2.54-2.504-1.782-1.796-2.125-2.1-2.371-2.1-.37 0-.408.503-.137 1.842.1.492.233 1.242.297 1.667.184 1.221.34 1.442 1.792 2.549 2.037 1.55 4.866 3.363 8.897 5.698 3.264 1.89 5.41 3.164 6.588 3.91.585.371 1.163.708 1.285.748.61.202.915-.2 1.19-1.57.144-.725.274-2.315.269-3.303-.003-.558.022-.999.062-1.107a.975.975 0 0 1 .921-.631c.272 0 .756.166 4.2 1.437 4.773 1.762 9.665 3.44 11.13 3.817 1.51.39 2.165.487 3.277.487.794 0 1.022-.021 1.43-.134 1.496-.414 1.813-.825 2.284-2.963.576-2.612.697-7.485.32-12.807-.072-1.01-.099-5.051-.043-6.465.03-.763.05-.705-.62-1.708-.235-.353-.57-.923-.744-1.266-.31-.614-.723-1.147-.89-1.145a.342.342 0 0 0-.153.047z"/></g></g></svg>