<svg xmlns="http://www.w3.org/2000/svg" width="287" height="229" viewBox="0 0 287 229"><defs><mask id="js6ab" width="2" height="2" x="-1" y="-1"><path fill="#fff" d="M21 6h240v177H21z"/><path d="M259.098 72.592c-6.103-16.808-18.407-17.307-37.965-14.813-4.901-15.163-16.906-24.19-33.962-27.731-7.418-.95-16.086-.116-22.992 2.444-.471-1.97-.567-2.295-.567-2.295C160.361 13.987 130.849.27 106.54 8.35c-18.707 6.236-39.264 28.48-31.662 52.372-9.203 2.394-15.055 6.933-17.706 16.11-.18 1.305-.196 1.35-.418 3.006-38.827-5.507-55.675 59.895-.182 63.53 5.552 8.878 12.504 20.4 23.408 21.497 5.403 6.334 18.758 7.482 28.911 5.786 19.458-3.242 7.753-4.29 22.259 5.087 17.406 11.223 37.214 8.828 52.169-2.892 12.455-9.777 29.862 5.635 51.169-15.861 17.057-17.158 11.405-29.029 9.504-50.925 10.804-7.132 21.508-15.91 15.106-33.468z"/></mask><filter id="js6aa" width="320" height="277" x="-19" y="-34" filterUnits="userSpaceOnUse"><feOffset dy="20" in="SourceGraphic" result="FeOffset1068Out"/><feGaussianBlur in="FeOffset1068Out" result="FeGaussianBlur1069Out" stdDeviation="12 12"/></filter></defs><g><g><g filter="url(#js6aa)"><path fill="none" d="M259.098 72.592c-6.103-16.808-18.407-17.307-37.965-14.813-4.901-15.163-16.906-24.19-33.962-27.731-7.418-.95-16.086-.116-22.992 2.444-.471-1.97-.567-2.295-.567-2.295C160.361 13.987 130.849.27 106.54 8.35c-18.707 6.236-39.264 28.48-31.662 52.372-9.203 2.394-15.055 6.933-17.706 16.11-.18 1.305-.196 1.35-.418 3.006-38.827-5.507-55.675 59.895-.182 63.53 5.552 8.878 12.504 20.4 23.408 21.497 5.403 6.334 18.758 7.482 28.911 5.786 19.458-3.242 7.753-4.29 22.259 5.087 17.406 11.223 37.214 8.828 52.169-2.892 12.455-9.777 29.862 5.635 51.169-15.861 17.057-17.158 11.405-29.029 9.504-50.925 10.804-7.132 21.508-15.91 15.106-33.468z" mask="url(&quot;#js6ab&quot;)"/><path fill="#0f4178" fill-opacity=".5" d="M259.098 72.592c-6.103-16.808-18.407-17.307-37.965-14.813-4.901-15.163-16.906-24.19-33.962-27.731-7.418-.95-16.086-.116-22.992 2.444-.471-1.97-.567-2.295-.567-2.295C160.361 13.987 130.849.27 106.54 8.35c-18.707 6.236-39.264 28.48-31.662 52.372-9.203 2.394-15.055 6.933-17.706 16.11-.18 1.305-.196 1.35-.418 3.006-38.827-5.507-55.675 59.895-.182 63.53 5.552 8.878 12.504 20.4 23.408 21.497 5.403 6.334 18.758 7.482 28.911 5.786 19.458-3.242 7.753-4.29 22.259 5.087 17.406 11.223 37.214 8.828 52.169-2.892 12.455-9.777 29.862 5.635 51.169-15.861 17.057-17.158 11.405-29.029 9.504-50.925 10.804-7.132 21.508-15.91 15.106-33.468z"/></g><path fill="#27aee4" d="M259.098 72.592c-6.103-16.808-18.407-17.307-37.965-14.813-4.901-15.163-16.906-24.19-33.962-27.731-7.418-.95-16.086-.116-22.992 2.444-.471-1.97-.567-2.295-.567-2.295C160.361 13.987 130.849.27 106.54 8.35c-18.707 6.236-39.264 28.48-31.662 52.372-9.203 2.394-15.055 6.933-17.706 16.11-.18 1.305-.196 1.35-.418 3.006-38.827-5.507-55.675 59.895-.182 63.53 5.552 8.878 12.504 20.4 23.408 21.497 5.403 6.334 18.758 7.482 28.911 5.786 19.458-3.242 7.753-4.29 22.259 5.087 17.406 11.223 37.214 8.828 52.169-2.892 12.455-9.777 29.862 5.635 51.169-15.861 17.057-17.158 11.405-29.029 9.504-50.925 10.804-7.132 21.508-15.91 15.106-33.468z"/></g></g></svg>