<svg width="34" height="48" viewBox="0 0 34 48" fill="none" xmlns="http://www.w3.org/2000/svg">
<path d="M23.8782 8.02122L24.0722 8.04817C24.0727 8.0444 24.0728 8.04269 24.0727 8.0444C24.0725 8.04624 24.072 8.05201 24.0712 8.06342L24.0686 8.10261L23.8782 8.02122ZM23.8782 8.02122L23.879 8.02099L23.4926 6.67358C23.576 6.70095 23.6617 6.72864 23.7461 6.75594C23.8132 6.77762 23.8796 6.79906 23.9435 6.81991L23.8782 8.02122ZM21.8392 9.49029C21.4466 9.33615 21.1346 9.17124 20.8416 8.91989L20.8407 8.91914C20.8135 8.89581 20.7866 8.87255 20.76 8.84935C20.7538 8.87751 20.7474 8.9062 20.7406 8.93543L20.7382 8.94552L20.7382 8.9455C20.5971 9.52409 20.4789 10.4143 20.3312 11.5464L20.3311 11.5466L20.3309 11.548C20.2439 12.214 20.1174 13.1824 19.9691 14.0651C19.8949 14.5063 19.8132 14.9396 19.7252 15.3107C19.6447 15.6504 19.5369 16.0395 19.3827 16.3247L19.3141 16.4515L19.2125 16.5538L19.0929 16.6742V16.7497L18.9261 17.0011C18.6283 17.4495 18.1022 18.233 17.5775 19.0144L17.5694 19.0264C17.5694 19.0265 17.5693 19.0265 17.5693 19.0266C16.4883 20.637 16.0659 21.2695 15.8904 21.6048L15.3891 22.5625L15.332 22.5267C14.724 23.613 13.8916 25.4171 13.8916 27.557C13.8916 27.8785 14.0278 28.1804 14.5067 29.0677C14.5068 29.0679 14.5069 29.0681 14.507 29.0683L14.5132 29.0797C14.7628 29.5407 15.082 30.1303 15.3474 30.7548C15.6126 31.3788 15.8533 32.1025 15.9036 32.8332L21.8392 9.49029ZM21.8392 9.49029C21.7281 10.0502 21.6222 10.8616 21.5197 11.6466L21.5119 11.7066C21.5119 11.7067 21.5118 11.7068 21.5118 11.7069C21.3044 13.2922 21.1272 14.5334 20.8999 15.4952C20.6682 16.4752 20.4153 17.017 20.1505 17.3114L20.0901 17.3785L20.0427 17.4554C19.7848 17.8737 19.3392 18.5382 18.5534 19.7085L18.5533 19.7087C18.4944 19.7965 18.4354 19.8844 18.3766 19.9719C17.7864 20.8511 17.2228 21.6908 17.022 21.9977L16.9841 22.0557L16.9545 22.1184C16.9092 22.2143 16.8469 22.3188 16.7419 22.4896L16.7403 22.4922L16.7248 22.5177C16.2789 23.2478 15.162 25.0767 15.0868 27.318L15.0787 27.5603L15.1824 27.7795C15.2715 27.9676 15.4279 28.2569 15.5366 28.4582L15.5499 28.4827L15.5502 28.4833C16.1741 29.6364 16.9816 31.1572 17.092 32.7487C17.206 34.4023 16.5658 35.9836 16.0655 37.1906L16.0503 37.2272C15.9641 37.4348 15.8318 37.7532 15.771 37.9385L15.721 38.0906V38.2506C15.721 39.6187 15.7255 40.4266 15.7292 41.0878L15.7297 41.1847L15.7299 41.2174C15.7329 41.7482 15.7353 42.1986 15.7349 42.7999C15.3339 42.8023 14.9353 42.7986 14.5441 42.785M21.8392 9.49029L14.5441 42.785M20.082 5.24281C20.4039 4.98853 20.7683 4.80294 21.1475 4.65615C20.9769 4.44405 20.8249 4.24442 20.6819 4.05663L20.6776 4.05096L20.6775 4.05075C20.1044 3.29753 19.6898 2.83209 19.1403 2.51913C18.6031 2.21319 17.8314 1.9973 16.466 1.9973C13.0728 1.9973 10.7906 2.84729 9.33614 4.4144C7.86713 5.99721 7.06317 8.50206 7.06317 12.2058C7.06317 12.7523 7.08934 13.1624 7.11155 13.5016C7.11287 13.5214 7.11541 13.5555 7.11826 13.5939C7.12291 13.6564 7.12841 13.7302 7.13084 13.7722L7.16047 14.2836L6.76278 14.6064C6.54034 14.787 6.16096 15.0579 5.79921 15.3162C5.77669 15.3322 5.75425 15.3483 5.73191 15.3642L5.72886 15.3664C5.41265 15.5904 5.0397 15.8563 4.60198 16.1757L4.6003 16.177C4.04277 16.582 3.46997 17.3599 2.94213 18.4668C2.42407 19.5533 1.99316 20.8633 1.66931 22.22C1.34606 23.5742 1.13578 24.9483 1.04826 26.1525C0.95921 27.3776 1.00307 28.3516 1.14234 28.9402L1.1441 28.9477L1.14408 28.9477C1.28422 29.5608 1.67709 30.428 2.36835 31.8805L2.36844 31.8807C2.51747 32.194 2.70931 32.5974 2.8728 32.9575C3.01685 33.2748 3.19383 33.6745 3.25552 33.9165L3.13263 33.9479H3.26289L3.26185 33.9429L3.26266 33.9465L3.26296 33.9479H3.26556C3.26556 33.9141 3.26286 33.8943 3.263 33.8943C3.26317 33.8943 3.26681 33.9184 3.2814 33.9744C3.30364 34.0598 3.34052 34.1795 3.39455 34.3355C3.50222 34.6462 3.66099 35.0526 3.85891 35.5294C4.25364 36.4803 4.78391 37.6631 5.31992 38.8254C5.855 39.9858 6.39178 41.117 6.79743 41.9619C7.0002 42.3842 7.16985 42.7342 7.28973 42.9797C7.34976 43.1027 7.39684 43.1984 7.42914 43.2635C7.43423 43.2738 7.43887 43.2831 7.44305 43.2915C8.59955 44.8581 10.4099 45.56 12.526 45.8433L12.5298 45.3918C12.5321 45.1134 12.5341 44.8576 12.5357 44.6212C10.9337 44.3883 9.31712 43.8491 8.38188 42.5473L8.36419 42.5226L8.34803 42.497C8.18942 42.2453 7.8921 41.63 7.56377 40.9265C7.21952 40.1888 6.80161 39.2667 6.38595 38.3352C5.56001 36.4842 4.7229 34.5511 4.49276 33.953L4.45658 33.859L4.43989 33.7596C4.37588 33.3787 4.14157 32.826 3.44049 31.354L3.44007 31.3531L3.42662 31.3248C3.22792 30.9066 2.98815 30.4019 2.78375 29.9417C2.58985 29.5053 2.38138 29.0088 2.30196 28.6645C2.12637 27.9194 2.13306 26.9164 2.22765 25.8928C2.32487 24.8409 2.52508 23.6683 2.79376 22.5394C3.06188 21.4128 3.40456 20.3027 3.79571 19.3824C3.99123 18.9224 4.20626 18.4922 4.4404 18.1245C4.66768 17.7675 4.94822 17.413 5.2943 17.1615C5.29436 17.1614 5.29442 17.1614 5.29448 17.1613L5.88233 17.9703C6.26252 17.6931 6.59141 17.4584 6.87547 17.2558L6.87586 17.2555L20.082 5.24281ZM20.082 5.24281C19.9589 5.08606 19.8451 4.9367 19.7365 4.79422L19.7354 4.7928C19.7353 4.79273 19.7353 4.79265 19.7352 4.79257C19.7115 4.76145 19.6878 4.73002 19.6639 4.6984C19.3356 4.26436 18.9782 3.79181 18.4484 3.51922C17.8763 3.22492 17.2093 3.2087 16.466 3.2087C14.1404 3.2087 11.9904 3.52776 10.4608 4.97205C8.92355 6.42357 8.25445 8.77599 8.25445 12.2058C8.25445 12.7315 8.28061 13.1282 8.3001 13.4229M20.082 5.24281L8.3001 13.4229M8.3001 13.4229C8.30009 13.4228 8.30008 13.4227 8.30007 13.4226L9.29796 13.3575L8.30013 13.4235C8.30012 13.4233 8.30011 13.4231 8.3001 13.4229ZM14.5441 42.785C14.5446 42.1936 14.5421 41.7477 14.5393 41.2267L14.5391 41.1926L14.5391 41.1916M14.5441 42.785L14.5391 41.1916M14.5391 41.1916C14.5346 40.4894 14.5297 39.6419 14.5297 38.1234C14.5297 37.8163 14.6469 37.4932 14.9683 36.7189L14.9684 36.7186M14.5391 41.1916L14.9684 36.7186M14.9684 36.7186C14.9792 36.6927 14.9902 36.6662 15.0014 36.6392M14.9684 36.7186L15.0014 36.6392M15.0014 36.6392C15.3792 35.7299 16.0003 34.2348 15.9036 32.8335L15.0014 36.6392ZM23.9437 6.81999C25.2737 7.25446 25.538 7.37801 25.7173 7.53285C25.9389 7.74314 26.1889 7.85722 26.372 7.92492C26.5525 7.99169 26.7436 8.03916 26.8783 8.07264L26.8987 8.07773L26.8988 8.07775C28.0446 8.36291 28.8007 8.80926 29.3357 9.77703C29.92 10.8338 30.3039 12.6229 30.3039 15.7705C30.3039 16.056 30.3802 16.3258 30.4532 16.5308C30.5309 16.7491 30.6336 16.9717 30.7408 17.1825C30.9523 17.5982 31.2228 18.0467 31.4546 18.4311L31.4599 18.4398C32.1058 19.5117 32.7112 20.5373 32.9097 21.6309C33.304 23.9355 32.3445 26.2452 31.1328 29.0654C30.9094 29.5844 30.6781 30.124 30.449 30.6804L30.4468 30.6859C29.9366 31.9462 29.2503 33.4414 28.5741 34.9147L28.574 34.9148L28.5463 34.9753C27.944 36.2877 27.3118 37.6652 26.8431 38.8053L26.8398 38.8133L26.8367 38.8213C26.8368 38.8211 26.8365 38.8217 26.8359 38.8231C26.8086 38.8889 26.0558 40.6981 24.7493 42.4908C23.3709 44.382 21.6199 45.9225 19.6885 45.9225C19.1034 45.9225 18.4709 45.9429 17.8299 45.9636L17.8221 45.9639L17.8204 45.9639L17.7167 45.9671L17.721 45.4347C17.7229 45.1917 17.7246 44.9656 17.7261 44.7543C17.7456 44.7537 17.765 44.753 17.7844 44.7524C18.4708 44.7311 19.1073 44.7117 19.6885 44.7117C20.4283 44.7117 21.1134 44.3667 21.6736 43.9627C22.2513 43.5462 22.8078 42.986 23.3123 42.3783C24.3192 41.1654 25.2185 39.6421 25.7414 38.3454C26.2264 37.166 26.8623 35.7804 27.4894 34.4138L27.495 34.4016L27.4951 34.4014L27.4959 34.3995C28.1507 32.9736 28.8415 31.4693 29.3479 30.2187C29.5738 29.6696 29.8004 29.1416 30.0243 28.6196L30.0411 28.5805L30.0413 28.5801L30.0559 28.5461C30.5605 27.3717 31.0586 26.2123 31.3896 25.1302C31.7231 24.0402 31.9226 22.9218 31.7382 21.8482L31.7383 21.8482L31.7367 21.8395C31.6463 21.3396 31.4292 20.84 31.2033 20.399C30.9777 19.9586 30.7059 19.5071 30.4591 19.0972L30.4446 19.0731L30.4443 19.0726C29.6853 17.8134 29.1126 16.8132 29.1126 15.7705C29.1126 13.2093 28.8995 11.6816 28.4741 10.7464C28.2442 10.2407 27.9372 9.87178 27.5471 9.62097C27.2028 9.39963 26.8478 9.3116 26.6459 9.26155C26.6357 9.25902 26.6258 9.25657 26.6164 9.25422L26.6147 9.25378C26.0538 9.11474 25.5263 8.97204 25.0556 8.56004L24.9282 8.44854L24.7712 8.38518C24.5987 8.31554 24.3267 8.22123 24.0665 8.13404C24.0668 8.12931 24.0671 8.12472 24.0674 8.12031L23.9437 6.81999ZM21.4297 6.73561L21.4353 6.75501C21.4305 6.7504 21.4258 6.7458 21.4211 6.74121C21.424 6.73934 21.4268 6.73747 21.4297 6.73561ZM5.15071 14.5505C4.83246 14.776 4.45539 15.0448 4.0125 15.368L6.11375 13.5678C6.11671 13.6125 6.11993 13.6547 6.12297 13.6947L6.12298 13.6948L6.12299 13.6949L6.12301 13.6951C6.12666 13.7431 6.13008 13.7879 6.13252 13.8301C5.93522 13.9902 5.57811 14.2452 5.19898 14.516L5.15071 14.5505Z" fill="#2C67AE" stroke="white" stroke-width="2"/>
</svg>
