<svg width="38" height="51" viewBox="0 0 38 51" fill="none" xmlns="http://www.w3.org/2000/svg">
<path fill-rule="evenodd" clip-rule="evenodd" d="M35.701 6.99969L35.701 6.99967C35.3493 6.904 35.0427 6.82061 34.745 6.71237C33.5507 6.27866 32.358 5.84041 31.1652 5.40217C29.6658 4.85121 28.1663 4.30025 26.6636 3.75831C25.7024 3.41169 24.7679 2.98541 25.148 1.76074C25.5064 0.605654 26.5182 0.525677 27.5126 0.842352C30.3334 1.74012 33.1474 2.66099 35.9428 3.63402C36.456 3.81263 37.0116 4.18983 37.2886 4.63641C37.547 5.05204 37.6557 5.76679 37.4711 6.19339C37.3394 6.49774 36.9903 6.70773 36.6602 6.90633C36.5209 6.99015 36.3849 7.07194 36.2701 7.15794C36.066 7.09895 35.8778 7.04777 35.701 6.99969ZM15.0198 50.8484C14.7492 50.6825 14.5051 50.55 14.2869 50.4315C13.8763 50.2087 13.5571 50.0354 13.3243 49.7823C12.2817 48.6504 11.2886 47.469 10.3321 46.2628C8.15629 43.5181 5.99391 40.7627 3.83149 38.0073C3.02142 36.9751 2.21134 35.9428 1.40055 34.9112C1.30925 34.7951 1.20022 34.6815 1.09117 34.5679C0.845082 34.3116 0.59887 34.0551 0.555991 33.7689C0.496773 33.3726 0.595247 32.953 0.693702 32.5336C0.735901 32.3538 0.778097 32.174 0.807871 31.9961C0.96668 32.0259 1.13224 32.0443 1.29779 32.0626C1.67374 32.1042 2.04967 32.1459 2.34651 32.3215C2.74524 32.5572 3.05748 32.9562 3.36058 33.3435C3.41929 33.4185 3.47765 33.4931 3.53623 33.5659C7.27675 38.2196 11.012 42.8778 14.7369 47.5443C14.796 47.6183 14.8585 47.6935 14.9219 47.7698C15.2409 48.1539 15.5825 48.565 15.6278 48.9889C15.6656 49.3444 15.4984 49.7214 15.3023 50.1631L15.3023 50.1631C15.2083 50.375 15.1076 50.6019 15.0198 50.8484ZM24.754 24.61C24.8945 24.6435 25.0253 24.6746 25.1389 24.7087C26.1181 24.576 26.6128 23.5761 26.0961 22.9453C25.75 22.5225 25.2226 22.2184 24.7268 21.9542C23.9451 21.5373 23.1552 21.1358 22.3651 20.7343C21.5315 20.3106 20.6979 19.8869 19.874 19.4451C18.6081 18.7665 17.3536 18.0596 16.138 17.2951C15.3216 16.7818 14.4962 16.4474 13.8961 17.3963C13.3208 18.3064 14.0079 18.8571 14.6427 19.3659C14.6978 19.4101 14.7524 19.4539 14.8058 19.4976C14.8798 19.5578 14.961 19.6116 15.0451 19.6568C15.7361 20.0267 16.4267 20.3973 17.1174 20.7679C19.2949 21.9365 21.4724 23.1051 23.6625 24.2497C24.0147 24.4339 24.4132 24.5288 24.754 24.61Z" fill="white"/>
</svg>
