<svg xmlns="http://www.w3.org/2000/svg" width="127" height="57" viewBox="0 0 127 57"><g><g><path fill="#fff" d="M112.253 18.67a108.86 108.86 0 0 0-16.119-6.362c-5.444-1.711-11.012-3-16.655-3.857a79.18 79.18 0 0 0-34.065 1.63 62.697 62.697 0 0 0-15.661 6.898 68.688 68.688 0 0 0-12.979 10.934A90.25 90.25 0 0 0 0 56.581l.994.417A87.997 87.997 0 0 1 19.12 30.2a64.152 64.152 0 0 1 12.839-9.404 58.284 58.284 0 0 1 14.806-5.387 72.643 72.643 0 0 1 31.303.636 103.33 103.33 0 0 1 15.145 4.612c2.484.954 4.909 1.988 7.294 3.101 2.385 1.114 4.81 2.366 6.837 3.56z"/></g><g><path fill="#fff" d="M85.024-4.014l25.023 34.253 3.736-8.23-37.762 2.405a2.564 2.564 0 0 0 0 5.11l37.762 2.425 13.217.835-9.48-9.085L86.893-5.664a1.252 1.252 0 0 0-1.869 1.65z"/></g></g></svg>