<svg xmlns="http://www.w3.org/2000/svg" width="127" height="63" viewBox="0 0 127 63"><g><g><path fill="#fff" d="M14.747 38.329a108.86 108.86 0 0 0 16.119 6.361c5.444 1.711 11.012 3 16.655 3.857a79.18 79.18 0 0 0 34.065-1.63 62.697 62.697 0 0 0 15.661-6.898 68.688 68.688 0 0 0 12.979-10.935A90.25 90.25 0 0 0 127 .417L126.006 0a87.997 87.997 0 0 1-18.126 26.798 64.152 64.152 0 0 1-12.839 9.404 58.284 58.284 0 0 1-14.806 5.387 72.643 72.643 0 0 1-31.303-.636 103.33 103.33 0 0 1-15.145-4.612 113.094 113.094 0 0 1-7.294-3.102c-2.385-1.113-4.81-2.365-6.837-3.558z"/></g><g><path fill="#fff" d="M41.976 61.012L16.953 26.759l-3.736 8.23 37.762-2.406a2.564 2.564 0 0 0 0-5.109L13.217 25.05 0 24.214l9.48 9.085 30.627 29.363a1.252 1.252 0 0 0 1.869-1.65z"/></g></g></svg>