<svg width="141" height="112" viewBox="0 0 141 112" fill="none" xmlns="http://www.w3.org/2000/svg">
<path fill-rule="evenodd" clip-rule="evenodd" d="M63.3397 51.6827C58.5459 42.5944 53.911 33.8156 49.2878 25.0309C48.8405 24.1808 48.3864 23.3177 48.0964 22.4094C47.9803 22.0465 48.1961 21.2592 48.4449 21.1684C48.8905 21.0057 49.6007 21.0526 49.9722 21.3246C50.4857 21.7005 50.8586 22.3282 51.1692 22.9131C53.7469 27.7685 56.3082 32.6333 58.8499 37.5076C60.4559 40.5872 62.0417 43.6777 63.5901 46.7866C64.0594 47.7294 64.4692 48.7249 64.7331 49.7409C65.0319 50.8927 64.4426 51.5262 63.3397 51.6827Z" fill="white"/>
<path fill-rule="evenodd" clip-rule="evenodd" d="M2.05358 59.7411C2.96163 59.8504 3.55322 59.7992 4.03899 60.0027C5.45856 60.598 6.85366 61.2588 8.22603 61.9576C12.5176 64.1434 16.7945 66.3587 21.0769 68.563C21.5049 68.7831 22.0922 68.8999 22.3208 69.2506C22.6339 69.7309 22.6743 70.3892 22.8315 70.9709C22.319 71.0992 21.7919 71.37 21.2978 71.3182C20.748 71.261 20.2132 70.9403 19.6976 70.6823C14.3576 68.0072 9.0204 65.326 3.68922 62.6327C3.17871 62.3751 2.53835 62.1297 2.27709 61.6893C2.00668 61.2335 2.12494 60.547 2.05358 59.7411Z" fill="white"/>
<path fill-rule="evenodd" clip-rule="evenodd" d="M115.437 0.490236C116.47 -0.124554 117.598 0.380066 117.657 1.30777C117.697 1.95706 117.507 2.63407 117.346 3.27945C116.37 7.19221 115.373 11.0996 114.383 15.0086C114.289 15.3802 114.309 15.8779 114.073 16.096C113.635 16.499 112.971 17.0581 112.544 16.9556C112.112 16.8522 111.595 16.0325 111.576 15.5107C111.542 14.5714 111.804 13.609 112.028 12.6769C112.86 9.21632 113.703 5.75758 114.601 2.31333C114.788 1.59608 115.223 0.943681 115.437 0.490236Z" fill="white"/>
<path fill-rule="evenodd" clip-rule="evenodd" d="M0.974504 108.436C1.6027 108.342 2.07189 108.243 2.54607 108.204C5.40393 107.969 8.26393 107.757 11.1211 107.514C12.1389 107.428 13.1658 107.426 13.3316 108.7C13.4877 109.903 12.6018 110.399 11.5661 110.526C8.62886 110.889 5.68793 111.227 2.74213 111.51C2.20144 111.562 1.53921 111.451 1.1012 111.16C0.693223 110.889 0.296112 110.283 0.285816 109.817C0.275377 109.345 0.743988 108.862 0.974504 108.436Z" fill="white"/>
<path fill-rule="evenodd" clip-rule="evenodd" d="M140.247 16.7729C140.113 17.1407 139.994 17.7855 139.671 18.3027C137.905 21.13 136.087 23.9257 134.29 26.7334C134.085 27.0532 133.963 27.5374 133.676 27.6686C133.216 27.88 132.601 28.0196 132.146 27.8793C131.867 27.7938 131.701 27.1449 131.605 26.7212C131.549 26.4757 131.674 26.1397 131.817 25.9058C133.706 22.8182 135.528 19.6833 137.557 16.6893C138.39 15.4611 139.661 15.5251 140.247 16.7729Z" fill="white"/>
<path fill-rule="evenodd" clip-rule="evenodd" d="M3.76558 87.7894C4.16798 87.7331 4.73798 87.5611 5.29854 87.5902C8.54836 87.7566 11.7957 87.9702 15.0441 88.1695C15.1394 88.1753 15.2358 88.19 15.328 88.2141C16.1648 88.4333 17.1866 88.5854 17.0313 89.7479C16.882 90.8637 15.9925 90.9043 15.0366 90.7781C13.6131 90.5901 12.1784 90.4712 10.7453 90.3822C8.92816 90.2697 7.10649 90.2351 5.2891 90.1264C4.72854 90.0933 4.12236 90.0368 3.63173 89.7964C2.899 89.4378 2.93132 88.3199 3.76558 87.7894Z" fill="white"/>
<path fill-rule="evenodd" clip-rule="evenodd" d="M39.6553 51.2089C39.6102 51.5775 39.7617 52.4471 39.397 52.8618C38.7315 53.6182 37.9735 53.012 37.4655 52.4212C35.0965 49.6642 32.7245 46.9071 30.452 44.0711C30.0777 43.604 29.8604 42.4742 30.1481 42.1169C30.8814 41.2058 31.6896 41.8593 32.2808 42.5445C34.3438 44.9367 36.3826 47.3493 38.4302 49.7551C38.7401 50.1192 39.0468 50.4864 39.6553 51.2089Z" fill="white"/>
<path fill-rule="evenodd" clip-rule="evenodd" d="M82.6966 6.44183C83.1962 9.67655 83.728 12.7912 84.0968 15.9248C84.1422 16.3104 83.3168 16.797 82.8952 17.2367C82.553 16.8335 81.9944 16.4728 81.9048 16.0203C81.3821 13.387 80.9658 10.7331 80.5253 8.08438C80.4626 7.70741 80.3554 7.28777 80.4601 6.9468C80.5878 6.52992 80.8989 5.87534 81.163 5.86005C81.6368 5.83199 82.1344 6.20482 82.6966 6.44183Z" fill="white"/>
</svg>
