<svg width="1719" height="1378" viewBox="0 0 1719 1378" fill="none" xmlns="http://www.w3.org/2000/svg">
<path d="M1664 1338C1662.93 1323.85 1660.42 1296.14 1658.78 1263C1654.96 1185.54 1651.46 1078.39 1650.31 1045.24C1648.66 997.898 1649.55 950.546 1648.68 903.195C1644.9 808.478 1645.01 713.749 1645.52 619.02C1645.03 524.291 1647 429.549 1647.21 334.819C1647.43 240.09 1647.95 145.361 1648.81 50.6318L1651.23 53.7869C1618.31 45.3734 1585.13 38.0759 1551.69 31.8946C1518.22 25.8162 1484.63 20.7553 1450.85 16.9048C1383.28 9.15933 1350.31 5.44824 1282.3 5.79124C1214.27 6.08291 1146.3 10.0594 1078.7 17.7032C1044.91 21.5151 1011.24 26.2369 977.674 31.8688C960.914 34.7191 944.179 37.8399 927.47 41.231C910.838 44.6436 884.194 48.288 867.807 52.5506L867.266 52.6923L866.738 52.5506C801.873 35.8487 745.848 24.0282 679.218 17.1881C612.566 10.2511 545.563 7.24105 478.558 8.17365C411.555 9.01071 344.681 13.3892 278.038 20.8712C244.749 24.6143 211.572 29.1774 178.506 34.5603C161.977 37.2646 145.492 40.1879 129.049 43.3301C112.623 46.5109 96.1716 49.872 79.9906 53.7482L82.4364 50.5545C83.9382 98.7433 85.1525 146.928 86.0794 195.108C87.0062 243.288 87.8644 291.477 88.6539 339.674C90.0699 436.06 90.8681 532.455 91.0483 628.858C91.2285 725.262 93.7994 821.661 92.761 918.055C92.4435 942.146 92.0358 966.244 91.5381 990.352C91.0403 1014.46 95.4353 1061.55 94.723 1085.63C92.2435 1164.29 88.5 1168.5 86.5 1254.5C86.4167 1255.58 88.2773 1288.35 88.1149 1297.5C87.9526 1306.64 83.1912 1329.88 83 1332.5L78.5 1334C78.5 1330.5 81.7894 1303.93 81.9545 1300C82.4722 1287.67 80.1358 1257.75 80.8629 1241.5C83.4697 1183.23 86.8917 1120.75 87.3246 1085.53C87.9168 1037.36 84.0712 966.167 84.0584 917.991C84.0584 821.614 83.286 725.249 82.372 628.884L79.0509 339.777C77.9309 243.477 76.6436 147.112 76 50.7348V48.1592L78.4587 47.5926C94.923 43.7293 111.362 40.4068 127.877 37.2904C144.393 34.174 160.947 31.3022 177.528 28.6365C210.679 23.2879 243.99 18.7764 277.459 15.1019C344.243 7.78732 411.336 3.58915 478.558 2.94526C545.762 2.17412 612.953 5.35183 679.785 12.462C746.643 19.5629 802.875 31.672 867.923 48.6872H866.854C883.422 44.3345 910.04 40.6515 926.749 37.1616C943.458 33.6717 960.218 30.5424 976.953 27.632C1010.55 21.7941 1044.29 16.9434 1078.18 13.0801C1145.95 5.22732 1214.08 1.0488 1282.3 0.562856C1350.53 0.0236684 1383.73 3.54984 1451.55 11.1227C1485.45 14.9001 1519.21 19.8195 1552.81 25.8806C1586.4 31.9418 1619.75 39.1662 1652.85 47.554L1655.31 48.1721V50.7477C1653.95 145.451 1652.91 240.163 1652.2 334.884C1651.48 429.604 1651.08 524.325 1650.99 619.046C1650.99 713.762 1651.35 808.491 1652.61 903.195C1653.24 950.559 1654.2 997.911 1655.49 1045.25C1656.88 1092.58 1665.56 1273.26 1668.88 1320.51L1670.5 1338H1664Z" fill="#548DD1"/>
<path d="M81.958 1330.13C97.8559 1326.13 113.818 1322.6 129.845 1319.28C145.871 1315.95 161.949 1312.93 178.066 1310.15C210.325 1304.6 242.778 1300.15 275.384 1297.14C291.681 1295.65 308.03 1294.56 324.391 1293.91C340.752 1293.25 357.191 1293.24 373.526 1293.52C406.236 1294.01 438.907 1294.9 471.591 1295.7C536.946 1297.31 602.302 1298.88 667.631 1298.96C700.289 1298.96 732.96 1298.62 765.541 1297.17C781.825 1296.42 798.109 1295.4 814.239 1293.6C822.284 1292.67 830.317 1291.56 838.157 1289.92C842.031 1289.13 845.853 1288.1 849.601 1286.84C851.369 1286.23 853.091 1285.49 854.75 1284.62C856.173 1283.94 857.443 1282.98 858.483 1281.79L860.118 1279.99L862.164 1280.69C865.73 1281.98 869.682 1283.03 873.518 1284.04C877.354 1285.06 881.242 1285.97 885.207 1286.88C893.046 1288.63 900.963 1290.12 908.905 1291.49C924.778 1294.23 940.791 1296.29 956.844 1297.93C989.026 1301.27 1021.21 1303.08 1053.58 1303.77C1069.75 1304.18 1085.92 1304.2 1102.09 1304.15C1118.26 1304.09 1134.44 1303.71 1150.6 1303.14L1162.73 1302.73L1174.86 1302.2C1182.94 1301.88 1191.01 1301.44 1199.1 1300.99C1215.24 1300.14 1231.46 1299.17 1247.67 1298.6C1312.5 1296.09 1377.42 1296.95 1442.16 1301.17C1474.52 1303.3 1506.83 1306.32 1539.02 1310.26C1555.11 1312.26 1571.16 1314.52 1587.19 1317.05C1601.59 1319.36 1643.22 1328.26 1667 1333.09C1669.68 1333.64 1667.79 1338.17 1666.5 1338C1630.86 1333.21 1622.14 1326.08 1586.64 1320.47C1570.67 1317.95 1554.63 1315.83 1538.56 1313.91C1506.38 1310.04 1474.2 1307.22 1441.9 1305.23C1377.29 1301.3 1312.53 1300.72 1247.86 1303.51C1231.69 1304.16 1215.57 1305.18 1199.38 1306.09C1191.28 1306.57 1183.19 1307.04 1175.09 1307.38L1162.94 1307.97L1150.78 1308.42C1134.58 1309.06 1118.36 1309.4 1102.14 1309.63C1085.92 1309.86 1069.7 1309.81 1053.47 1309.45C1021.03 1308.87 988.562 1307.21 956.226 1303.98C940.057 1302.34 923.915 1300.33 907.863 1297.63C899.83 1296.34 891.823 1294.8 883.842 1293.04C879.852 1292.16 875.874 1291.25 871.909 1290.21C867.944 1289.17 864.044 1288.13 859.95 1286.73L863.632 1285.64C862.029 1287.59 860.027 1289.17 857.762 1290.28C855.795 1291.29 853.755 1292.15 851.66 1292.85C847.655 1294.18 843.571 1295.26 839.431 1296.08C831.257 1297.76 823.07 1298.84 814.896 1299.74C798.521 1301.49 782.147 1302.42 765.773 1303.1C733.038 1304.39 700.302 1304.57 667.592 1304.39C602.16 1304 536.792 1302.1 471.437 1300.17C438.766 1299.2 406.095 1298.17 373.436 1297.51C357.088 1297.15 340.817 1297.08 324.52 1297.64C308.223 1298.21 291.939 1299.23 275.68 1300.63C243.164 1303.46 210.776 1307.75 178.568 1313.12C162.469 1315.82 146.408 1318.77 130.385 1321.99C114.385 1325.23 98.4094 1328.68 82.5888 1332.58L78.5 1334V1331L81.958 1330.13Z" fill="#548DD1"/>
<path d="M145.035 1317.51C147.752 1320.13 150.111 1323.1 152.05 1326.33C154.031 1329.62 155.724 1333.06 157.109 1336.64C157.766 1338.43 158.397 1340.23 158.963 1342.07C159.529 1343.91 159.993 1345.78 160.443 1347.66C160.894 1349.54 161.177 1351.45 161.55 1353.35C161.924 1355.26 162.04 1357.21 162.284 1359.12L156.35 1354.59C163.803 1352.82 171.102 1351.38 178.491 1349.94C185.88 1348.5 193.205 1347.12 200.594 1345.9C215.346 1343.32 230.201 1341.22 244.966 1339.2C252.368 1338.16 259.796 1337.33 267.21 1336.38C270.918 1335.89 274.638 1335.5 278.345 1335.09L289.493 1333.92C296.921 1333.04 304.361 1332.44 311.802 1331.76L322.962 1330.75C326.67 1330.42 330.403 1330.21 334.123 1329.94C363.911 1327.56 393.763 1326.41 423.602 1325.64C453.441 1324.87 483.331 1325.38 513.132 1325.87C542.932 1326.36 572.771 1326.4 602.572 1325.87C632.372 1325.34 662.186 1324.43 691.909 1322.5C706.764 1321.54 721.62 1320.4 736.41 1318.81C751.201 1317.23 766.018 1315.4 780.551 1312.85C795.107 1310.44 809.477 1307.03 823.559 1302.63C830.427 1300.46 840.074 1299.64 846.409 1296.22C849.406 1294.55 852.227 1292.58 854.828 1290.34C857.193 1288.34 859.121 1285.87 860.492 1283.09L862.925 1278.96L866.786 1280.94L867.906 1281.51L869.116 1282.09L871.524 1283.24L876.454 1285.45C879.788 1286.87 883.122 1288.28 886.495 1289.61L893.703 1291.47L904.001 1295.05C917.839 1299.59 931.832 1303.82 946.031 1307.24C974.456 1314.17 1003.25 1319.49 1032.28 1323.17C1046.84 1324.65 1061.37 1326.45 1076.05 1327.26L1087 1328.03L1092.48 1328.42L1097.97 1328.61L1119.93 1329.35L1125.43 1329.54C1127.25 1329.54 1129.08 1329.54 1130.91 1329.54H1141.9C1149.24 1329.54 1156.55 1329.54 1163.89 1329.54L1185.94 1329.21L1196.97 1329.03H1207.99H1230.06L1252.11 1329.24C1266.82 1329.24 1281.52 1329.85 1296.22 1330.18C1310.92 1330.79 1325.62 1331.27 1340.31 1332.14C1355.01 1332.82 1369.7 1333.93 1384.37 1335C1413.72 1337.34 1443.02 1340.71 1472.17 1345.3C1501.31 1349.9 1530.31 1356.25 1558.5 1366.44L1552.07 1370.62C1552.66 1365.55 1553.52 1360.52 1554.64 1355.54C1555.74 1350.59 1557.13 1345.72 1558.81 1340.94C1560.49 1336.11 1562.69 1331.48 1565.39 1327.15C1568.19 1322.88 1571.83 1318.83 1576.54 1316.66L1577.31 1318.14C1573.31 1320.64 1570.58 1324.67 1568.53 1328.91C1566.56 1333.25 1565.09 1337.8 1564.13 1342.47C1563.14 1347.17 1562.43 1351.93 1562.02 1356.71C1561.58 1361.46 1561.39 1366.23 1561.44 1370.99L1561.03 1377.55L1555.04 1375.18C1528.2 1364.61 1499.6 1357.92 1470.87 1352.73L1460.05 1350.87C1456.45 1350.24 1452.84 1349.58 1449.21 1349.15L1438.43 1347.47C1434.81 1346.94 1431.19 1346.4 1427.55 1345.99C1420.28 1345.12 1413.02 1344.2 1405.67 1343.41L1383.78 1341.21C1369.18 1339.92 1354.57 1338.71 1339.94 1337.86C1332.61 1337.37 1325.3 1336.92 1317.98 1336.57L1295.99 1335.61C1281.33 1335.22 1266.67 1334.63 1251.99 1334.51L1229.99 1334.2H1207.98H1196.97L1185.97 1334.33L1163.95 1334.59L1141.86 1334.69H1130.82C1128.98 1334.69 1127.14 1334.69 1125.3 1334.69L1119.77 1334.52L1097.7 1333.84L1092.18 1333.66L1086.67 1333.31L1075.63 1332.62C1060.92 1331.91 1046.27 1330.22 1031.6 1328.83C1002.26 1325.56 973.137 1320.64 944.357 1314.09C937.136 1312.54 930.017 1310.58 922.847 1308.79C919.242 1307.93 915.702 1306.85 912.149 1305.85C908.597 1304.84 905.018 1303.86 901.491 1302.72L890.909 1299.34L883.392 1297.67C879.917 1296.38 876.428 1295.1 872.953 1293.72L867.803 1291.61L865.229 1290.47L863.942 1289.89L862.577 1289.26L868.923 1287.12C866.857 1290.99 864.012 1294.38 860.569 1297.09C857.407 1299.6 853.995 1301.78 850.387 1303.6C843.473 1307.04 833.255 1307.83 825.825 1309.93C811.286 1313.99 796.48 1317.02 781.517 1319.01C751.806 1323.26 721.954 1325.3 692.128 1326.73C632.437 1329.45 572.733 1329.42 513.068 1328.55L490.695 1328.15L468.348 1328.03H457.161C453.441 1328.03 449.721 1328.14 445.987 1328.18L423.64 1328.57C416.2 1328.69 408.759 1329.14 401.319 1329.42C393.878 1329.71 386.425 1329.99 378.998 1330.54L356.728 1332.01C349.3 1332.55 341.885 1333.3 334.458 1333.92C330.75 1334.27 327.043 1334.54 323.336 1334.94L312.239 1336.15C304.837 1336.96 297.423 1337.7 290.047 1338.72L278.976 1340.18C275.281 1340.65 271.6 1341.14 267.918 1341.71C260.555 1342.84 253.192 1343.86 245.854 1345.1C231.179 1347.57 216.543 1350.25 201.997 1353.29C194.711 1354.76 187.476 1356.4 180.242 1358.06C173.007 1359.73 165.799 1361.63 158.821 1363.64L153.222 1365.25L152.887 1359.11C153.016 1357.36 153.183 1355.61 153.273 1353.84C153.363 1352.08 153.402 1350.31 153.273 1348.56C153.145 1346.81 153.157 1345.02 152.951 1343.27C152.745 1341.52 152.527 1339.74 152.269 1337.98C151.642 1334.47 150.716 1331.02 149.502 1327.67C148.293 1324.26 146.635 1321.02 144.571 1318.04L145.035 1317.51Z" fill="#548DD1"/>
<path d="M67.0783 85.595C61.6059 85.7453 56.0838 86.1962 50.628 86.8307C45.1797 87.446 39.7664 88.3433 34.4098 89.5192C29.134 90.628 23.9671 92.2096 18.971 94.2449C14.2542 96.041 10.0063 98.8965 6.55029 102.594L7.42919 99.6386C15.1071 149.952 27.8097 243.07 34.4098 293.5C41.0098 343.93 39.194 369.97 44.9151 420.5C50.1286 465.093 63.9049 508.916 67.9989 553.909C72.9738 604.522 74.0698 650.336 78 701L86 750.5L84 765.5L74.3417 706C69.9638 655.353 68.42 606.723 63.014 556.176C58.5024 511.221 46.0964 465.504 40.5041 420.984C34.3352 370.543 35.6867 344.592 28.5891 294.251C21.5413 243.922 8.39101 150.87 0.281908 100.741L0 98.9706L1.16081 97.785C5.58965 93.5558 10.9391 90.4278 16.782 88.6508C22.1845 86.8663 27.7341 85.5698 33.365 84.7767C38.9286 83.9641 44.53 83.4402 50.1471 83.2071C55.7521 82.9566 61.324 82.9065 66.9457 83.2071L77 82.5V84.5L67.0783 85.595Z" fill="#548DD1"/>
<path d="M1663.54 101C1672.78 101.233 1681.99 102.267 1691.05 104.089C1695.69 105.041 1700.23 106.408 1704.62 108.173C1709.33 109.993 1713.64 112.739 1717.27 116.249L1718.5 117.55L1718.19 119.356C1712.45 153.991 1707.08 188.735 1701.93 223.478C1696.78 258.222 1691.72 293.019 1686.93 327.817C1682.14 362.614 1677.46 397.466 1673.07 432.336C1668.67 467.206 1664.41 502.094 1660.31 537L1649 603.5C1652.61 568.54 1665.86 466.881 1669.87 432.011C1673.88 397.141 1678.02 362.181 1682.34 327.221C1686.66 292.26 1691.25 257.463 1695.96 222.611C1700.68 187.759 1705.61 152.962 1710.91 118.164L1711.81 121.272C1709.1 118.194 1705.81 115.682 1702.13 113.882C1698.21 111.894 1694.12 110.267 1689.91 109.022C1681.27 106.459 1672.42 104.646 1663.47 103.602L1653 103.5V101H1663.54Z" fill="#548DD1"/>
<path d="M866 990V424" stroke="#548DD1" stroke-width="5"/>
<path d="M863 1283.5L866 987" stroke="#548DD1" stroke-width="5"/>
<path d="M865.5 426L867 51" stroke="#548DD1" stroke-width="5"/>
</svg>
