<svg width="447" height="522" viewBox="0 0 447 522" fill="none" xmlns="http://www.w3.org/2000/svg">
<path fill-rule="evenodd" clip-rule="evenodd" d="M56.3562 14.3623C51.7533 1.5216 30.091 -0.604492 28.7289 1.52633C27.2332 3.91551 25.8326 6.15641 24.5017 8.28577C18.2743 18.2496 13.5733 25.7711 7.78851 34.6138C-3.6156 52.0471 -2.78568 54.8538 15.0667 65.0056C18.6577 67.047 22.5378 72.0314 22.8032 75.8969C23.7217 89.272 22.8056 152.45 21.9068 214.437L21.9068 214.438C21.05 273.525 20.209 331.529 20.9874 344.286C22.2367 364.755 22.0614 389.74 21.8848 414.922C21.6916 442.457 21.4968 470.227 23.1607 492.588C23.8981 502.499 25.5798 513.461 36.8211 516.785C47.3433 519.896 58.6881 522.301 69.5396 521.851C104.672 520.393 149.796 518.057 184.825 514.956C199.64 513.645 244.33 512.822 290.865 511.965L290.869 511.965H290.87C343.549 510.995 398.592 509.981 415.336 508.166C423.897 507.238 427.448 502.757 427.276 494.561C426.938 478.467 426.783 459.321 426.623 439.509C426.372 408.579 426.108 376.023 425.117 350.915C424.604 337.923 424.83 289.177 425.078 235.779C425.401 166.134 425.761 88.5756 424.566 72.1145C426.378 70.9316 428.161 69.849 429.892 68.7982C433.595 66.5503 437.058 64.4476 440.058 61.818C446.875 55.8427 449.687 49.931 441.112 41.7585C435.756 36.6539 431.193 30.7365 426.622 24.8096C423.554 20.8313 420.482 16.848 417.166 13.1041C413.248 8.68046 407 2 403.896 2.28062C400.792 2.56124 392.464 13.0836 387.622 19.3357L387.524 19.4614C386.569 20.6946 386.548 22.6501 386.521 25.2137V25.2158C386.507 26.5933 386.491 28.1469 386.326 29.8577C354.03 30.1706 287.017 29.5844 219.875 28.997C152.475 28.4073 82.6754 27.6835 50 28C50.551 25.8904 53.7302 24.0602 54.576 22.2357C55.9599 19.2509 57.1715 16.6374 56.3562 14.3623ZM31.1295 56.3208C31.6565 54.6288 39.1754 43.4261 39.5 42C47.0001 33.867 47.4367 31.0868 58.6571 31.1712C101.536 31.4904 149.802 31.47 195.55 31.4506H195.576C212.16 31.4436 228.412 31.4367 243.957 31.4463C249.116 31.4499 384.896 31.4829 389.805 32.6543C392.991 33.4139 394.5 35.5 398.938 41C403 44.9997 405 48 413 57.5C418.006 63.445 420 64.5 422 69.5C423.381 90.667 422.479 153.291 422 227C421.626 284.521 421.386 286.958 422 303.5C422.641 320.745 422.407 372.91 422.5 395.5L423 437C423.08 456.541 423.57 476.577 424 491.5C424.418 506 417.496 504.996 407 505.5C380.659 506.767 336.11 509.366 276 510C206.893 510.729 195.265 511.678 165 513.5C159.77 513.815 105.222 516.907 100 517.5C92.0586 518.402 63.4323 517.581 55.5 517.5C41.255 517.354 28.0976 514.234 27 500C25.9505 486.392 24.1984 469.66 24.5 451C24.7864 433.283 25.3777 408.427 24.5 395.5C22.8764 371.592 24.7413 290.926 25 215.5C25.2141 153.083 27.3986 90.8091 26.5 71C26.2919 66.4102 24.5017 63.8216 31.1295 56.3208ZM389 23C390 19 401.5 4.23474 405 4.5C408.5 4.76526 445.277 47 444.5 51.5C443.723 56 429 68.5 426 68C423 67.5 406.866 44.4668 397.5 34C397.5 34 388 27 389 23ZM22 64.8216C19.4983 64.6375 4.5 55.1925 3.14597 50.8199C1.79194 46.4473 13.8033 28.5478 21 17.5C21 17.5 29.449 3.5 32.4745 3.5C35.5 3.5 53 11 54 15C54.5442 17.177 44.7587 30.796 36.2342 43.6396C29.0957 54.395 23.1402 64.9054 22 64.8216Z" fill="#27AEE4"/>
<path fill-rule="evenodd" clip-rule="evenodd" d="M80.5999 63.3156C90.0852 62.9697 92.5011 58 90.5 51C89.6424 48 87.6809 46.8783 84.2777 46.0546L84.2159 46.0396C77.6682 44.4558 72.7644 47.6802 73.6586 54.6913C74.0795 57.9935 78.2788 63.4002 80.5999 63.3156ZM77.5 49C72 56 82.5 64.5012 87.5 59.5C91.9989 55 86.5 43 77.5 49Z" fill="#27AEE4"/>
<path fill-rule="evenodd" clip-rule="evenodd" d="M365.999 62C360.686 61.4661 359.161 56.5801 358.705 53.2879C357.809 46.8144 361.736 43.1834 367.796 45.188C371.125 46.2895 375.983 51.327 375.481 53.5256C374.625 57.2702 373.097 61.8233 365.999 62ZM361 48.5C363.172 42.0021 374.627 48.5347 373 54.5C372.117 57.7359 373.5 60.5 365.999 60C358.649 59.5101 359.927 51.7092 361 48.5Z" fill="#27AEE4"/>
<path fill-rule="evenodd" clip-rule="evenodd" d="M338.627 55.0821C339.357 52.8708 338.953 46.9843 329.999 44.9997C324.865 45.006 321.299 52.2564 321.659 55.1925C322.052 58.3985 324.677 63.0683 329.088 63.445C333.5 63.8216 337.431 58.701 338.627 55.0821ZM326 59.5C322 55.1 324.833 49.3333 327 47.5C333.366 44.5618 335.499 49.1736 336.5 52.5C338.163 58.0205 330.458 64.4039 326 59.5Z" fill="#27AEE4"/>
<path fill-rule="evenodd" clip-rule="evenodd" d="M299.999 47.0001C304.666 47 307.017 50.465 307.493 54.6697C308.446 63.0999 299 64.5 295.678 63.8216C292.356 63.1431 289.234 61.3292 289.367 56.1646C289.5 51 294.998 47.0002 299.999 47.0001ZM293.5 60.5C288.7 57.5435 291.5 51 295.678 49.9999C304.856 47.8312 306.5 50.5 306 56C305.5 61.5 299.5 64.1957 293.5 60.5Z" fill="#27AEE4"/>
<path fill-rule="evenodd" clip-rule="evenodd" d="M265.6 63.3156C269.87 63.1599 273.998 61.4996 275.999 57.9998C278 54.5 279.285 48.4767 269.278 46.0546L269.216 46.0396C262.668 44.4558 257.764 47.6802 258.658 54.6913C259.079 57.9935 263.279 63.4002 265.6 63.3156ZM263.5 60C258.878 58.0959 259.5 50 263 48C275.054 45.5892 276.018 50.7007 276 54C275.966 60.2282 268.457 62.042 263.5 60Z" fill="#27AEE4"/>
<path fill-rule="evenodd" clip-rule="evenodd" d="M238.518 59.6199C234.037 59.5599 232.602 52.5357 232.907 48.9936C234.381 43.6831 242.994 43.4996 244.999 43.9998C249.844 45.2086 249.701 52.0467 248 55.458C246.162 59.1446 242.41 59.3814 238.518 59.6199ZM236.5 56.5C232.9 53.4535 235 47.7166 237 46C244.34 42.4413 249.135 49.5902 247.5 53.5C246.327 56.306 241 60.3081 236.5 56.5Z" fill="#27AEE4"/>
<path fill-rule="evenodd" clip-rule="evenodd" d="M120.999 47.0001C127.859 47.908 128.126 50.7856 128.407 53.8065C128.433 54.0934 128.46 54.3817 128.493 54.6697C129.446 63.0999 122.359 64.1345 116.678 63.8216C114.278 63.689 109.833 58.1608 110.367 56.1646C110.432 55.922 110.493 55.6865 110.552 55.458C111.497 51.812 111.999 49.8749 120.999 47.0001ZM115 60C112.278 56.7335 114 52.5 116 51C122 48.1935 127 51.462 127 55.458C127 59.454 120 66 115 60Z" fill="#27AEE4"/>
<path fill-rule="evenodd" clip-rule="evenodd" d="M159.627 55.0821C160.357 52.8708 159.953 46.9843 150.999 44.9997C145.865 45.006 142.299 52.2564 142.659 55.1925C143.052 58.3985 148.284 63.9199 150.089 63.445C153.913 62.4382 158.431 58.701 159.627 55.0821ZM148.5 59.5C142 56.7916 144.5 51 147 49C153 45.7325 157 49.6935 158 52.5C159 55.3065 154.5 62 148.5 59.5Z" fill="#27AEE4"/>
<path fill-rule="evenodd" clip-rule="evenodd" d="M180.999 62C175.686 61.4661 174.161 56.5801 173.705 53.2879C172.809 46.8144 176.736 43.1834 182.796 45.188C186.125 46.2895 190.983 51.327 190.481 53.5256C189.625 57.2702 188.097 61.8233 180.999 62ZM179 59.5C174.72 57.9 174.5 49.5 177 47.5C182.201 44.3592 189 50 188 55.5C187.44 58.5803 184.35 61.5 179 59.5Z" fill="#27AEE4"/>
<path fill-rule="evenodd" clip-rule="evenodd" d="M209.525 61.0217C218.477 61.7044 223.058 54.7312 216.999 46.0002C210.929 45.0273 208.846 47.2965 206.34 50.0272C203.705 52.897 204.519 60.6401 209.525 61.0217ZM208.5 58.5C204.1 56.0825 205 50.5 211 47.5C217 44.5 218.5 50.0272 218.5 55C218.5 57.9583 214 61.5219 208.5 58.5Z" fill="#27AEE4"/>
</svg>
