<svg width="575" height="811" viewBox="0 0 575 811" fill="none" xmlns="http://www.w3.org/2000/svg">
<path fill-rule="evenodd" clip-rule="evenodd" d="M552 2.00003C552 2.00003 507 380 547 795C548.229 807.747 546 810 546 810L544 809C544 809 545.603 802.914 544 792C542.397 781.085 527 614.397 527 438C527 261.604 534.744 129.994 549 2.00003C549.451 -2.04482 552 2.00003 552 2.00003Z" fill="#27AEE4"/>
<path fill-rule="evenodd" clip-rule="evenodd" d="M553.71 1.57707C553.71 1.57707 564.722 158.533 566.021 312.516C566.905 417.308 567.094 520.062 560.662 571.747C558.594 588.363 562.808 584.735 563.759 571.954C566.894 529.815 568.292 484.297 569.289 438.133C573.099 261.73 568.198 129.949 556.709 1.64181C556.347 -2.41283 553.71 1.57707 553.71 1.57707Z" fill="#27AEE4"/>
<path fill-rule="evenodd" clip-rule="evenodd" d="M39.0004 1.99992C39.0004 1.99992 1.00035 96.9996 1.00034 412C1.00033 727 51.1354 808.291 70.0002 809C77.6557 809.287 78.3623 809 80.0003 809C82.0561 809 81.5 807.316 77.0003 807C69.428 806.469 6.00017 790.663 6.00019 411C6.0002 118.682 33.0901 38.7577 43.0003 2.99989C43.3491 1.74203 39.0004 1.99992 39.0004 1.99992Z" fill="#27AEE4"/>
<path fill-rule="evenodd" clip-rule="evenodd" d="M558 577L558 581L535 580L535 577L558 577Z" fill="#27AEE4"/>
<g clip-path="url(#clip0)">
<mask id="path-5-inside-1" fill="white">
<path d="M526 19.9998L499 20.9998C499 20.9998 486.292 12 499 12L526 12C526 12 536.138 19.4209 526 19.9998Z"/>
<path d="M527 793C527 793 528.592 799.147 529 800C529.408 800.853 492.332 801.142 492 800C491.669 798.858 491 794 491 794L527 793Z"/>
<path d="M487 777C487.203 776.434 525 777 525 777C526.088 777.544 525 786 525 786C525 786 490.425 786.453 489 785C487.575 783.548 486.798 777.566 487 777Z"/>
<path d="M524 755C524 755 486.741 754.74 485 755C483.711 755.192 484.291 758.561 484.709 760.982C484.855 761.83 484.981 762.562 485 763C485.072 764.689 486.031 766.771 488 767C489.969 767.229 525 766 525 766C525 766 524.726 755.725 524 755Z"/>
<path d="M483 725L521 725C522.995 726.451 521 739 521 739C521 739 484.528 740.207 482 738C479.472 735.793 483 725 483 725Z"/>
<path d="M517 689L481 689C481 689 477.104 700.25 480 703C482.321 705.203 503.637 704.443 512.852 704.114L512.86 704.114L512.863 704.113L512.891 704.112C515.154 704.032 516.679 703.977 517 704C518.623 704.117 519.902 691.358 517 689Z"/>
<path d="M479 646L515 646C517.902 646.181 516 665 516 665C516 665 483.077 665.67 479 665C474.923 664.33 479 646 479 646Z"/>
<path d="M511 598L480 599C480 599 472.903 600.762 474 611C475.067 620.946 475.988 620.951 484.254 620.996L485 621C490.19 621.033 496.653 620.692 502.201 620.4L502.204 620.4C506.231 620.187 509.776 620 512 620C517.29 620 521.156 598.544 511 598Z"/>
<path d="M478 542L513 540C516.627 539.849 517 531.098 517 527C517 522.902 513.989 515 511 515C509.65 515 503.879 515.204 497.555 515.427L497.521 515.429L497.483 515.43L497.482 515.43C489.823 515.701 481.375 516 479 516C474.655 516 474 516.857 474 529C474 541.143 478 542 478 542Z"/>
<path d="M511 468L474 469C474 469 472 471.369 472 481C472 490.631 472.685 492 476 492C479.315 492 511 491 511 491C511 491 514 486.505 514 480C514 473.495 513.172 468 511 468Z"/>
<path d="M473 417L510 416C510 416 513 421.224 513 428C513 434.776 511.28 440 508 440C506.369 440 499.026 440.248 491.644 440.496L491.642 440.496C484.182 440.748 476.684 441 475 441C471.651 441 470 440.532 470 431C470 421.468 473 417 473 417Z"/>
<path d="M510 360L477 360C477 360 469 361.426 469 378C469 392.216 472.792 391.609 475.667 391.149C476.144 391.072 476.595 391 477 391C478.372 391 485.091 390.536 492.052 390.054L492.054 390.054C499.536 389.537 507.297 389 509 389C512.287 389 515 384.969 515 375C515 365.032 512.317 360.29 510 360Z"/>
<path d="M517 320C517 334.399 511 336 511 336L478 336C472.968 336 471 326.455 471 319C471 311.545 475 306 475 306L511 306C511.097 306 511.192 306 511.287 305.999C514.761 305.989 517 305.983 517 320Z"/>
<path d="M515 249L477 249C477 249 473 251.417 473 262C473 272.582 474.678 278 479 278L513 278C513 278 518 274.244 518 264C518 253.756 515 249 515 249Z"/>
<path d="M480 221L513 220C517.634 220.289 521 212.049 521 205C521 197.951 517 194 517 194L484 194C475.699 194 475 194.96 475 208C475 221.04 480 221 480 221Z"/>
<path d="M513 168L478 168C478 168 476 164.333 476 153C476 141.667 478.223 138 487 138C495.777 138 515 140 515 140C515 140 521 143.245 521 151C521 158.756 516.766 168.579 513 168Z"/>
<path d="M483 117L513 116C516.187 116.29 520 113.283 520 105C520 96.7178 515 95.0001 515 95.0001C515 95.0001 498.067 94.0002 487 94.0002C476 94.0002 476 97.8851 476 106.838L476 107C476 116.068 483 117 483 117Z"/>
<path d="M517 74.9999L486 75.9999C486 75.9999 481 78.3828 481 67.0001C481 66.4478 480.999 65.9186 480.997 65.4114L480.997 65.4072C480.971 55.4638 480.967 53.9997 492 53.9997L519 53.9997C519 53.9997 523 56.163 523 64.0002C523 71.8374 521.345 74.7104 517 74.9999Z"/>
<path d="M491 44.9999L521 43.9999C524.186 43.9999 524 29.0003 524 29.0003L495 29.0003C484.085 29.0003 491 44.9999 491 44.9999Z"/>
<path d="M480 561L511 560C521.156 560.544 517.29 582 512 582C509.776 582 506.231 582.187 502.204 582.399C496.656 582.692 490.191 583.033 485 583C484.745 582.998 484.496 582.997 484.254 582.995C475.988 582.952 475.067 582.947 474 573C472.903 562.762 480 561 480 561Z"/>
</mask>
<path d="M526 19.9998L499 20.9998C499 20.9998 486.292 12 499 12L526 12C526 12 536.138 19.4209 526 19.9998Z" fill="black" fill-opacity="0.01"/>
<path d="M527 793C527 793 528.592 799.147 529 800C529.408 800.853 492.332 801.142 492 800C491.669 798.858 491 794 491 794L527 793Z" fill="black" fill-opacity="0.01"/>
<path d="M487 777C487.203 776.434 525 777 525 777C526.088 777.544 525 786 525 786C525 786 490.425 786.453 489 785C487.575 783.548 486.798 777.566 487 777Z" fill="black" fill-opacity="0.01"/>
<path d="M524 755C524 755 486.741 754.74 485 755C483.711 755.192 484.291 758.561 484.709 760.982C484.855 761.83 484.981 762.562 485 763C485.072 764.689 486.031 766.771 488 767C489.969 767.229 525 766 525 766C525 766 524.726 755.725 524 755Z" fill="black" fill-opacity="0.01"/>
<path d="M483 725L521 725C522.995 726.451 521 739 521 739C521 739 484.528 740.207 482 738C479.472 735.793 483 725 483 725Z" fill="black" fill-opacity="0.01"/>
<path d="M517 689L481 689C481 689 477.104 700.25 480 703C482.321 705.203 503.637 704.443 512.852 704.114L512.86 704.114L512.863 704.113L512.891 704.112C515.154 704.032 516.679 703.977 517 704C518.623 704.117 519.902 691.358 517 689Z" fill="black" fill-opacity="0.01"/>
<path d="M479 646L515 646C517.902 646.181 516 665 516 665C516 665 483.077 665.67 479 665C474.923 664.33 479 646 479 646Z" fill="black" fill-opacity="0.01"/>
<path d="M511 598L480 599C480 599 472.903 600.762 474 611C475.067 620.946 475.988 620.951 484.254 620.996L485 621C490.19 621.033 496.653 620.692 502.201 620.4L502.204 620.4C506.231 620.187 509.776 620 512 620C517.29 620 521.156 598.544 511 598Z" fill="black" fill-opacity="0.01"/>
<path d="M478 542L513 540C516.627 539.849 517 531.098 517 527C517 522.902 513.989 515 511 515C509.65 515 503.879 515.204 497.555 515.427L497.521 515.429L497.483 515.43L497.482 515.43C489.823 515.701 481.375 516 479 516C474.655 516 474 516.857 474 529C474 541.143 478 542 478 542Z" fill="black" fill-opacity="0.01"/>
<path d="M511 468L474 469C474 469 472 471.369 472 481C472 490.631 472.685 492 476 492C479.315 492 511 491 511 491C511 491 514 486.505 514 480C514 473.495 513.172 468 511 468Z" fill="black" fill-opacity="0.01"/>
<path d="M473 417L510 416C510 416 513 421.224 513 428C513 434.776 511.28 440 508 440C506.369 440 499.026 440.248 491.644 440.496L491.642 440.496C484.182 440.748 476.684 441 475 441C471.651 441 470 440.532 470 431C470 421.468 473 417 473 417Z" fill="black" fill-opacity="0.01"/>
<path d="M510 360L477 360C477 360 469 361.426 469 378C469 392.216 472.792 391.609 475.667 391.149C476.144 391.072 476.595 391 477 391C478.372 391 485.091 390.536 492.052 390.054L492.054 390.054C499.536 389.537 507.297 389 509 389C512.287 389 515 384.969 515 375C515 365.032 512.317 360.29 510 360Z" fill="black" fill-opacity="0.01"/>
<path d="M517 320C517 334.399 511 336 511 336L478 336C472.968 336 471 326.455 471 319C471 311.545 475 306 475 306L511 306C511.097 306 511.192 306 511.287 305.999C514.761 305.989 517 305.983 517 320Z" fill="black" fill-opacity="0.01"/>
<path d="M515 249L477 249C477 249 473 251.417 473 262C473 272.582 474.678 278 479 278L513 278C513 278 518 274.244 518 264C518 253.756 515 249 515 249Z" fill="black" fill-opacity="0.01"/>
<path d="M480 221L513 220C517.634 220.289 521 212.049 521 205C521 197.951 517 194 517 194L484 194C475.699 194 475 194.96 475 208C475 221.04 480 221 480 221Z" fill="black" fill-opacity="0.01"/>
<path d="M513 168L478 168C478 168 476 164.333 476 153C476 141.667 478.223 138 487 138C495.777 138 515 140 515 140C515 140 521 143.245 521 151C521 158.756 516.766 168.579 513 168Z" fill="black" fill-opacity="0.01"/>
<path d="M483 117L513 116C516.187 116.29 520 113.283 520 105C520 96.7178 515 95.0001 515 95.0001C515 95.0001 498.067 94.0002 487 94.0002C476 94.0002 476 97.8851 476 106.838L476 107C476 116.068 483 117 483 117Z" fill="black" fill-opacity="0.01"/>
<path d="M517 74.9999L486 75.9999C486 75.9999 481 78.3828 481 67.0001C481 66.4478 480.999 65.9186 480.997 65.4114L480.997 65.4072C480.971 55.4638 480.967 53.9997 492 53.9997L519 53.9997C519 53.9997 523 56.163 523 64.0002C523 71.8374 521.345 74.7104 517 74.9999Z" fill="black" fill-opacity="0.01"/>
<path d="M491 44.9999L521 43.9999C524.186 43.9999 524 29.0003 524 29.0003L495 29.0003C484.085 29.0003 491 44.9999 491 44.9999Z" fill="black" fill-opacity="0.01"/>
<path d="M480 561L511 560C521.156 560.544 517.29 582 512 582C509.776 582 506.231 582.187 502.204 582.399C496.656 582.692 490.191 583.033 485 583C484.745 582.998 484.496 582.997 484.254 582.995C475.988 582.952 475.067 582.947 474 573C472.903 562.762 480 561 480 561Z" fill="black" fill-opacity="0.01"/>
<path d="M526 19.9998L499 20.9998C499 20.9998 486.292 12 499 12L526 12C526 12 536.138 19.4209 526 19.9998Z" stroke="#27AEE4" stroke-width="4" mask="url(#path-5-inside-1)"/>
<path d="M527 793C527 793 528.592 799.147 529 800C529.408 800.853 492.332 801.142 492 800C491.669 798.858 491 794 491 794L527 793Z" stroke="#27AEE4" stroke-width="4" mask="url(#path-5-inside-1)"/>
<path d="M487 777C487.203 776.434 525 777 525 777C526.088 777.544 525 786 525 786C525 786 490.425 786.453 489 785C487.575 783.548 486.798 777.566 487 777Z" stroke="#27AEE4" stroke-width="4" mask="url(#path-5-inside-1)"/>
<path d="M524 755C524 755 486.741 754.74 485 755C483.711 755.192 484.291 758.561 484.709 760.982C484.855 761.83 484.981 762.562 485 763C485.072 764.689 486.031 766.771 488 767C489.969 767.229 525 766 525 766C525 766 524.726 755.725 524 755Z" stroke="#27AEE4" stroke-width="4" mask="url(#path-5-inside-1)"/>
<path d="M483 725L521 725C522.995 726.451 521 739 521 739C521 739 484.528 740.207 482 738C479.472 735.793 483 725 483 725Z" stroke="#27AEE4" stroke-width="4" mask="url(#path-5-inside-1)"/>
<path d="M517 689L481 689C481 689 477.104 700.25 480 703C482.321 705.203 503.637 704.443 512.852 704.114L512.86 704.114L512.863 704.113L512.891 704.112C515.154 704.032 516.679 703.977 517 704C518.623 704.117 519.902 691.358 517 689Z" stroke="#27AEE4" stroke-width="4" mask="url(#path-5-inside-1)"/>
<path d="M479 646L515 646C517.902 646.181 516 665 516 665C516 665 483.077 665.67 479 665C474.923 664.33 479 646 479 646Z" stroke="#27AEE4" stroke-width="4" mask="url(#path-5-inside-1)"/>
<path d="M511 598L480 599C480 599 472.903 600.762 474 611C475.067 620.946 475.988 620.951 484.254 620.996L485 621C490.19 621.033 496.653 620.692 502.201 620.4L502.204 620.4C506.231 620.187 509.776 620 512 620C517.29 620 521.156 598.544 511 598Z" stroke="#27AEE4" stroke-width="4" mask="url(#path-5-inside-1)"/>
<path d="M478 542L513 540C516.627 539.849 517 531.098 517 527C517 522.902 513.989 515 511 515C509.65 515 503.879 515.204 497.555 515.427L497.521 515.429L497.483 515.43L497.482 515.43C489.823 515.701 481.375 516 479 516C474.655 516 474 516.857 474 529C474 541.143 478 542 478 542Z" stroke="#27AEE4" stroke-width="4" mask="url(#path-5-inside-1)"/>
<path d="M511 468L474 469C474 469 472 471.369 472 481C472 490.631 472.685 492 476 492C479.315 492 511 491 511 491C511 491 514 486.505 514 480C514 473.495 513.172 468 511 468Z" stroke="#27AEE4" stroke-width="4" mask="url(#path-5-inside-1)"/>
<path d="M473 417L510 416C510 416 513 421.224 513 428C513 434.776 511.28 440 508 440C506.369 440 499.026 440.248 491.644 440.496L491.642 440.496C484.182 440.748 476.684 441 475 441C471.651 441 470 440.532 470 431C470 421.468 473 417 473 417Z" stroke="#27AEE4" stroke-width="4" mask="url(#path-5-inside-1)"/>
<path d="M510 360L477 360C477 360 469 361.426 469 378C469 392.216 472.792 391.609 475.667 391.149C476.144 391.072 476.595 391 477 391C478.372 391 485.091 390.536 492.052 390.054L492.054 390.054C499.536 389.537 507.297 389 509 389C512.287 389 515 384.969 515 375C515 365.032 512.317 360.29 510 360Z" stroke="#27AEE4" stroke-width="4" mask="url(#path-5-inside-1)"/>
<path d="M517 320C517 334.399 511 336 511 336L478 336C472.968 336 471 326.455 471 319C471 311.545 475 306 475 306L511 306C511.097 306 511.192 306 511.287 305.999C514.761 305.989 517 305.983 517 320Z" stroke="#27AEE4" stroke-width="4" mask="url(#path-5-inside-1)"/>
<path d="M515 249L477 249C477 249 473 251.417 473 262C473 272.582 474.678 278 479 278L513 278C513 278 518 274.244 518 264C518 253.756 515 249 515 249Z" stroke="#27AEE4" stroke-width="4" mask="url(#path-5-inside-1)"/>
<path d="M480 221L513 220C517.634 220.289 521 212.049 521 205C521 197.951 517 194 517 194L484 194C475.699 194 475 194.96 475 208C475 221.04 480 221 480 221Z" stroke="#27AEE4" stroke-width="4" mask="url(#path-5-inside-1)"/>
<path d="M513 168L478 168C478 168 476 164.333 476 153C476 141.667 478.223 138 487 138C495.777 138 515 140 515 140C515 140 521 143.245 521 151C521 158.756 516.766 168.579 513 168Z" stroke="#27AEE4" stroke-width="4" mask="url(#path-5-inside-1)"/>
<path d="M483 117L513 116C516.187 116.29 520 113.283 520 105C520 96.7178 515 95.0001 515 95.0001C515 95.0001 498.067 94.0002 487 94.0002C476 94.0002 476 97.8851 476 106.838L476 107C476 116.068 483 117 483 117Z" stroke="#27AEE4" stroke-width="4" mask="url(#path-5-inside-1)"/>
<path d="M517 74.9999L486 75.9999C486 75.9999 481 78.3828 481 67.0001C481 66.4478 480.999 65.9186 480.997 65.4114L480.997 65.4072C480.971 55.4638 480.967 53.9997 492 53.9997L519 53.9997C519 53.9997 523 56.163 523 64.0002C523 71.8374 521.345 74.7104 517 74.9999Z" stroke="#27AEE4" stroke-width="4" mask="url(#path-5-inside-1)"/>
<path d="M491 44.9999L521 43.9999C524.186 43.9999 524 29.0003 524 29.0003L495 29.0003C484.085 29.0003 491 44.9999 491 44.9999Z" stroke="#27AEE4" stroke-width="4" mask="url(#path-5-inside-1)"/>
<path d="M480 561L511 560C521.156 560.544 517.29 582 512 582C509.776 582 506.231 582.187 502.204 582.399C496.656 582.692 490.191 583.033 485 583C484.745 582.998 484.496 582.997 484.254 582.995C475.988 582.952 475.067 582.947 474 573C472.903 562.762 480 561 480 561Z" stroke="#27AEE4" stroke-width="4" mask="url(#path-5-inside-1)"/>
<mask id="path-6-inside-2" fill="white">
<path d="M104.464 792.997L87.2441 791.997C87.2441 791.997 74.4329 801 87.2441 801L104.464 801C104.464 801 114.684 793.577 104.464 792.997Z"/>
<path d="M67.1788 767.989L97.4228 768.989C100.635 768.989 100.447 783.995 100.447 783.995L71.2113 783.995C60.208 783.995 67.1788 767.989 67.1788 767.989Z"/>
<path d="M89.3904 737.98L58.1381 736.98C58.1381 736.98 53.0977 734.596 53.0977 745.983C53.0977 746.536 53.0963 747.067 53.0949 747.575L53.0949 747.576C53.0682 757.522 53.0642 758.986 64.187 758.986L91.4065 758.986C91.4065 758.986 95.439 756.823 95.439 748.984C95.439 741.144 93.7705 738.269 89.3904 737.98Z"/>
<path d="M92.4716 19.7527C92.4716 19.7527 94.0767 13.6036 94.488 12.7498C94.899 11.8968 67.5211 11.6078 67.187 12.7498C66.853 13.8927 66.1789 18.7524 66.1789 18.7524L92.4716 19.7527Z"/>
<path d="M51.1464 35.7574C51.3504 36.3237 89.4553 35.7574 89.4553 35.7574C90.5523 35.2133 89.4553 26.7548 89.4553 26.7548C89.4553 26.7548 54.5991 26.3025 53.1628 27.7551C51.7264 29.2076 50.9424 35.1911 51.1464 35.7574Z"/>
<path d="M85.4473 57.7647C85.4473 57.7647 47.8857 58.0237 46.1301 57.7647C44.8304 57.5724 45.4156 54.2043 45.8364 51.7823C45.9839 50.9332 46.1113 50.2005 46.1301 49.7616C46.203 48.0714 47.1698 45.9893 49.1545 45.7604C51.1393 45.5315 86.4554 46.7607 86.4554 46.7607C86.4554 46.7607 86.1785 57.0385 85.4473 57.7647Z"/>
<path d="M44.1141 87.7736L82.4229 87.7736C84.4339 86.3227 82.4229 73.7695 82.4229 73.7695C82.4229 73.7695 45.6546 72.5625 43.1057 74.7698C40.5571 76.9771 44.1141 87.7736 44.1141 87.7736Z"/>
<path d="M75.3904 123.785L39.0977 123.785C39.0977 123.785 35.1701 112.532 38.0896 109.781C40.4293 107.576 61.9262 108.338 71.2132 108.667C73.5141 108.749 75.0656 108.804 75.3904 108.781C77.0263 108.663 78.3158 121.427 75.3904 123.785Z"/>
<path d="M37.0814 166.799L73.374 166.799C76.2994 166.617 74.3822 147.793 74.3822 147.793C74.3822 147.793 41.1917 147.123 37.0814 147.793C32.9709 148.463 37.0814 166.799 37.0814 166.799Z"/>
<path d="M67.3416 214.814L36.0894 213.814C36.0894 213.814 28.9342 212.052 30.0408 201.81C31.1159 191.86 32.0444 191.856 40.377 191.811L41.1302 191.807C46.3627 191.774 52.8788 192.115 58.4719 192.407L58.4734 192.408C62.5334 192.62 66.1069 192.807 68.3497 192.807C73.6823 192.807 77.5801 214.27 67.3416 214.814Z"/>
<path d="M31.0734 270.832L66.3578 272.832C70.0146 272.984 70.3903 281.738 70.3903 285.837C70.3903 289.936 67.3551 297.841 64.3414 297.841C62.978 297.841 57.1409 297.636 50.7519 297.412L50.7175 297.41L50.7095 297.41L50.7076 297.41L50.7037 297.41L50.6978 297.41C42.9804 297.139 34.4745 296.84 32.0814 296.84C27.7007 296.84 27.0406 295.982 27.0406 283.836C27.0406 271.689 31.0734 270.832 31.0734 270.832Z"/>
<path d="M63.3414 344.855L26.0406 343.855C26.0406 343.855 24.0246 341.485 24.0246 331.851C24.0246 322.217 24.7151 320.848 28.057 320.848C31.399 320.848 63.3414 321.848 63.3414 321.848C63.3414 321.848 66.3659 326.345 66.3659 332.852C66.3659 339.359 65.5316 344.855 63.3414 344.855Z"/>
<path d="M27.0325 395.872L64.3333 396.872C64.3333 396.872 67.3578 391.647 67.3578 384.868C67.3578 378.09 65.6243 372.864 62.3173 372.864C60.6766 372.864 53.3062 372.618 45.8829 372.37L45.8412 372.369L45.8261 372.368C38.3057 372.117 30.746 371.864 29.0489 371.864C25.6721 371.864 24.0081 372.332 24.0081 381.867C24.0081 391.403 27.0325 395.872 27.0325 395.872Z"/>
<path d="M65.3333 452.89L32.065 452.89C32.065 452.89 24 451.464 24 434.884C24 420.663 27.8229 421.27 30.7211 421.731C31.2017 421.807 31.6569 421.88 32.065 421.88C33.4481 421.88 40.2231 422.344 47.2418 422.826C54.7843 423.343 62.6088 423.88 64.3253 423.88C67.6391 423.88 70.3741 427.913 70.3741 437.885C70.3741 447.856 67.6696 452.6 65.3333 452.89Z"/>
<path d="M70.3903 492.902C70.3903 478.499 64.3414 476.897 64.3414 476.897L31.0734 476.897C26 476.897 24.0165 486.445 24.0165 493.902C24.0165 501.36 28.0489 506.907 28.0489 506.907L64.3414 506.907C64.4384 506.907 64.5346 506.907 64.6298 506.908C68.1324 506.918 70.3903 506.924 70.3903 492.902Z"/>
<path d="M67.3742 563.925L29.065 563.925C29.065 563.925 25.0326 561.507 25.0326 550.921C25.0326 540.335 26.7243 534.915 31.0814 534.915L65.3578 534.915C65.3578 534.915 70.3983 538.673 70.3983 548.92C70.3983 559.167 67.3742 563.925 67.3742 563.925Z"/>
<path d="M37.0896 591.934L70.3577 592.934C75.03 592.644 78.4229 600.888 78.4229 607.939C78.4229 614.99 74.3905 618.943 74.3905 618.943L41.1221 618.943C32.7535 618.943 32.0488 617.982 32.0488 604.938C32.0488 591.893 37.0896 591.934 37.0896 591.934Z"/>
<path d="M71.3576 644.95L36.0732 644.95C36.0732 644.95 34.0568 648.619 34.0568 659.956C34.0568 671.292 36.2981 674.96 45.1465 674.96C53.9945 674.96 73.374 672.959 73.374 672.959C73.374 672.959 79.4229 669.714 79.4229 661.956C79.4229 654.198 75.1539 644.371 71.3576 644.95Z"/>
<path d="M51.1138 695.967L81.3578 696.967C84.57 696.677 88.4147 699.685 88.4147 707.971C88.4147 716.256 83.3742 717.974 83.3742 717.974C83.3742 717.974 66.3029 718.974 55.1463 718.974C44.0564 718.974 44.0566 715.088 44.057 706.132L44.057 705.97C44.057 696.898 51.1138 695.967 51.1138 695.967Z"/>
<path d="M35.0895 251.826L66.3417 252.826C76.5801 252.282 72.6823 230.819 67.3497 230.819C65.1069 230.819 61.5334 230.632 57.4734 230.42C51.88 230.127 45.3632 229.786 40.1302 229.819C39.8727 229.82 39.6216 229.822 39.377 229.823C31.0444 229.868 30.1159 229.873 29.0409 239.822C27.9339 250.064 35.0895 251.826 35.0895 251.826Z"/>
</mask>
<path d="M104.464 792.997L87.2441 791.997C87.2441 791.997 74.4329 801 87.2441 801L104.464 801C104.464 801 114.684 793.577 104.464 792.997Z" fill="black" fill-opacity="0.01"/>
<path d="M67.1788 767.989L97.4228 768.989C100.635 768.989 100.447 783.995 100.447 783.995L71.2113 783.995C60.208 783.995 67.1788 767.989 67.1788 767.989Z" fill="black" fill-opacity="0.01"/>
<path d="M89.3904 737.98L58.1381 736.98C58.1381 736.98 53.0977 734.596 53.0977 745.983C53.0977 746.536 53.0963 747.067 53.0949 747.575L53.0949 747.576C53.0682 757.522 53.0642 758.986 64.187 758.986L91.4065 758.986C91.4065 758.986 95.439 756.823 95.439 748.984C95.439 741.144 93.7705 738.269 89.3904 737.98Z" fill="black" fill-opacity="0.01"/>
<path d="M92.4716 19.7527C92.4716 19.7527 94.0767 13.6036 94.488 12.7498C94.899 11.8968 67.5211 11.6078 67.187 12.7498C66.853 13.8927 66.1789 18.7524 66.1789 18.7524L92.4716 19.7527Z" fill="black" fill-opacity="0.01"/>
<path d="M51.1464 35.7574C51.3504 36.3237 89.4553 35.7574 89.4553 35.7574C90.5523 35.2133 89.4553 26.7548 89.4553 26.7548C89.4553 26.7548 54.5991 26.3025 53.1628 27.7551C51.7264 29.2076 50.9424 35.1911 51.1464 35.7574Z" fill="black" fill-opacity="0.01"/>
<path d="M85.4473 57.7647C85.4473 57.7647 47.8857 58.0237 46.1301 57.7647C44.8304 57.5724 45.4156 54.2043 45.8364 51.7823C45.9839 50.9332 46.1113 50.2005 46.1301 49.7616C46.203 48.0714 47.1698 45.9893 49.1545 45.7604C51.1393 45.5315 86.4554 46.7607 86.4554 46.7607C86.4554 46.7607 86.1785 57.0385 85.4473 57.7647Z" fill="black" fill-opacity="0.01"/>
<path d="M44.1141 87.7736L82.4229 87.7736C84.4339 86.3227 82.4229 73.7695 82.4229 73.7695C82.4229 73.7695 45.6546 72.5625 43.1057 74.7698C40.5571 76.9771 44.1141 87.7736 44.1141 87.7736Z" fill="black" fill-opacity="0.01"/>
<path d="M75.3904 123.785L39.0977 123.785C39.0977 123.785 35.1701 112.532 38.0896 109.781C40.4293 107.576 61.9262 108.338 71.2132 108.667C73.5141 108.749 75.0656 108.804 75.3904 108.781C77.0263 108.663 78.3158 121.427 75.3904 123.785Z" fill="black" fill-opacity="0.01"/>
<path d="M37.0814 166.799L73.374 166.799C76.2994 166.617 74.3822 147.793 74.3822 147.793C74.3822 147.793 41.1917 147.123 37.0814 147.793C32.9709 148.463 37.0814 166.799 37.0814 166.799Z" fill="black" fill-opacity="0.01"/>
<path d="M67.3416 214.814L36.0894 213.814C36.0894 213.814 28.9342 212.052 30.0408 201.81C31.1159 191.86 32.0444 191.856 40.377 191.811L41.1302 191.807C46.3627 191.774 52.8788 192.115 58.4719 192.407L58.4734 192.408C62.5334 192.62 66.1069 192.807 68.3497 192.807C73.6823 192.807 77.5801 214.27 67.3416 214.814Z" fill="black" fill-opacity="0.01"/>
<path d="M31.0734 270.832L66.3578 272.832C70.0146 272.984 70.3903 281.738 70.3903 285.837C70.3903 289.936 67.3551 297.841 64.3414 297.841C62.978 297.841 57.1409 297.636 50.7519 297.412L50.7175 297.41L50.7095 297.41L50.7076 297.41L50.7037 297.41L50.6978 297.41C42.9804 297.139 34.4745 296.84 32.0814 296.84C27.7007 296.84 27.0406 295.982 27.0406 283.836C27.0406 271.689 31.0734 270.832 31.0734 270.832Z" fill="black" fill-opacity="0.01"/>
<path d="M63.3414 344.855L26.0406 343.855C26.0406 343.855 24.0246 341.485 24.0246 331.851C24.0246 322.217 24.7151 320.848 28.057 320.848C31.399 320.848 63.3414 321.848 63.3414 321.848C63.3414 321.848 66.3659 326.345 66.3659 332.852C66.3659 339.359 65.5316 344.855 63.3414 344.855Z" fill="black" fill-opacity="0.01"/>
<path d="M27.0325 395.872L64.3333 396.872C64.3333 396.872 67.3578 391.647 67.3578 384.868C67.3578 378.09 65.6243 372.864 62.3173 372.864C60.6766 372.864 53.3062 372.618 45.8829 372.37L45.8412 372.369L45.8261 372.368C38.3057 372.117 30.746 371.864 29.0489 371.864C25.6721 371.864 24.0081 372.332 24.0081 381.867C24.0081 391.403 27.0325 395.872 27.0325 395.872Z" fill="black" fill-opacity="0.01"/>
<path d="M65.3333 452.89L32.065 452.89C32.065 452.89 24 451.464 24 434.884C24 420.663 27.8229 421.27 30.7211 421.731C31.2017 421.807 31.6569 421.88 32.065 421.88C33.4481 421.88 40.2231 422.344 47.2418 422.826C54.7843 423.343 62.6088 423.88 64.3253 423.88C67.6391 423.88 70.3741 427.913 70.3741 437.885C70.3741 447.856 67.6696 452.6 65.3333 452.89Z" fill="black" fill-opacity="0.01"/>
<path d="M70.3903 492.902C70.3903 478.499 64.3414 476.897 64.3414 476.897L31.0734 476.897C26 476.897 24.0165 486.445 24.0165 493.902C24.0165 501.36 28.0489 506.907 28.0489 506.907L64.3414 506.907C64.4384 506.907 64.5346 506.907 64.6298 506.908C68.1324 506.918 70.3903 506.924 70.3903 492.902Z" fill="black" fill-opacity="0.01"/>
<path d="M67.3742 563.925L29.065 563.925C29.065 563.925 25.0326 561.507 25.0326 550.921C25.0326 540.335 26.7243 534.915 31.0814 534.915L65.3578 534.915C65.3578 534.915 70.3983 538.673 70.3983 548.92C70.3983 559.167 67.3742 563.925 67.3742 563.925Z" fill="black" fill-opacity="0.01"/>
<path d="M37.0896 591.934L70.3577 592.934C75.03 592.644 78.4229 600.888 78.4229 607.939C78.4229 614.99 74.3905 618.943 74.3905 618.943L41.1221 618.943C32.7535 618.943 32.0488 617.982 32.0488 604.938C32.0488 591.893 37.0896 591.934 37.0896 591.934Z" fill="black" fill-opacity="0.01"/>
<path d="M71.3576 644.95L36.0732 644.95C36.0732 644.95 34.0568 648.619 34.0568 659.956C34.0568 671.292 36.2981 674.96 45.1465 674.96C53.9945 674.96 73.374 672.959 73.374 672.959C73.374 672.959 79.4229 669.714 79.4229 661.956C79.4229 654.198 75.1539 644.371 71.3576 644.95Z" fill="black" fill-opacity="0.01"/>
<path d="M51.1138 695.967L81.3578 696.967C84.57 696.677 88.4147 699.685 88.4147 707.971C88.4147 716.256 83.3742 717.974 83.3742 717.974C83.3742 717.974 66.3029 718.974 55.1463 718.974C44.0564 718.974 44.0566 715.088 44.057 706.132L44.057 705.97C44.057 696.898 51.1138 695.967 51.1138 695.967Z" fill="black" fill-opacity="0.01"/>
<path d="M35.0895 251.826L66.3417 252.826C76.5801 252.282 72.6823 230.819 67.3497 230.819C65.1069 230.819 61.5334 230.632 57.4734 230.42C51.88 230.127 45.3632 229.786 40.1302 229.819C39.8727 229.82 39.6216 229.822 39.377 229.823C31.0444 229.868 30.1159 229.873 29.0409 239.822C27.9339 250.064 35.0895 251.826 35.0895 251.826Z" fill="black" fill-opacity="0.01"/>
<path d="M104.464 792.997L87.2441 791.997C87.2441 791.997 74.4329 801 87.2441 801L104.464 801C104.464 801 114.684 793.577 104.464 792.997Z" stroke="#27AEE4" stroke-width="4" mask="url(#path-6-inside-2)"/>
<path d="M67.1788 767.989L97.4228 768.989C100.635 768.989 100.447 783.995 100.447 783.995L71.2113 783.995C60.208 783.995 67.1788 767.989 67.1788 767.989Z" stroke="#27AEE4" stroke-width="4" mask="url(#path-6-inside-2)"/>
<path d="M89.3904 737.98L58.1381 736.98C58.1381 736.98 53.0977 734.596 53.0977 745.983C53.0977 746.536 53.0963 747.067 53.0949 747.575L53.0949 747.576C53.0682 757.522 53.0642 758.986 64.187 758.986L91.4065 758.986C91.4065 758.986 95.439 756.823 95.439 748.984C95.439 741.144 93.7705 738.269 89.3904 737.98Z" stroke="#27AEE4" stroke-width="4" mask="url(#path-6-inside-2)"/>
<path d="M92.4716 19.7527C92.4716 19.7527 94.0767 13.6036 94.488 12.7498C94.899 11.8968 67.5211 11.6078 67.187 12.7498C66.853 13.8927 66.1789 18.7524 66.1789 18.7524L92.4716 19.7527Z" stroke="#27AEE4" stroke-width="4" mask="url(#path-6-inside-2)"/>
<path d="M51.1464 35.7574C51.3504 36.3237 89.4553 35.7574 89.4553 35.7574C90.5523 35.2133 89.4553 26.7548 89.4553 26.7548C89.4553 26.7548 54.5991 26.3025 53.1628 27.7551C51.7264 29.2076 50.9424 35.1911 51.1464 35.7574Z" stroke="#27AEE4" stroke-width="4" mask="url(#path-6-inside-2)"/>
<path d="M85.4473 57.7647C85.4473 57.7647 47.8857 58.0237 46.1301 57.7647C44.8304 57.5724 45.4156 54.2043 45.8364 51.7823C45.9839 50.9332 46.1113 50.2005 46.1301 49.7616C46.203 48.0714 47.1698 45.9893 49.1545 45.7604C51.1393 45.5315 86.4554 46.7607 86.4554 46.7607C86.4554 46.7607 86.1785 57.0385 85.4473 57.7647Z" stroke="#27AEE4" stroke-width="4" mask="url(#path-6-inside-2)"/>
<path d="M44.1141 87.7736L82.4229 87.7736C84.4339 86.3227 82.4229 73.7695 82.4229 73.7695C82.4229 73.7695 45.6546 72.5625 43.1057 74.7698C40.5571 76.9771 44.1141 87.7736 44.1141 87.7736Z" stroke="#27AEE4" stroke-width="4" mask="url(#path-6-inside-2)"/>
<path d="M75.3904 123.785L39.0977 123.785C39.0977 123.785 35.1701 112.532 38.0896 109.781C40.4293 107.576 61.9262 108.338 71.2132 108.667C73.5141 108.749 75.0656 108.804 75.3904 108.781C77.0263 108.663 78.3158 121.427 75.3904 123.785Z" stroke="#27AEE4" stroke-width="4" mask="url(#path-6-inside-2)"/>
<path d="M37.0814 166.799L73.374 166.799C76.2994 166.617 74.3822 147.793 74.3822 147.793C74.3822 147.793 41.1917 147.123 37.0814 147.793C32.9709 148.463 37.0814 166.799 37.0814 166.799Z" stroke="#27AEE4" stroke-width="4" mask="url(#path-6-inside-2)"/>
<path d="M67.3416 214.814L36.0894 213.814C36.0894 213.814 28.9342 212.052 30.0408 201.81C31.1159 191.86 32.0444 191.856 40.377 191.811L41.1302 191.807C46.3627 191.774 52.8788 192.115 58.4719 192.407L58.4734 192.408C62.5334 192.62 66.1069 192.807 68.3497 192.807C73.6823 192.807 77.5801 214.27 67.3416 214.814Z" stroke="#27AEE4" stroke-width="4" mask="url(#path-6-inside-2)"/>
<path d="M31.0734 270.832L66.3578 272.832C70.0146 272.984 70.3903 281.738 70.3903 285.837C70.3903 289.936 67.3551 297.841 64.3414 297.841C62.978 297.841 57.1409 297.636 50.7519 297.412L50.7175 297.41L50.7095 297.41L50.7076 297.41L50.7037 297.41L50.6978 297.41C42.9804 297.139 34.4745 296.84 32.0814 296.84C27.7007 296.84 27.0406 295.982 27.0406 283.836C27.0406 271.689 31.0734 270.832 31.0734 270.832Z" stroke="#27AEE4" stroke-width="4" mask="url(#path-6-inside-2)"/>
<path d="M63.3414 344.855L26.0406 343.855C26.0406 343.855 24.0246 341.485 24.0246 331.851C24.0246 322.217 24.7151 320.848 28.057 320.848C31.399 320.848 63.3414 321.848 63.3414 321.848C63.3414 321.848 66.3659 326.345 66.3659 332.852C66.3659 339.359 65.5316 344.855 63.3414 344.855Z" stroke="#27AEE4" stroke-width="4" mask="url(#path-6-inside-2)"/>
<path d="M27.0325 395.872L64.3333 396.872C64.3333 396.872 67.3578 391.647 67.3578 384.868C67.3578 378.09 65.6243 372.864 62.3173 372.864C60.6766 372.864 53.3062 372.618 45.8829 372.37L45.8412 372.369L45.8261 372.368C38.3057 372.117 30.746 371.864 29.0489 371.864C25.6721 371.864 24.0081 372.332 24.0081 381.867C24.0081 391.403 27.0325 395.872 27.0325 395.872Z" stroke="#27AEE4" stroke-width="4" mask="url(#path-6-inside-2)"/>
<path d="M65.3333 452.89L32.065 452.89C32.065 452.89 24 451.464 24 434.884C24 420.663 27.8229 421.27 30.7211 421.731C31.2017 421.807 31.6569 421.88 32.065 421.88C33.4481 421.88 40.2231 422.344 47.2418 422.826C54.7843 423.343 62.6088 423.88 64.3253 423.88C67.6391 423.88 70.3741 427.913 70.3741 437.885C70.3741 447.856 67.6696 452.6 65.3333 452.89Z" stroke="#27AEE4" stroke-width="4" mask="url(#path-6-inside-2)"/>
<path d="M70.3903 492.902C70.3903 478.499 64.3414 476.897 64.3414 476.897L31.0734 476.897C26 476.897 24.0165 486.445 24.0165 493.902C24.0165 501.36 28.0489 506.907 28.0489 506.907L64.3414 506.907C64.4384 506.907 64.5346 506.907 64.6298 506.908C68.1324 506.918 70.3903 506.924 70.3903 492.902Z" stroke="#27AEE4" stroke-width="4" mask="url(#path-6-inside-2)"/>
<path d="M67.3742 563.925L29.065 563.925C29.065 563.925 25.0326 561.507 25.0326 550.921C25.0326 540.335 26.7243 534.915 31.0814 534.915L65.3578 534.915C65.3578 534.915 70.3983 538.673 70.3983 548.92C70.3983 559.167 67.3742 563.925 67.3742 563.925Z" stroke="#27AEE4" stroke-width="4" mask="url(#path-6-inside-2)"/>
<path d="M37.0896 591.934L70.3577 592.934C75.03 592.644 78.4229 600.888 78.4229 607.939C78.4229 614.99 74.3905 618.943 74.3905 618.943L41.1221 618.943C32.7535 618.943 32.0488 617.982 32.0488 604.938C32.0488 591.893 37.0896 591.934 37.0896 591.934Z" stroke="#27AEE4" stroke-width="4" mask="url(#path-6-inside-2)"/>
<path d="M71.3576 644.95L36.0732 644.95C36.0732 644.95 34.0568 648.619 34.0568 659.956C34.0568 671.292 36.2981 674.96 45.1465 674.96C53.9945 674.96 73.374 672.959 73.374 672.959C73.374 672.959 79.4229 669.714 79.4229 661.956C79.4229 654.198 75.1539 644.371 71.3576 644.95Z" stroke="#27AEE4" stroke-width="4" mask="url(#path-6-inside-2)"/>
<path d="M51.1138 695.967L81.3578 696.967C84.57 696.677 88.4147 699.685 88.4147 707.971C88.4147 716.256 83.3742 717.974 83.3742 717.974C83.3742 717.974 66.3029 718.974 55.1463 718.974C44.0564 718.974 44.0566 715.088 44.057 706.132L44.057 705.97C44.057 696.898 51.1138 695.967 51.1138 695.967Z" stroke="#27AEE4" stroke-width="4" mask="url(#path-6-inside-2)"/>
<path d="M35.0895 251.826L66.3417 252.826C76.5801 252.282 72.6823 230.819 67.3497 230.819C65.1069 230.819 61.5334 230.632 57.4734 230.42C51.88 230.127 45.3632 229.786 40.1302 229.819C39.8727 229.82 39.6216 229.822 39.377 229.823C31.0444 229.868 30.1159 229.873 29.0409 239.822C27.9339 250.064 35.0895 251.826 35.0895 251.826Z" stroke="#27AEE4" stroke-width="4" mask="url(#path-6-inside-2)"/>
</g>
<defs>
<clipPath id="clip0">
<rect width="793" height="510" fill="white" transform="translate(532 10) rotate(90)"/>
</clipPath>
</defs>
</svg>
