<svg width="948" height="575" viewBox="0 0 948 575" fill="none" xmlns="http://www.w3.org/2000/svg">
<path fill-rule="evenodd" clip-rule="evenodd" d="M6.536 35.2249C6.48989 35.265 6.44377 35.3052 6.39746 35.3371C6.36806 35.3154 6.33872 35.2937 6.30939 35.2719C6.28657 35.255 6.26375 35.2381 6.24091 35.2212C6.01943 35.5048 5.79008 35.7834 5.56073 36.0621C5.06129 36.6689 4.56187 37.2757 4.14378 37.9332C2.06392 41.2046 0.900872 44.8249 0.16319 48.5889C-0.20531 50.4702 0.0573258 51.3991 1.03729 51.4914C2.40415 51.6203 2.60778 50.7317 2.81138 49.8433C2.86493 49.6096 2.91848 49.376 2.99318 49.1608C3.25152 48.4165 3.50301 47.6693 3.75451 46.922C4.46353 44.8154 5.17273 42.7082 6.03607 40.6646C6.46752 39.6433 7.19355 38.7374 7.91442 37.838C8.14575 37.5494 8.37655 37.2615 8.59691 36.9705C9.07139 36.3442 9.4702 35.6277 8.75439 35.1355C8.4252 34.9092 7.89339 34.9595 7.37589 35.0085C7.19173 35.0259 7.00939 35.0431 6.83863 35.0477C6.73643 35.0503 6.63622 35.1376 6.536 35.2249ZM17.9525 38.6856C17.9649 38.4765 17.9793 38.2328 18.0103 37.9428C17.6584 37.9895 17.3224 38.0097 17.0057 38.0287C16.371 38.0668 15.8137 38.1003 15.3613 38.3334C12.5791 39.7683 10.4007 41.9439 8.98715 44.6693C7.83961 46.8815 6.91294 49.2076 5.98775 51.5299C5.76274 52.0947 5.53782 52.6593 5.30983 53.222C5.02532 53.9245 5.20671 54.6945 6.08207 54.943C6.9184 55.1807 7.43945 54.7291 7.72384 53.9585C7.91422 53.4426 8.11263 52.9295 8.31104 52.4164C8.40151 52.1824 8.49198 51.9485 8.58169 51.7143C10.3325 47.1418 12.8179 43.0971 16.9922 40.2611C17.0543 40.2188 17.1203 40.1772 17.1871 40.1351C17.4365 39.9777 17.6964 39.8136 17.8038 39.587C17.9129 39.3567 17.929 39.0836 17.9525 38.6856Z" fill="#27AEE4"/>
<path fill-rule="evenodd" clip-rule="evenodd" d="M937.297 514.047C939.468 510.606 940.579 506.735 941.258 502.298C941.17 502.195 941.076 502.055 940.973 501.902C940.71 501.509 940.39 501.03 939.959 500.887C939.045 500.583 938.504 501.398 938.219 502.231C938.072 502.66 937.974 503.109 937.887 503.556C937.069 507.755 935.321 511.525 932.776 514.957C931.525 516.643 930.379 518.408 929.236 520.171C928.762 520.903 928.569 521.819 929.365 522.402C930.239 523.042 931.102 522.712 931.727 521.845C932.291 521.065 932.866 520.291 933.441 519.518C934.774 517.725 936.108 515.931 937.297 514.047ZM947.71 507.757C947.764 507.5 947.823 507.222 947.895 506.912C947.822 506.813 947.747 506.68 947.668 506.539C947.467 506.182 947.236 505.772 946.93 505.704C946.591 505.63 946.126 506.018 945.72 506.357C945.639 506.424 945.56 506.49 945.485 506.55C945.368 506.643 945.317 506.816 945.265 506.992C945.235 507.096 945.204 507.201 945.158 507.292C944.676 508.258 944.195 509.226 943.715 510.193C942.371 512.9 941.027 515.607 939.633 518.287C939.278 518.97 938.856 519.618 938.435 520.266C937.958 521 937.482 521.733 937.102 522.514C936.881 522.969 937.174 523.916 937.56 524.332C937.76 524.548 938.454 524.349 939.002 524.192C939.083 524.169 939.162 524.146 939.235 524.126C939.385 524.085 939.499 523.909 939.613 523.734C939.662 523.658 939.712 523.582 939.764 523.517C943.255 519.2 945.713 514.334 947.391 509.06C947.518 508.661 947.605 508.25 947.71 507.757Z" fill="#27AEE4"/>
<path fill-rule="evenodd" clip-rule="evenodd" d="M73 22.9998C73 22.9998 451 68 866 27.9997C878.747 26.7713 881 28.9997 881 28.9997L880 30.9999C880 30.9999 873.914 29.3969 863 30.9999C852.085 32.6027 685.397 47.9999 509 47.9999C332.604 47.9999 200.994 40.2557 73 25.9998C68.9552 25.5493 73 22.9998 73 22.9998Z" fill="#27AEE4"/>
<path fill-rule="evenodd" clip-rule="evenodd" d="M72.5771 21.2899C72.5771 21.2899 229.533 10.2779 383.516 8.97925C488.308 8.09547 591.062 7.90611 642.747 14.3385C659.363 16.4062 655.735 12.1921 642.954 11.2412C600.815 8.10591 555.297 6.70751 509.133 5.71081C332.73 1.90146 200.949 6.80188 72.6418 18.2906C68.5872 18.6535 72.5771 21.2899 72.5771 21.2899Z" fill="#27AEE4"/>
<path fill-rule="evenodd" clip-rule="evenodd" d="M72.9999 536C72.9999 536 168 574 483 574C798 574 879.291 523.865 880 505C880.287 497.344 880 496.638 880 495C880 492.944 878.316 493.5 878 498C877.469 505.572 861.663 569 482 569C189.682 569 109.758 541.91 73.9999 532C72.742 531.651 72.9999 536 72.9999 536Z" fill="#27AEE4"/>
<path fill-rule="evenodd" clip-rule="evenodd" d="M648 17H652L651 39.9998H648V17Z" fill="#27AEE4"/>
<mask id="path-7-inside-1" fill="white">
<path d="M90.9998 48.9998L91.9998 75.9998C91.9998 75.9998 83 88.7077 83 75.9998V48.9998C83 48.9998 90.4209 38.8621 90.9998 48.9998Z"/>
<path d="M864 47.9999C864 47.9999 870.147 46.4076 871 45.9999C871.853 45.5919 872.142 82.6684 871 82.9999C869.858 83.3312 865 83.9999 865 83.9999L864 47.9999Z"/>
<path d="M848 87.9998C847.434 87.7973 848 49.9998 848 49.9998C848.544 48.9117 857 49.9998 857 49.9998C857 49.9998 857.453 84.5752 856 85.9999C854.548 87.4246 848.566 88.2023 848 87.9998Z"/>
<path d="M826 50.9998C826 50.9998 825.74 88.2585 826 89.9998C826.192 91.2893 829.561 90.7085 831.982 90.291C832.83 90.1447 833.562 90.0185 834 89.9998C835.689 89.9275 837.771 88.9688 838 86.9999C838.229 85.031 837 49.9998 837 49.9998C837 49.9998 826.725 50.2743 826 50.9998Z"/>
<path d="M796 91.9997V53.9997C797.451 52.0049 810 53.9997 810 53.9997C810 53.9997 811.207 90.4717 809 92.9997C806.793 95.528 796 91.9997 796 91.9997Z"/>
<path d="M760 57.9999V94C760 94 771.25 97.8957 774 94.9999C776.203 92.6794 775.443 71.3629 775.114 62.1483V62.14L775.113 62.1369L775.112 62.109C775.032 59.8456 774.977 58.3205 775 57.9999C775.117 56.3772 762.358 55.0982 760 57.9999Z"/>
<path d="M717 95.9999V59.9999C717.181 57.0982 736 58.9999 736 58.9999C736 58.9999 736.67 91.9227 736 95.9999C735.33 100.077 717 95.9999 717 95.9999Z"/>
<path d="M669 63.9998L670 94.9999C670 94.9999 671.762 102.097 682 101C691.946 99.9335 691.951 99.0122 691.996 90.746L692 89.9998C692.033 84.8097 691.692 78.3465 691.4 72.7987V72.7961C691.187 68.769 691 65.2244 691 62.9998C691 57.7102 669.544 53.8441 669 63.9998Z"/>
<path d="M613 96.9999L611 61.9998C610.849 58.3727 602.098 57.9999 598 57.9999C593.902 57.9999 586 61.0106 586 63.9998C586 65.3498 586.204 71.1208 586.427 77.4445L586.429 77.4791L586.43 77.5169L586.43 77.5182C586.701 85.1775 587 93.6246 587 95.9999C587 100.345 587.857 101 600 101C612.143 101 613 96.9999 613 96.9999Z"/>
<path d="M539 63.9998L540 101C540 101 542.369 103 552 103C561.631 103 563 102.315 563 98.9999C563 95.6849 562 63.9998 562 63.9998C562 63.9998 557.505 60.9999 551 60.9999C544.495 60.9999 539 61.8275 539 63.9998Z"/>
<path d="M488 102L487 64.9997C487 64.9997 492.224 61.9998 499 61.9998C505.776 61.9998 511 63.7196 511 66.9997C511 68.6312 511.248 75.9742 511.496 83.3559L511.496 83.3581C511.748 90.8178 512 98.3165 512 99.9999C512 103.349 511.532 105 502 105C492.468 105 488 102 488 102Z"/>
<path d="M431 64.9997V97.9999C431 97.9999 432.426 106 449 106C463.216 106 462.609 102.208 462.149 99.3331C462.072 98.8563 462 98.4047 462 97.9999C462 96.6282 461.536 89.9091 461.054 82.9478L461.054 82.9462C460.537 75.4641 460 67.7025 460 65.9997C460 62.7128 455.969 59.9999 446 59.9999C436.032 59.9999 431.29 62.6826 431 64.9997Z"/>
<path d="M391 57.9999C405.399 57.9999 407 63.9998 407 63.9998V96.9999C407 102.032 397.455 104 390 104C382.545 104 377 99.9999 377 99.9999V63.9998C377 63.9034 377 63.8079 376.999 63.7134C376.989 60.2392 376.983 57.9999 391 57.9999Z"/>
<path d="M320 59.9999V97.9999C320 97.9999 322.417 102 333 102C343.582 102 349 100.322 349 95.9999V61.9998C349 61.9998 345.244 56.9999 335 56.9999C324.756 56.9999 320 59.9999 320 59.9999Z"/>
<path d="M292 94.9999L291 61.9998C291.289 57.3655 283.049 53.9997 276 53.9997C268.951 53.9997 265 57.9999 265 57.9999V90.9997C265 99.3009 265.96 99.9999 279 99.9999C292.04 99.9999 292 94.9999 292 94.9999Z"/>
<path d="M239 61.9998V96.9999C239 96.9999 235.333 98.9999 224 98.9999C212.667 98.9999 209 96.7768 209 87.9998C209 79.2228 211 59.9999 211 59.9999C211 59.9999 214.245 53.9997 222 53.9997C229.756 53.9997 239.579 58.2344 239 61.9998Z"/>
<path d="M188 91.9997L187 61.9998C187.29 58.8135 184.283 55 176 55C167.718 55 166 59.9999 166 59.9999C166 59.9999 165 76.9332 165 87.9998C165 99.0004 168.885 99.0003 177.838 98.9999L178 98.9999C187.068 98.9999 188 91.9997 188 91.9997Z"/>
<path d="M146 57.9999L147 88.9998C147 88.9998 149.383 94 138 94C137.448 94 136.919 94.0014 136.411 94.0028H136.407C126.464 94.0292 125 94.0331 125 82.9999V56C125 56 127.163 51.9997 135 51.9997C142.837 51.9997 145.71 53.655 146 57.9999Z"/>
<path d="M116 83.9999L115 53.9997C115 50.8137 100 50.9998 100 50.9998V79.9997C100 90.9146 116 83.9999 116 83.9999Z"/>
<path d="M632 94.9999L631 63.9998C631.544 53.8441 653 57.7102 653 62.9998C653 65.2244 653.187 68.769 653.399 72.7961C653.692 78.3445 654.033 84.8089 654 89.9998C653.998 90.255 653.997 90.5036 653.995 90.7459C653.952 99.0122 653.947 99.9335 644 101C633.762 102.097 632 94.9999 632 94.9999Z"/>
</mask>
<path d="M90.9998 48.9998L91.9998 75.9998C91.9998 75.9998 83 88.7077 83 75.9998V48.9998C83 48.9998 90.4209 38.8621 90.9998 48.9998Z" fill="black" fill-opacity="0.01"/>
<path d="M864 47.9999C864 47.9999 870.147 46.4076 871 45.9999C871.853 45.5919 872.142 82.6684 871 82.9999C869.858 83.3312 865 83.9999 865 83.9999L864 47.9999Z" fill="black" fill-opacity="0.01"/>
<path d="M848 87.9998C847.434 87.7973 848 49.9998 848 49.9998C848.544 48.9117 857 49.9998 857 49.9998C857 49.9998 857.453 84.5752 856 85.9999C854.548 87.4246 848.566 88.2023 848 87.9998Z" fill="black" fill-opacity="0.01"/>
<path d="M826 50.9998C826 50.9998 825.74 88.2585 826 89.9998C826.192 91.2893 829.561 90.7085 831.982 90.291C832.83 90.1447 833.562 90.0185 834 89.9998C835.689 89.9275 837.771 88.9688 838 86.9999C838.229 85.031 837 49.9998 837 49.9998C837 49.9998 826.725 50.2743 826 50.9998Z" fill="black" fill-opacity="0.01"/>
<path d="M796 91.9997V53.9997C797.451 52.0049 810 53.9997 810 53.9997C810 53.9997 811.207 90.4717 809 92.9997C806.793 95.528 796 91.9997 796 91.9997Z" fill="black" fill-opacity="0.01"/>
<path d="M760 57.9999V94C760 94 771.25 97.8957 774 94.9999C776.203 92.6794 775.443 71.3629 775.114 62.1483V62.14L775.113 62.1369L775.112 62.109C775.032 59.8456 774.977 58.3205 775 57.9999C775.117 56.3772 762.358 55.0982 760 57.9999Z" fill="black" fill-opacity="0.01"/>
<path d="M717 95.9999V59.9999C717.181 57.0982 736 58.9999 736 58.9999C736 58.9999 736.67 91.9227 736 95.9999C735.33 100.077 717 95.9999 717 95.9999Z" fill="black" fill-opacity="0.01"/>
<path d="M669 63.9998L670 94.9999C670 94.9999 671.762 102.097 682 101C691.946 99.9335 691.951 99.0122 691.996 90.746L692 89.9998C692.033 84.8097 691.692 78.3465 691.4 72.7987V72.7961C691.187 68.769 691 65.2244 691 62.9998C691 57.7102 669.544 53.8441 669 63.9998Z" fill="black" fill-opacity="0.01"/>
<path d="M613 96.9999L611 61.9998C610.849 58.3727 602.098 57.9999 598 57.9999C593.902 57.9999 586 61.0106 586 63.9998C586 65.3498 586.204 71.1208 586.427 77.4445L586.429 77.4791L586.43 77.5169L586.43 77.5182C586.701 85.1775 587 93.6246 587 95.9999C587 100.345 587.857 101 600 101C612.143 101 613 96.9999 613 96.9999Z" fill="black" fill-opacity="0.01"/>
<path d="M539 63.9998L540 101C540 101 542.369 103 552 103C561.631 103 563 102.315 563 98.9999C563 95.6849 562 63.9998 562 63.9998C562 63.9998 557.505 60.9999 551 60.9999C544.495 60.9999 539 61.8275 539 63.9998Z" fill="black" fill-opacity="0.01"/>
<path d="M488 102L487 64.9997C487 64.9997 492.224 61.9998 499 61.9998C505.776 61.9998 511 63.7196 511 66.9997C511 68.6312 511.248 75.9742 511.496 83.3559L511.496 83.3581C511.748 90.8178 512 98.3165 512 99.9999C512 103.349 511.532 105 502 105C492.468 105 488 102 488 102Z" fill="black" fill-opacity="0.01"/>
<path d="M431 64.9997V97.9999C431 97.9999 432.426 106 449 106C463.216 106 462.609 102.208 462.149 99.3331C462.072 98.8563 462 98.4047 462 97.9999C462 96.6282 461.536 89.9091 461.054 82.9478L461.054 82.9462C460.537 75.4641 460 67.7025 460 65.9997C460 62.7128 455.969 59.9999 446 59.9999C436.032 59.9999 431.29 62.6826 431 64.9997Z" fill="black" fill-opacity="0.01"/>
<path d="M391 57.9999C405.399 57.9999 407 63.9998 407 63.9998V96.9999C407 102.032 397.455 104 390 104C382.545 104 377 99.9999 377 99.9999V63.9998C377 63.9034 377 63.8079 376.999 63.7134C376.989 60.2392 376.983 57.9999 391 57.9999Z" fill="black" fill-opacity="0.01"/>
<path d="M320 59.9999V97.9999C320 97.9999 322.417 102 333 102C343.582 102 349 100.322 349 95.9999V61.9998C349 61.9998 345.244 56.9999 335 56.9999C324.756 56.9999 320 59.9999 320 59.9999Z" fill="black" fill-opacity="0.01"/>
<path d="M292 94.9999L291 61.9998C291.289 57.3655 283.049 53.9997 276 53.9997C268.951 53.9997 265 57.9999 265 57.9999V90.9997C265 99.3009 265.96 99.9999 279 99.9999C292.04 99.9999 292 94.9999 292 94.9999Z" fill="black" fill-opacity="0.01"/>
<path d="M239 61.9998V96.9999C239 96.9999 235.333 98.9999 224 98.9999C212.667 98.9999 209 96.7768 209 87.9998C209 79.2228 211 59.9999 211 59.9999C211 59.9999 214.245 53.9997 222 53.9997C229.756 53.9997 239.579 58.2344 239 61.9998Z" fill="black" fill-opacity="0.01"/>
<path d="M188 91.9997L187 61.9998C187.29 58.8135 184.283 55 176 55C167.718 55 166 59.9999 166 59.9999C166 59.9999 165 76.9332 165 87.9998C165 99.0004 168.885 99.0003 177.838 98.9999L178 98.9999C187.068 98.9999 188 91.9997 188 91.9997Z" fill="black" fill-opacity="0.01"/>
<path d="M146 57.9999L147 88.9998C147 88.9998 149.383 94 138 94C137.448 94 136.919 94.0014 136.411 94.0028H136.407C126.464 94.0292 125 94.0331 125 82.9999V56C125 56 127.163 51.9997 135 51.9997C142.837 51.9997 145.71 53.655 146 57.9999Z" fill="black" fill-opacity="0.01"/>
<path d="M116 83.9999L115 53.9997C115 50.8137 100 50.9998 100 50.9998V79.9997C100 90.9146 116 83.9999 116 83.9999Z" fill="black" fill-opacity="0.01"/>
<path d="M632 94.9999L631 63.9998C631.544 53.8441 653 57.7102 653 62.9998C653 65.2244 653.187 68.769 653.399 72.7961C653.692 78.3445 654.033 84.8089 654 89.9998C653.998 90.255 653.997 90.5036 653.995 90.7459C653.952 99.0122 653.947 99.9335 644 101C633.762 102.097 632 94.9999 632 94.9999Z" fill="black" fill-opacity="0.01"/>
<path d="M90.9998 48.9998L91.9998 75.9998C91.9998 75.9998 83 88.7077 83 75.9998V48.9998C83 48.9998 90.4209 38.8621 90.9998 48.9998Z" stroke="#27AEE4" stroke-width="4" mask="url(#path-7-inside-1)"/>
<path d="M864 47.9999C864 47.9999 870.147 46.4076 871 45.9999C871.853 45.5919 872.142 82.6684 871 82.9999C869.858 83.3312 865 83.9999 865 83.9999L864 47.9999Z" stroke="#27AEE4" stroke-width="4" mask="url(#path-7-inside-1)"/>
<path d="M848 87.9998C847.434 87.7973 848 49.9998 848 49.9998C848.544 48.9117 857 49.9998 857 49.9998C857 49.9998 857.453 84.5752 856 85.9999C854.548 87.4246 848.566 88.2023 848 87.9998Z" stroke="#27AEE4" stroke-width="4" mask="url(#path-7-inside-1)"/>
<path d="M826 50.9998C826 50.9998 825.74 88.2585 826 89.9998C826.192 91.2893 829.561 90.7085 831.982 90.291C832.83 90.1447 833.562 90.0185 834 89.9998C835.689 89.9275 837.771 88.9688 838 86.9999C838.229 85.031 837 49.9998 837 49.9998C837 49.9998 826.725 50.2743 826 50.9998Z" stroke="#27AEE4" stroke-width="4" mask="url(#path-7-inside-1)"/>
<path d="M796 91.9997V53.9997C797.451 52.0049 810 53.9997 810 53.9997C810 53.9997 811.207 90.4717 809 92.9997C806.793 95.528 796 91.9997 796 91.9997Z" stroke="#27AEE4" stroke-width="4" mask="url(#path-7-inside-1)"/>
<path d="M760 57.9999V94C760 94 771.25 97.8957 774 94.9999C776.203 92.6794 775.443 71.3629 775.114 62.1483V62.14L775.113 62.1369L775.112 62.109C775.032 59.8456 774.977 58.3205 775 57.9999C775.117 56.3772 762.358 55.0982 760 57.9999Z" stroke="#27AEE4" stroke-width="4" mask="url(#path-7-inside-1)"/>
<path d="M717 95.9999V59.9999C717.181 57.0982 736 58.9999 736 58.9999C736 58.9999 736.67 91.9227 736 95.9999C735.33 100.077 717 95.9999 717 95.9999Z" stroke="#27AEE4" stroke-width="4" mask="url(#path-7-inside-1)"/>
<path d="M669 63.9998L670 94.9999C670 94.9999 671.762 102.097 682 101C691.946 99.9335 691.951 99.0122 691.996 90.746L692 89.9998C692.033 84.8097 691.692 78.3465 691.4 72.7987V72.7961C691.187 68.769 691 65.2244 691 62.9998C691 57.7102 669.544 53.8441 669 63.9998Z" stroke="#27AEE4" stroke-width="4" mask="url(#path-7-inside-1)"/>
<path d="M613 96.9999L611 61.9998C610.849 58.3727 602.098 57.9999 598 57.9999C593.902 57.9999 586 61.0106 586 63.9998C586 65.3498 586.204 71.1208 586.427 77.4445L586.429 77.4791L586.43 77.5169L586.43 77.5182C586.701 85.1775 587 93.6246 587 95.9999C587 100.345 587.857 101 600 101C612.143 101 613 96.9999 613 96.9999Z" stroke="#27AEE4" stroke-width="4" mask="url(#path-7-inside-1)"/>
<path d="M539 63.9998L540 101C540 101 542.369 103 552 103C561.631 103 563 102.315 563 98.9999C563 95.6849 562 63.9998 562 63.9998C562 63.9998 557.505 60.9999 551 60.9999C544.495 60.9999 539 61.8275 539 63.9998Z" stroke="#27AEE4" stroke-width="4" mask="url(#path-7-inside-1)"/>
<path d="M488 102L487 64.9997C487 64.9997 492.224 61.9998 499 61.9998C505.776 61.9998 511 63.7196 511 66.9997C511 68.6312 511.248 75.9742 511.496 83.3559L511.496 83.3581C511.748 90.8178 512 98.3165 512 99.9999C512 103.349 511.532 105 502 105C492.468 105 488 102 488 102Z" stroke="#27AEE4" stroke-width="4" mask="url(#path-7-inside-1)"/>
<path d="M431 64.9997V97.9999C431 97.9999 432.426 106 449 106C463.216 106 462.609 102.208 462.149 99.3331C462.072 98.8563 462 98.4047 462 97.9999C462 96.6282 461.536 89.9091 461.054 82.9478L461.054 82.9462C460.537 75.4641 460 67.7025 460 65.9997C460 62.7128 455.969 59.9999 446 59.9999C436.032 59.9999 431.29 62.6826 431 64.9997Z" stroke="#27AEE4" stroke-width="4" mask="url(#path-7-inside-1)"/>
<path d="M391 57.9999C405.399 57.9999 407 63.9998 407 63.9998V96.9999C407 102.032 397.455 104 390 104C382.545 104 377 99.9999 377 99.9999V63.9998C377 63.9034 377 63.8079 376.999 63.7134C376.989 60.2392 376.983 57.9999 391 57.9999Z" stroke="#27AEE4" stroke-width="4" mask="url(#path-7-inside-1)"/>
<path d="M320 59.9999V97.9999C320 97.9999 322.417 102 333 102C343.582 102 349 100.322 349 95.9999V61.9998C349 61.9998 345.244 56.9999 335 56.9999C324.756 56.9999 320 59.9999 320 59.9999Z" stroke="#27AEE4" stroke-width="4" mask="url(#path-7-inside-1)"/>
<path d="M292 94.9999L291 61.9998C291.289 57.3655 283.049 53.9997 276 53.9997C268.951 53.9997 265 57.9999 265 57.9999V90.9997C265 99.3009 265.96 99.9999 279 99.9999C292.04 99.9999 292 94.9999 292 94.9999Z" stroke="#27AEE4" stroke-width="4" mask="url(#path-7-inside-1)"/>
<path d="M239 61.9998V96.9999C239 96.9999 235.333 98.9999 224 98.9999C212.667 98.9999 209 96.7768 209 87.9998C209 79.2228 211 59.9999 211 59.9999C211 59.9999 214.245 53.9997 222 53.9997C229.756 53.9997 239.579 58.2344 239 61.9998Z" stroke="#27AEE4" stroke-width="4" mask="url(#path-7-inside-1)"/>
<path d="M188 91.9997L187 61.9998C187.29 58.8135 184.283 55 176 55C167.718 55 166 59.9999 166 59.9999C166 59.9999 165 76.9332 165 87.9998C165 99.0004 168.885 99.0003 177.838 98.9999L178 98.9999C187.068 98.9999 188 91.9997 188 91.9997Z" stroke="#27AEE4" stroke-width="4" mask="url(#path-7-inside-1)"/>
<path d="M146 57.9999L147 88.9998C147 88.9998 149.383 94 138 94C137.448 94 136.919 94.0014 136.411 94.0028H136.407C126.464 94.0292 125 94.0331 125 82.9999V56C125 56 127.163 51.9997 135 51.9997C142.837 51.9997 145.71 53.655 146 57.9999Z" stroke="#27AEE4" stroke-width="4" mask="url(#path-7-inside-1)"/>
<path d="M116 83.9999L115 53.9997C115 50.8137 100 50.9998 100 50.9998V79.9997C100 90.9146 116 83.9999 116 83.9999Z" stroke="#27AEE4" stroke-width="4" mask="url(#path-7-inside-1)"/>
<path d="M632 94.9999L631 63.9998C631.544 53.8441 653 57.7102 653 62.9998C653 65.2244 653.187 68.769 653.399 72.7961C653.692 78.3445 654.033 84.8089 654 89.9998C653.998 90.255 653.997 90.5036 653.995 90.7459C653.952 99.0122 653.947 99.9335 644 101C633.762 102.097 632 94.9999 632 94.9999Z" stroke="#27AEE4" stroke-width="4" mask="url(#path-7-inside-1)"/>
<mask id="path-8-inside-2" fill="white">
<path d="M863.998 470.536L862.997 487.756C862.997 487.756 872 500.567 872 487.756V470.536C872 470.536 864.577 460.316 863.998 470.536Z"/>
<path d="M838.989 507.821L839.99 477.577C839.99 474.365 854.995 474.553 854.995 474.553V503.789C854.995 514.792 838.989 507.821 838.989 507.821Z"/>
<path d="M808.981 485.61L807.98 516.862C807.98 516.862 805.596 521.902 816.983 521.902C817.536 521.902 818.067 521.904 818.575 521.905H818.577C828.522 521.932 829.987 521.936 829.987 510.813V483.593C829.987 483.593 827.823 479.561 819.984 479.561C812.145 479.561 809.27 481.229 808.981 485.61Z"/>
<path d="M90.7529 482.528C90.7529 482.528 84.6039 480.923 83.7501 480.512C82.8971 480.101 82.608 507.479 83.7501 507.813C84.8929 508.147 89.7526 508.821 89.7526 508.821L90.7529 482.528Z"/>
<path d="M106.758 523.854C107.324 523.65 106.758 485.545 106.758 485.545C106.214 484.448 97.755 485.545 97.755 485.545C97.755 485.545 97.3028 520.401 98.7553 521.837C100.208 523.274 106.191 524.058 106.758 523.854Z"/>
<path d="M128.765 489.553C128.765 489.553 129.024 527.114 128.765 528.87C128.573 530.17 125.205 529.584 122.783 529.164C121.933 529.016 121.201 528.889 120.762 528.87C119.072 528.797 116.99 527.83 116.761 525.845C116.532 523.861 117.761 488.545 117.761 488.545C117.761 488.545 128.039 488.821 128.765 489.553Z"/>
<path d="M158.774 530.886V492.577C157.323 490.566 144.77 492.577 144.77 492.577C144.77 492.577 143.563 529.345 145.77 531.894C147.977 534.443 158.774 530.886 158.774 530.886Z"/>
<path d="M194.785 499.61V535.902C194.785 535.902 183.532 539.83 180.781 536.91C178.577 534.571 179.339 513.074 179.668 503.787C179.749 501.486 179.804 499.934 179.781 499.61C179.664 497.974 192.428 496.684 194.785 499.61Z"/>
<path d="M237.799 537.919V501.626C237.617 498.701 218.793 500.618 218.793 500.618C218.793 500.618 218.123 533.808 218.793 537.919C219.463 542.029 237.799 537.919 237.799 537.919Z"/>
<path d="M285.815 507.658L284.814 538.911C284.814 538.911 283.052 546.066 272.81 544.959C262.861 543.884 262.856 542.956 262.811 534.623L262.807 533.87C262.774 528.637 263.115 522.121 263.408 516.528L263.408 516.527C263.62 512.467 263.807 508.893 263.807 506.65C263.807 501.318 285.271 497.42 285.815 507.658Z"/>
<path d="M341.832 543.927L343.833 508.642C343.984 504.985 352.738 504.61 356.837 504.61C360.937 504.61 368.841 507.645 368.841 510.659C368.841 512.022 368.636 517.859 368.412 524.248L368.411 524.282L368.41 524.29L368.41 524.292L368.41 524.296L368.41 524.302C368.139 532.02 367.84 540.525 367.84 542.919C367.84 547.299 366.983 547.959 354.837 547.959C342.69 547.959 341.832 543.927 341.832 543.927Z"/>
<path d="M415.855 511.659L414.855 548.959C414.855 548.959 412.486 550.975 402.852 550.975C393.218 550.975 391.848 550.285 391.848 546.943C391.848 543.601 392.849 511.659 392.849 511.659C392.849 511.659 397.345 508.634 403.852 508.634C410.359 508.634 415.855 509.468 415.855 511.659Z"/>
<path d="M466.872 547.967L467.872 510.667C467.872 510.667 462.647 507.642 455.868 507.642C449.09 507.642 443.865 509.376 443.865 512.683C443.865 514.323 443.618 521.694 443.37 529.117L443.369 529.159L443.368 529.174C443.117 536.694 442.864 544.254 442.864 545.951C442.864 549.328 443.332 550.992 452.867 550.992C462.403 550.992 466.872 547.967 466.872 547.967Z"/>
<path d="M523.89 509.667V542.935C523.89 542.935 522.464 551 505.884 551C491.663 551 492.271 547.177 492.731 544.279C492.808 543.798 492.88 543.343 492.88 542.935C492.88 541.552 493.345 534.777 493.826 527.758C494.344 520.216 494.88 512.391 494.88 510.675C494.88 507.361 498.913 504.626 508.885 504.626C518.857 504.626 523.6 507.33 523.89 509.667Z"/>
<path d="M563.902 504.61C549.499 504.61 547.898 510.659 547.898 510.659V543.927C547.898 549 557.445 550.983 564.903 550.983C572.36 550.983 577.907 546.951 577.907 546.951V510.659C577.907 510.562 577.908 510.465 577.908 510.37C577.918 506.868 577.925 504.61 563.902 504.61Z"/>
<path d="M634.925 507.626V545.935C634.925 545.935 632.507 549.967 621.921 549.967C611.335 549.967 605.916 548.276 605.916 543.919V509.642C605.916 509.642 609.674 504.602 619.921 504.602C630.167 504.602 634.925 507.626 634.925 507.626Z"/>
<path d="M662.934 537.91L663.934 504.642C663.645 499.97 671.888 496.577 678.939 496.577C685.99 496.577 689.943 500.609 689.943 500.609V533.878C689.943 542.246 688.982 542.951 675.938 542.951C662.894 542.951 662.934 537.91 662.934 537.91Z"/>
<path d="M715.951 503.642V538.927C715.951 538.927 719.619 540.943 730.956 540.943C742.292 540.943 745.96 538.702 745.96 529.853C745.96 521.005 743.96 501.626 743.96 501.626C743.96 501.626 740.714 495.577 732.956 495.577C725.198 495.577 715.372 499.846 715.951 503.642Z"/>
<path d="M766.967 523.886L767.968 493.642C767.678 490.43 770.686 486.585 778.971 486.585C787.256 486.585 788.974 491.626 788.974 491.626C788.974 491.626 789.974 508.697 789.974 519.854C789.974 530.944 786.088 530.943 777.132 530.943H776.97C767.899 530.943 766.967 523.886 766.967 523.886Z"/>
<path d="M322.826 539.911L323.827 508.658C323.283 498.42 301.819 502.318 301.819 507.65C301.819 509.893 301.632 513.467 301.42 517.527C301.127 523.12 300.786 529.637 300.819 534.87C300.821 535.127 300.822 535.378 300.823 535.623C300.868 543.956 300.873 544.884 310.822 545.959C321.064 547.066 322.826 539.911 322.826 539.911Z"/>
</mask>
<path d="M863.998 470.536L862.997 487.756C862.997 487.756 872 500.567 872 487.756V470.536C872 470.536 864.577 460.316 863.998 470.536Z" fill="black" fill-opacity="0.01"/>
<path d="M838.989 507.821L839.99 477.577C839.99 474.365 854.995 474.553 854.995 474.553V503.789C854.995 514.792 838.989 507.821 838.989 507.821Z" fill="black" fill-opacity="0.01"/>
<path d="M808.981 485.61L807.98 516.862C807.98 516.862 805.596 521.902 816.983 521.902C817.536 521.902 818.067 521.904 818.575 521.905H818.577C828.522 521.932 829.987 521.936 829.987 510.813V483.593C829.987 483.593 827.823 479.561 819.984 479.561C812.145 479.561 809.27 481.229 808.981 485.61Z" fill="black" fill-opacity="0.01"/>
<path d="M90.7529 482.528C90.7529 482.528 84.6039 480.923 83.7501 480.512C82.8971 480.101 82.608 507.479 83.7501 507.813C84.8929 508.147 89.7526 508.821 89.7526 508.821L90.7529 482.528Z" fill="black" fill-opacity="0.01"/>
<path d="M106.758 523.854C107.324 523.65 106.758 485.545 106.758 485.545C106.214 484.448 97.755 485.545 97.755 485.545C97.755 485.545 97.3028 520.401 98.7553 521.837C100.208 523.274 106.191 524.058 106.758 523.854Z" fill="black" fill-opacity="0.01"/>
<path d="M128.765 489.553C128.765 489.553 129.024 527.114 128.765 528.87C128.573 530.17 125.205 529.584 122.783 529.164C121.933 529.016 121.201 528.889 120.762 528.87C119.072 528.797 116.99 527.83 116.761 525.845C116.532 523.861 117.761 488.545 117.761 488.545C117.761 488.545 128.039 488.821 128.765 489.553Z" fill="black" fill-opacity="0.01"/>
<path d="M158.774 530.886V492.577C157.323 490.566 144.77 492.577 144.77 492.577C144.77 492.577 143.563 529.345 145.77 531.894C147.977 534.443 158.774 530.886 158.774 530.886Z" fill="black" fill-opacity="0.01"/>
<path d="M194.785 499.61V535.902C194.785 535.902 183.532 539.83 180.781 536.91C178.577 534.571 179.339 513.074 179.668 503.787C179.749 501.486 179.804 499.934 179.781 499.61C179.664 497.974 192.428 496.684 194.785 499.61Z" fill="black" fill-opacity="0.01"/>
<path d="M237.799 537.919V501.626C237.617 498.701 218.793 500.618 218.793 500.618C218.793 500.618 218.123 533.808 218.793 537.919C219.463 542.029 237.799 537.919 237.799 537.919Z" fill="black" fill-opacity="0.01"/>
<path d="M285.815 507.658L284.814 538.911C284.814 538.911 283.052 546.066 272.81 544.959C262.861 543.884 262.856 542.956 262.811 534.623L262.807 533.87C262.774 528.637 263.115 522.121 263.408 516.528L263.408 516.527C263.62 512.467 263.807 508.893 263.807 506.65C263.807 501.318 285.271 497.42 285.815 507.658Z" fill="black" fill-opacity="0.01"/>
<path d="M341.832 543.927L343.833 508.642C343.984 504.985 352.738 504.61 356.837 504.61C360.937 504.61 368.841 507.645 368.841 510.659C368.841 512.022 368.636 517.859 368.412 524.248L368.411 524.282L368.41 524.29L368.41 524.292L368.41 524.296L368.41 524.302C368.139 532.02 367.84 540.525 367.84 542.919C367.84 547.299 366.983 547.959 354.837 547.959C342.69 547.959 341.832 543.927 341.832 543.927Z" fill="black" fill-opacity="0.01"/>
<path d="M415.855 511.659L414.855 548.959C414.855 548.959 412.486 550.975 402.852 550.975C393.218 550.975 391.848 550.285 391.848 546.943C391.848 543.601 392.849 511.659 392.849 511.659C392.849 511.659 397.345 508.634 403.852 508.634C410.359 508.634 415.855 509.468 415.855 511.659Z" fill="black" fill-opacity="0.01"/>
<path d="M466.872 547.967L467.872 510.667C467.872 510.667 462.647 507.642 455.868 507.642C449.09 507.642 443.865 509.376 443.865 512.683C443.865 514.323 443.618 521.694 443.37 529.117L443.369 529.159L443.368 529.174C443.117 536.694 442.864 544.254 442.864 545.951C442.864 549.328 443.332 550.992 452.867 550.992C462.403 550.992 466.872 547.967 466.872 547.967Z" fill="black" fill-opacity="0.01"/>
<path d="M523.89 509.667V542.935C523.89 542.935 522.464 551 505.884 551C491.663 551 492.271 547.177 492.731 544.279C492.808 543.798 492.88 543.343 492.88 542.935C492.88 541.552 493.345 534.777 493.826 527.758C494.344 520.216 494.88 512.391 494.88 510.675C494.88 507.361 498.913 504.626 508.885 504.626C518.857 504.626 523.6 507.33 523.89 509.667Z" fill="black" fill-opacity="0.01"/>
<path d="M563.902 504.61C549.499 504.61 547.898 510.659 547.898 510.659V543.927C547.898 549 557.445 550.983 564.903 550.983C572.36 550.983 577.907 546.951 577.907 546.951V510.659C577.907 510.562 577.908 510.465 577.908 510.37C577.918 506.868 577.925 504.61 563.902 504.61Z" fill="black" fill-opacity="0.01"/>
<path d="M634.925 507.626V545.935C634.925 545.935 632.507 549.967 621.921 549.967C611.335 549.967 605.916 548.276 605.916 543.919V509.642C605.916 509.642 609.674 504.602 619.921 504.602C630.167 504.602 634.925 507.626 634.925 507.626Z" fill="black" fill-opacity="0.01"/>
<path d="M662.934 537.91L663.934 504.642C663.645 499.97 671.888 496.577 678.939 496.577C685.99 496.577 689.943 500.609 689.943 500.609V533.878C689.943 542.246 688.982 542.951 675.938 542.951C662.894 542.951 662.934 537.91 662.934 537.91Z" fill="black" fill-opacity="0.01"/>
<path d="M715.951 503.642V538.927C715.951 538.927 719.619 540.943 730.956 540.943C742.292 540.943 745.96 538.702 745.96 529.853C745.96 521.005 743.96 501.626 743.96 501.626C743.96 501.626 740.714 495.577 732.956 495.577C725.198 495.577 715.372 499.846 715.951 503.642Z" fill="black" fill-opacity="0.01"/>
<path d="M766.967 523.886L767.968 493.642C767.678 490.43 770.686 486.585 778.971 486.585C787.256 486.585 788.974 491.626 788.974 491.626C788.974 491.626 789.974 508.697 789.974 519.854C789.974 530.944 786.088 530.943 777.132 530.943H776.97C767.899 530.943 766.967 523.886 766.967 523.886Z" fill="black" fill-opacity="0.01"/>
<path d="M322.826 539.911L323.827 508.658C323.283 498.42 301.819 502.318 301.819 507.65C301.819 509.893 301.632 513.467 301.42 517.527C301.127 523.12 300.786 529.637 300.819 534.87C300.821 535.127 300.822 535.378 300.823 535.623C300.868 543.956 300.873 544.884 310.822 545.959C321.064 547.066 322.826 539.911 322.826 539.911Z" fill="black" fill-opacity="0.01"/>
<path d="M863.998 470.536L862.997 487.756C862.997 487.756 872 500.567 872 487.756V470.536C872 470.536 864.577 460.316 863.998 470.536Z" stroke="#27AEE4" stroke-width="4" mask="url(#path-8-inside-2)"/>
<path d="M838.989 507.821L839.99 477.577C839.99 474.365 854.995 474.553 854.995 474.553V503.789C854.995 514.792 838.989 507.821 838.989 507.821Z" stroke="#27AEE4" stroke-width="4" mask="url(#path-8-inside-2)"/>
<path d="M808.981 485.61L807.98 516.862C807.98 516.862 805.596 521.902 816.983 521.902C817.536 521.902 818.067 521.904 818.575 521.905H818.577C828.522 521.932 829.987 521.936 829.987 510.813V483.593C829.987 483.593 827.823 479.561 819.984 479.561C812.145 479.561 809.27 481.229 808.981 485.61Z" stroke="#27AEE4" stroke-width="4" mask="url(#path-8-inside-2)"/>
<path d="M90.7529 482.528C90.7529 482.528 84.6039 480.923 83.7501 480.512C82.8971 480.101 82.608 507.479 83.7501 507.813C84.8929 508.147 89.7526 508.821 89.7526 508.821L90.7529 482.528Z" stroke="#27AEE4" stroke-width="4" mask="url(#path-8-inside-2)"/>
<path d="M106.758 523.854C107.324 523.65 106.758 485.545 106.758 485.545C106.214 484.448 97.755 485.545 97.755 485.545C97.755 485.545 97.3028 520.401 98.7553 521.837C100.208 523.274 106.191 524.058 106.758 523.854Z" stroke="#27AEE4" stroke-width="4" mask="url(#path-8-inside-2)"/>
<path d="M128.765 489.553C128.765 489.553 129.024 527.114 128.765 528.87C128.573 530.17 125.205 529.584 122.783 529.164C121.933 529.016 121.201 528.889 120.762 528.87C119.072 528.797 116.99 527.83 116.761 525.845C116.532 523.861 117.761 488.545 117.761 488.545C117.761 488.545 128.039 488.821 128.765 489.553Z" stroke="#27AEE4" stroke-width="4" mask="url(#path-8-inside-2)"/>
<path d="M158.774 530.886V492.577C157.323 490.566 144.77 492.577 144.77 492.577C144.77 492.577 143.563 529.345 145.77 531.894C147.977 534.443 158.774 530.886 158.774 530.886Z" stroke="#27AEE4" stroke-width="4" mask="url(#path-8-inside-2)"/>
<path d="M194.785 499.61V535.902C194.785 535.902 183.532 539.83 180.781 536.91C178.577 534.571 179.339 513.074 179.668 503.787C179.749 501.486 179.804 499.934 179.781 499.61C179.664 497.974 192.428 496.684 194.785 499.61Z" stroke="#27AEE4" stroke-width="4" mask="url(#path-8-inside-2)"/>
<path d="M237.799 537.919V501.626C237.617 498.701 218.793 500.618 218.793 500.618C218.793 500.618 218.123 533.808 218.793 537.919C219.463 542.029 237.799 537.919 237.799 537.919Z" stroke="#27AEE4" stroke-width="4" mask="url(#path-8-inside-2)"/>
<path d="M285.815 507.658L284.814 538.911C284.814 538.911 283.052 546.066 272.81 544.959C262.861 543.884 262.856 542.956 262.811 534.623L262.807 533.87C262.774 528.637 263.115 522.121 263.408 516.528L263.408 516.527C263.62 512.467 263.807 508.893 263.807 506.65C263.807 501.318 285.271 497.42 285.815 507.658Z" stroke="#27AEE4" stroke-width="4" mask="url(#path-8-inside-2)"/>
<path d="M341.832 543.927L343.833 508.642C343.984 504.985 352.738 504.61 356.837 504.61C360.937 504.61 368.841 507.645 368.841 510.659C368.841 512.022 368.636 517.859 368.412 524.248L368.411 524.282L368.41 524.29L368.41 524.292L368.41 524.296L368.41 524.302C368.139 532.02 367.84 540.525 367.84 542.919C367.84 547.299 366.983 547.959 354.837 547.959C342.69 547.959 341.832 543.927 341.832 543.927Z" stroke="#27AEE4" stroke-width="4" mask="url(#path-8-inside-2)"/>
<path d="M415.855 511.659L414.855 548.959C414.855 548.959 412.486 550.975 402.852 550.975C393.218 550.975 391.848 550.285 391.848 546.943C391.848 543.601 392.849 511.659 392.849 511.659C392.849 511.659 397.345 508.634 403.852 508.634C410.359 508.634 415.855 509.468 415.855 511.659Z" stroke="#27AEE4" stroke-width="4" mask="url(#path-8-inside-2)"/>
<path d="M466.872 547.967L467.872 510.667C467.872 510.667 462.647 507.642 455.868 507.642C449.09 507.642 443.865 509.376 443.865 512.683C443.865 514.323 443.618 521.694 443.37 529.117L443.369 529.159L443.368 529.174C443.117 536.694 442.864 544.254 442.864 545.951C442.864 549.328 443.332 550.992 452.867 550.992C462.403 550.992 466.872 547.967 466.872 547.967Z" stroke="#27AEE4" stroke-width="4" mask="url(#path-8-inside-2)"/>
<path d="M523.89 509.667V542.935C523.89 542.935 522.464 551 505.884 551C491.663 551 492.271 547.177 492.731 544.279C492.808 543.798 492.88 543.343 492.88 542.935C492.88 541.552 493.345 534.777 493.826 527.758C494.344 520.216 494.88 512.391 494.88 510.675C494.88 507.361 498.913 504.626 508.885 504.626C518.857 504.626 523.6 507.33 523.89 509.667Z" stroke="#27AEE4" stroke-width="4" mask="url(#path-8-inside-2)"/>
<path d="M563.902 504.61C549.499 504.61 547.898 510.659 547.898 510.659V543.927C547.898 549 557.445 550.983 564.903 550.983C572.36 550.983 577.907 546.951 577.907 546.951V510.659C577.907 510.562 577.908 510.465 577.908 510.37C577.918 506.868 577.925 504.61 563.902 504.61Z" stroke="#27AEE4" stroke-width="4" mask="url(#path-8-inside-2)"/>
<path d="M634.925 507.626V545.935C634.925 545.935 632.507 549.967 621.921 549.967C611.335 549.967 605.916 548.276 605.916 543.919V509.642C605.916 509.642 609.674 504.602 619.921 504.602C630.167 504.602 634.925 507.626 634.925 507.626Z" stroke="#27AEE4" stroke-width="4" mask="url(#path-8-inside-2)"/>
<path d="M662.934 537.91L663.934 504.642C663.645 499.97 671.888 496.577 678.939 496.577C685.99 496.577 689.943 500.609 689.943 500.609V533.878C689.943 542.246 688.982 542.951 675.938 542.951C662.894 542.951 662.934 537.91 662.934 537.91Z" stroke="#27AEE4" stroke-width="4" mask="url(#path-8-inside-2)"/>
<path d="M715.951 503.642V538.927C715.951 538.927 719.619 540.943 730.956 540.943C742.292 540.943 745.96 538.702 745.96 529.853C745.96 521.005 743.96 501.626 743.96 501.626C743.96 501.626 740.714 495.577 732.956 495.577C725.198 495.577 715.372 499.846 715.951 503.642Z" stroke="#27AEE4" stroke-width="4" mask="url(#path-8-inside-2)"/>
<path d="M766.967 523.886L767.968 493.642C767.678 490.43 770.686 486.585 778.971 486.585C787.256 486.585 788.974 491.626 788.974 491.626C788.974 491.626 789.974 508.697 789.974 519.854C789.974 530.944 786.088 530.943 777.132 530.943H776.97C767.899 530.943 766.967 523.886 766.967 523.886Z" stroke="#27AEE4" stroke-width="4" mask="url(#path-8-inside-2)"/>
<path d="M322.826 539.911L323.827 508.658C323.283 498.42 301.819 502.318 301.819 507.65C301.819 509.893 301.632 513.467 301.42 517.527C301.127 523.12 300.786 529.637 300.819 534.87C300.821 535.127 300.822 535.378 300.823 535.623C300.868 543.956 300.873 544.884 310.822 545.959C321.064 547.066 322.826 539.911 322.826 539.911Z" stroke="#27AEE4" stroke-width="4" mask="url(#path-8-inside-2)"/>
</svg>
