<svg xmlns="http://www.w3.org/2000/svg" width="320" height="262" viewBox="0 0 320 262"><defs><mask id="4s8gb" width="2" height="2" x="-1" y="-1"><path fill="#fff" d="M40 11h240v177H40z"/><path d="M278.098 77.593c-6.103-16.808-18.407-17.307-37.965-14.813-4.901-15.163-16.906-24.19-33.962-27.732-7.418-.95-16.086-.116-22.992 2.444-.471-1.97-.567-2.294-.567-2.294C179.36 18.988 149.85 5.27 125.54 13.35c-18.707 6.235-39.264 28.48-31.661 52.371-9.204 2.394-15.056 6.933-17.707 16.11-.18 1.305-.196 1.351-.418 3.007-38.827-5.508-55.675 59.894-.182 63.53 5.552 8.878 12.504 20.4 23.408 21.497 5.403 6.334 18.758 7.481 28.911 5.785 19.458-3.242 7.753-4.289 22.259 5.088 17.406 11.222 37.214 8.828 52.17-2.893 12.454-9.776 29.86 5.636 51.168-15.861 17.057-17.158 11.405-29.028 9.504-50.924 10.804-7.133 21.508-15.911 15.106-33.468z"/></mask><filter id="4s8ga" width="394" height="363" x="-37" y="-66" filterUnits="userSpaceOnUse"><feOffset dy="32" in="SourceGraphic" result="FeOffset1240Out"/><feGaussianBlur in="FeOffset1240Out" result="FeGaussianBlur1241Out" stdDeviation="26.8 26.8"/></filter></defs><g><g><g filter="url(#4s8ga)"><path fill="none" d="M278.098 77.593c-6.103-16.808-18.407-17.307-37.965-14.813-4.901-15.163-16.906-24.19-33.962-27.732-7.418-.95-16.086-.116-22.992 2.444-.471-1.97-.567-2.294-.567-2.294C179.36 18.988 149.85 5.27 125.54 13.35c-18.707 6.235-39.264 28.48-31.661 52.371-9.204 2.394-15.056 6.933-17.707 16.11-.18 1.305-.196 1.351-.418 3.007-38.827-5.508-55.675 59.894-.182 63.53 5.552 8.878 12.504 20.4 23.408 21.497 5.403 6.334 18.758 7.481 28.911 5.785 19.458-3.242 7.753-4.289 22.259 5.088 17.406 11.222 37.214 8.828 52.17-2.893 12.454-9.776 29.86 5.636 51.168-15.861 17.057-17.158 11.405-29.028 9.504-50.924 10.804-7.133 21.508-15.911 15.106-33.468z" mask="url(&quot;#4s8gb&quot;)"/><path fill="#0f4178" fill-opacity=".5" d="M278.098 77.593c-6.103-16.808-18.407-17.307-37.965-14.813-4.901-15.163-16.906-24.19-33.962-27.732-7.418-.95-16.086-.116-22.992 2.444-.471-1.97-.567-2.294-.567-2.294C179.36 18.988 149.85 5.27 125.54 13.35c-18.707 6.235-39.264 28.48-31.661 52.371-9.204 2.394-15.056 6.933-17.707 16.11-.18 1.305-.196 1.351-.418 3.007-38.827-5.508-55.675 59.894-.182 63.53 5.552 8.878 12.504 20.4 23.408 21.497 5.403 6.334 18.758 7.481 28.911 5.785 19.458-3.242 7.753-4.289 22.259 5.088 17.406 11.222 37.214 8.828 52.17-2.893 12.454-9.776 29.86 5.636 51.168-15.861 17.057-17.158 11.405-29.028 9.504-50.924 10.804-7.133 21.508-15.911 15.106-33.468z"/></g><path fill="#27aee4" d="M278.098 77.593c-6.103-16.808-18.407-17.307-37.965-14.813-4.901-15.163-16.906-24.19-33.962-27.732-7.418-.95-16.086-.116-22.992 2.444-.471-1.97-.567-2.294-.567-2.294C179.36 18.988 149.85 5.27 125.54 13.35c-18.707 6.235-39.264 28.48-31.661 52.371-9.204 2.394-15.056 6.933-17.707 16.11-.18 1.305-.196 1.351-.418 3.007-38.827-5.508-55.675 59.894-.182 63.53 5.552 8.878 12.504 20.4 23.408 21.497 5.403 6.334 18.758 7.481 28.911 5.785 19.458-3.242 7.753-4.289 22.259 5.088 17.406 11.222 37.214 8.828 52.17-2.893 12.454-9.776 29.86 5.636 51.168-15.861 17.057-17.158 11.405-29.028 9.504-50.924 10.804-7.133 21.508-15.911 15.106-33.468z"/></g></g></svg>