<svg xmlns="http://www.w3.org/2000/svg" width="266" height="188" viewBox="0 0 266 188"><defs><mask id="xisvb" width="2" height="2" x="-1" y="-1"><path fill="#fff" d="M37 11h189v102H37z"/><path d="M38.126 69.25c1.789-9.057 11.161-14.517 17.18-14.5-2.227-19.91 17.015-29.583 27.831-25.29 4.979-23.934 35.117-21.657 45.7-8.339 4.147-4.846 12.575-10.03 23.944-9.858 21.938.333 38.104 19.058 37.712 30.833 25.702-5.758 48.744 33.295 26.023 56.008-11.005 11-31.298 16.202-46.275 4.978-7.156 10.639-27.832 12.825-35.078 2.242-9.586 10.013-29.496 7.68-33.387-3.77-5.728 4.427-13.975 7.067-21.892 6.947-15.371-.233-20.769-10.414-20.149-16.349-12.241.9-24.092-10.312-21.61-22.901z"/></mask><filter id="xisva" width="343" height="288" x="-40" y="-66" filterUnits="userSpaceOnUse"><feOffset dy="32" in="SourceGraphic" result="FeOffset1023Out"/><feGaussianBlur in="FeOffset1023Out" result="FeGaussianBlur1024Out" stdDeviation="26.8 26.8"/></filter></defs><g><g><g filter="url(#xisva)"><path fill="none" d="M38.126 69.25c1.789-9.057 11.161-14.517 17.18-14.5-2.227-19.91 17.015-29.583 27.831-25.29 4.979-23.934 35.117-21.657 45.7-8.339 4.147-4.846 12.575-10.03 23.944-9.858 21.938.333 38.104 19.058 37.712 30.833 25.702-5.758 48.744 33.295 26.023 56.008-11.005 11-31.298 16.202-46.275 4.978-7.156 10.639-27.832 12.825-35.078 2.242-9.586 10.013-29.496 7.68-33.387-3.77-5.728 4.427-13.975 7.067-21.892 6.947-15.371-.233-20.769-10.414-20.149-16.349-12.241.9-24.092-10.312-21.61-22.901z" mask="url(&quot;#xisvb&quot;)"/><path fill="#0f4178" fill-opacity=".5" d="M38.126 69.25c1.789-9.057 11.161-14.517 17.18-14.5-2.227-19.91 17.015-29.583 27.831-25.29 4.979-23.934 35.117-21.657 45.7-8.339 4.147-4.846 12.575-10.03 23.944-9.858 21.938.333 38.104 19.058 37.712 30.833 25.702-5.758 48.744 33.295 26.023 56.008-11.005 11-31.298 16.202-46.275 4.978-7.156 10.639-27.832 12.825-35.078 2.242-9.586 10.013-29.496 7.68-33.387-3.77-5.728 4.427-13.975 7.067-21.892 6.947-15.371-.233-20.769-10.414-20.149-16.349-12.241.9-24.092-10.312-21.61-22.901z"/></g><path fill="#1985cc" d="M38.126 69.25c1.789-9.057 11.161-14.517 17.18-14.5-2.227-19.91 17.015-29.583 27.831-25.29 4.979-23.934 35.117-21.657 45.7-8.339 4.147-4.846 12.575-10.03 23.944-9.858 21.938.333 38.104 19.058 37.712 30.833 25.702-5.758 48.744 33.295 26.023 56.008-11.005 11-31.298 16.202-46.275 4.978-7.156 10.639-27.832 12.825-35.078 2.242-9.586 10.013-29.496 7.68-33.387-3.77-5.728 4.427-13.975 7.067-21.892 6.947-15.371-.233-20.769-10.414-20.149-16.349-12.241.9-24.092-10.312-21.61-22.901z"/></g></g></svg>