<svg width="189" height="102" viewBox="0 0 189 102" fill="none" xmlns="http://www.w3.org/2000/svg">
<path fill-rule="evenodd" clip-rule="evenodd" d="M1.12551 58.2504C2.91482 49.1925 12.2872 43.7333 18.3059 43.7494C16.0788 23.8408 35.3205 14.1672 46.137 18.4606C51.1158 -5.47371 81.2546 -3.19664 91.836 10.121C95.9841 5.27508 104.411 0.0905237 115.781 0.263075C137.719 0.595634 153.885 19.3211 153.493 31.0961C179.195 25.3374 202.237 64.3908 179.516 87.1043C168.511 98.1034 148.218 103.306 133.241 92.0817C126.085 102.721 105.409 104.906 98.163 94.3238C88.5772 104.337 68.6667 102.005 64.7764 90.5535C59.0476 94.9813 50.8012 97.621 42.884 97.5008C27.5126 97.2679 22.1151 87.0865 22.7351 81.152C10.4937 82.051 -1.35663 70.8394 1.12551 58.2504Z" fill="#1985CC"/>
</svg>
