<svg xmlns="http://www.w3.org/2000/svg" width="478" height="349" viewBox="0 0 478 349"><g><g><path fill="#548dd1" d="M364.24 335.843c52.786 0 93.343 6.447 109.753-38.157 7.421-19.962 4.181-41.9-6.585-57.704-13.275-19.442-22.264-18.922-47.873-28.176-.523-.831-1.15-3.43-1.359-2.91l-4.6-11.334c-5.33-14.867-9.825-27.656-27.803-37.741-35.226-19.755-50.068 4.47-70.66-5.095-.418-7.173 3.763-2.599-5.54-13.931-4.599-5.615-9.303-7.903-15.052-10.918.314-5.822 1.15-12.892.732-18.506l-6.271-17.987C292.64 44.206 222.398-7.987 158.428 1.058 96.13 9.895 52.752 61.673 55.678 125.198c.41 5.03 3.428 9.326 1.022 10.366-109.444 47.29-39.85 181.385 36.224 202.97 88.07 24.99 271.316-2.69 271.316-2.69z"/></g></g></svg>