<svg xmlns="http://www.w3.org/2000/svg" width="386" height="246" viewBox="0 0 386 246"><g><g><path fill="#548dd1" d="M348.032 202.17c12.554-22.07 40.434-20.197 37.825-63.2-2.608-42.675-40.353-46.829-51.032-51.797-5.136-42.35-20.95-70.122-55.679-80.384-39.7-21.99-92.444 13.601-102.39 44.387-35.624-5.864-40.434-9.04-67.336 10.262-10.68-5.05-32.445-11.891-45.978-2.688-16.14 4.886-30.896 21.419-29.673 33.88.815 8.796-1.957 3.014 3.587 8.307-66.685 29.564-39.62 147.655 46.222 133.077 32.608-5.538 13.777.57 39.375 6.271 23.07 5.132 28.287-5.7 41.494-6.27 11.576-.49 18.179 11.727 39.945 11.971 23.64.245 25.842-10.098 37.989-11.89 8.396-1.303 70.515 29.89 105.65-31.926z"/></g></g></svg>