<svg xmlns="http://www.w3.org/2000/svg" width="310" height="198" viewBox="0 0 310 198"><g><g><path fill="#548dd1" d="M30.493 162.722C20.41 144.958-1.98 146.466.115 111.855c2.094-34.35 32.407-37.692 40.984-41.692 4.125-34.086 16.826-56.44 44.716-64.698 31.884-17.7 74.243 10.947 82.23 35.725 28.61-4.72 32.474-7.276 54.079 8.26 8.576-4.064 26.057-9.571 36.925-2.164 12.963 3.934 24.813 17.24 23.83 27.27-.654 7.08 1.572 2.426-2.88 6.686 53.555 23.795 31.819 118.845-37.121 107.11-26.188-4.456-11.065.46-31.622 5.048-18.529 4.13-22.718-4.588-33.325-5.047-9.296-.393-14.6 9.44-32.08 9.636-18.986.197-20.754-8.128-30.51-9.57-6.743-1.049-56.63 24.057-84.848-25.697z"/></g></g></svg>