<svg width="55" height="12" viewBox="0 0 55 12" fill="none" xmlns="http://www.w3.org/2000/svg">
<path fill-rule="evenodd" clip-rule="evenodd" d="M2.7887 -0.000488281H4.80756L4.42296 1.65131H2.40398L2.7887 -0.000488281ZM0 11.9028H2.01933L4.13534 2.76899H2.16305L0 11.9028ZM18.7024 -0.000488281H6.97119L6.53828 1.65131L11.3944 1.60253L8.99064 11.9028H11.0096L13.4138 1.60253H18.2692L18.7024 -0.000488281ZM43.3171 -0.000488281L40.5289 11.9028H42.5478L45.3365 -0.000488281H43.3171ZM51.1058 2.67191H48.798L44.1345 7.52978L47.6917 11.9496H49.9997L46.4902 7.52978L51.1058 2.67191ZM54.9999 2.67191H52.6439L48.0284 7.52978L51.5385 11.9496H53.8937L50.3362 7.52978L54.9999 2.67191ZM30.8652 4.85818C30.3848 7.14055 30.1922 7.67531 30.1922 7.67531L29.1833 11.9028H27.2593L25.9135 11.8538L23.0287 11.8048C23.0287 11.8048 21.635 11.4166 21.5861 9.81343C21.5384 8.25869 22.5481 6.65663 23.4617 6.26594C23.8464 6.07228 24.8558 6.02351 25.9135 6.02351H26.0578C27.3081 6.02351 28.5091 6.07228 28.5091 6.07228C28.5091 6.07228 28.9423 5.00419 28.7494 4.56664C28.6537 4.42 27.2593 4.42 25.9135 4.42C24.6155 4.42 23.3652 4.46909 23.3179 4.42L23.7498 2.76899H25.9135H29.5671C29.5671 2.76899 31.2978 2.6233 30.8652 4.85818ZM28.1726 7.67531H27.9806C27.9806 7.72393 26.8752 7.67531 25.9135 7.67531C25.4328 7.67531 25.0478 7.67531 24.7115 7.72393C23.7026 7.82195 23.173 10.1533 23.9901 10.2515C24.3748 10.2989 25.1925 10.2989 25.9135 10.2989H27.5483L28.1726 7.67531ZM33.7505 3.69172C32.5479 4.66355 32.3558 6.12185 31.9712 7.48117C31.5865 8.88991 31.3945 10.0564 31.8269 10.8818C32.3558 11.8538 33.3178 11.9997 34.0381 11.9997L38.3652 11.9496L38.7493 10.2989L35.3843 10.2515C34.8556 10.2515 33.99 10.2989 33.7505 9.61897C33.7505 9.47329 33.7979 8.50193 34.0872 7.43351C34.2309 6.94672 34.5672 5.8783 34.8077 5.48986C35.1443 4.90679 35.6727 4.37251 36.7788 4.37251H40.048L40.4809 2.76899L36.6827 2.71958C35.625 2.71958 34.6638 2.915 33.7505 3.69172ZM22.1634 2.76899L20.625 2.71958C20.0957 2.71958 19.519 2.76899 18.9905 2.96345C18.895 3.01334 18.7505 3.06037 18.5096 3.20717C18.2209 3.30328 17.9811 3.49838 17.7404 3.69172C17.2114 4.12927 16.8756 4.66355 16.6347 5.24597C16.2499 6.36446 15.8654 7.72393 15.5767 9.03559L14.904 11.9997H16.9234L17.3078 10.2016L17.8364 8.21089C17.8845 7.96765 17.9324 7.72393 18.0291 7.43351C18.1728 6.99502 18.4617 5.8783 18.7024 5.48986C19.038 4.90679 19.6155 4.42 20.7215 4.42H21.827L22.1634 2.76899Z" fill="#00ADEF"/>
</svg>
