<svg width="36" height="16" viewBox="0 0 36 16" fill="none" xmlns="http://www.w3.org/2000/svg">
<path d="M34.6307 0.0877766L2.62151 2.13965C0.526433 2.27395 -0.373441 4.8639 1.18701 6.26831C1.70288 6.7326 2.39627 6.94755 3.08431 6.85649L34.8819 2.64799C35.5218 2.56329 36 2.01764 36 1.37213C36 0.628953 35.3723 0.0402348 34.6307 0.0877766Z" fill="white"/>
<path d="M31.9955 11.6698L6.19316 13.4191C5.52153 13.4646 5 14.0227 5 14.6959C5 15.4121 5.58189 15.989 6.29799 15.9756C15.488 15.8029 31.9749 15.5 33.5 15.5C34.3036 15.5 34.6363 14.8273 34.7262 13.9887C34.8811 12.5442 33.4449 11.5715 31.9955 11.6698Z" fill="white"/>
</svg>
