<svg width="25" height="38" viewBox="0 0 25 38" fill="none" xmlns="http://www.w3.org/2000/svg">
<path opacity="0.2" fill-rule="evenodd" clip-rule="evenodd" d="M23.3918 15.7539H14.3872L22.1604 2.15656C22.3528 1.82168 22.3517 1.41076 22.1573 1.07684C21.9618 0.74344 21.6037 0.53816 21.2158 0.53816H8.1597C7.69135 0.53816 7.27572 0.83632 7.12811 1.27776L0.60002 20.82C0.488429 21.1496 0.544859 21.513 0.74879 21.795C0.953963 22.0773 1.28236 22.244 1.63172 22.244H10.8619L4.98406 35.9524C4.7736 36.4394 4.9501 37.0067 5.40059 37.2907C5.84377 37.5723 6.43907 37.4983 6.7966 37.0966L24.2047 17.5541C24.4895 17.2362 24.5597 16.7806 24.3843 16.393C24.2089 16.0043 23.8202 15.7539 23.3918 15.7539Z" fill="white"/>
</svg>
