<svg xmlns="http://www.w3.org/2000/svg" width="32" height="47" viewBox="0 0 32 47"><g><g><path fill="#548dd1" d="M26.25 45.994c1.42-.361 2.778-.038 4.102-.693 1.168-.578 1.659-1.57 1.645-2.95-.06-5.767-.025-.913-.026-6.68 0-5.73-.044-6.086.03-11.814.02-1.495-.624-2.403-1.806-3.085-2.372-1.37-2.983-2.117-5.662-2.37-2.306-.217-1.778-1.355-2.9-3.195-1.341-2.199-.48-4.843 1.831-5.975.939-.46-.14-1.055.603-1.78 1.407-1.378 1.424-3.163-.003-4.509-.855-.805-1.904-1.522-2.996-1.94C19.507.82 13.45.23 10.9 1.345c-1.089.418-2.135 1.133-2.988 1.937C6.49 4.626 6.505 6.408 7.91 7.782c.74.724-.335 1.317.601 1.776 2.306 1.13 3.165 3.769 1.827 5.963-1.119 1.836-.592 2.972-2.893 3.189-2.673.252-3.277.998-5.643 2.364-1.18.68-1.821 1.588-1.802 3.08.073 5.715.03 6.073.03 11.79-.001 5.756.033.912-.026 6.667-.014 1.377.476 2.366 1.64 2.943 1.322.654 2.676.33 4.093.69 9.23.469 11.308.588 20.514-.25z"/></g></g></svg>