<svg width="27" height="38" viewBox="0 0 27 38" fill="none" xmlns="http://www.w3.org/2000/svg">
<path opacity="0.2" fill-rule="evenodd" clip-rule="evenodd" d="M21.7568 37.3628C22.9014 37.0674 23.9944 37.3316 25.0614 36.7964C26.0022 36.3246 26.3978 35.5153 26.3863 34.3884C26.3383 29.6812 26.3661 33.6433 26.3659 28.9353C26.3657 24.2586 26.3305 23.9673 26.3897 19.2914C26.4051 18.0714 25.8869 17.3296 24.9346 16.7727C23.0238 15.6554 22.5321 15.0446 20.374 14.8386C18.5159 14.661 18.9412 13.7321 18.0375 12.2305C16.9574 10.4352 17.6512 8.27656 19.5129 7.35228C20.269 6.97676 19.4 6.49172 19.998 5.89896C21.132 4.77496 21.1452 3.3172 19.9957 2.21912C19.3072 1.56144 18.4623 0.976 17.5827 0.6346C16.325 0.48584 11.4462 0.00411999 9.39203 0.91516C8.51458 1.25616 7.67161 1.84016 6.9848 2.49636C5.83808 3.59228 5.85116 5.04704 6.98251 6.16872C7.57904 6.7602 6.7122 7.24436 7.46649 7.61872C9.32371 8.54128 10.0159 10.6953 8.93827 12.4868C8.03686 13.9856 8.46102 14.9125 6.60748 15.0895C4.45449 15.2952 3.96793 15.9047 2.06156 17.0198C1.11166 17.5754 0.594652 18.3156 0.610051 19.5332C0.669153 24.1993 0.634034 24.4916 0.633831 29.1586C0.633657 33.8568 0.661323 29.903 0.613473 34.6007C0.602047 35.7249 0.996708 36.5325 1.93518 37.0034C2.99959 37.5375 4.08999 37.272 5.23184 37.5668C12.6673 37.9492 14.341 38.0468 21.7568 37.3628Z" fill="white"/>
</svg>
