<svg width="229" height="104" viewBox="0 0 229 104" fill="none" xmlns="http://www.w3.org/2000/svg">
<g clip-path="url(#clip0)">
<path d="M114.567 0.0662842C91.2697 0.0662842 71.5466 15.3682 64.928 36.4994H-0.131836V67.6332H64.928C71.5466 88.8306 91.2697 104.199 114.567 104.199C137.93 104.199 157.653 88.8306 164.206 67.6332H229.265V36.4994H164.206C157.587 15.3682 137.864 0.0662842 114.567 0.0662842ZM75.1206 23.4497L85.8426 23.3835L85.9088 12.6523L96.1013 15.8981L99.4767 5.69686L108.213 11.9236L114.567 3.31214L120.921 11.9236L129.657 5.69686L133.032 15.8981L143.225 12.6523L143.291 23.3835L154.013 23.4497L150.77 33.651L159.308 36.4994H148.52C142.629 23.6485 129.657 14.7058 114.567 14.7058C99.4767 14.7058 86.5706 23.6485 80.614 36.4994H69.8258L78.3637 33.651L75.1206 23.4497ZM77.1062 43.786V43.7198C77.1062 43.5211 76.9738 43.3886 76.7091 43.3224C76.5767 43.2561 76.1796 43.1236 76.1796 42.6599C76.1796 42.395 76.4443 42.2625 76.6429 42.2625H77.04H81.9377H82.401C82.6657 42.2625 82.8643 42.395 82.8643 42.6599C82.8643 43.0574 82.5333 43.2561 82.3348 43.3224C82.0039 43.4548 81.9377 43.5873 81.9377 43.786V51.2052C82.0039 51.4039 82.1362 51.3376 82.2686 51.2714C82.3348 51.2052 82.401 51.1389 82.4671 51.0727L84.7174 45.7733C84.7836 45.6408 84.7836 45.4421 84.7836 45.3096V45.1771V43.786C84.7836 43.5873 84.6513 43.4548 84.3865 43.3886C84.2541 43.3224 83.857 43.1899 83.857 42.7262C83.857 42.4612 84.1218 42.3287 84.3203 42.3287H84.7174H89.6151H90.0122C90.277 42.3287 90.4755 42.4612 90.4755 42.7262C90.4755 43.1236 90.1446 43.3224 89.9461 43.3886C89.6813 43.5211 89.5489 43.6536 89.5489 43.786V45.3096V61.4064C89.5489 61.6052 89.6813 61.7376 89.9461 61.8701C90.0784 61.9364 90.4755 62.0689 90.4755 62.5325C90.4755 62.7975 90.2108 62.93 90.0122 62.93H84.2541C83.9894 62.93 83.7908 62.7975 83.7908 62.5325C83.7908 62.1351 84.1218 61.9364 84.3203 61.8701C84.4527 61.8039 84.5851 61.7376 84.6513 61.6714C84.7174 61.6052 84.7174 61.5389 84.7174 61.4727V54.7822C84.7174 54.3185 84.7174 53.7224 84.7836 52.9274C84.8498 52.1325 84.916 51.6026 84.9822 51.2714C84.9822 51.2052 85.0484 51.1389 85.0484 50.9402C85.0484 50.8077 85.1145 50.6752 85.1145 50.609C85.1145 50.344 84.9822 50.1453 84.7836 50.1453C84.7174 50.1453 84.7174 50.1453 84.6513 50.2115C84.5851 50.2778 84.5189 50.4102 84.5189 50.4102C84.3865 50.609 84.3203 50.8077 84.2541 50.9402C84.188 51.2052 83.9894 51.6688 83.9894 51.7351C83.857 52.0663 83.7247 52.3975 83.5923 52.795C82.9304 54.451 82.2024 56.1733 82.1362 56.2396C82.0039 56.5045 82.07 56.5708 82.07 56.7032C82.07 56.7032 82.07 56.7032 82.07 56.7695V61.4727C82.07 61.6714 82.2024 61.8039 82.4671 61.9364C82.5995 62.0026 82.9966 62.1351 82.9966 62.5988C82.9966 62.8638 82.7319 62.9962 82.5333 62.9962H76.7752C76.5105 62.9962 76.312 62.8638 76.312 62.5988C76.312 62.2013 76.6429 62.0026 76.8414 61.9364C77.1723 61.8039 77.2385 61.6714 77.2385 61.6052V44.1835C77.1062 43.786 77.1062 43.786 77.1062 43.786ZM125.62 43.3224H124.561C124.164 43.3224 123.767 43.6536 123.767 44.1173V45.5746V61.2739C123.767 61.4727 123.899 61.6052 124.164 61.7376C124.296 61.8039 124.693 61.9364 124.693 62.4001C124.693 62.665 124.428 62.7975 124.23 62.7975H123.767H119.134H118.737C118.472 62.7975 118.273 62.665 118.273 62.4001C118.273 62.0026 118.604 61.8039 118.803 61.7376C119.134 61.6052 119.2 61.4727 119.2 61.2739V55.6434V43.7198C119.2 43.5211 119.067 43.3886 118.803 43.2561C118.67 43.1899 118.273 43.0574 118.273 42.5937C118.273 42.3287 118.538 42.1962 118.737 42.1962H119.134H122.046H129.26H131.179H131.576C131.841 42.1962 132.04 42.3287 132.04 42.5937C132.04 42.9911 131.709 43.1899 131.51 43.2561C131.245 43.3886 131.113 43.4548 131.113 43.6536V61.2739C131.113 61.4727 131.245 61.6052 131.51 61.7376C131.643 61.8039 132.04 61.9364 132.04 62.4001C132.04 62.665 131.775 62.7975 131.576 62.7975H131.179H126.414H126.017C125.752 62.7975 125.554 62.665 125.554 62.4001C125.554 62.0026 125.884 61.8039 126.083 61.7376C126.414 61.6052 126.48 61.4727 126.48 61.2739V50.5427V45.5746V44.1173C126.414 43.7198 126.017 43.3224 125.62 43.3224ZM82.8643 36.4994C88.6223 24.7746 100.668 16.7593 114.567 16.7593C128.466 16.7593 140.511 24.8408 146.269 36.4994H82.8643ZM102.256 50.0128C102.19 50.0128 102.19 50.0128 102.256 50.0128C102.19 50.0128 102.124 50.0128 102.058 50.079C101.992 50.1453 101.926 50.2778 101.926 50.2778C101.793 50.4765 101.727 50.6752 101.661 50.8077C101.595 51.0727 101.396 51.5364 101.396 51.6026C101.264 51.9338 101.131 52.265 100.999 52.6625C100.337 54.3185 99.6091 56.0408 99.6091 56.1071C99.4767 56.372 99.5429 56.4383 99.5429 56.5708C99.5429 56.5708 99.5429 56.5708 99.5429 56.637V61.3402C99.5429 61.5389 99.6752 61.6714 99.94 61.8039C100.072 61.8701 100.469 62.0026 100.469 62.4663C100.469 62.7313 100.205 62.8638 100.006 62.8638H94.2481C93.9833 62.8638 93.7848 62.7313 93.7848 62.4663C93.7848 62.0689 94.1157 61.8701 94.3143 61.8039C94.6452 61.6714 94.7114 61.5389 94.7114 61.4727V44.051C94.7114 43.9185 94.7114 43.9185 94.7114 43.8523V43.786C94.7114 43.5873 94.579 43.4548 94.3143 43.3886C94.1819 43.3224 93.7848 43.1899 93.7848 42.7262C93.7848 42.4612 94.0495 42.3287 94.2481 42.3287H94.6452H99.5429H100.006C100.271 42.3287 100.469 42.4612 100.469 42.7262C100.469 43.1236 100.139 43.3224 99.94 43.3886C99.6091 43.5211 99.5429 43.6536 99.5429 43.8523V51.2714C99.6091 51.4701 99.7414 51.4039 99.8738 51.3376C99.94 51.2714 100.006 51.2052 100.072 51.1389L102.323 45.8395C102.389 45.7071 102.389 45.5083 102.389 45.3759V45.2434V43.8523C102.389 43.6536 102.256 43.5211 101.992 43.4548C101.859 43.3886 101.462 43.2561 101.462 42.7924C101.462 42.5274 101.727 42.395 101.926 42.395H102.323H107.22H107.617C107.882 42.395 108.081 42.5274 108.081 42.7924C108.081 43.1899 107.75 43.3886 107.551 43.4548C107.287 43.5873 107.154 43.7198 107.154 43.8523V45.3759V61.4727C107.154 61.6714 107.287 61.8039 107.551 61.9364C107.684 62.0026 108.081 62.1351 108.081 62.5988C108.081 62.8638 107.816 62.9962 107.617 62.9962H101.859C101.595 62.9962 101.396 62.8638 101.396 62.5988C101.396 62.2013 101.727 62.0026 101.926 61.9364C102.058 61.8701 102.19 61.8039 102.256 61.7376C102.323 61.6714 102.323 61.6052 102.323 61.5389V54.8485C102.323 54.3848 102.323 53.7886 102.389 52.9937C102.455 52.1988 102.521 51.6688 102.587 51.3376C102.587 51.2714 102.654 51.2052 102.654 51.0064C102.654 50.8739 102.72 50.7415 102.72 50.6752C102.587 50.1453 102.455 50.0128 102.256 50.0128ZM100.8 40.2752C101.661 40.2752 102.058 40.1427 102.058 39.8115C102.058 39.679 101.926 39.6128 101.727 39.4803C101.528 39.4141 101.396 39.2153 101.396 38.9504C101.396 38.6854 101.528 38.4204 101.859 38.2217C102.124 38.023 102.587 37.8905 103.117 37.8905C103.779 37.8905 104.308 38.023 104.639 38.3542C104.97 38.6192 105.102 38.8841 105.102 39.2153C105.102 39.5466 104.97 39.8115 104.639 40.0765C104.242 40.4739 103.58 40.7389 102.587 40.9376C102.323 41.0039 102.124 41.0701 101.859 41.0701C101.595 41.0701 101.33 41.1364 101.131 41.1364C100.999 41.1364 100.933 41.1364 100.8 41.1364C100.668 41.1364 100.602 41.1364 100.469 41.1364C100.271 41.1364 100.006 41.1364 99.7414 41.0701C99.4767 41.0701 99.2119 41.0039 99.0134 40.9376C98.0868 40.7389 97.425 40.4077 96.9617 40.0765C96.6969 39.8115 96.4984 39.4803 96.4984 39.2153C96.4984 38.8841 96.6307 38.5529 96.9617 38.3542C97.3588 38.023 97.8882 37.8905 98.4839 37.8905C99.0134 37.8905 99.4105 38.023 99.7414 38.2217C100.006 38.4204 100.205 38.6854 100.205 38.9504C100.205 39.2153 100.072 39.3478 99.8738 39.4803C99.6752 39.5466 99.5429 39.679 99.5429 39.8115C99.6091 40.1427 100.006 40.2752 100.8 40.2752ZM146.336 67.6332C140.578 79.4243 128.532 87.5058 114.567 87.5058C100.602 87.5058 88.5562 79.358 82.7981 67.6332H146.336ZM145.21 55.3784C144.88 55.5109 144.482 55.5771 144.085 55.5771C143.887 55.5771 143.093 55.5771 142.365 55.5771C141.438 55.5771 140.71 56.3058 140.71 57.1669V61.2739C140.71 61.4727 140.842 61.6052 141.107 61.7376C141.239 61.8039 141.637 61.9364 141.637 62.4001C141.637 62.665 141.372 62.7975 141.173 62.7975H135.415C135.15 62.7975 134.952 62.665 134.952 62.4001C134.952 62.0026 135.283 61.8039 135.481 61.7376C135.812 61.6052 135.878 61.4727 135.878 61.2739V43.7198C135.878 43.5211 135.812 43.3886 135.481 43.2561C135.349 43.1899 134.952 43.0574 134.952 42.5937C134.952 42.3287 135.217 42.1962 135.415 42.1962H135.812H142.828C144.152 42.2625 144.549 42.395 145.343 42.7924C146.6 43.5211 147.328 44.3822 147.924 45.7071C148.321 46.6345 148.52 47.6943 148.52 48.8867C148.52 50.7415 148.189 52.1988 147.461 53.3911C146.865 54.3848 146.071 55.0472 145.21 55.3784ZM18.0029 53.3911C17.4072 54.3185 16.6792 54.9809 15.7526 55.3122C15.4216 55.4446 15.0907 55.5109 14.6274 55.5109C14.4289 55.5109 13.6346 55.5109 12.9066 55.5109C11.98 55.5109 11.252 56.2395 11.252 57.1007V61.2077C11.252 61.4064 11.3844 61.5389 11.6491 61.6714C11.7815 61.7376 12.1786 61.8701 12.1786 62.3338C12.1786 62.5988 11.9138 62.7313 11.7153 62.7313H5.95719C5.69245 62.7313 5.49389 62.5988 5.49389 62.3338C5.49389 61.9364 5.82482 61.7376 6.02338 61.6714C6.3543 61.5389 6.4205 61.4064 6.4205 61.2077V43.7198C6.4205 43.5211 6.3543 43.3886 6.02338 43.2561C5.89101 43.1899 5.49389 43.0574 5.49389 42.5937C5.49389 42.3287 5.75863 42.1962 5.95719 42.1962H6.3543H13.3699C14.6936 42.2625 15.0907 42.395 15.8849 42.7924C17.1425 43.5211 17.8705 44.3822 18.4662 45.7071C18.8633 46.6345 19.0618 47.6943 19.0618 48.8867C19.0618 50.7415 18.6647 52.265 18.0029 53.3911ZM32.0341 46.237C31.8355 46.9657 31.637 47.5618 31.5708 48.0255C31.0413 50.079 30.578 51.5364 30.3133 52.4638C29.7838 54.2523 29.3867 55.7096 29.1219 56.7032C28.7248 58.3593 28.3939 59.5517 28.1292 60.2141C27.2026 62.4663 25.7465 63.6587 23.7609 63.6587C23.0329 63.6587 22.5034 63.4599 22.1063 63.1287C21.7754 62.8638 21.5107 62.4001 21.4445 61.9364C21.4445 61.8701 21.4445 61.8039 21.4445 61.8039C21.4445 61.009 22.1063 60.4128 22.9005 60.4128C23.2977 60.4128 23.6286 60.5453 23.8933 60.744C23.9595 60.8102 24.0257 60.8765 24.0919 60.9427C24.1581 61.009 24.2242 61.1415 24.2904 61.2077C24.3566 61.2739 24.4228 61.4064 24.489 61.4727C24.7537 61.7376 25.0185 61.8701 25.217 61.8701C25.6803 61.8701 25.8789 61.6052 25.8789 61.1415C25.8789 60.9427 25.8127 60.6778 25.7465 60.4128C25.6803 60.1478 25.5479 59.7504 25.4156 59.3529C24.7537 57.5644 20.915 44.5147 20.915 44.4485V44.3822V44.316C20.915 44.316 20.915 44.316 20.915 44.2497C20.7164 43.3886 20.4517 43.3223 20.187 43.1899C20.0546 43.1236 19.6575 42.9911 19.6575 42.5274C19.6575 42.2625 19.9222 42.13 20.1208 42.13H20.3193H25.7465C26.0112 42.13 26.2098 42.2625 26.2098 42.5274C26.2098 42.9249 25.9451 43.0574 25.8127 43.1236C25.5479 43.1899 25.6141 43.3223 25.6141 43.4548L25.6803 43.8523C25.6803 43.9185 25.7465 44.1173 25.8127 44.3822C25.8127 44.3822 25.8127 44.3822 25.8127 44.4485C25.8789 44.6472 25.9451 44.9122 26.0112 45.2434C26.0774 45.3759 26.0774 45.5746 26.1436 45.7071L27.5335 51.0064C27.5335 51.0064 27.6659 51.6026 27.7982 51.8676C27.8644 52.0663 28.1292 52.1988 28.4601 52.1988C28.791 52.1988 28.9234 51.8676 29.1881 51.1389C29.1881 51.1389 30.5118 47.2969 30.5118 46.1708C30.5118 45.2434 30.0485 44.8459 29.5852 44.581C29.1219 44.316 28.5925 43.786 28.5925 43.1899C28.5925 42.7262 28.7248 42.4612 28.9896 42.1962C29.3205 41.865 30.0485 41.7988 30.3133 41.7988C30.8427 41.865 31.306 42.0638 31.637 42.4612L31.7031 42.5274C31.7031 42.5937 31.7693 42.5937 31.7693 42.6599C32.1003 43.1236 32.2988 43.7198 32.2988 44.3822C32.365 44.9122 32.2326 45.5083 32.0341 46.237ZM42.3589 60.6778C42.3589 60.479 42.3589 60.2803 42.2927 60.0816C42.2927 60.0153 42.1604 59.7504 42.1604 59.5517C42.1604 58.9555 42.6899 58.4918 43.2855 58.4918H43.3517C43.4179 58.4918 43.4841 58.4918 43.5503 58.4918C44.0135 58.6243 44.4107 58.9555 44.4107 59.5517C44.4107 59.6841 44.4107 60.6778 43.2855 61.7376C42.4913 62.4001 41.6309 62.7975 40.6381 62.7975C38.9835 62.7975 37.5274 61.8701 36.3361 60.0816C35.0124 58.0281 34.2182 55.6434 34.2182 52.1325C34.2182 50.9402 34.3505 49.7478 34.5491 48.688C34.88 46.9657 35.4095 45.5746 36.1375 44.5147C36.6008 43.8523 37.1303 43.3223 37.726 42.8587C38.3216 42.395 38.9835 42.1962 39.5792 42.1962C39.9763 42.1962 40.3072 42.2625 40.6381 42.395C40.969 42.5274 41.2338 42.5937 41.3662 42.6599C41.4985 42.7262 41.6309 42.7262 41.8294 42.7262C42.0942 42.7262 42.2266 42.5937 42.4251 42.395C42.5575 42.1962 42.6898 41.9313 43.1531 41.9313C43.4841 41.9313 43.7488 42.13 43.815 42.4612C43.8812 42.7262 43.9474 42.9911 44.0135 43.2561C44.2121 43.9185 44.3445 44.3822 44.4107 44.6472C44.543 45.2434 44.6754 45.7071 44.6754 46.1045C44.6754 46.6345 44.6092 47.0319 44.4107 47.2306C44.2783 47.4294 44.0135 47.5618 43.7488 47.5618C43.5503 47.5618 43.4179 47.4956 43.2855 47.4294C43.1531 47.3631 43.087 47.2306 43.0208 47.0319C42.8884 46.6345 42.6237 45.6408 42.1604 44.3822C41.8956 43.7198 41.3661 43.2561 40.6381 43.2561C40.3072 43.2561 39.5792 43.5211 39.5792 44.9122V59.8166C39.4468 62.4001 42.2927 61.7376 42.3589 60.6778ZM54.537 60.6778C54.537 60.479 54.537 60.2803 54.4708 60.0816C54.4708 60.0153 54.3384 59.7504 54.3384 59.5517C54.3384 58.9555 54.8679 58.4918 55.4635 58.4918H55.5297C55.5959 58.4918 55.6621 58.4918 55.7283 58.4918C56.1916 58.6243 56.5887 58.9555 56.5887 59.5517C56.5887 59.6841 56.5887 60.6778 55.4635 61.7376C54.6693 62.4001 53.8089 62.7975 52.8161 62.7975C51.1615 62.7975 49.7055 61.8701 48.5141 60.0816C47.1904 58.0281 46.3962 55.6434 46.3962 52.1325C46.3962 50.9402 46.5286 49.7478 46.7271 48.688C47.0581 46.9657 47.5875 45.5746 48.3156 44.5147C48.7789 43.8523 49.3083 43.3223 49.904 42.8587C50.4997 42.395 51.1615 42.1962 51.7572 42.1962C52.1543 42.1962 52.4852 42.2625 52.8161 42.395C53.1471 42.5274 53.4118 42.5937 53.5442 42.6599C53.6766 42.7262 53.8089 42.7262 54.0075 42.7262C54.2722 42.7262 54.4046 42.5937 54.6031 42.395C54.7355 42.1962 54.8679 41.9313 55.3312 41.9313C55.6621 41.9313 55.9268 42.13 55.993 42.4612C56.0592 42.7262 56.1254 42.9911 56.1916 43.2561C56.3901 43.9185 56.5225 44.3822 56.5887 44.6472C56.7211 45.2434 56.8534 45.7071 56.8534 46.1045C56.8534 46.6345 56.7873 47.0319 56.5887 47.2306C56.4563 47.4294 56.1916 47.5618 55.9268 47.5618C55.7283 47.5618 55.5959 47.4956 55.4635 47.4294C55.3312 47.3631 55.265 47.2306 55.1988 47.0319C55.0664 46.6345 54.8017 45.6408 54.3384 44.3822C54.0737 43.7198 53.5442 43.2561 52.8161 43.2561C52.4852 43.2561 51.7572 43.5211 51.7572 44.9122V59.8166C51.6248 62.4001 54.4708 61.7376 54.537 60.6778ZM66.9799 62.3338C66.9799 61.9364 67.3108 61.7376 67.5093 61.6714C67.8403 61.5389 67.9065 61.4064 67.9065 61.2077V60.479C67.9065 59.2204 67.9726 57.5644 67.7741 55.6434C67.5755 53.3911 67.377 52.5962 67.1122 51.6688C66.9799 51.3376 66.5166 50.4765 65.3913 50.4765C64.8618 50.4765 64.6633 50.6752 64.6633 51.1389C64.6633 51.2714 64.6633 51.4039 64.7294 51.5364C64.7294 51.6688 64.7956 51.7351 64.7956 51.8013C64.7956 51.8676 64.7956 52.0001 64.8618 52.265C64.8618 52.4638 64.8618 52.6625 64.8618 52.8612V61.2077C64.8618 61.4064 64.928 61.5389 65.2589 61.6714C65.3913 61.7376 65.7884 61.8701 65.7884 62.3338C65.7884 62.5988 65.5237 62.7313 65.3251 62.7313H64.928H59.567C59.3023 62.7313 59.1037 62.5988 59.1037 62.3338C59.1037 61.9364 59.4346 61.7376 59.6332 61.6714C59.9641 61.5389 60.0303 61.4064 60.0303 61.2077V43.7198C60.0303 43.5211 59.8979 43.3886 59.6332 43.2561C59.5008 43.1899 59.1037 43.0574 59.1037 42.5937C59.1037 42.3287 59.3685 42.1962 59.567 42.1962H65.3251C65.5899 42.1962 65.7884 42.3287 65.7884 42.5937C65.7884 42.9911 65.4575 43.1899 65.2589 43.2561C64.9942 43.3886 64.8618 43.5211 64.8618 43.7198V48.0918C64.8618 49.0192 65.2589 49.0854 65.4575 49.0192C65.5899 49.0192 65.7884 48.9529 65.9208 48.8867C66.0531 48.8204 66.1856 48.7542 66.318 48.688C66.9137 48.3567 67.3108 47.8931 67.6417 47.2969C67.9065 46.8332 68.8992 43.9185 69.164 43.4548C69.8258 42.2625 70.62 42.0638 71.4804 42.0638C71.9437 42.0638 72.3409 42.1962 72.6718 42.4612C73.0027 42.7262 73.2012 43.1899 73.2012 43.786C73.2012 44.2497 72.738 45.2434 71.8114 45.2434C71.2819 45.2434 71.0833 45.1109 70.7524 45.0446C70.4877 44.9784 70.0244 44.9784 69.7596 45.4421C69.6273 45.7733 69.4287 46.3032 69.2302 46.7669C69.0316 47.3631 68.8992 47.6281 69.164 48.2243C69.4949 49.0854 71.0833 49.8141 71.679 51.5364C72.2747 53.1262 72.5394 55.0472 72.5394 57.2332C72.5394 57.7631 72.6718 61.2739 72.6718 61.2739C72.6718 61.4727 72.8703 61.5389 73.1351 61.6714C73.2674 61.7376 73.6646 61.8701 73.6646 62.3338C73.6646 62.5988 73.3998 62.7313 73.2012 62.7313H67.5093C67.2446 62.7313 67.0461 62.5988 66.9799 62.3338ZM154.013 80.8153L143.291 80.8816L143.225 91.6128L133.032 88.3669L129.657 98.5682L120.921 92.3415L114.567 100.953L108.213 92.3415L99.4767 98.5682L96.1013 88.3669L85.9088 91.6128L85.8426 80.8816L75.1206 80.8153L78.3637 70.6141L69.4287 67.6332H80.5478C86.4382 80.5504 99.4105 89.5593 114.567 89.5593C129.657 89.5593 142.695 80.5504 148.586 67.6332H159.705L150.77 70.6141L154.013 80.8153ZM163.014 57.9618C162.485 59.7504 161.624 61.0752 160.367 61.9364C159.374 62.5988 158.315 62.93 157.256 62.93C156.263 62.93 155.403 62.7313 154.543 62.2676C153.285 61.6052 152.358 60.5453 151.63 59.1542C150.704 57.3657 150.307 54.9809 150.307 52.0663C150.307 49.0854 150.902 46.7007 152.028 44.9122C152.822 43.6536 153.815 42.8587 155.006 42.5274C155.535 42.3287 156.065 42.2625 156.661 42.2625C157.322 42.2625 157.918 42.3287 158.514 42.5274C158.646 42.5937 158.712 42.5937 158.845 42.6599C158.911 42.6599 158.977 42.7262 159.043 42.7262C159.771 43.0574 160.433 43.5211 161.029 44.1173C162.021 45.1771 162.75 46.6345 163.08 48.4892C163.345 49.6153 163.411 50.9402 163.411 52.4638C163.544 54.716 163.345 56.5708 163.014 57.9618ZM209.542 44.8459C209.608 44.5809 209.807 43.4548 209.873 42.7262C209.939 42.395 210.204 42.13 210.535 42.13H212.587H213.58H216.558H219.536H220.529H222.647C222.978 42.13 223.309 42.395 223.309 42.7262C223.441 43.4548 223.64 44.5147 223.64 44.8459C223.64 44.9122 223.64 44.9122 223.64 44.9784C223.64 45.5746 223.11 46.0383 222.515 46.0383C222.117 46.0383 221.72 45.7733 221.522 45.3759C221.257 44.8459 221.588 44.3822 221.257 43.7198C221.125 43.4548 220.86 43.2561 220.529 43.2561H219.536C219.073 43.2561 218.742 43.6536 218.742 44.051C218.742 44.6472 219.073 45.3759 219.073 46.5682V61.1415C219.073 61.3402 219.205 61.4727 219.47 61.6052C219.602 61.6714 220 61.8039 220 62.2676C220 62.5325 219.735 62.665 219.536 62.665H216.69H213.844C213.58 62.665 213.381 62.5325 213.381 62.2676C213.381 61.8701 213.712 61.6714 213.91 61.6052C214.241 61.4727 214.308 61.3402 214.308 61.1415V46.5682C214.308 45.3759 214.639 44.6472 214.639 44.051C214.639 43.5873 214.241 43.2561 213.844 43.2561H212.852C212.521 43.2561 212.256 43.4548 212.124 43.7198C211.726 44.3822 212.124 44.8459 211.859 45.3759C211.66 45.7071 211.329 45.972 210.866 46.0383C210.204 46.0383 209.741 45.5746 209.741 44.9784C209.542 44.9784 209.542 44.9122 209.542 44.8459ZM194.187 43.2561C194.055 43.1899 193.658 43.0574 193.658 42.5937C193.658 42.3287 193.923 42.1962 194.121 42.1962H199.879C200.144 42.1962 200.343 42.3287 200.343 42.5937C200.343 42.9911 200.012 43.1899 199.813 43.2561C199.548 43.3886 199.416 43.5211 199.416 43.7198V48.0918C199.416 49.0192 199.813 49.0854 200.012 49.0192C200.144 49.0192 200.343 48.9529 200.475 48.8867C200.607 48.8204 200.74 48.7542 200.872 48.688C201.468 48.3567 201.865 47.8931 202.196 47.2969C202.46 46.8332 203.453 43.9185 203.718 43.4548C204.38 42.2625 205.174 42.0638 206.034 42.0638C206.498 42.0638 206.895 42.1962 207.226 42.4612C207.557 42.7262 207.755 43.1899 207.755 43.786C207.755 44.2497 207.292 45.3096 206.365 45.3096C205.836 45.3096 205.637 45.1771 205.306 45.1109C205.042 45.0446 204.578 45.0446 204.314 45.5083C204.181 45.8395 203.983 46.3695 203.784 46.8332C203.586 47.4294 203.453 47.6943 203.718 48.2905C204.049 49.1517 205.637 49.8803 206.233 51.6026C206.829 53.1924 207.093 55.1134 207.093 57.2994C207.093 57.8294 207.226 61.3402 207.226 61.3402C207.226 61.5389 207.424 61.6052 207.689 61.7376C207.821 61.8039 208.219 61.9364 208.219 62.4001C208.219 62.665 207.954 62.7975 207.755 62.7975H202.13C201.865 62.7975 201.666 62.665 201.666 62.4001C201.666 62.0026 201.997 61.8039 202.196 61.7376C202.527 61.6052 202.593 61.4727 202.593 61.2739V60.5453C202.593 59.2867 202.659 57.6306 202.46 55.7096C202.262 53.4574 202.063 52.6625 201.799 51.7351C201.666 51.4039 201.203 50.5427 200.078 50.5427C199.548 50.5427 199.35 50.7415 199.35 51.2052C199.35 51.3376 199.35 51.4701 199.416 51.6026C199.416 51.7351 199.482 51.8013 199.482 51.8676C199.482 51.9338 199.482 52.0663 199.548 52.3313C199.548 52.53 199.548 52.7287 199.548 52.9274V61.2739C199.548 61.4727 199.615 61.6052 199.945 61.7376C200.078 61.8039 200.475 61.9364 200.475 62.4001C200.475 62.665 200.21 62.7975 200.012 62.7975H199.615H194.32C194.055 62.7975 193.856 62.665 193.856 62.4001C193.856 62.0026 194.187 61.8039 194.386 61.7376C194.717 61.6052 194.783 61.4727 194.783 61.2739V43.7198C194.584 43.5211 194.452 43.3886 194.187 43.2561ZM179.031 42.1962H179.23H184.657C184.921 42.1962 185.12 42.3287 185.12 42.5937C185.12 42.9911 184.855 43.1236 184.723 43.1899C184.458 43.2561 184.524 43.3886 184.524 43.5211L184.591 43.9185C184.591 43.9848 184.657 44.1835 184.723 44.4485C184.723 44.4485 184.723 44.4485 184.723 44.5147C184.789 44.7134 184.855 44.9784 184.921 45.3096C184.988 45.4421 184.988 45.6408 185.054 45.7733L186.444 51.0727C186.444 51.0727 186.576 51.6688 186.708 51.9338C186.775 52.1325 186.907 52.1988 187.238 52.1988C187.569 52.1988 187.767 51.8676 187.966 51.2052C187.966 51.2052 189.29 47.2969 189.223 46.1708C189.223 45.2434 188.76 44.8459 188.297 44.581C187.834 44.316 187.37 43.786 187.37 43.1899C187.37 42.7262 187.503 42.4612 187.767 42.1962C188.098 41.865 188.826 41.7988 189.091 41.7988C189.621 41.865 190.084 42.0638 190.415 42.4612L190.481 42.5274C190.481 42.5937 190.547 42.5937 190.547 42.6599C190.878 43.1236 191.077 43.7198 191.077 44.3822C191.077 44.8459 190.944 45.4421 190.746 46.237C190.547 46.9657 190.349 47.5618 190.282 48.0255C189.753 50.079 189.29 51.5364 189.025 52.4638C188.495 54.2523 188.098 55.7096 187.834 56.7032C187.437 58.3593 187.106 59.5517 186.841 60.2141C185.914 62.4663 184.458 63.6587 182.473 63.6587C181.745 63.6587 181.215 63.4599 180.818 63.1287C180.487 62.8638 180.222 62.4001 180.156 61.9364C180.156 61.8701 180.156 61.8039 180.156 61.8039C180.156 61.009 180.818 60.4128 181.612 60.4128C182.009 60.4128 182.34 60.5453 182.605 60.744C182.671 60.8102 182.737 60.8765 182.804 60.9427C182.87 61.009 182.936 61.1415 183.002 61.2077C183.068 61.2739 183.134 61.4064 183.201 61.4727C183.465 61.7376 183.73 61.8701 183.929 61.8701C184.392 61.8701 184.591 61.6052 184.591 61.1415C184.591 60.9427 184.524 60.6778 184.458 60.4128C184.392 60.1478 184.26 59.7504 184.127 59.3529C183.465 57.5644 179.627 44.5147 179.627 44.4485V44.3822V44.316C179.627 44.316 179.627 44.316 179.627 44.2497C179.428 43.3886 179.163 43.3223 178.899 43.1899C178.766 43.1236 178.369 42.9911 178.369 42.5274C178.568 42.395 178.832 42.1962 179.031 42.1962ZM165.066 61.7376C165.198 61.7376 165.265 61.7376 165.331 61.6714C165.463 61.6052 165.529 61.5389 165.529 61.4064C165.529 61.4064 165.595 61.2077 165.662 61.0752C165.794 60.6115 165.993 59.7504 166.059 59.4192C166.39 56.7695 166.721 54.9147 167.382 52.1325C167.78 50.4765 168.309 48.688 168.839 46.8332C168.971 46.3695 169.103 45.9058 169.236 45.4421C169.302 45.2434 169.368 44.9122 169.434 44.581C169.5 44.316 169.368 44.051 169.103 43.9848C168.839 43.8523 168.177 43.5873 168.243 42.9249V42.8587C168.309 42.5274 168.574 42.3287 168.971 42.2625H169.037H173.935H174.001C174.133 42.2625 174.266 42.3287 174.332 42.4612C174.464 42.7924 174.53 44.3822 174.861 46.4357C175.325 49.1516 175.722 51.8676 176.053 54.5835C176.45 57.2994 176.516 58.558 176.781 60.4128C176.781 60.6115 176.847 61.2739 176.847 61.2739C176.913 61.6714 177.244 61.6714 177.509 61.6714C177.575 61.6714 177.707 61.6052 177.707 61.6052C177.774 61.6052 177.84 61.6052 177.906 61.6052C178.104 61.6052 178.303 61.6714 178.435 61.8701C178.502 61.9364 178.568 62.0026 178.568 62.1351V62.2013C178.568 62.2676 178.568 62.3338 178.568 62.4663C178.568 62.5988 178.502 62.7313 178.435 62.93C178.303 63.195 178.237 63.5262 178.104 63.8574C177.972 64.1886 177.906 64.5198 177.774 64.9173V64.9835C177.575 65.4472 177.244 65.7122 176.913 65.7122C176.715 65.7122 176.516 65.6459 176.317 65.381C176.119 65.1822 176.119 64.851 176.185 64.4536C176.185 64.4536 176.185 64.3211 176.251 64.1224C176.317 63.7911 176.384 63.3274 176.384 63.195C176.384 62.93 176.119 62.665 175.854 62.665H175.788H171.089C170.956 62.665 170.824 62.665 170.626 62.665H167.25H166.257C166.059 62.665 165.86 62.8638 165.86 63.0625C165.86 63.0625 165.86 63.4599 165.86 63.7249V64.586C165.86 65.2485 165.529 65.6459 164.934 65.6459C164.735 65.6459 164.536 65.5797 164.338 65.381C164.206 65.1822 164.073 64.851 164.073 64.3873C164.007 63.3937 163.742 62.5988 163.742 62.4001C163.742 61.9364 164.073 61.6714 164.47 61.6714C164.537 61.7376 165.066 61.7376 165.066 61.7376ZM222.117 30.2064L221.919 30.2727C221.72 30.3389 221.72 30.5376 221.919 30.5376C222.316 30.5376 222.647 30.4714 223.044 30.4714C223.441 30.4714 223.772 30.5376 224.169 30.5376C224.368 30.5376 224.434 30.3389 224.235 30.2727L223.971 30.2064C223.64 30.0739 223.507 29.7427 223.507 29.0141V28.5504C223.507 28.4179 223.574 28.4179 223.64 28.4179H223.838C224.037 28.4179 224.169 28.4179 224.302 28.6829C224.5 28.9478 224.765 29.4778 225.03 29.809C225.294 30.1402 225.493 30.3389 225.691 30.4714C225.89 30.6039 226.155 30.6701 226.419 30.6701C226.684 30.6701 226.883 30.6701 227.081 30.6039C227.147 30.6039 227.147 30.5376 227.081 30.4714C226.883 30.4052 226.684 30.2727 226.419 30.0077C225.956 29.544 225.493 28.9478 225.162 28.3517C225.096 28.2192 225.096 28.2192 225.162 28.1529C225.559 27.9542 226.089 27.5567 226.089 26.8943C226.089 25.9007 225.294 25.5032 224.037 25.5032C223.309 25.5032 222.515 25.5695 221.919 25.5695C221.72 25.5695 221.72 25.7682 221.919 25.7682L222.184 25.8345C222.581 25.9669 222.515 26.1657 222.515 27.0268V29.1466C222.515 30.0077 222.515 30.0739 222.117 30.2064ZM223.441 26.5631C223.441 26.3644 223.441 26.2319 223.507 26.0994C223.507 25.9669 223.64 25.9669 223.904 25.9669C224.632 25.9669 225.096 26.3644 225.096 27.0268C225.096 27.4243 224.963 27.7555 224.632 27.9542C224.5 28.0204 224.235 28.0204 224.037 28.0204C223.904 28.0204 223.772 28.0204 223.64 28.0204C223.507 28.0204 223.507 27.9542 223.507 27.8217L223.441 26.5631ZM13.8994 45.4421V46.3032V52.1988C13.8994 53.7886 12.9728 54.5835 11.5167 54.5835C11.3844 54.5835 11.252 54.451 11.252 54.3848V51.4701V43.5211C11.252 43.3886 11.3844 43.3224 11.5167 43.3224C12.9728 43.3224 13.8994 43.8523 13.8994 45.4421ZM143.357 45.4421V46.3032V52.1988C143.357 53.7886 142.431 54.5835 140.975 54.5835C140.842 54.5835 140.71 54.451 140.71 54.3848V51.4701V43.5211C140.71 43.3886 140.842 43.3224 140.975 43.3224C142.431 43.3224 143.357 43.8523 143.357 45.4421ZM167.78 61.4064C167.515 61.2077 167.382 60.744 167.382 60.0816C167.382 59.088 167.515 57.8294 167.78 56.4383C167.978 55.3784 168.243 54.0536 168.64 52.4638C168.971 51.1389 169.236 50.2778 169.5 49.8141C169.765 49.3504 170.096 49.0854 170.427 49.0854C170.692 49.0854 170.824 49.2179 170.89 49.4166C170.956 49.6153 170.956 49.9466 170.956 50.2778V50.344L170.89 51.3376C170.89 52.0001 170.956 53.1262 171.089 54.5835C171.221 56.1071 171.42 57.4981 171.552 58.6905C171.684 59.3529 171.684 59.8166 171.684 60.1478C171.684 60.744 171.552 61.1415 171.221 61.3402C170.956 61.5389 170.361 61.5389 169.567 61.5389C168.706 61.6052 168.044 61.6052 167.78 61.4064ZM224.302 32.7899C227.015 32.7899 229.265 30.6701 229.265 28.0867C229.265 25.5032 227.081 23.3835 224.368 23.3835C221.588 23.3835 219.404 25.5032 219.404 28.0867C219.404 30.6039 221.522 32.7236 224.302 32.7899ZM224.368 24.0459C226.552 24.0459 228.405 25.8345 228.405 28.0204C228.405 30.2727 226.552 31.995 224.368 31.995C222.117 31.995 220.33 30.2064 220.33 27.9542C220.33 25.7682 222.117 24.0459 224.368 24.0459ZM158.646 60.5453V60.6115C158.646 60.8765 158.514 61.1415 158.315 61.4064C158.117 61.6052 157.786 61.7376 157.322 61.7376C156.793 61.7376 156.33 61.5389 156.065 61.0752C155.8 60.6778 155.668 59.9491 155.668 58.9555V52.0001V46.9657C155.668 46.237 155.668 45.8396 155.668 45.6408C155.668 45.4421 155.602 45.3096 155.602 45.1771C155.535 45.0446 155.469 44.8459 155.337 44.5147V44.4485V44.3822C155.337 44.1173 155.469 43.8523 155.668 43.5873C155.932 43.3886 156.197 43.2561 156.661 43.2561C157.19 43.2561 157.653 43.4548 157.918 43.9185C158.183 44.316 158.315 45.0446 158.315 46.0383V52.3313V58.0281C158.315 58.7567 158.315 59.1542 158.315 59.3529C158.315 59.5517 158.381 59.6841 158.381 59.8166C158.447 60.0153 158.514 60.2141 158.646 60.5453Z" fill="#469DDE"/>
</g>
<defs>
<clipPath id="clip0">
<rect width="229" height="104" fill="white"/>
</clipPath>
</defs>
</svg>
