<svg width="10" height="15" viewBox="0 0 10 15" fill="none" xmlns="http://www.w3.org/2000/svg">
<path fill-rule="evenodd" clip-rule="evenodd" d="M8.81008 0.079075L6.77566 0.076202C4.49017 0.076202 3.01342 1.48061 3.01342 3.65423V5.30411H0.967904C0.791204 5.30411 0.648152 5.43702 0.648152 5.60045V7.99076C0.648152 8.15467 0.791324 8.28741 0.967904 8.28741H3.0133V14.3188C3.0133 14.4824 3.15636 14.6149 3.33316 14.6149H6.00182C6.17851 14.6149 6.32156 14.4824 6.32156 14.3188V8.28741H8.71304C8.88985 8.28741 9.03301 8.15467 9.03301 7.99076L9.03393 5.60045C9.03393 5.52176 9.00016 5.44645 8.94032 5.39095C8.88024 5.33513 8.79876 5.30411 8.71383 5.30411H6.32179V3.90547C6.32179 3.23317 6.4946 2.89222 7.43919 2.89222L8.80974 2.89157C8.98632 2.89157 9.12937 2.75868 9.12937 2.59492V0.375878C9.12937 0.211964 8.98644 0.0798739 8.81008 0.079075Z" fill="#36609C"/>
</svg>
