<svg width="20" height="18" viewBox="0 0 20 18" fill="none" xmlns="http://www.w3.org/2000/svg">
<path fill-rule="evenodd" clip-rule="evenodd" d="M5.99407 -0.000488281H14.2281C17.0245 -0.000488281 19.2995 2.22751 19.2994 4.96677V13.0323C19.2994 15.7709 17.0245 17.9996 14.2281 17.9996H5.99407C3.19783 17.9996 0.922852 15.7712 0.922852 13.0323V4.96677C0.922852 2.22751 3.19783 -0.000488281 5.99407 -0.000488281ZM14.2282 16.4021C16.1254 16.4021 17.6691 14.8904 17.6691 13.0323H17.669V4.96677C17.669 3.10835 16.1254 1.59662 14.2281 1.59662H5.99407C4.09688 1.59662 2.5534 3.10835 2.5534 4.96677V13.0323C2.5534 14.8904 4.09688 16.4021 5.99407 16.4021H14.2282ZM5.37598 8.99946C5.37598 6.44202 7.50024 4.36132 10.1112 4.36132C12.7222 4.36132 14.8463 6.44202 14.8463 8.99946C14.8463 11.557 12.7222 13.6374 10.1112 13.6374C7.50024 13.6374 5.37598 11.557 5.37598 8.99946ZM7.00653 8.99946C7.00653 10.6762 8.3994 12.0405 10.1112 12.0405C11.8231 12.0405 13.2159 10.6762 13.2159 8.99946C13.2159 7.32255 11.8231 5.95826 10.1112 5.95826C8.39916 5.95826 7.00653 7.32255 7.00653 8.99946ZM14.2004 3.34998C14.4223 3.13185 14.7308 3.00711 15.0449 3.00711C15.3602 3.00711 15.6689 3.13185 15.8906 3.34998C16.1134 3.56748 16.2405 3.86973 16.2405 4.17853C16.2405 4.48606 16.1134 4.78863 15.8906 5.00675C15.6678 5.22377 15.3602 5.34945 15.0449 5.34945C14.7308 5.34945 14.4221 5.22377 14.2004 5.00675C13.9776 4.78863 13.8493 4.48637 13.8493 4.17853C13.8493 3.86973 13.9775 3.56748 14.2004 3.34998Z" fill="#654637"/>
<path fill-rule="evenodd" clip-rule="evenodd" d="M5.99407 -0.000488281H14.2281C17.0245 -0.000488281 19.2995 2.22751 19.2994 4.96677V13.0323C19.2994 15.7709 17.0245 17.9996 14.2281 17.9996H5.99407C3.19783 17.9996 0.922852 15.7712 0.922852 13.0323V4.96677C0.922852 2.22751 3.19783 -0.000488281 5.99407 -0.000488281ZM14.2282 16.4021C16.1254 16.4021 17.6691 14.8904 17.6691 13.0323H17.669V4.96677C17.669 3.10835 16.1254 1.59662 14.2281 1.59662H5.99407C4.09688 1.59662 2.5534 3.10835 2.5534 4.96677V13.0323C2.5534 14.8904 4.09688 16.4021 5.99407 16.4021H14.2282ZM5.37598 8.99946C5.37598 6.44202 7.50024 4.36132 10.1112 4.36132C12.7222 4.36132 14.8463 6.44202 14.8463 8.99946C14.8463 11.557 12.7222 13.6374 10.1112 13.6374C7.50024 13.6374 5.37598 11.557 5.37598 8.99946ZM7.00653 8.99946C7.00653 10.6762 8.3994 12.0405 10.1112 12.0405C11.8231 12.0405 13.2159 10.6762 13.2159 8.99946C13.2159 7.32255 11.8231 5.95826 10.1112 5.95826C8.39916 5.95826 7.00653 7.32255 7.00653 8.99946ZM14.2004 3.34998C14.4223 3.13185 14.7308 3.00711 15.0449 3.00711C15.3602 3.00711 15.6689 3.13185 15.8906 3.34998C16.1134 3.56748 16.2405 3.86973 16.2405 4.17853C16.2405 4.48606 16.1134 4.78863 15.8906 5.00675C15.6678 5.22377 15.3602 5.34945 15.0449 5.34945C14.7308 5.34945 14.4221 5.22377 14.2004 5.00675C13.9776 4.78863 13.8493 4.48637 13.8493 4.17853C13.8493 3.86973 13.9775 3.56748 14.2004 3.34998Z" fill="url(#paint0_linear)"/>
<defs>
<linearGradient id="paint0_linear" x1="19.2994" y1="17.9996" x2="19.2994" y2="-0.000488281" gradientUnits="userSpaceOnUse">
<stop stop-color="#FFD978"/>
<stop offset="1" stop-color="#D52E76"/>
<stop offset="1" stop-color="#533CE4"/>
</linearGradient>
</defs>
</svg>
