<svg width="46" height="52" viewBox="0 0 46 52" fill="none" xmlns="http://www.w3.org/2000/svg">
<path fill-rule="evenodd" clip-rule="evenodd" d="M13.6902 11.8923C12.8307 13.2013 12.0224 14.4322 12.1183 15.219C12.2178 16.0354 13.4473 19.5238 14.5914 20.7993C12.0543 20.2381 9.32416 16.4409 9.15055 13.1897C9.05193 11.3424 10.1971 9.95918 11.2873 8.64241C12.1161 7.64134 12.9131 6.67867 13.1076 5.57967C13.4275 3.7718 13.0954 3.00373 12.573 1.79532C12.3602 1.30305 12.1157 0.737697 11.8709 -0.000793457C14.8559 2.70356 15.5427 4.24642 15.5807 7.86283C15.5926 8.99496 14.6119 10.4885 13.6902 11.8923ZM39.5699 5.57967C37.968 5.49481 34.9157 7.03882 32.8925 13.1897C31.1302 18.5472 30.0812 20.0287 29.4412 20.9326L29.4412 20.9326C29.3464 21.0664 29.2607 21.1875 29.1829 21.3067C28.5794 22.231 27.8006 23.3222 26.957 23.5896C26.8638 23.6191 26.747 23.6474 26.6099 23.6806C25.5065 23.9477 23.0865 24.5337 21.0215 28.6629C20.9091 28.8877 30.914 28.6629 30.914 28.6629C30.914 28.6629 31.0842 27.8396 30.914 26.6336C30.8763 26.3666 30.8265 26.1113 30.778 25.8634C30.6077 24.9909 30.4552 24.2099 30.914 23.336C31.1447 22.8964 32.0015 21.7762 33.0437 20.4136C34.663 18.2964 36.7299 15.5941 37.5914 13.9505C39.0074 11.2494 41.1718 5.66476 39.5699 5.57967ZM32.1506 25.1117L32.6452 23.336C32.6452 23.336 36.5428 23.5891 38.8279 24.0971L38.9186 24.1172C41.1976 24.6225 44.3375 25.3188 43.2796 30.1847C42.2076 35.1156 38.8174 42.2709 31.4087 45.658C29.332 46.6071 23 46.419 23 46.419C23 46.419 16.9647 46.3016 15.3333 45.658C13.702 45.014 4.42186 40.7737 2.96778 29.4237C2.78134 27.9687 3.29599 25.2189 5.68817 24.3504C8.08044 23.4822 23.1329 22.4841 23.9893 22.5749C24.8455 22.6658 22.0107 24.8579 22.0107 24.8579C22.0107 24.8579 19.081 24.7027 17.3118 24.8579L17.1861 24.8689C15.1619 25.0452 6.71364 25.7812 6.43017 27.3944C6.28587 28.2151 8.49733 30.4384 20.5269 30.4384C32.5565 30.4384 39.8172 28.8547 39.8172 27.6482C39.8172 26.4415 35.3842 25.1117 32.1506 25.1117ZM6.67747 40.8382L7.66674 41.8529C6.821 42.1081 4.4516 43.2282 4.4516 44.6433C4.4516 46.0582 7.78198 48.7017 23 48.7017C38.2181 48.7017 41.7957 45.6773 41.7957 44.3894C41.7957 43.1018 38.5806 41.8529 38.5806 41.8529C38.5806 41.8529 38.9439 40.93 39.5699 41.0921C44.693 42.4187 46.0001 43.9426 46.0001 45.658C46.0001 47.3732 42.3569 51.9995 22.7527 51.9995C3.14859 51.9995 0 47.8714 0 45.4041C0 42.937 6.67747 40.8382 6.67747 40.8382ZM18.7958 20.5459C18.7958 20.5459 16.497 17.7638 17.0645 15.9798C17.2977 15.247 17.8012 14.5403 18.2953 13.8467C19.0039 12.852 19.6932 11.8846 19.5377 10.9065C19.2738 9.2468 17.8066 6.84814 17.8066 6.84814C17.8066 6.84814 17.9369 9.20764 17.3118 10.1457C17.1697 10.359 16.91 10.6188 16.603 10.9259C15.5602 11.9689 13.9718 13.5577 14.5914 15.7262C15.3934 18.5329 17.9002 20.2906 18.7958 20.5459Z" fill="#548DD1"/>
</svg>
