<svg width="48" height="44" viewBox="0 0 48 44" fill="none" xmlns="http://www.w3.org/2000/svg">
<path fill-rule="evenodd" clip-rule="evenodd" d="M47.8382 19.0577C47.6754 18.7144 47.3279 18.4946 46.9434 18.4946H44.0206C42.1622 8.49565 33.3069 0.894836 22.6931 0.894836C10.7311 0.894836 0.998047 10.545 0.998047 22.4055C0.998047 34.2654 10.7301 43.9147 22.6931 43.9147C30.4131 43.9147 37.6127 39.795 41.4822 33.1655C42.0274 32.2297 41.7059 31.0348 40.7613 30.4934C39.8186 29.9516 38.6123 30.2705 38.0681 31.2061C34.9006 36.6327 29.0091 40.0048 22.6931 40.0048C12.9061 40.0048 4.94239 32.1101 4.94239 22.4073C4.94239 12.7025 12.9061 4.80755 22.6931 4.80755C31.123 4.80755 38.186 10.67 39.9854 18.4955H37.0855C36.7011 18.4955 36.3546 18.7153 36.1908 19.0588C36.028 19.4026 36.0809 19.8074 36.3266 20.0995L41.2576 25.9656C41.4453 26.1884 41.7219 26.317 42.0155 26.317C42.308 26.317 42.5857 26.1874 42.7725 25.9656L47.7033 20.0995C47.949 19.8065 48.0009 19.4014 47.8382 19.0577ZM22.6931 5.78367C21.6036 5.78367 20.7209 6.6591 20.7209 7.73945V19.6043C19.8292 20.2242 19.242 21.246 19.242 22.4064C19.242 24.2935 20.7907 25.8291 22.6941 25.8291C23.2153 25.8291 23.7066 25.7051 24.1501 25.4983L31.0102 29.4239C31.3217 29.603 31.6593 29.6874 31.9947 29.6874C32.6758 29.6874 33.3388 29.3367 33.7043 28.7092C34.2485 27.7754 33.926 26.5784 32.9813 26.0389L26.1142 22.1071C26.0223 21.0736 25.4801 20.1705 24.6672 19.6063V7.73945C24.6653 6.66025 23.7815 5.78367 22.6931 5.78367ZM22.6931 23.8716C21.8772 23.8716 21.2142 23.2133 21.2142 22.4064C21.2142 21.5986 21.8783 20.9401 22.6931 20.9401C23.5079 20.9401 24.172 21.5986 24.172 22.4064C24.172 23.2133 23.5079 23.8716 22.6931 23.8716Z" fill="#548DD1"/>
</svg>
