<svg xmlns="http://www.w3.org/2000/svg" width="18" height="18" viewBox="0 0 18 18"><g><g><path fill="#2c67ae" d="M17.99 8.566a9.01 9.01 0 0 1-7.18 9.273A8.997 8.997 0 0 1 .562 12.146 9.018 9.018 0 0 1 4.62 1.138a.932.932 0 0 1 1.314.46l.001.002a.926.926 0 0 1-.397 1.164 7.155 7.155 0 0 0-3.25 8.686A7.139 7.139 0 0 0 16.14 8.81a7.147 7.147 0 0 0-6.208-6.883v2.692a.96.96 0 0 1-.818.968.928.928 0 0 1-.97-.562.883.883 0 0 1-.074-.364V.946A.938.938 0 0 1 8.99 0h.01c.31 0 .621.015.93.046a9.007 9.007 0 0 1 8.058 8.52zM5.667 5.686a.31.31 0 0 1 .33-.071c1.02.388 3.452 1.66 4.41 2.619a1.557 1.557 0 0 1-.1 2.29 1.6 1.6 0 0 1-2.192-.195C7.199 9.336 5.974 7.005 5.6 6.017a.31.31 0 0 1 .068-.33z"/></g></g></svg>