<svg width="17" height="10" viewBox="0 0 17 10" fill="none" xmlns="http://www.w3.org/2000/svg">
<path fill-rule="evenodd" clip-rule="evenodd" d="M14.5887 6.56854C15.1509 7.08381 15.7444 7.56788 16.2487 8.13495C16.4714 8.38731 16.6823 8.64718 16.8437 8.93967C17.0723 9.3553 16.8652 9.81267 16.468 9.8373L13.9985 9.8365C13.3616 9.88591 12.8535 9.64539 12.4263 9.23696C12.0844 8.90992 11.7678 8.56226 11.439 8.22483C11.3042 8.08666 11.1632 7.95664 10.9946 7.85382C10.6575 7.64848 10.3649 7.7115 10.1723 8.0414C9.97611 8.37692 9.93159 8.74825 9.91225 9.12246C9.88581 9.66794 9.71002 9.81123 9.12593 9.83602C7.8776 9.89167 6.69291 9.71432 5.59234 9.1239C4.62199 8.60272 3.86965 7.86726 3.2147 7.03471C1.9396 5.41393 0.963079 3.63276 0.085552 1.80168C-0.1121 1.38908 0.0323381 1.16775 0.517564 1.15992C1.3231 1.14505 2.12866 1.14616 2.93525 1.15848C3.26266 1.16312 3.4794 1.33935 3.60587 1.62961C4.04176 2.63517 4.57506 3.59197 5.24454 4.47856C5.42272 4.7146 5.60458 4.9508 5.86345 5.1168C6.14976 5.30103 6.36789 5.23994 6.50248 4.94058C6.58797 4.7509 6.6255 4.54669 6.64473 4.34328C6.7086 3.64394 6.71693 2.94558 6.60502 2.24896C6.53635 1.81383 6.2752 1.53237 5.81263 1.45002C5.57665 1.40827 5.61179 1.32576 5.72611 1.1991C5.92456 0.981452 6.11131 0.845516 6.48337 0.845516H9.27425C9.71357 0.926756 9.8112 1.11226 9.87128 1.52694L9.8738 4.43554C9.86899 4.5961 9.95929 5.07266 10.2675 5.17885C10.5142 5.25465 10.6768 5.06914 10.8249 4.9225C11.4931 4.25739 11.97 3.47091 12.3961 2.65628C12.5851 2.29855 12.7478 1.9269 12.9052 1.55524C13.022 1.2797 13.2052 1.14393 13.5361 1.14968L16.2222 1.15208C16.3019 1.15208 16.3825 1.15304 16.4597 1.16535C16.9123 1.2378 17.0363 1.42042 16.8965 1.83542C16.6762 2.48596 16.2476 3.02826 15.8286 3.57262C15.3806 4.15441 14.9016 4.71604 14.4574 5.30103C14.0493 5.835 14.0817 6.10462 14.5887 6.56854Z" fill="#6087AA"/>
</svg>
