<svg width="87" height="80" viewBox="0 0 87 80" fill="none" xmlns="http://www.w3.org/2000/svg">
<path fill-rule="evenodd" clip-rule="evenodd" d="M85.3751 34.7821C85.3701 34.8181 85.3611 34.8551 85.3551 34.8911C85.9431 45.1701 79.6451 56.1361 74.1191 64.1071C67.7911 73.2351 60.7491 78.9931 49.2211 79.8571C38.1221 80.6881 27.7391 77.9641 19.4161 70.4821C10.4621 62.4321 4.71406 50.3661 1.00206 39.1491C0.958058 39.0151 0.955058 38.8911 0.974058 38.7761C0.168058 37.8741 -0.162942 36.5681 0.0760584 35.18C0.488058 32.7741 2.52106 31.4431 4.76706 31.2271C4.61506 27.0731 8.73006 24.1921 12.3371 26.0521C12.2321 24.9881 12.5511 23.9921 13.3361 22.9221C13.3481 22.9051 13.3631 22.8981 13.3751 22.8831C11.7271 21.0761 10.0771 19.2701 8.39606 17.4921C6.93606 15.9481 4.81406 14.2371 4.00606 12.2031C2.39606 8.15105 6.45206 3.81705 10.6141 5.83705C11.9401 6.48105 12.8191 7.77605 13.7311 8.87605C16.0891 11.7231 18.4141 14.5951 20.7111 17.4911C21.3731 18.3251 22.0211 19.1711 22.6731 20.0131C23.0741 18.4081 24.1901 16.7581 25.1381 15.9951C26.9961 14.5001 30.0241 14.1241 32.1701 15.2811C32.2851 11.7981 33.2661 8.65505 35.1201 5.62105C36.5531 3.27405 38.2411 0.537052 41.2121 0.0880516C47.4561 -0.855948 49.9411 5.98705 49.9241 11.1971C53.0201 9.26205 56.7701 8.95405 59.6941 11.5721C61.0531 12.7881 62.1841 14.543 62.8841 16.4541C64.8911 14.489 69.0791 13.8541 71.0441 15.3611C74.2281 17.8031 74.6431 22.6831 73.8721 26.4781C76.0431 25.805 79.4591 26.6401 80.9501 27.534C82.0701 28.205 83.3481 29.438 84.2521 30.8461C84.5381 30.858 84.8091 31.0201 84.8921 31.3901C84.9511 31.6501 84.9791 31.9141 85.0271 32.1761C85.4791 31.8951 86.1141 32.3501 85.9841 32.9361C85.8391 33.5881 85.6251 34.1971 85.3751 34.7821ZM18.1681 66.0381C25.5801 74.1991 35.0261 77.9061 46.0241 77.8661C57.9161 77.8221 66.1831 72.916 72.8471 63.293C76.0871 58.614 78.8211 53.397 80.7451 48.057C81.8901 44.879 82.3741 41.744 82.7161 38.569C79.8401 41.356 75.6711 43.071 71.9801 44.278C63.2601 47.1291 54.0051 48.208 44.8581 48.4431C36.0661 48.6701 26.7071 48.677 18.1121 46.661C14.0981 45.719 8.27406 44.4501 4.26206 41.7811C8.25506 50.3081 11.6341 58.8441 18.1681 66.0381ZM22.1011 22.9121C18.5121 18.444 15.0541 13.7491 11.1531 9.54105C8.33906 6.50605 4.41906 8.77605 7.09206 12.5021C9.90106 16.4191 13.8481 19.8811 16.9441 23.6151C20.1571 27.4901 23.7121 31.1221 27.0301 34.9151C28.0211 35.1781 28.9481 35.6181 29.6591 36.1761C30.0371 35.4301 30.6611 34.8831 31.3971 34.4881C27.7881 31.8961 24.7871 26.2541 22.1011 22.9121ZM78.7331 28.2851C77.7351 28.0801 76.6481 27.9541 75.6271 27.9471C74.7801 27.9421 74.0031 28.1791 73.1901 28.2261C73.1351 28.2371 73.0781 28.2391 73.0211 28.2291C72.8971 28.2311 72.7751 28.2451 72.6491 28.2351C72.3211 28.2101 72.1291 27.857 72.3051 27.5751C72.3821 27.4531 72.4751 27.3451 72.5721 27.2411C72.4481 24.361 72.6291 21.3461 71.2741 18.7071C69.3951 15.0471 65.8431 16.6061 63.4981 18.7851C63.7481 20.3481 63.6771 21.9141 63.1661 23.2961C62.9961 23.7551 62.3101 23.7451 62.1921 23.253C61.4691 20.254 61.5051 17.3091 59.6961 14.6301C58.8121 13.3191 57.5621 12.0541 55.9511 11.6871C53.7691 11.1891 51.8891 12.3181 50.0551 13.2891C49.9381 13.3511 49.8201 13.3791 49.7031 13.3851C49.4451 13.7981 48.7251 13.8621 48.6231 13.2591C48.2411 10.9911 48.3241 8.64705 47.5951 6.43805C46.4131 2.85005 42.6751 -0.0829482 39.1211 2.71105C34.7621 6.13805 34.4881 11.5021 34.1251 16.482C34.0971 16.865 33.8991 17.1081 33.6471 17.2471C33.5061 17.6231 33.1461 17.9001 32.6881 17.7021C30.4661 16.7411 28.2231 15.9481 26.1531 17.8311C25.2261 18.6741 24.7201 19.8621 24.5991 21.0871C24.5541 21.5511 24.5381 21.9451 24.4641 22.3351C25.3651 23.5191 26.2621 24.7041 27.1531 25.8941C28.9131 28.246 31.7471 31.168 32.6561 33.987C33.5311 33.752 34.4681 33.6821 35.3331 33.7671C38.1571 34.0461 40.0121 36.0921 40.9171 38.5991C41.1581 39.2681 39.9821 39.7051 39.7301 39.034C39.0081 37.119 37.8021 35.632 35.7501 35.0401C33.7171 34.4541 30.9451 35.079 30.4821 37.411C30.3951 37.8521 29.7431 37.9411 29.4751 37.6281C28.4351 36.4171 27.1531 35.6251 25.4861 35.9951C23.7721 36.3751 23.4921 37.75 22.2941 38.68C21.8051 39.0601 21.0511 38.7721 21.0701 38.1141C21.1271 36.1441 22.2781 35.1371 23.7711 34.7901C20.8101 31.486 18.0351 27.982 15.0661 24.7351C14.8251 24.4711 14.5841 24.2071 14.3441 23.9431C14.0981 25.201 14.0181 26.2581 13.9971 27.5721C13.9891 28.025 13.4381 28.3021 13.0621 28.0501C9.94606 25.9661 5.91006 28.1831 6.83406 31.965C6.98406 32.577 6.46306 33.197 5.82806 33.16C2.17606 32.947 2.26106 35.4701 3.00106 37.6711C7.30306 43.1131 17.3981 44.543 23.7621 45.41C30.4101 46.315 37.2771 46.409 43.9771 46.2971C56.8701 46.0821 74.2481 45.139 83.0991 34.6921C83.187 33.7631 83.2821 32.8271 83.3921 31.8821C82.3251 30.1041 80.3321 28.6151 78.7331 28.2851ZM65.9411 33.9131C65.9871 32.9471 65.1021 32.361 64.2331 32.2271C63.5261 32.119 62.7071 32.3371 62.1611 31.798C61.9931 31.632 62.0471 31.3851 62.1861 31.2271C62.9191 30.3971 64.8371 30.9191 65.6461 31.4151C66.5901 31.9951 67.1031 32.9911 66.8311 34.0731C66.7051 34.5751 65.9171 34.4151 65.9411 33.9131ZM51.7301 26.2551C51.4341 25.1931 50.2071 21.8041 48.5371 23.5211C48.2501 23.8161 47.8091 23.5941 47.7011 23.2621C47.3011 22.0381 46.3731 21.0671 45.1361 20.6521C44.3621 20.392 43.5951 20.5391 42.8171 20.3621C42.5061 20.2911 42.5561 19.8981 42.7651 19.7551C44.7741 18.385 47.3631 20.4311 48.3781 22.3271C49.1411 21.7991 50.0511 21.7351 50.9831 22.2571C52.3441 23.0191 52.6401 24.6061 52.8121 26.01C52.8971 26.7031 51.9241 26.9501 51.7301 26.2551ZM49.4681 35.0591C50.4421 35.2441 51.1941 36.0581 51.4931 36.9601C51.6841 37.5361 50.7261 37.8901 50.4831 37.3311C50.2321 36.75 49.7631 36.418 49.1061 36.4911C48.5891 36.548 48.2871 36.8861 47.9361 37.2201C47.1531 37.9671 46.5811 37.0711 46.9681 36.2821C47.3971 35.4051 48.5031 34.8751 49.4681 35.0591ZM12.9341 37.4831C12.9021 37.1001 12.5701 36.764 12.1961 36.6931C11.8061 36.618 11.3911 36.8951 11.0721 37.0861C10.2781 37.5641 9.63206 36.5671 9.97206 35.8951C10.4921 34.8671 11.8631 34.5581 12.8961 34.9601C13.9171 35.3571 14.5311 36.487 14.4131 37.548C14.3061 38.509 13.0131 38.4071 12.9341 37.4831ZM27.0261 70.0491C27.7111 70.0391 28.4821 70.5091 29.1261 70.7361C29.9051 71.0111 30.7081 71.2341 31.5351 71.2961C32.3991 71.3601 32.4791 72.5311 31.6691 72.7681C30.5691 73.09 29.4391 73.0761 28.3831 72.5911C27.5711 72.2181 26.5661 71.4341 26.5631 70.4701C26.5621 70.2221 26.7951 70.0531 27.0261 70.0491ZM29.9011 68.7391C29.0231 68.6211 28.0991 68.3741 27.6371 67.5561C27.3671 67.076 27.7701 66.3321 28.3651 66.4181C28.9341 66.5001 29.4191 66.8061 29.9841 66.8821C30.4851 66.9481 30.9021 67.3181 30.8791 67.8511C30.8581 68.3191 30.4051 68.8061 29.9011 68.7391ZM71.4871 53.7341C72.41 53.306 73.4301 53.2731 74.2701 52.6561C74.8451 52.2341 75.6081 53.015 75.0361 53.486C74.0841 54.271 72.6531 54.9951 71.4621 54.3031C71.2511 54.181 71.2651 53.8371 71.4871 53.7341ZM71.9711 50.508C71.1431 50.147 71.2011 49.1071 72.0461 48.8161C72.6721 48.6001 73.3481 48.5421 73.9411 48.2321C74.5411 47.9181 75.0621 47.5161 75.4381 46.9531C75.9631 46.1661 77.3441 46.75 76.9851 47.681C76.2881 49.4901 74.0481 51.413 71.9711 50.508Z" fill="#548DD1"/>
</svg>
