<svg width="144" height="101" viewBox="0 0 144 101" fill="none" xmlns="http://www.w3.org/2000/svg">
<path d="M24.5 35V72M25.5 78.5C26.3333 81.8333 30.5 89 38 91M16 29V70C16 86.5685 29.4315 100 46 100H97C113.569 100 127 86.5685 127 70V29H16ZM18 24C24.3819 19.0301 38.082 14 67 14C67 10 64.4788 6.6265 62 5C59.2252 3.17929 60.5 1 62 1C63.5 1 76 1 79 1C82 1 80.755 3.40964 79 5C76.8062 6.98795 75 10 75 14C93.0099 14 111 17.5 124 24C126.5 25.5 125 26 123 26H19C17.5 26 16.3703 25.2691 18 24ZM13 33.4036H4.37952C2.51306 33.4036 1 34.9167 1 36.7831V36.7831C1 38.6496 2.51306 40.1626 4.37952 40.1626H13V33.4036ZM130 33.4036H139.384C141.251 33.4036 142.764 34.9167 142.764 36.7831V36.7831C142.764 38.6496 141.251 40.1626 139.384 40.1626H130V33.4036Z" stroke="#548DD1" stroke-width="2" stroke-linecap="round" stroke-linejoin="round"/>
</svg>
