<svg width="51" height="63" viewBox="0 0 51 63" fill="none" xmlns="http://www.w3.org/2000/svg">
<path d="M33.9839 4.90095C30.9278 6.77538 28.866 8.82115 27.5615 11.089M25.6822 18.8241C24.3221 18.074 19.208 16.5739 13.4673 16.5739C6.29126 16.5739 -0.629722 25.9967 1.34014 38.0915C1.34014 42.4513 10.486 61.5781 16.5364 61.5781C22.5867 61.5781 21.6168 59.3279 26.2601 59.3279C30.9034 59.3279 31.4662 62 34.9839 62C38.5015 62 49.0394 51.4521 49.8836 38.0915C50.165 34.8569 50.8157 17.6746 39.5593 16.5739C34.4939 16.0786 28.9185 17.4177 25.6822 18.8241ZM25.6822 18.8241C25.6822 15.9755 26.2234 13.4154 27.5615 11.089M27.5615 11.089C26.1044 6.16673 23.431 -1.00581 12.7373 1.52563C12.2548 5.46348 14.5441 12.8892 27.5615 11.089ZM39.8935 42.0294C39.8935 42.0294 37.6422 47.9362 34.8281 51.1709" stroke="#548DD1" stroke-width="2" stroke-linecap="round" stroke-linejoin="round"/>
</svg>
