<svg xmlns="http://www.w3.org/2000/svg" width="70" height="62" viewBox="0 0 70 62"><g><g><path fill="#548dd1" d="M64.786 38.165c-.508 9.027-8.197 18.114-16.717 21.278l-.244 2.555h-25.34l-.222-2.555c-8.521-3.164-16.23-12.251-16.738-21.278zM24.98 28.612a10.453 10.453 0 0 1 2.78-5.03c1.907-1.887 4.504-3.063 7.405-3.063 2.88 0 5.498 1.176 7.384 3.063a10.487 10.487 0 0 1 2.8 5.03h22.296c1.299 0 2.354 1.075 2.354 2.373a2.355 2.355 0 0 1-2.354 2.353h-2.86v3.225H5.526v-3.225h-2.84a2.355 2.355 0 0 1-2.354-2.353c0-1.298 1.055-2.373 2.353-2.373zm32.765-18.194c.446-.061.832.263.892.71.325 2.515-.344 4.097-.973 5.598-.73 1.744-1.4 3.367.081 6.51a.834.834 0 0 1-.386 1.076c-.405.182-.892.02-1.075-.386-1.785-3.813-.974-5.74-.122-7.809.548-1.318 1.137-2.718.873-4.787a.82.82 0 0 1 .71-.912zm-4.99-5.457a.789.789 0 0 1 1.013.528c.995 3.225-.08 4.888-1.278 6.734-1.38 2.15-2.941 4.584-.385 11.054a.826.826 0 0 1-.467 1.055.81.81 0 0 1-1.055-.467c-2.84-7.24-1.034-10.04.548-12.514.974-1.522 1.867-2.88 1.096-5.396-.122-.426.101-.872.527-.994zM45.288.581a.794.794 0 0 1 1.116.222c3.692 5.396 2.394 8.215.933 11.4-1.217 2.677-2.556 5.618-.426 11.074a.816.816 0 0 1-.446 1.055.81.81 0 0 1-1.055-.467c-2.394-6.084-.893-9.37.467-12.332 1.257-2.738 2.373-5.172-.812-9.817-.243-.385-.162-.893.223-1.136zm-4.18 28.03a6.408 6.408 0 0 0-1.42-2.15 6.396 6.396 0 0 0-4.523-1.886c-1.765 0-3.368.73-4.524 1.887a6.412 6.412 0 0 0-1.42 2.15z"/></g></g></svg>