<svg xmlns="http://www.w3.org/2000/svg" width="74" height="60" viewBox="0 0 74 60"><g><g><path fill="#548dd1" d="M50.737 12.052c-1.866-2.779-2.84-6.248-1.116-8.844C50.92 1.221 53.415.328 56.397.49c6.026.365 13.005 4.95 15.723 10.325 1.34 2.636 1.542 5.293.224 7.302-2.455 3.732-8.197 3.042-12.173 1.4l1.36-1.644c1.44.548 2.86.852 4.138.933 4.849.284 6.837-2.738 4.646-7.079-1.136-2.272-3.206-4.462-6.005-6.308-2.74-1.785-5.6-2.759-8.034-2.9-4.849-.285-6.837 2.738-4.646 7.079.182.344.385.71.629 1.074l1.156-1.074-.284 4.016-3.611-.447zm-33.19 44.826C9.026 53.714 1.317 44.628.809 35.601h59.26c-.507 9.026-8.216 18.113-16.737 21.277l-.223 2.556h-25.34zm42.523-22.88H.81v-3.225h59.26zm-58.794-4.34l4.159-5.538c.811-2.758 5.194-3.874 8.196-2.352.69-3.631 5.457-3.996 6.614-.508.974-.365 2.13-.486 3.246-.344 1.278-1.866 3.936-2.576 6.167-1.765.345-1.846 1.765-3.225 3.45-3.225 2.028 0 3.63 1.988 3.55 4.3l2.475-.142c1.967-3.083 6.837-1.643 6.755 1.988l2.557.04c.101-.385.284-.77.547-1.095l7.872-9.675c.994-1.217 2.78-1.4 3.976-.426a2.857 2.857 0 0 1 .426 3.996l-6.187 7.606c.71.588 1.014 1.298 1.014 1.988l4.443 5.152z"/></g></g></svg>