<svg xmlns="http://www.w3.org/2000/svg" width="78" height="61" viewBox="0 0 78 61"><g><g><path fill="#548dd1" d="M77.459 36.617c-.508 9.026-8.217 18.113-16.738 21.278l-.223 2.555h-25.34l-.222-2.555c-8.521-3.165-16.23-12.252-16.738-21.278zM46.966 28.97c0 .954-1.237 1.724-2.759 1.724-1.522 0-2.76-.77-2.76-1.724 0-.933 1.238-1.704 2.76-1.704 1.522 0 2.76.771 2.76 1.704zm-3.53-5.78c0 .912-.71 1.663-1.582 1.663-.893 0-1.603-.75-1.603-1.664 0-.932.71-1.663 1.603-1.663.872 0 1.582.73 1.582 1.663zm-3.49 2.433c0 .528-.628.934-1.4.934-.77 0-1.4-.406-1.4-.934 0-.527.63-.933 1.4-.933.772 0 1.4.406 1.4.933zm-6.065 1.42c0 .954-.65 1.725-1.461 1.725-.791 0-1.44-.771-1.44-1.725 0-.953.649-1.724 1.44-1.724.811 0 1.46.771 1.46 1.724zm1.339-6.166c0 1.217-.751 2.19-1.664 2.19-.933 0-1.664-.973-1.664-2.19s.73-2.21 1.664-2.21c.913 0 1.664.993 1.664 2.21zm-5.803-8.113l-.223 6.551L9.028 30.167 0 12.764 21.79.005zm48.042 22.25h-59.26V31.79h59.26z"/></g></g></svg>