<svg width="96" height="107" viewBox="0 0 96 107" fill="none" xmlns="http://www.w3.org/2000/svg">
<path d="M24.4404 31.0917C23.7531 30.0772 23.1579 29.1897 22.3564 27.9979C19.3821 30.4737 16.5353 32.8577 13.534 35.3811C11.4933 32.9023 10.118 29.8926 10.0459 26.3835C9.97493 22.85 11.5205 19.9358 13.6549 17.541C13.2592 16.0996 12.7066 14.8466 12.5733 13.5653C12.4164 11.768 13.593 10.8457 15.31 11.421C16.5425 11.8497 17.6601 12.6159 19.0964 13.3979C22.3311 11.6214 26.0854 11.2679 30.1598 12.8914C30.1201 12.203 30.0953 11.7115 30.0459 11.2188C29.6125 6.56424 32.1351 3.28168 36.7674 3.06972C41.6229 2.81977 46.4944 2.74221 51.3465 3.05592C56.7627 3.39755 61.9704 5.46933 64.2701 12.1529C66.1706 12.0018 68.0329 11.6282 69.8697 11.7682C71.6564 11.9301 73.4164 12.6301 75.2608 13.1136C76.9872 11.0173 79.5213 10.4809 80.6561 11.395C82.3834 12.7553 82.5088 15.1883 80.8761 17.8776C83.4679 21.1436 85.1574 24.7573 84.5986 29.0931C84.3132 31.3832 83.3544 33.3704 82.0434 35.0215C79.0672 32.5699 76.1375 30.1696 73.1379 27.6923C72.0747 29.3066 71.1988 30.6116 70.3475 31.9177C88.084 47.0871 89.6075 70.941 74.9047 88.3535C76.1258 90.0073 77.472 91.6183 78.5399 93.3872C79.517 95.0044 80.2146 96.8039 80.9637 98.557C81.1626 99.0081 81.1336 99.595 81.0824 100.132C80.889 102.549 79.4673 103.459 77.333 102.373C75.2712 101.315 73.3183 100.042 71.3115 98.8637C69.9978 98.0877 68.7086 97.313 67.3912 96.6105C66.145 95.9604 64.9176 95.9242 63.5337 96.5666C57.7233 99.2207 51.5796 100.167 45.256 99.7802C40.5008 99.4959 35.853 98.5304 31.4486 96.6209C30.0295 95.9869 28.7237 96.0448 27.4832 96.7678C25.1287 98.1466 22.8183 99.6257 20.487 101.03C19.2969 101.731 18.0822 102.431 16.8012 102.98C15.47 103.552 14.3379 103.079 14.0378 101.691C13.7783 100.477 13.6069 98.9736 14.1016 97.9195C15.2599 95.3784 16.8267 93.0291 18.2487 90.6236C18.6504 89.9571 19.17 89.3944 19.6674 88.7817C18.7397 87.6572 17.8329 86.6072 17.0021 85.512C12.0477 78.8196 9.79521 71.1824 9.12042 62.9614C8.39626 54.2476 10.6277 46.4156 15.7706 39.365C17.9072 36.4311 20.5112 33.986 23.4662 31.9015C23.7259 31.6202 24.0066 31.4135 24.4404 31.0917ZM83.4999 63.211C84.2422 48.711 75.93 35.3563 63.5912 29.8428C56.1597 26.5088 48.4149 26.0274 40.5475 27.5255C30.5224 29.4072 22.1298 34.0661 16.1786 42.5475C10.4123 50.7684 9.20057 59.8521 11.1074 69.5069C13.1901 80.0774 18.6101 88.2881 28.4214 93.2108C35.1859 96.6098 42.4236 97.8996 49.9507 97.3161C59.1551 96.6195 67.1646 93.2409 73.4553 86.3452C79.7473 79.425 82.9103 71.1488 83.4999 63.211ZM68.8068 25.2962C67.7065 24.6779 66.7007 24.1379 65.7207 23.5746C63.5692 22.3405 61.3405 21.176 59.2686 19.8233C57.6015 18.7357 57.5061 17.1866 58.973 15.8619C60.0538 14.8858 61.2758 14.0393 62.5174 13.2918C63.2013 12.8844 63.3176 12.5225 63.0805 11.8489C62.2869 9.50527 60.7506 7.76229 58.4829 6.89011C56.5524 6.1572 54.4981 5.44267 52.4614 5.36638C47.5799 5.14927 42.6617 5.17549 37.7584 5.39856C33.3971 5.59942 31.1806 8.16172 31.3648 12.3872C31.3872 12.9276 31.8241 13.5376 32.2474 13.9262C33.3983 15.0128 34.7035 15.9599 35.8029 17.0929C36.9955 18.3286 36.8369 19.5465 35.4372 20.5068C34.1148 21.3973 32.7003 22.1608 31.3336 22.9511C29.4607 24.0351 27.5903 25.0702 25.6671 26.1762C26.3741 27.2898 27.0148 28.253 27.6764 29.2908C33.5575 26.199 39.7291 24.6904 46.3061 24.4276C46.3006 23.5449 46.2891 22.7844 46.2775 22.0239C45.8164 21.903 45.4522 21.8114 45.1125 21.7211C42.7149 20.9896 41.8825 19.4285 42.5676 17.011C42.926 15.7295 43.7066 14.8611 44.8894 14.3069C47.0297 13.2851 49.2783 13.0533 51.5839 13.6577C54.2047 14.3512 55.414 16.7399 54.5254 19.2943C53.8915 21.1751 52.5433 22.0889 50.5974 22.1642C50.5793 22.531 50.5941 22.7278 50.5599 22.9222C50.378 24.1144 50.7216 24.6217 52.0692 24.7129C53.8092 24.8235 55.591 25.0833 57.2369 25.6061C60.3593 26.5941 63.4194 27.8487 66.558 29.0091C67.1765 27.9366 67.9518 26.6757 68.8068 25.2962ZM81.1123 32.475C81.2704 32.2622 81.426 32.0983 81.5595 31.8843C84.2973 27.7299 84.1437 23.3833 80.7644 19.6371C74.8672 13.1186 67.1331 11.9269 60.3794 17.7456C60.0191 18.0709 59.7521 18.499 59.5438 18.7338C67.6129 22.0994 74.8195 26.5008 81.1123 32.475ZM35.2713 17.9001C32.9783 16.0461 30.5301 14.8463 27.7513 14.3656C21.1231 13.1795 12.951 19.3447 11.5794 25.6995C11.0354 28.2465 11.3827 30.666 13.021 32.8308C19.3475 26.2065 27.3371 22.2385 35.2713 17.9001ZM21.2379 90.3303C20.003 91.9361 18.6969 93.4893 17.5576 95.1489C16.656 96.4771 15.8955 97.9348 15.1595 99.3937C14.9954 99.7288 15.1183 100.225 15.0966 100.665C15.5649 100.639 16.0542 100.688 16.4796 100.538C17.0043 100.367 17.5117 100.049 17.9946 99.7301C20.7634 97.9306 23.5321 96.131 26.3009 94.3315C26.3511 94.3095 26.3327 94.186 26.3351 94.1371C24.6753 92.9028 23.0155 91.6685 21.2379 90.3303ZM73.2959 90.0634C71.5544 91.4725 69.9416 92.7655 68.3803 94.0119C70.857 95.6299 73.238 97.194 75.6447 98.7349C76.5267 99.2934 77.4589 99.8298 78.4193 100.294C78.7554 100.458 79.2531 100.335 79.6712 100.332C79.6661 99.9391 79.7614 99.5025 79.63 99.1774C78.1809 95.6737 75.6863 92.9272 73.2959 90.0634ZM49.0355 24.4157C49.1009 23.0952 49.208 21.9238 49.1913 20.7708C49.2031 20.036 49.3194 19.674 50.1801 19.6676C51.6822 19.6194 52.8856 18.6494 53.1766 17.242C53.2413 16.9265 52.9307 16.2492 52.6645 16.1625C49.9529 15.3174 47.3352 15.5555 44.9673 17.2033C44.509 17.5238 44.301 18.249 43.9801 18.7724C44.483 19.0424 44.9798 19.4347 45.5145 19.5592C47.0229 19.879 47.4916 20.3435 47.5134 21.8889C47.5225 22.6983 47.5071 23.5065 47.515 24.3404C48.1281 24.3707 48.5696 24.3926 49.0355 24.4157ZM23.3346 27.6051C24.022 28.6196 24.6884 29.5596 25.3524 30.5485C25.8598 30.2305 26.2655 29.9809 26.7214 29.7093C26.0354 28.6703 25.4437 27.7095 24.8042 26.7218C24.3226 27.0166 23.9438 27.2185 23.3346 27.6051ZM17.3546 14.3167C15.7993 13.4553 14.6209 13.4215 14.0893 14.2287C13.4523 15.1777 14.0118 15.7937 14.7442 16.3938C15.6401 15.6782 16.4845 15.0091 17.3546 14.3167ZM79.2859 16.23C79.8493 15.2773 80.3331 14.4433 80.8427 13.586C80.7273 13.4332 80.5862 13.3037 80.4708 13.1509C79.3957 13.5144 78.2949 13.9012 76.944 14.3736C77.891 15.1069 78.5057 15.603 79.2859 16.23ZM68.1872 30.3644C68.3307 30.4451 68.4497 30.5245 68.592 30.6296C69.4433 29.3235 70.2689 28.0406 71.1203 26.7345C70.978 26.6294 70.8099 26.5475 70.6676 26.4424C69.8408 27.7498 69.014 29.0571 68.1872 30.3644Z" fill="#548DD1"/>
<path d="M92.2982 60.2881C92.4219 54.3128 90.3941 49.0891 86.6009 44.2682C91.5524 46.5479 94.827 53.4023 92.2982 60.2881Z" fill="#548DD1"/>
<path d="M8.85789 83.6626C4.33634 82.6298 0.744442 76.2255 1.96749 71.3833C2.85715 76.2565 5.26426 80.2734 8.85789 83.6626Z" fill="#548DD1"/>
<path d="M44.146 95.3864C41.0057 95.2554 36.7269 94.2837 32.6071 92.5845C25.5499 89.6367 20.2338 84.7895 16.9849 77.9119C13.1786 69.879 11.8023 61.4272 14.054 52.6891C16.2152 44.2898 21.1562 37.8421 28.7386 33.6578C39.6831 27.6053 51.0956 26.5032 62.6324 31.83C70.5398 35.4817 75.6546 41.9124 78.849 49.8904C82.3923 58.7682 81.4685 67.4984 77.7035 76.0145C71.6416 89.7118 59.2528 96.1341 44.146 95.3864ZM44.9885 93.7611C52.1387 94.3357 60.0805 92.3264 65.5553 88.5036C74.3148 82.3919 78.9245 73.6971 79.5872 63.287C80.398 50.3838 74.5404 40.5825 63.5313 34.0317C56.5101 29.86 48.6917 29.375 40.8207 30.9465C29.5476 33.2076 20.9731 39.0587 16.3783 49.936C13.8452 55.9146 13.859 62.0928 15.099 68.3317C16.8889 77.3678 21.347 84.6485 29.5225 89.343C34.3983 92.1583 39.7685 93.4292 44.9885 93.7611Z" fill="#548DD1"/>
<path d="M76.7127 60.7668C76.7033 61.4528 76.7221 62.0666 76.7288 62.9249C75.6252 62.8702 74.6173 62.8694 73.64 62.7475C73.396 62.7109 73.072 62.3026 72.9884 62.0043C72.8852 61.607 73.0063 61.1472 73.0341 60.5848C74.2358 60.6442 75.3884 60.7013 76.7127 60.7668Z" fill="#548DD1"/>
<path d="M17.5215 60.1169C18.8249 60.1078 19.9812 60.0915 21.2356 60.0801C21.2459 60.865 21.2647 61.4788 21.2762 62.2393C20.0451 62.2764 18.8864 62.3416 17.5818 62.3751C17.5703 61.6146 17.5306 60.9263 17.5215 60.1169Z" fill="#548DD1"/>
<path d="M48.9004 31.616C48.9098 32.9157 48.9265 34.0687 48.9359 35.3684C48.1978 35.3809 47.5332 35.397 46.7448 35.4316C46.7084 34.1796 46.6905 33.051 46.6799 31.7758C47.3714 31.712 48.0127 31.6702 48.9004 31.616Z" fill="#548DD1"/>
<path d="M47.108 87.1983C47.8437 87.2347 48.4568 87.265 49.1926 87.3014C49.1835 88.4777 49.2014 89.6062 49.212 90.8814C48.7449 90.8828 48.3267 90.8866 47.8829 90.9137C47.2159 90.9787 46.9092 90.7184 46.9443 90.0093C47.0369 89.1313 47.0572 88.2253 47.108 87.1983Z" fill="#548DD1"/>
<path d="M31.2165 56.2067L44.7046 65.3901L46.6223 66.2957L46.5157 61.5547L31.2165 56.2067Z" fill="#548DD1"/>
<path d="M46.5157 61.5547L68.5788 47.777L48.4974 65.3048L46.6223 66.2957L46.5157 61.5547Z" fill="#548DD1"/>
</svg>
