<svg xmlns="http://www.w3.org/2000/svg" width="33" height="33" viewBox="0 0 33 33"><g><g><path fill="#fff" d="M31.495 27.76l1.435 5.193-5.189-1.436A10.614 10.614 0 0 1 22.317 33c-4.807 0-9.006-3.241-10.272-7.812a12.537 12.537 0 0 1-5.854-1.734l-6.145 1.7 1.7-6.149A12.567 12.567 0 0 1 0 12.6C0 5.652 5.648 0 12.592 0c6.76 0 12.292 5.358 12.579 12.054 4.567 1.266 7.806 5.469 7.806 10.279 0 1.92-.511 3.787-1.482 5.427zM6.86 21.595a10.618 10.618 0 0 0 5.733 1.672c5.877 0 10.66-4.785 10.66-10.667 0-5.881-4.783-10.667-10.66-10.667-5.878 0-10.66 4.786-10.66 10.667 0 2.042.578 4.025 1.671 5.737l.232.363-1.017 3.681 3.678-1.018zm22.545 5.854l.237-.365a8.706 8.706 0 0 0 1.404-4.751 8.755 8.755 0 0 0-5.946-8.28c-.667 5.789-5.27 10.396-11.055 11.064a8.75 8.75 0 0 0 8.273 5.95 8.688 8.688 0 0 0 4.748-1.405l.365-.238 2.73.756zm-17.778-9.982h1.932V19.4h-1.932zm.966-9.733a1.935 1.935 0 0 0-1.933 1.934H8.727A3.87 3.87 0 0 1 12.592 5.8a3.87 3.87 0 0 1 3.864 3.868A3.879 3.879 0 0 1 15.2 12.52l-1.641 1.504v1.508h-1.932v-2.36l2.269-2.078a1.935 1.935 0 0 0-1.303-3.36z"/></g></g></svg>