<svg width="68" height="71" viewBox="0 0 68 71" fill="none" xmlns="http://www.w3.org/2000/svg">
<path d="M9.01823 1V0H8.71582L8.46408 0.167583L9.01823 1ZM7.26148 6.84746L8.15565 6.39973L7.26148 6.84746ZM1.9912 22.6356L1.79536 21.655H1.79535L1.9912 22.6356ZM65.8199 22.6356L66.2666 21.7409V21.7409L65.8199 22.6356ZM61.7208 26.302L61.3572 25.3705L61.7208 26.302ZM58.5656 69.011L59.3054 69.6839V69.6839L58.5656 69.011ZM9.21426 68.7862L8.42634 69.402H8.42634L9.21426 68.7862ZM24.2434 4.50847L24.6901 5.40316L24.2434 4.50847ZM42.9821 5.09322L42.3687 5.883L42.9821 5.09322ZM24.1504 39.2974L23.8149 38.3554C23.5761 38.4404 23.3786 38.613 23.2622 38.8381L24.1504 39.2974ZM30.6499 40.644L30.9566 41.5958L30.6499 40.644ZM33.4354 45.1327L33.5945 46.12L33.4354 45.1327ZM40.8633 44.235L41.4504 45.0445L40.8633 44.235ZM45.97 36.6042L46.9493 36.4017C46.8532 35.9373 46.4442 35.6042 45.97 35.6042V36.6042ZM25.0789 51.4169L24.1907 51.8762L25.0789 51.4169ZM45.97 44.6838L46.9635 44.5697L45.97 44.6838ZM39.9348 49.6214L39.2397 50.3403L39.9348 49.6214ZM29.7214 49.6214L29.0263 50.3403H29.0263L29.7214 49.6214ZM8.46408 0.167583C7.75529 0.639435 6.82591 1.5324 6.26591 2.74401C5.68736 3.99574 5.51075 5.58452 6.36731 7.29518L8.15565 6.39973C7.60681 5.30362 7.72299 4.3585 8.08137 3.58311C8.4583 2.7676 9.11001 2.14023 9.57238 1.83242L8.46408 0.167583ZM6.36731 7.29518C7.74618 10.049 8.86115 13.0436 9.24084 14.181L11.1379 13.5478C10.7369 12.3462 9.58758 9.25949 8.15565 6.39973L6.36731 7.29518ZM9.34856 13.3231C8.48786 14.66 7.05079 16.697 5.55065 18.4471C4.79971 19.3231 4.05088 20.1061 3.36501 20.6901C2.64797 21.3006 2.11673 21.5908 1.79536 21.655L2.18705 23.6162C3.03684 23.4465 3.89636 22.8644 4.66159 22.2129C5.45797 21.5348 6.28291 20.6659 7.06912 19.7487C8.6433 17.9123 10.1342 15.7976 11.0302 14.4057L9.34856 13.3231ZM7.26148 28.3136C9.53441 28.3136 11.6027 27.5041 13.2959 26.769C14.1719 26.3887 14.9102 26.0447 15.6037 25.7817C16.2979 25.5185 16.8178 25.3898 17.2164 25.3898V23.3898C16.4438 23.3898 15.6462 23.6266 14.8946 23.9116C14.1425 24.1968 13.3071 24.5838 12.4995 24.9344C10.8256 25.6612 9.08762 26.3136 7.26148 26.3136V28.3136ZM17.2164 25.3898C17.606 25.3898 18.0837 25.5143 18.685 25.768C19.2855 26.0214 19.9157 26.3612 20.6306 26.7369C21.983 27.4476 23.6638 28.3136 25.4146 28.3136V26.3136C24.2374 26.3136 22.9902 25.7176 21.5611 24.9665C20.8852 24.6113 20.1613 24.2201 19.4625 23.9253C18.7646 23.6309 17.9979 23.3898 17.2164 23.3898V25.3898ZM25.4146 28.3136C27.1653 28.3136 28.8461 27.4476 30.1985 26.7369C30.9134 26.3612 31.5436 26.0214 32.1441 25.768C32.7455 25.5143 33.2231 25.3898 33.6127 25.3898V23.3898C32.8312 23.3898 32.0645 23.6309 31.3666 23.9253C30.6678 24.2201 29.9439 24.6113 29.268 24.9665C27.8389 25.7176 26.5917 26.3136 25.4146 26.3136V28.3136ZM33.6127 25.3898C34.0024 25.3898 34.48 25.5143 35.0814 25.768C35.6819 26.0214 36.3121 26.3612 37.027 26.7369C38.3794 27.4476 40.0601 28.3136 41.8109 28.3136V26.3136C40.6338 26.3136 39.3866 25.7176 37.9575 24.9665C37.2816 24.6113 36.5577 24.2201 35.8589 23.9253C35.161 23.6309 34.3943 23.3898 33.6127 23.3898V25.3898ZM41.8109 28.3136C43.5617 28.3136 45.2425 27.4476 46.5948 26.7369C47.3097 26.3612 47.94 26.0214 48.5405 25.768C49.1418 25.5143 49.6195 25.3898 50.0091 25.3898V23.3898C49.2276 23.3898 48.4609 23.6309 47.763 23.9253C47.0642 24.2201 46.3402 24.6113 45.6644 24.9665C44.2352 25.7176 42.9881 26.3136 41.8109 26.3136V28.3136ZM50.0091 25.3898C50.3901 25.3898 50.8245 25.5097 51.3564 25.7549C51.8944 26.0028 52.4451 26.3355 53.0893 26.7139C54.3065 27.4289 55.8479 28.3136 57.6217 28.3136V26.3136C56.4676 26.3136 55.3739 25.7364 54.1023 24.9894C53.5021 24.6369 52.8451 24.2387 52.1936 23.9385C51.536 23.6354 50.7993 23.3898 50.0091 23.3898V25.3898ZM66.2666 21.7409C65.943 21.5793 65.4113 21.1658 64.7113 20.5014C64.0351 19.8595 63.2721 19.0521 62.4959 18.1832C60.9445 16.4464 59.3791 14.507 58.4139 13.2541L56.8295 14.4747C57.8163 15.7557 59.413 17.7341 61.0043 19.5155C61.7994 20.4057 62.6029 21.2576 63.3344 21.952C64.0424 22.624 64.7598 23.224 65.3732 23.5303L66.2666 21.7409ZM58.5549 14.2238C59.0469 12.9463 59.7848 10.9424 60.4012 9.07612C60.7091 8.14386 60.9904 7.23503 61.1958 6.46323C61.3909 5.73012 61.5496 5.00825 61.5496 4.50847H59.5496C59.5496 4.7104 59.4644 5.19212 59.263 5.94889C59.0719 6.66698 58.8042 7.53431 58.5021 8.44888C57.8985 10.2763 57.1724 12.2486 56.6885 13.505L58.5549 14.2238ZM61.5496 4.50847C61.5496 3.41289 61.1821 2.26499 60.3047 1.38878C59.4197 0.505087 58.1193 0 56.4505 0V2C57.7097 2 58.4589 2.37203 58.8915 2.80401C59.3316 3.24349 59.5496 3.84982 59.5496 4.50847H61.5496ZM57.6217 28.3136C58.8249 28.3136 60.5347 27.8384 62.0844 27.2336L61.3572 25.3705C59.8604 25.9546 58.4375 26.3136 57.6217 26.3136V28.3136ZM62.0844 27.2336C63.5722 26.653 65.0861 25.8846 66.0538 25.1153C66.5014 24.7594 67.0126 24.2661 67.1929 23.6565C67.2974 23.3034 67.2956 22.8889 67.0848 22.495C66.8878 22.1267 66.5693 21.8921 66.2666 21.7409L65.3732 23.5303C65.4541 23.5707 65.3858 23.559 65.3214 23.4386C65.2433 23.2926 65.2568 23.151 65.275 23.0892C65.283 23.0624 65.2162 23.226 64.8091 23.5498C64.0672 24.1396 62.7642 24.8214 61.3572 25.3705L62.0844 27.2336ZM60.8861 26.8528C64.4516 32.2563 66.3165 39.7583 65.9559 47.3799C65.5957 54.9949 63.0191 62.6296 57.8259 68.3381L59.3054 69.6839C64.8741 63.5625 67.5763 55.4518 67.9537 47.4744C68.3308 39.5035 66.3923 31.5659 62.5555 25.7513L60.8861 26.8528ZM56.2523 69H11.7409V71H56.2523V69ZM1.79535 21.655C1.07459 21.7989 0.346036 22.1791 0.0864221 22.9802C-0.15084 23.7124 0.137516 24.4227 0.454564 24.9206C1.11233 25.9534 2.44091 26.9641 3.94313 27.6011L4.7239 25.7598C3.46028 25.224 2.51487 24.4325 2.14152 23.8462C1.94301 23.5345 2.02653 23.481 1.98902 23.5968C1.92917 23.7815 1.80498 23.6925 2.18705 23.6162L1.79535 21.655ZM3.94313 27.6011C4.9463 28.0265 6.09059 28.3136 7.26148 28.3136V26.3136C6.41008 26.3136 5.53208 26.1025 4.7239 25.7598L3.94313 27.6011ZM10.0022 68.1705C6.30863 63.4444 3.63479 58.414 2.61728 51.9732C1.59693 45.5145 2.2291 37.5544 5.29413 26.9583L3.3729 26.4026C0.257276 37.1736 -0.439005 45.444 0.641775 52.2853C1.72538 59.1444 4.58224 64.4833 8.42634 69.402L10.0022 68.1705ZM8.02931 41.4671C6.77508 49.8219 9.49114 57.2339 13.4666 62.9681L15.1103 61.8285C11.3452 56.3979 8.84708 49.4915 10.0072 41.764L8.02931 41.4671ZM11.0519 32.1285C10.5456 33.1399 10.1023 34.1442 9.71847 35.1405L11.5848 35.8595C11.9449 34.9246 12.3621 33.9791 12.8403 33.024L11.0519 32.1285ZM10.1894 14.8644H32.4923V12.8644H10.1894V14.8644ZM32.4923 14.8644H33.9055V12.8644H32.4923V14.8644ZM33.9055 14.8644H57.6217V12.8644H33.9055V14.8644ZM34.8607 13.5683C34.2066 11.4581 32.9164 8.40723 31.1407 6.1552C30.2534 5.02985 29.1884 4.03121 27.9509 3.49138C26.6686 2.93204 25.2477 2.88933 23.7967 3.61379L24.6901 5.40316C25.5814 4.95812 26.3808 4.98851 27.1512 5.32456C27.9663 5.68012 28.7861 6.39918 29.5702 7.39353C31.1372 9.3809 32.3357 12.1775 32.9504 14.1605L34.8607 13.5683ZM23.7967 3.61379C23.0162 4.00346 22.3977 4.4953 21.9893 5.10464C21.5714 5.72805 21.4118 6.41838 21.4696 7.11506C21.5799 8.44554 22.4659 9.69885 23.5404 10.725C25.7172 12.8038 29.3321 14.5804 32.4015 14.8603L32.5831 12.8685C30.0072 12.6337 26.8047 11.0769 24.9217 9.27866C23.9664 8.36635 23.5121 7.54527 23.4627 6.94983C23.4407 6.68356 23.4965 6.44804 23.6505 6.21829C23.814 5.97445 24.124 5.68578 24.6901 5.40316L23.7967 3.61379ZM32.4015 14.8603C32.9478 14.9101 33.4887 14.9137 34.0101 14.8589L33.801 12.8699C33.4298 12.9089 33.0216 12.9085 32.5831 12.8685L32.4015 14.8603ZM34.8645 14.1481C35.4832 12.0568 36.6554 9.17796 38.1322 7.25111C38.8754 6.28141 39.6134 5.66235 40.2953 5.42263C40.8945 5.21197 41.5574 5.25285 42.3687 5.883L43.5955 4.30344C42.2987 3.2963 40.9316 3.07892 39.6319 3.53584C38.4149 3.96371 37.3851 4.93808 36.5448 6.03448C34.8546 8.23984 33.5966 11.3839 32.9466 13.5807L34.8645 14.1481ZM42.3687 5.883C43.5216 6.77845 43.6663 7.46813 43.5845 7.93615C43.4834 8.51451 42.9693 9.22859 41.9219 9.98306C39.862 11.4667 36.4524 12.5912 33.801 12.8699L34.0101 14.8589C36.9218 14.5529 40.6855 13.3384 43.0908 11.6059C44.2758 10.7523 45.3172 9.63909 45.5546 8.28048C45.8114 6.81153 45.0777 5.4546 43.5955 4.30344L42.3687 5.883ZM32.9607 13.5369C32.5444 14.7379 31.7184 16.5809 30.6181 18.161C29.4804 19.7949 28.2284 20.8899 27.0301 21.0609L27.3125 23.0408C29.3935 22.744 31.0694 21.0128 32.2594 19.3039C33.4868 17.5412 34.3883 15.5248 34.8504 14.1919L32.9607 13.5369ZM32.9527 14.168C33.3225 15.3285 34.1125 17.1177 35.306 18.8114C36.4929 20.4957 38.15 22.1863 40.2891 22.9873L40.9904 21.1144C39.3818 20.512 38.0134 19.1814 36.9409 17.6594C35.875 16.1467 35.1717 14.5444 34.8583 13.5608L32.9527 14.168ZM11.7409 69C11.0485 69 10.4117 68.6945 10.0022 68.1705L8.42634 69.402C9.22995 70.4303 10.4578 71 11.7409 71V69ZM57.8259 68.3381C57.4439 68.758 56.8741 69 56.2523 69V71C57.3843 71 58.51 70.5582 59.3054 69.6839L57.8259 68.3381ZM32.6356 35.2133L23.8149 38.3554L24.486 40.2394L33.3067 37.0974L32.6356 35.2133ZM23.2622 38.8381C22.8493 39.6365 23.2905 40.3802 23.6593 40.7665C24.0648 41.1912 24.6578 41.5292 25.3387 41.7596C26.7228 42.228 28.6847 42.328 30.9566 41.5958L30.3431 39.6922C28.4369 40.3066 26.9169 40.1823 25.9798 39.8651C25.5 39.7028 25.2226 39.5077 25.1059 39.3854C24.9524 39.2246 25.2195 39.4072 25.0387 39.7568L23.2622 38.8381ZM30.9566 41.5958C31.0805 41.5559 30.9772 41.6219 30.8064 41.5282C30.6531 41.444 30.6428 41.3366 30.6778 41.4371C30.711 41.533 30.7436 41.699 30.769 41.9655C30.7941 42.2291 30.8061 42.5105 30.8255 42.848C30.8597 43.4415 30.9131 44.2904 31.2341 44.9555C31.4099 45.32 31.6927 45.6905 32.1432 45.9259C32.593 46.1609 33.094 46.2006 33.5945 46.12L33.2763 44.1454C33.0804 44.177 33.0409 44.1384 33.0694 44.1533C33.0985 44.1685 33.0791 44.1771 33.0353 44.0863C32.9169 43.841 32.861 43.4066 32.8222 42.7331C32.8052 42.4371 32.7898 42.0891 32.76 41.7759C32.7305 41.4658 32.6806 41.1078 32.5671 40.7811C32.4553 40.459 32.234 40.0303 31.7688 39.7749C31.286 39.5099 30.7698 39.5547 30.3431 39.6922L30.9566 41.5958ZM33.5945 46.12C36.889 45.5891 38.6136 42.9052 38.6136 40.644H36.6136C36.6136 41.9739 35.5526 43.7786 33.2763 44.1454L33.5945 46.12ZM38.6136 40.644C38.6136 40.5415 38.6204 40.5525 38.6074 40.6131C38.6041 40.6284 38.5749 40.7807 38.4538 40.9445C38.3847 41.038 38.2608 41.1688 38.0635 41.2553C37.8531 41.3474 37.6363 41.355 37.4518 41.3124C37.1467 41.2418 36.9836 41.0494 36.9646 41.028C36.9388 40.999 36.9216 40.9754 36.9127 40.9627C36.9033 40.9492 36.8977 40.9401 36.8961 40.9373C36.8951 40.9356 36.9109 40.9636 36.947 41.0445C37.0171 41.2017 37.1049 41.4233 37.2248 41.7204C37.34 42.0058 37.4766 42.34 37.63 42.6813C37.9233 43.3333 38.3284 44.1303 38.8459 44.677C39.1077 44.9535 39.4763 45.2508 39.9574 45.3661C40.4906 45.4939 41.011 45.3632 41.4504 45.0445L40.2763 43.4254C40.2514 43.4434 40.3221 43.3969 40.4236 43.4212C40.4731 43.4331 40.4282 43.4393 40.2983 43.302C40.0324 43.0211 39.7412 42.4995 39.4541 41.8611C39.3174 41.5571 39.1929 41.2531 39.0795 40.9721C38.9709 40.7029 38.8629 40.43 38.7734 40.2296C38.7297 40.1316 38.6748 40.015 38.6126 39.9109C38.5826 39.8607 38.5317 39.7806 38.4595 39.6994C38.4147 39.6489 38.2282 39.4391 37.9023 39.3638C37.7074 39.3187 37.4808 39.3271 37.2612 39.4232C37.0547 39.5137 36.9222 39.6518 36.8453 39.7559C36.7084 39.9412 36.6659 40.1285 36.6519 40.1934C36.6176 40.3533 36.6136 40.5221 36.6136 40.644H38.6136ZM41.4504 45.0445C42.7205 44.1235 43.1223 42.6504 43.2495 41.5437C43.3154 40.9708 43.3145 40.4392 43.2989 40.0306C43.291 39.8256 43.2793 39.6485 43.27 39.5144C43.2653 39.445 43.2616 39.3938 43.259 39.3508C43.2561 39.3037 43.2561 39.292 43.2561 39.2974H41.2561C41.2561 39.7173 41.3719 40.3643 41.2626 41.3154C41.1577 42.2286 40.8631 42.9999 40.2763 43.4254L41.4504 45.0445ZM43.2561 39.2974C43.2561 39.6964 43.017 39.925 42.9401 39.9886C42.8584 40.0561 42.7976 40.077 42.8201 40.0676C42.8574 40.0521 42.9521 40.0221 43.1491 39.9718C43.4919 39.8842 44.0673 39.7558 44.6101 39.5705C45.1455 39.3878 45.7987 39.1041 46.2885 38.62C46.8345 38.0803 47.1398 37.3228 46.9493 36.4017L44.9907 36.8068C45.0323 37.0078 44.9894 37.0919 44.8826 37.1975C44.7196 37.3586 44.4153 37.5238 43.9642 37.6777C43.5205 37.8291 43.0803 37.9251 42.6542 38.034C42.4668 38.0818 42.2387 38.143 42.0493 38.2221C41.9585 38.2601 41.8083 38.3293 41.6657 38.4471C41.5278 38.5612 41.2561 38.8423 41.2561 39.2974H43.2561ZM45.97 35.6042H39.0063V37.6042H45.97V35.6042ZM37.0718 30.8262C35.9246 31.5656 33.8655 33.8152 34.3006 37.1813L36.2841 36.9249C35.9765 34.5454 37.4456 32.9647 38.1554 32.5072L37.0718 30.8262ZM23.6178 43.7068C23.5383 44.7069 23.4668 46.2924 23.5106 47.8209C23.5325 48.5848 23.5837 49.3523 23.6814 50.034C23.7757 50.6921 23.9255 51.3634 24.1907 51.8762L25.9672 50.9575C25.861 50.7521 25.7477 50.3536 25.6611 49.7502C25.578 49.1704 25.5305 48.4847 25.5098 47.7636C25.4685 46.3221 25.5364 44.8104 25.6115 43.8654L23.6178 43.7068ZM24.1907 51.8762C24.6889 52.8396 25.9091 54.8449 27.7497 56.6245C29.5853 58.3993 32.1431 60.0476 35.2924 60.0476V58.0476C32.8708 58.0476 30.7861 56.7783 29.1398 55.1866C27.4985 53.5996 26.3975 51.7896 25.9672 50.9575L24.1907 51.8762ZM35.2924 60.0476C38.4659 60.0476 41.2593 58.1481 43.1833 56.2878C44.1613 55.3422 44.9582 54.3654 45.5166 53.5555C45.7952 53.1515 46.0231 52.7765 46.1861 52.4571C46.2672 52.2982 46.3394 52.1392 46.3936 51.988C46.4398 51.8591 46.5058 51.6489 46.5058 51.4169H44.5058C44.5058 51.297 44.5355 51.2446 44.5109 51.313C44.4944 51.3591 44.4614 51.4368 44.4047 51.5479C44.2921 51.7686 44.1138 52.0668 43.8701 52.4202C43.3839 53.1254 42.6721 54.0001 41.7931 54.85C40.0031 56.5806 37.6898 58.0476 35.2924 58.0476V60.0476ZM46.5058 51.4169C46.5058 51.3241 46.5335 51.1579 46.6196 50.7719C46.6974 50.423 46.8062 49.9573 46.8989 49.3898C47.0867 48.2398 47.2069 46.6881 46.9635 44.5697L44.9766 44.798C45.1973 46.7194 45.0854 48.0853 44.9251 49.0675C44.8436 49.5661 44.7493 49.97 44.6676 50.3365C44.5941 50.6659 44.5058 51.0607 44.5058 51.4169H46.5058ZM46.9635 44.5697C46.836 43.4603 46.6238 42.6158 46.2741 42.0249C46.0907 41.7151 45.852 41.4446 45.5403 41.2555C45.2224 41.0625 44.8886 40.9906 44.5773 40.9906V42.9906C44.58 42.9906 44.5705 42.9909 44.5532 42.9864C44.535 42.9816 44.5171 42.974 44.5026 42.9652C44.4716 42.9464 44.4962 42.9477 44.5529 43.0435C44.6833 43.2639 44.858 43.766 44.9766 44.798L46.9635 44.5697ZM39.5758 47.2583C39.3897 47.5282 39.1317 47.9662 38.9695 48.422C38.8894 48.6472 38.8112 48.9352 38.8072 49.2396C38.8033 49.5456 38.8767 49.9893 39.2397 50.3403L40.6299 48.9025C40.8072 49.0739 40.8071 49.2595 40.8071 49.2654C40.807 49.2696 40.81 49.2153 40.8537 49.0926C40.9391 48.8526 41.0989 48.5725 41.2223 48.3936L39.5758 47.2583ZM39.2397 50.3403C39.5607 50.6507 40.0231 50.8315 40.5254 50.7019C40.9416 50.5946 41.214 50.3145 41.3633 50.1221C41.658 49.7422 41.8633 49.194 41.8633 48.7237H39.8633C39.8633 48.6853 39.8683 48.7069 39.8432 48.776C39.8204 48.839 39.7938 48.8823 39.783 48.8963C39.7582 48.9282 39.8275 48.8165 40.0261 48.7653C40.1408 48.7357 40.2729 48.7347 40.4014 48.7741C40.5239 48.8117 40.5985 48.8721 40.6299 48.9025L39.2397 50.3403ZM34.5023 47.6619C34.2504 47.9865 33.8825 48.5213 33.6802 49.0229C33.5951 49.2339 33.4465 49.6527 33.5467 50.095C33.6075 50.3629 33.7628 50.647 34.0536 50.8447C34.323 51.0278 34.6115 51.0703 34.8281 51.0703V49.0703C34.859 49.0703 35.0082 49.0753 35.1779 49.1906C35.369 49.3205 35.4641 49.5064 35.4972 49.6528C35.512 49.7177 35.5135 49.7685 35.5129 49.7978C35.5122 49.8275 35.5089 49.845 35.5084 49.8477C35.5079 49.8503 35.5128 49.8261 35.535 49.771C35.6344 49.5245 35.8701 49.1615 36.0825 48.8877L34.5023 47.6619ZM34.8281 51.0703C35.2176 51.0703 35.6516 50.9736 35.9947 50.6419C36.3126 50.3345 36.4062 49.9587 36.4457 49.7678C36.4664 49.668 36.482 49.5621 36.4913 49.5032C36.5028 49.4311 36.51 49.3918 36.5172 49.3625C36.5307 49.3078 36.525 49.3717 36.4517 49.4426L35.0615 48.0047C34.7561 48.3 34.6343 48.6445 34.5752 48.8843C34.5462 49.0023 34.5281 49.1139 34.5159 49.1907C34.5016 49.2809 34.4955 49.3222 34.4872 49.3627C34.4686 49.4524 34.4752 49.3291 34.6045 49.2041C34.759 49.0547 34.9028 49.0703 34.8281 49.0703V51.0703ZM36.7639 52.2362C36.5234 52.6237 36.1794 53.2294 35.9931 53.7237C35.945 53.8514 35.8965 53.9995 35.8664 54.1521C35.8418 54.2762 35.8005 54.5358 35.8844 54.8191C35.9319 54.9793 36.0285 55.1766 36.2163 55.3417C36.4087 55.5109 36.6303 55.5876 36.8263 55.6094C37.1648 55.6471 37.4467 55.5259 37.5846 55.4592L36.7141 53.6586C36.6663 53.6817 36.8089 53.5951 37.0476 53.6217C37.1938 53.638 37.3754 53.6977 37.5368 53.8396C37.6937 53.9775 37.7684 54.1374 37.802 54.251C37.834 54.3589 37.835 54.4428 37.834 54.4787C37.8335 54.4996 37.8319 54.5151 37.8308 54.5242C37.8296 54.5336 37.8286 54.5389 37.8284 54.5397C37.8283 54.5406 37.8301 54.5313 37.8365 54.5103C37.8427 54.4898 37.8518 54.4629 37.8645 54.4291C37.98 54.1229 38.2395 53.6513 38.4633 53.2907L36.7639 52.2362ZM37.5846 55.4592C38.7527 54.8945 39.0778 53.7975 39.0778 53.2123H37.0778C37.0778 53.1906 37.0754 53.2727 37.015 53.3829C36.9644 53.4753 36.878 53.5794 36.7141 53.6586L37.5846 55.4592ZM32.1478 52.1958C31.9782 52.4418 31.7293 52.8376 31.5688 53.2014C31.5009 53.3552 31.3859 53.6376 31.3794 53.9416C31.3761 54.0992 31.3981 54.4126 31.6298 54.6993C31.8924 55.0241 32.2526 55.1101 32.5069 55.1101V53.1101C32.6683 53.1101 32.9637 53.168 33.1852 53.4419C33.3758 53.6778 33.3804 53.9175 33.379 53.984C33.3773 54.064 33.3619 54.1059 33.3668 54.0895C33.3695 54.0804 33.3785 54.0542 33.3985 54.0088C33.4856 53.8115 33.6545 53.534 33.7944 53.3311L32.1478 52.1958ZM32.5069 55.1101C32.9426 55.1101 33.282 54.8775 33.4307 54.768C33.6237 54.6258 33.8043 54.4508 33.9559 54.2891C34.2625 53.9622 34.5488 53.5835 34.7229 53.3311L33.0763 52.1958C32.9409 52.3923 32.7166 52.6869 32.497 52.9211C32.3856 53.0399 32.2992 53.1174 32.2446 53.1576C32.218 53.1772 32.2188 53.1731 32.2449 53.1611C32.2653 53.1518 32.3601 53.1101 32.5069 53.1101V55.1101ZM29.3624 47.2583C29.1763 47.5282 28.9183 47.9662 28.7561 48.422C28.6759 48.6472 28.5977 48.9352 28.5938 49.2396C28.5899 49.5456 28.6633 49.9893 29.0263 50.3403L30.4165 48.9025C30.5938 49.0739 30.5937 49.2595 30.5936 49.2654C30.5936 49.2696 30.5966 49.2153 30.6403 49.0926C30.7257 48.8526 30.8855 48.5725 31.0089 48.3936L29.3624 47.2583ZM29.0263 50.3403C29.6659 50.9587 30.5311 50.8688 31.0937 50.5425C31.6836 50.2003 32.1141 49.5389 32.1141 48.7237H30.1141C30.1141 48.8061 30.0805 48.8181 30.0901 48.8125C30.0911 48.8119 30.1198 48.795 30.1809 48.7978C30.2508 48.801 30.343 48.8314 30.4165 48.9025L29.0263 50.3403ZM56.4505 0H9.01823V2H56.4505V0Z" fill="#548DD1"/>
</svg>
