<svg xmlns="http://www.w3.org/2000/svg" width="25" height="25" viewBox="0 0 25 25"><g><g><path fill="#fff" d="M24.848 24.17l-.728.728a.516.516 0 0 1-.729 0l-7.184-7.19a9.736 9.736 0 0 1-6.15 2.185c-5.398 0-9.79-4.395-9.79-9.796C.267 4.695 4.659.3 10.057.3c5.398 0 9.79 4.395 9.79 9.797 0 2.33-.82 4.47-2.183 6.154l7.184 7.19a.516.516 0 0 1 0 .728zm-7.062-14.073c0-4.265-3.467-7.735-7.729-7.735-4.262 0-7.729 3.47-7.729 7.735 0 4.264 3.467 7.734 7.729 7.734 4.262 0 7.729-3.47 7.729-7.734z"/></g></g></svg>