<svg width="241" height="179" viewBox="0 0 241 179" fill="none" xmlns="http://www.w3.org/2000/svg">
<path fill-rule="evenodd" clip-rule="evenodd" d="M238.098 67.5923C231.995 50.7841 219.691 50.2853 200.133 52.7792C195.232 37.6163 183.227 28.5887 166.171 25.0476C158.753 24.0981 150.085 24.9316 143.179 27.4917C142.708 25.5212 142.612 25.1969 142.612 25.1969C139.361 8.98676 109.849 -4.72916 85.5405 3.3504C66.8334 9.5857 46.2757 31.8308 53.8785 55.7221C44.6751 58.1162 38.823 62.655 36.1719 71.8319C35.992 73.1368 35.9762 73.1829 35.7541 74.8378C-3.07255 69.331 -19.9205 134.733 35.5717 138.368C41.1237 147.246 48.0764 158.768 58.9804 159.865C64.3826 166.199 77.7377 167.347 87.8914 165.651C107.349 162.409 95.6443 161.361 110.15 170.738C127.556 181.961 147.364 179.566 162.319 167.846C174.774 158.069 192.181 173.481 213.488 151.985C230.545 134.827 224.893 122.956 222.992 101.06C233.796 93.9277 244.5 85.1496 238.098 67.5923Z" fill="#27AEE4"/>
</svg>
