<svg width="348" height="167" viewBox="0 0 348 167" fill="none" xmlns="http://www.w3.org/2000/svg">
<g clip-path="url(#clip0)">
<path fill-rule="evenodd" clip-rule="evenodd" d="M306.05 86.708L306.079 86.71C305.919 88.769 305.653 90.82 305.252 92.848C304.828 94.872 304.267 96.868 303.553 98.811C302.846 100.756 301.954 102.636 300.898 104.419C299.843 106.202 298.619 107.888 297.229 109.427C295.84 110.966 294.284 112.357 292.59 113.556C291.701 114.187 290.77 114.757 289.81 115.273C289.775 115.649 289.734 116.011 289.684 116.336C289.459 117.811 288.798 119.56 287.62 120.045C285.56 120.893 283.531 121.473 281.585 121.853C276.971 122.754 272.82 122.526 269.798 122.065C265.144 121.355 261.541 119.821 261.006 119.033C260.136 117.753 260.054 115.274 260.046 114.882C259.171 114.394 258.323 113.857 257.508 113.278C255.824 112.079 254.28 110.685 252.909 109.14C250.16 106.047 248.12 102.382 246.679 98.532C245.958 96.604 245.379 94.625 244.93 92.618C244.496 90.606 244.162 88.58 244.039 86.51L244.058 86.509C244.054 84.905 244.698 83.369 245.644 82.171C246.069 81.612 246.55 81.112 247.058 80.646C247.069 80.633 247.077 80.617 247.088 80.604L247.095 80.61C247.706 80.055 248.359 79.553 249.033 79.094C250.29 78.244 251.627 77.536 252.998 76.921C254.369 76.307 255.778 75.787 257.205 75.336C258.631 74.884 260.077 74.502 261.535 74.173C262.993 73.851 264.463 73.585 265.938 73.364C266.517 73.277 267.098 73.207 267.679 73.138C267.957 73.044 268.234 72.946 268.515 72.876C269.344 72.67 270.213 72.555 271.101 72.606C271.322 72.609 271.545 72.652 271.767 72.677C271.868 72.699 271.968 72.726 272.069 72.748C272.994 72.695 273.921 72.654 274.847 72.63C276.337 72.602 277.828 72.6 279.318 72.656C280.807 72.716 282.296 72.806 283.78 72.96C285.263 73.114 286.743 73.313 288.214 73.569C289.684 73.831 291.145 74.148 292.591 74.534C294.037 74.917 295.467 75.369 296.866 75.917C298.264 76.466 299.632 77.109 300.927 77.898C302.216 78.689 303.455 79.614 304.455 80.81C305.469 81.976 306.196 83.501 306.252 85.125C306.262 85.665 306.176 86.191 306.05 86.708ZM261.956 118.386C262.276 118.753 265.37 120.25 270.147 120.954C274.259 121.56 280.551 121.71 287.183 118.981C287.761 118.743 288.335 117.557 288.548 116.162C288.56 116.082 288.567 115.983 288.579 115.899C288.106 116.123 287.628 116.335 287.144 116.532C283.302 118.1 279.133 118.769 275.009 118.679C272.944 118.62 270.891 118.378 268.867 117.991L267.355 117.675L265.859 117.271C265.356 117.152 264.873 116.966 264.383 116.8C263.896 116.628 263.402 116.475 262.932 116.257C262.354 116.029 261.789 115.77 261.231 115.496C261.304 116.394 261.502 117.718 261.956 118.386ZM245.431 92.506C245.885 94.488 246.467 96.44 247.188 98.339C248.628 102.132 250.655 105.724 253.361 108.737C254.71 110.243 256.225 111.597 257.875 112.759C259.524 113.918 261.3 114.908 263.182 115.64C263.641 115.85 264.125 115.998 264.602 116.162C265.081 116.322 265.553 116.502 266.046 116.616L267.51 117.003L268.998 117.307C270.988 117.677 273.004 117.904 275.024 117.952C279.062 118.02 283.12 117.344 286.845 115.803C288.705 115.034 290.482 114.06 292.118 112.888C293.755 111.717 295.258 110.359 296.599 108.858C297.942 107.357 299.123 105.713 300.141 103.973C301.159 102.233 302.02 100.398 302.701 98.496C303.388 96.597 303.926 94.644 304.331 92.662C304.546 91.548 304.71 90.425 304.846 89.298C304.79 89.376 304.744 89.465 304.684 89.54C303.746 90.793 302.554 91.787 301.305 92.65C300.051 93.51 298.715 94.229 297.344 94.855C295.973 95.48 294.565 96.011 293.137 96.473C291.708 96.932 290.26 97.322 288.801 97.658C287.34 97.988 285.869 98.26 284.391 98.489C282.913 98.717 281.426 98.882 279.938 99.016C278.449 99.146 276.956 99.219 275.462 99.265C273.968 99.287 272.473 99.281 270.98 99.219C269.487 99.152 267.995 99.055 266.508 98.894C265.022 98.732 263.54 98.527 262.066 98.264C260.594 97.994 259.13 97.67 257.683 97.276C256.235 96.882 254.804 96.419 253.405 95.861C252.008 95.301 250.64 94.647 249.347 93.847C248.059 93.045 246.822 92.109 245.826 90.903C245.446 90.461 245.128 89.955 244.851 89.425C245.009 90.458 245.205 91.487 245.431 92.506ZM245.577 85.182C245.568 84.782 245.58 84.374 245.626 83.967C245.228 84.782 244.987 85.657 245.001 86.546C245.051 87.905 245.651 89.215 246.574 90.279C247.477 91.363 248.64 92.24 249.869 92.995C251.104 93.749 252.425 94.373 253.783 94.908C255.142 95.442 256.539 95.885 257.955 96.262C259.372 96.639 260.808 96.948 262.254 97.205C263.701 97.455 265.159 97.649 266.621 97.799C268.084 97.95 269.553 98.037 271.023 98.094C272.493 98.147 273.965 98.144 275.436 98.115C276.906 98.074 278.377 98.007 279.843 97.884C281.308 97.757 282.771 97.601 284.225 97.381C285.678 97.161 287.124 96.898 288.558 96.58C289.99 96.255 291.409 95.877 292.806 95.434C294.203 94.994 295.578 94.488 296.911 93.893C298.243 93.298 299.534 92.615 300.733 91.806C301.738 91.125 302.682 90.35 303.468 89.454C302.676 90.252 301.785 90.948 300.85 91.558C298.205 93.282 295.253 94.429 292.263 95.321C286.251 97.059 279.987 97.689 273.77 97.607C270.658 97.553 267.55 97.29 264.476 96.8C261.403 96.313 258.356 95.597 255.428 94.505C253.963 93.964 252.527 93.329 251.165 92.54C249.806 91.753 248.513 90.809 247.444 89.608C246.912 89.007 246.45 88.33 246.113 87.582C245.773 86.837 245.586 86.004 245.577 85.182ZM303.754 81.396C302.856 80.301 301.695 79.412 300.467 78.647C299.234 77.883 297.913 77.247 296.556 76.702C295.197 76.157 293.798 75.703 292.381 75.315C290.962 74.931 289.524 74.614 288.076 74.35C286.626 74.093 285.165 73.892 283.7 73.735C282.234 73.577 280.762 73.483 279.289 73.418C277.815 73.358 276.34 73.355 274.864 73.378C274.488 73.39 274.113 73.41 273.737 73.426C274.491 73.902 275.106 74.572 275.544 75.316C275.772 75.699 275.958 76.101 276.11 76.513C276.165 76.667 276.212 76.823 276.258 76.98C276.447 76.881 276.638 76.788 276.836 76.709C277.294 76.528 277.777 76.402 278.272 76.35C278.765 76.3 279.271 76.297 279.761 76.392L279.946 76.421L280.126 76.467L280.486 76.562C280.603 76.602 280.718 76.648 280.833 76.691C280.949 76.737 281.062 76.771 281.181 76.834C281.418 76.94 281.646 77.089 281.862 77.254C282.073 77.43 282.269 77.632 282.429 77.864C282.746 78.332 282.907 78.885 282.935 79.406C282.97 79.93 282.899 80.431 282.781 80.906C282.73 81.111 282.665 81.309 282.596 81.506C282.669 81.52 282.742 81.532 282.814 81.545C282.937 81.573 283.059 81.613 283.179 81.647C283.657 81.806 284.106 82.081 284.439 82.45C284.532 82.531 284.594 82.642 284.669 82.737L284.776 82.885L284.859 83.045C284.91 83.153 284.972 83.256 285.012 83.366L285.119 83.7C285.161 83.808 285.175 83.923 285.194 84.036L285.25 84.372C285.265 84.598 285.269 84.823 285.278 85.044C285.222 84.827 285.17 84.612 285.11 84.402L284.988 84.098C284.948 83.998 284.912 83.896 284.852 83.806L284.693 83.532C284.637 83.443 284.563 83.367 284.501 83.286L284.404 83.168L284.29 83.068C284.211 83.004 284.148 82.927 284.058 82.881C283.736 82.653 283.363 82.527 282.98 82.487C282.883 82.483 282.788 82.472 282.692 82.472C282.595 82.477 282.5 82.471 282.403 82.485C282.307 82.491 282.213 82.505 282.12 82.521C282.032 82.537 281.925 82.561 281.871 82.582L281.034 82.907L281.254 81.746C281.333 81.594 281.419 81.39 281.487 81.205C281.557 81.014 281.618 80.821 281.666 80.627C281.763 80.239 281.814 79.847 281.788 79.482C281.768 79.115 281.662 78.786 281.48 78.515C281.387 78.38 281.27 78.261 281.141 78.151C281.003 78.049 280.858 77.948 280.688 77.874C280.611 77.83 280.51 77.8 280.419 77.764C280.327 77.73 280.235 77.692 280.141 77.66L279.856 77.586L279.714 77.549L279.569 77.527C279.185 77.45 278.79 77.456 278.402 77.493C278.012 77.533 277.627 77.634 277.258 77.78C277.073 77.853 276.893 77.937 276.719 78.032C276.633 78.081 276.547 78.128 276.466 78.182C276.387 78.231 276.297 78.295 276.247 78.334L275.452 78.938L275.313 77.963C275.304 77.899 275.284 77.797 275.265 77.711C275.246 77.622 275.224 77.532 275.199 77.442C275.152 77.262 275.093 77.085 275.03 76.909C274.901 76.559 274.744 76.22 274.557 75.904C274.183 75.271 273.681 74.734 273.076 74.364C272.775 74.176 272.446 74.035 272.102 73.936C271.933 73.878 271.752 73.852 271.576 73.812C271.394 73.794 271.217 73.756 271.031 73.754C270.295 73.712 269.537 73.807 268.791 73.993C268.046 74.178 267.323 74.44 266.704 74.829C266.083 75.211 265.568 75.721 265.264 76.345C264.952 76.965 264.843 77.687 264.897 78.418C264.922 78.784 264.987 79.152 265.08 79.514C265.13 79.694 265.182 79.874 265.246 80.05C265.277 80.138 265.31 80.225 265.345 80.311C265.378 80.392 265.419 80.488 265.449 80.548L265.446 80.549C265.45 80.556 265.456 80.562 265.459 80.57L264.422 81.066C264.418 81.057 264.416 81.052 264.412 81.043L264.411 81.044C264.159 80.415 263.598 79.904 262.916 79.59C262.232 79.274 261.442 79.143 260.661 79.175C259.877 79.203 259.098 79.417 258.404 79.786C257.713 80.162 257.113 80.712 256.698 81.392C256.492 81.733 256.314 82.096 256.198 82.484C256.073 82.869 255.981 83.273 255.934 83.679C255.827 84.492 255.899 85.326 256.121 86.123C256.344 86.922 256.728 87.677 257.213 88.361C257.702 89.042 258.282 89.668 258.953 90.182C258.253 89.706 257.634 89.111 257.098 88.448C256.567 87.781 256.127 87.029 255.847 86.209C255.567 85.392 255.44 84.511 255.505 83.639C255.532 83.201 255.603 82.77 255.715 82.343C255.818 81.913 255.99 81.498 256.2 81.104C256.623 80.313 257.274 79.64 258.043 79.165C258.815 78.694 259.694 78.399 260.597 78.314C261.5 78.227 262.432 78.32 263.309 78.663C263.483 78.732 263.652 78.82 263.819 78.91C263.8 78.772 263.76 78.64 263.75 78.5C263.684 77.613 263.814 76.668 264.235 75.831C264.543 75.2 265.008 74.666 265.54 74.242C264.258 74.452 262.981 74.689 261.716 74.976C260.282 75.309 258.861 75.694 257.462 76.144C256.065 76.595 254.689 77.112 253.356 77.718C252.025 78.323 250.735 79.018 249.538 79.837C248.839 80.318 248.173 80.848 247.563 81.427C247.18 81.911 246.859 82.435 246.666 83.015C246.437 83.694 246.358 84.425 246.363 85.171C246.367 85.895 246.52 86.604 246.815 87.27C247.108 87.935 247.52 88.554 248.009 89.114C248.985 90.238 250.229 91.135 251.537 91.895C252.852 92.654 254.251 93.277 255.686 93.8C258.564 94.833 261.572 95.503 264.605 95.945C267.642 96.372 270.712 96.559 273.778 96.551C276.845 96.552 279.911 96.351 282.95 95.971C285.989 95.592 289.006 95.033 291.95 94.217C293.423 93.817 294.876 93.342 296.296 92.793C297.719 92.25 299.102 91.608 300.419 90.857C301.078 90.481 301.711 90.064 302.317 89.612C302.924 89.162 303.493 88.661 304.003 88.106C304.423 87.656 304.778 87.15 305.083 86.615C305.216 86.134 305.308 85.645 305.304 85.148C305.264 83.788 304.672 82.469 303.754 81.396ZM278.677 94.142C278.497 94.319 278.286 94.456 278.064 94.557C277.616 94.753 277.134 94.825 276.66 94.802L276.661 94.764C277.126 94.741 277.59 94.621 277.984 94.399C278.379 94.176 278.681 93.822 278.8 93.404C278.927 92.989 278.896 92.536 278.804 92.101C278.717 91.668 278.526 91.277 278.246 90.982C278.103 90.838 277.944 90.711 277.761 90.617C277.675 90.564 277.575 90.53 277.483 90.487C277.382 90.456 277.288 90.415 277.183 90.394C276.777 90.286 276.339 90.26 275.9 90.277C275.461 90.295 275.018 90.358 274.581 90.451C274.148 90.541 273.698 90.666 273.305 90.81L273.303 90.811L272.467 91.034L272.554 90.214C272.571 90.059 272.578 89.857 272.578 89.676C272.579 89.489 272.571 89.301 272.559 89.114C272.532 88.74 272.477 88.368 272.391 88.007C272.22 87.286 271.92 86.602 271.454 86.057C270.985 85.52 270.357 85.121 269.639 84.93C268.928 84.725 268.146 84.693 267.38 84.764C266.623 84.834 265.876 85.047 265.277 85.496C264.98 85.72 264.72 85.994 264.508 86.308C264.295 86.621 264.141 86.977 264.023 87.344C263.788 88.084 263.719 88.883 263.745 89.675C263.772 90.468 263.883 91.266 264.08 92.037L263.972 92.071C263.729 91.297 263.574 90.5 263.502 89.689C263.433 88.88 263.457 88.05 263.665 87.241C263.771 86.84 263.917 86.44 264.138 86.076C264.355 85.71 264.636 85.378 264.966 85.101C265.293 84.817 265.681 84.619 266.074 84.454L266.375 84.345C266.476 84.31 266.58 84.289 266.682 84.261C266.887 84.2 267.095 84.171 267.304 84.136C268.128 84.016 268.979 83.999 269.826 84.192C270.672 84.367 271.491 84.813 272.111 85.456C272.73 86.104 273.132 86.916 273.376 87.742C273.498 88.157 273.584 88.58 273.638 89.005C273.66 89.188 273.675 89.372 273.687 89.557C273.688 89.557 273.69 89.556 273.691 89.556C273.934 89.513 274.178 89.477 274.424 89.451C274.914 89.397 275.411 89.376 275.911 89.405C276.411 89.435 276.918 89.513 277.407 89.695C277.894 89.869 278.366 90.172 278.696 90.595C279.026 91.019 279.203 91.532 279.253 92.029C279.307 92.518 279.294 93.038 279.096 93.512C278.999 93.747 278.857 93.966 278.677 94.142ZM254.128 105.519C254.673 106.181 255.285 106.822 255.881 107.455C256.483 108.088 257.105 108.702 257.741 109.301C259.023 110.488 260.347 111.636 261.849 112.58C261.002 112.3 260.212 111.866 259.449 111.404C259.072 111.164 258.698 110.919 258.335 110.658C257.973 110.396 257.619 110.123 257.27 109.844C256.572 109.284 255.908 108.685 255.274 108.055C254.954 107.743 254.645 107.42 254.341 107.093L253.89 106.598C253.743 106.429 253.6 106.252 253.454 106.079C252.878 105.381 252.359 104.645 251.891 103.882C251.651 103.503 251.427 103.116 251.205 102.729C251.089 102.537 250.993 102.336 250.887 102.14C250.783 101.942 250.677 101.746 250.58 101.545C249.783 99.952 249.096 98.306 248.589 96.603C249.412 98.174 250.254 99.722 251.156 101.227C252.067 102.724 253.017 104.199 254.128 105.519ZM259.892 109.39C259.271 108.738 258.698 108.045 258.239 107.269C258.954 107.813 259.635 108.369 260.333 108.892C261.027 109.417 261.723 109.931 262.451 110.354C263.187 110.775 263.965 111.174 264.739 111.55C265.522 111.923 266.306 112.284 267.157 112.575C266.705 112.638 266.248 112.594 265.798 112.533C265.35 112.465 264.908 112.358 264.476 112.222C264.044 112.087 263.621 111.925 263.21 111.737C263.003 111.646 262.801 111.546 262.601 111.442L262.302 111.284L262.003 111.107C261.607 110.869 261.236 110.599 260.887 110.309C260.535 110.022 260.207 109.711 259.892 109.39Z" fill="#1985CC"/>
<path fill-rule="evenodd" clip-rule="evenodd" d="M303.754 81.396C302.856 80.301 301.695 79.412 300.467 78.647C299.234 77.883 297.913 77.247 296.556 76.702C295.197 76.157 293.798 75.703 292.381 75.315C290.962 74.931 289.524 74.614 288.076 74.35C286.626 74.093 285.165 73.892 283.7 73.735C282.234 73.577 280.762 73.483 279.289 73.418C277.815 73.358 276.34 73.355 274.864 73.378C274.488 73.39 274.113 73.41 273.737 73.426C274.491 73.902 275.106 74.572 275.544 75.316C275.772 75.699 275.958 76.101 276.11 76.513C276.165 76.667 276.212 76.823 276.258 76.98C276.447 76.881 276.638 76.788 276.836 76.709C277.294 76.528 277.777 76.402 278.272 76.35C278.765 76.3 279.271 76.297 279.761 76.392L279.946 76.421L280.126 76.467L280.486 76.562C280.603 76.602 280.718 76.648 280.833 76.691C280.949 76.737 281.062 76.771 281.181 76.834C281.418 76.94 281.646 77.089 281.862 77.254C282.073 77.43 282.269 77.632 282.429 77.864C282.746 78.332 282.907 78.885 282.935 79.406C282.97 79.93 282.899 80.431 282.781 80.906C282.73 81.111 282.665 81.309 282.596 81.506C282.669 81.52 282.742 81.532 282.814 81.545C282.937 81.573 283.059 81.613 283.179 81.647C283.657 81.806 284.106 82.081 284.439 82.45C284.532 82.531 284.594 82.642 284.669 82.737L284.776 82.885L284.859 83.045C284.91 83.153 284.972 83.256 285.012 83.366L285.119 83.7C285.161 83.808 285.175 83.923 285.194 84.036L285.25 84.372C285.265 84.598 285.269 84.823 285.278 85.044C285.222 84.827 285.17 84.612 285.11 84.402L284.988 84.098C284.948 83.998 284.912 83.896 284.852 83.806L284.693 83.532C284.637 83.443 284.563 83.367 284.501 83.286L284.404 83.168L284.29 83.068C284.211 83.004 284.148 82.927 284.058 82.881C283.736 82.653 283.363 82.527 282.98 82.487C282.883 82.483 282.788 82.472 282.692 82.472C282.595 82.477 282.5 82.471 282.403 82.485C282.307 82.491 282.213 82.505 282.12 82.521C282.032 82.537 281.925 82.561 281.871 82.582L281.034 82.907L281.254 81.746C281.333 81.594 281.419 81.39 281.487 81.205C281.557 81.014 281.618 80.821 281.666 80.627C281.763 80.239 281.814 79.847 281.788 79.482C281.768 79.115 281.662 78.786 281.48 78.515C281.387 78.38 281.27 78.261 281.141 78.151C281.003 78.049 280.858 77.948 280.688 77.874C280.611 77.83 280.51 77.8 280.419 77.764C280.327 77.73 280.235 77.692 280.141 77.66L279.856 77.586L279.714 77.549L279.569 77.527C279.185 77.45 278.79 77.456 278.402 77.493C278.012 77.533 277.627 77.634 277.258 77.78C277.073 77.853 276.893 77.937 276.719 78.032C276.633 78.081 276.547 78.128 276.466 78.182C276.387 78.231 276.297 78.295 276.247 78.334L275.452 78.938L275.313 77.963C275.304 77.899 275.284 77.797 275.265 77.711C275.246 77.622 275.224 77.532 275.199 77.442C275.152 77.262 275.093 77.085 275.03 76.909C274.901 76.559 274.744 76.22 274.557 75.904C274.183 75.271 273.681 74.734 273.076 74.364C272.775 74.176 272.446 74.035 272.102 73.936C271.933 73.878 271.752 73.852 271.576 73.812C271.394 73.794 271.217 73.756 271.031 73.754C270.295 73.712 269.537 73.807 268.791 73.993C268.046 74.178 267.323 74.44 266.704 74.829C266.083 75.211 265.568 75.721 265.264 76.345C264.952 76.965 264.843 77.687 264.897 78.418C264.922 78.784 264.987 79.152 265.08 79.514C265.13 79.694 265.182 79.874 265.246 80.05C265.277 80.138 265.31 80.225 265.345 80.311C265.378 80.392 265.419 80.488 265.449 80.548L265.446 80.549C265.45 80.556 265.456 80.562 265.459 80.57L264.422 81.066L264.412 81.043L264.411 81.044C264.159 80.415 263.598 79.904 262.916 79.59C262.232 79.274 261.442 79.143 260.661 79.175C259.877 79.203 259.098 79.417 258.404 79.786C257.713 80.162 257.113 80.712 256.698 81.392C256.492 81.733 256.314 82.096 256.198 82.484C256.073 82.869 255.981 83.273 255.934 83.679C255.827 84.492 255.899 85.326 256.121 86.123C256.344 86.922 256.728 87.677 257.213 88.361C257.702 89.042 258.282 89.668 258.953 90.182C258.253 89.706 257.634 89.111 257.098 88.448C256.567 87.781 256.127 87.029 255.847 86.209C255.567 85.392 255.44 84.511 255.505 83.639C255.532 83.201 255.603 82.77 255.715 82.343C255.818 81.913 255.99 81.498 256.2 81.104C256.623 80.313 257.274 79.64 258.043 79.165C258.815 78.694 259.694 78.399 260.597 78.314C261.5 78.227 262.432 78.32 263.309 78.663C263.483 78.732 263.652 78.82 263.819 78.91C263.8 78.772 263.76 78.64 263.75 78.5C263.684 77.613 263.814 76.668 264.235 75.831C264.543 75.2 265.008 74.666 265.54 74.242C264.258 74.452 262.981 74.689 261.716 74.976C260.282 75.309 258.861 75.694 257.462 76.144C256.065 76.595 254.689 77.112 253.356 77.718C252.025 78.323 250.735 79.018 249.538 79.837C248.839 80.318 248.173 80.848 247.563 81.427C247.18 81.911 246.859 82.435 246.666 83.015C246.437 83.694 246.358 84.425 246.363 85.171C246.367 85.895 246.52 86.604 246.815 87.27C247.108 87.935 247.52 88.554 248.009 89.114C248.985 90.238 250.229 91.135 251.537 91.895C252.852 92.654 254.251 93.277 255.686 93.8C258.564 94.833 261.572 95.503 264.605 95.945C267.642 96.372 270.712 96.559 273.778 96.551C276.845 96.552 279.911 96.351 282.95 95.971C285.989 95.592 289.006 95.033 291.95 94.217C293.423 93.817 294.876 93.342 296.296 92.793C297.719 92.25 299.102 91.608 300.419 90.857C301.078 90.481 301.711 90.064 302.317 89.612C302.924 89.162 303.493 88.661 304.003 88.106C304.423 87.656 304.778 87.15 305.083 86.615C305.216 86.134 305.308 85.645 305.304 85.148C305.264 83.788 304.672 82.469 303.754 81.396ZM278.064 94.557C278.286 94.456 278.497 94.319 278.677 94.142C278.857 93.966 278.999 93.747 279.096 93.512C279.294 93.038 279.307 92.518 279.253 92.029C279.203 91.532 279.026 91.019 278.696 90.595C278.366 90.172 277.894 89.869 277.407 89.695C276.918 89.513 276.411 89.435 275.911 89.405C275.411 89.376 274.914 89.397 274.424 89.451C274.178 89.477 273.934 89.513 273.691 89.556C273.69 89.556 273.688 89.557 273.687 89.557C273.675 89.372 273.66 89.188 273.638 89.005C273.584 88.58 273.498 88.157 273.376 87.742C273.132 86.916 272.73 86.104 272.111 85.456C271.491 84.813 270.672 84.367 269.826 84.192C268.979 83.999 268.128 84.016 267.304 84.136C267.095 84.171 266.887 84.2 266.682 84.261C266.58 84.289 266.476 84.31 266.375 84.345L266.074 84.454C265.681 84.619 265.293 84.817 264.966 85.101C264.636 85.378 264.355 85.71 264.138 86.076C263.917 86.44 263.771 86.84 263.665 87.241C263.457 88.05 263.433 88.88 263.502 89.689C263.574 90.5 263.729 91.297 263.972 92.071L264.08 92.037C263.883 91.266 263.772 90.468 263.745 89.675C263.719 88.883 263.788 88.084 264.023 87.344C264.141 86.977 264.295 86.621 264.508 86.308C264.72 85.994 264.98 85.72 265.277 85.496C265.876 85.047 266.623 84.834 267.38 84.764C268.146 84.693 268.928 84.725 269.639 84.93C270.357 85.121 270.985 85.52 271.454 86.057C271.92 86.602 272.22 87.286 272.391 88.007C272.477 88.368 272.532 88.74 272.559 89.114C272.571 89.301 272.579 89.489 272.578 89.676C272.578 89.857 272.571 90.059 272.554 90.214L272.467 91.034L273.303 90.811L273.305 90.81C273.698 90.666 274.148 90.541 274.581 90.451C275.018 90.358 275.461 90.295 275.9 90.277C276.339 90.26 276.777 90.286 277.183 90.394C277.288 90.415 277.382 90.456 277.483 90.487C277.575 90.53 277.675 90.564 277.761 90.617C277.944 90.711 278.103 90.838 278.246 90.982C278.526 91.277 278.717 91.668 278.804 92.101C278.896 92.536 278.927 92.989 278.8 93.404C278.681 93.822 278.379 94.176 277.984 94.399C277.59 94.621 277.126 94.741 276.661 94.764L276.66 94.802C277.134 94.825 277.616 94.753 278.064 94.557Z" fill="#1985CC"/>
<path fill-rule="evenodd" clip-rule="evenodd" d="M245.431 92.506C245.885 94.488 246.467 96.44 247.188 98.339C248.628 102.132 250.655 105.724 253.361 108.737C254.71 110.243 256.225 111.597 257.875 112.759C259.524 113.918 261.3 114.908 263.182 115.64C263.641 115.85 264.125 115.998 264.602 116.162C265.081 116.322 265.553 116.502 266.046 116.616L267.51 117.003L268.998 117.307C270.988 117.677 273.004 117.904 275.024 117.952C279.062 118.02 283.12 117.344 286.845 115.803C288.705 115.034 290.482 114.06 292.118 112.888C293.755 111.717 295.258 110.359 296.599 108.858C297.942 107.357 299.123 105.713 300.141 103.973C301.159 102.233 302.02 100.398 302.701 98.496C303.388 96.597 303.926 94.644 304.331 92.662C304.546 91.548 304.71 90.425 304.846 89.298C304.79 89.376 304.744 89.465 304.684 89.54C303.746 90.793 302.554 91.787 301.305 92.65C300.051 93.51 298.715 94.229 297.344 94.855C295.973 95.48 294.565 96.011 293.137 96.473C291.708 96.932 290.26 97.322 288.801 97.658C287.34 97.988 285.869 98.26 284.391 98.489C282.913 98.717 281.426 98.882 279.938 99.016C278.449 99.146 276.956 99.219 275.462 99.265C273.968 99.287 272.473 99.281 270.98 99.219C269.487 99.152 267.995 99.055 266.508 98.894C265.022 98.732 263.54 98.527 262.066 98.264C260.594 97.994 259.13 97.67 257.683 97.276C256.235 96.882 254.804 96.419 253.405 95.861C252.008 95.301 250.64 94.647 249.347 93.847C248.059 93.045 246.822 92.109 245.826 90.903C245.446 90.461 245.128 89.955 244.851 89.425C245.009 90.458 245.205 91.487 245.431 92.506ZM255.881 107.455C255.285 106.822 254.673 106.181 254.128 105.519C253.017 104.199 252.067 102.724 251.156 101.227C250.254 99.722 249.412 98.174 248.589 96.603C249.096 98.306 249.783 99.952 250.58 101.545C250.677 101.746 250.783 101.942 250.887 102.14C250.993 102.336 251.089 102.537 251.205 102.729C251.427 103.116 251.651 103.503 251.891 103.882C252.359 104.645 252.878 105.381 253.454 106.079C253.6 106.252 253.743 106.429 253.89 106.598L254.341 107.093C254.645 107.42 254.954 107.743 255.274 108.055C255.908 108.685 256.572 109.284 257.27 109.844C257.619 110.123 257.973 110.396 258.335 110.658C258.698 110.919 259.072 111.164 259.449 111.404C260.212 111.866 261.002 112.3 261.849 112.58C260.347 111.636 259.023 110.488 257.741 109.301C257.105 108.702 256.483 108.088 255.881 107.455ZM258.239 107.269C258.698 108.045 259.271 108.738 259.892 109.39C260.207 109.711 260.535 110.022 260.887 110.309C261.236 110.599 261.607 110.869 262.003 111.107L262.302 111.284L262.601 111.442C262.801 111.546 263.003 111.646 263.21 111.737C263.621 111.925 264.044 112.087 264.476 112.222C264.908 112.358 265.35 112.465 265.798 112.533C266.248 112.594 266.705 112.638 267.157 112.575C266.306 112.284 265.522 111.923 264.739 111.55C263.965 111.174 263.187 110.775 262.451 110.354C261.723 109.931 261.027 109.417 260.333 108.892C259.635 108.369 258.954 107.813 258.239 107.269Z" fill="#1985CC"/>
<path d="M245.577 85.182C245.568 84.782 245.58 84.374 245.626 83.967C245.228 84.782 244.987 85.657 245.001 86.546C245.051 87.905 245.651 89.215 246.574 90.279C247.477 91.363 248.64 92.24 249.869 92.995C251.104 93.749 252.425 94.373 253.783 94.908C255.142 95.442 256.539 95.885 257.955 96.262C259.372 96.639 260.808 96.948 262.254 97.205C263.701 97.455 265.159 97.649 266.621 97.799C268.084 97.95 269.553 98.037 271.023 98.094C272.493 98.147 273.965 98.144 275.436 98.115C276.906 98.074 278.377 98.007 279.843 97.884C281.308 97.757 282.771 97.601 284.225 97.381C285.678 97.161 287.124 96.898 288.558 96.58C289.99 96.255 291.409 95.877 292.806 95.434C294.203 94.994 295.578 94.488 296.911 93.893C298.243 93.298 299.534 92.615 300.733 91.806C301.738 91.125 302.682 90.35 303.468 89.454C302.676 90.252 301.785 90.948 300.85 91.558C298.205 93.282 295.253 94.429 292.263 95.321C286.251 97.059 279.987 97.689 273.77 97.607C270.658 97.553 267.55 97.29 264.476 96.8C261.403 96.313 258.356 95.597 255.428 94.505C253.963 93.964 252.527 93.329 251.165 92.54C249.806 91.753 248.513 90.809 247.444 89.608C246.912 89.007 246.45 88.33 246.113 87.582C245.773 86.837 245.586 86.004 245.577 85.182Z" fill="#1985CC"/>
<path d="M261.956 118.386C262.276 118.753 265.37 120.25 270.147 120.954C274.259 121.56 280.551 121.71 287.183 118.981C287.761 118.743 288.335 117.557 288.548 116.162C288.56 116.082 288.567 115.983 288.579 115.899C288.106 116.123 287.628 116.335 287.144 116.532C283.302 118.1 279.133 118.769 275.009 118.679C272.944 118.62 270.891 118.378 268.867 117.991L267.355 117.675L265.859 117.271C265.356 117.152 264.873 116.966 264.383 116.8C263.896 116.628 263.402 116.475 262.932 116.257C262.354 116.029 261.789 115.77 261.231 115.496C261.304 116.394 261.502 117.718 261.956 118.386Z" fill="#1985CC"/>
<path fill-rule="evenodd" clip-rule="evenodd" d="M306.05 86.708L306.079 86.71C305.919 88.769 305.653 90.82 305.252 92.848C304.828 94.872 304.267 96.868 303.553 98.811C302.846 100.756 301.954 102.636 300.898 104.419C299.843 106.202 298.619 107.888 297.229 109.427C295.84 110.966 294.284 112.357 292.59 113.556C291.701 114.187 290.77 114.757 289.81 115.273C289.775 115.649 289.734 116.011 289.684 116.336C289.459 117.811 288.798 119.56 287.62 120.045C285.56 120.893 283.531 121.473 281.585 121.853C276.971 122.754 272.82 122.526 269.798 122.065C265.144 121.355 261.541 119.821 261.006 119.033C260.136 117.753 260.054 115.274 260.046 114.882C259.171 114.394 258.323 113.857 257.508 113.278C255.824 112.079 254.28 110.685 252.909 109.14C250.16 106.047 248.12 102.382 246.679 98.532C245.958 96.604 245.379 94.625 244.93 92.618C244.496 90.606 244.162 88.58 244.039 86.51L244.058 86.509C244.054 84.905 244.698 83.369 245.644 82.171C246.069 81.612 246.55 81.112 247.058 80.646C247.069 80.633 247.077 80.617 247.088 80.604L247.095 80.61C247.706 80.055 248.359 79.553 249.033 79.094C250.29 78.244 251.627 77.536 252.998 76.921C254.369 76.307 255.778 75.787 257.205 75.336C258.631 74.884 260.077 74.502 261.535 74.173C262.993 73.851 264.463 73.585 265.938 73.364C266.517 73.277 267.098 73.207 267.679 73.138C267.957 73.044 268.234 72.946 268.515 72.876C269.344 72.67 270.213 72.555 271.101 72.606C271.322 72.609 271.545 72.652 271.767 72.677C271.868 72.699 271.968 72.726 272.069 72.748C272.994 72.695 273.921 72.654 274.847 72.63C276.337 72.602 277.828 72.6 279.318 72.656C280.807 72.716 282.296 72.806 283.78 72.96C285.263 73.114 286.743 73.313 288.214 73.569C289.684 73.831 291.145 74.148 292.591 74.534C294.037 74.917 295.467 75.369 296.866 75.917C298.264 76.466 299.632 77.109 300.927 77.898C302.216 78.689 303.455 79.614 304.455 80.81C305.469 81.976 306.196 83.501 306.252 85.125C306.262 85.665 306.176 86.191 306.05 86.708ZM261.956 118.386C262.276 118.753 265.37 120.25 270.147 120.954C274.259 121.56 280.551 121.71 287.183 118.981C287.761 118.743 288.335 117.557 288.548 116.162C288.56 116.082 288.567 115.983 288.579 115.899C288.106 116.123 287.628 116.335 287.144 116.532C283.302 118.1 279.133 118.769 275.009 118.679C272.944 118.62 270.891 118.378 268.867 117.991L267.355 117.675L265.859 117.271C265.356 117.152 264.873 116.966 264.383 116.8C263.896 116.628 263.402 116.475 262.932 116.257C262.354 116.029 261.789 115.77 261.231 115.496C261.304 116.394 261.502 117.718 261.956 118.386ZM245.431 92.506C245.885 94.488 246.467 96.44 247.188 98.339C248.628 102.132 250.655 105.724 253.361 108.737C254.71 110.243 256.225 111.597 257.875 112.759C259.524 113.918 261.3 114.908 263.182 115.64C263.641 115.85 264.125 115.998 264.602 116.162C265.081 116.322 265.553 116.502 266.046 116.616L267.51 117.003L268.998 117.307C270.988 117.677 273.004 117.904 275.024 117.952C279.062 118.02 283.12 117.344 286.845 115.803C288.705 115.034 290.482 114.06 292.118 112.888C293.755 111.717 295.258 110.359 296.599 108.858C297.942 107.357 299.123 105.713 300.141 103.973C301.159 102.233 302.02 100.398 302.701 98.496C303.388 96.597 303.926 94.644 304.331 92.662C304.546 91.548 304.71 90.425 304.846 89.298C304.79 89.376 304.744 89.465 304.684 89.54C303.746 90.793 302.554 91.787 301.305 92.65C300.051 93.51 298.715 94.229 297.344 94.855C295.973 95.48 294.565 96.011 293.137 96.473C291.708 96.932 290.26 97.322 288.801 97.658C287.34 97.988 285.869 98.26 284.391 98.489C282.913 98.717 281.426 98.882 279.938 99.016C278.449 99.146 276.956 99.219 275.462 99.265C273.968 99.287 272.473 99.281 270.98 99.219C269.487 99.152 267.995 99.055 266.508 98.894C265.022 98.732 263.54 98.527 262.066 98.264C260.594 97.994 259.13 97.67 257.683 97.276C256.235 96.882 254.804 96.419 253.405 95.861C252.008 95.301 250.64 94.647 249.347 93.847C248.059 93.045 246.822 92.109 245.826 90.903C245.446 90.461 245.128 89.955 244.851 89.425C245.009 90.458 245.205 91.487 245.431 92.506ZM245.577 85.182C245.568 84.782 245.58 84.374 245.626 83.967C245.228 84.782 244.987 85.657 245.001 86.546C245.051 87.905 245.651 89.215 246.574 90.279C247.477 91.363 248.64 92.24 249.869 92.995C251.104 93.749 252.425 94.373 253.783 94.908C255.142 95.442 256.539 95.885 257.955 96.262C259.372 96.639 260.808 96.948 262.254 97.205C263.701 97.455 265.159 97.649 266.621 97.799C268.084 97.95 269.553 98.037 271.023 98.094C272.493 98.147 273.965 98.144 275.436 98.115C276.906 98.074 278.377 98.007 279.843 97.884C281.308 97.757 282.771 97.601 284.225 97.381C285.678 97.161 287.124 96.898 288.558 96.58C289.99 96.255 291.409 95.877 292.806 95.434C294.203 94.994 295.578 94.488 296.911 93.893C298.243 93.298 299.534 92.615 300.733 91.806C301.738 91.125 302.682 90.35 303.468 89.454C302.676 90.252 301.785 90.948 300.85 91.558C298.205 93.282 295.253 94.429 292.263 95.321C286.251 97.059 279.987 97.689 273.77 97.607C270.658 97.553 267.55 97.29 264.476 96.8C261.403 96.313 258.356 95.597 255.428 94.505C253.963 93.964 252.527 93.329 251.165 92.54C249.806 91.753 248.513 90.809 247.444 89.608C246.912 89.007 246.45 88.33 246.113 87.582C245.773 86.837 245.586 86.004 245.577 85.182ZM303.754 81.396C302.856 80.301 301.695 79.412 300.467 78.647C299.234 77.883 297.913 77.247 296.556 76.702C295.197 76.157 293.798 75.703 292.381 75.315C290.962 74.931 289.524 74.614 288.076 74.35C286.626 74.093 285.165 73.892 283.7 73.735C282.234 73.577 280.762 73.483 279.289 73.418C277.815 73.358 276.34 73.355 274.864 73.378C274.488 73.39 274.113 73.41 273.737 73.426C274.491 73.902 275.106 74.572 275.544 75.316C275.772 75.699 275.958 76.101 276.11 76.513C276.165 76.667 276.212 76.823 276.258 76.98C276.447 76.881 276.638 76.788 276.836 76.709C277.294 76.528 277.777 76.402 278.272 76.35C278.765 76.3 279.271 76.297 279.761 76.392L279.946 76.421L280.126 76.467L280.486 76.562C280.603 76.602 280.718 76.648 280.833 76.691C280.949 76.737 281.062 76.771 281.181 76.834C281.418 76.94 281.646 77.089 281.862 77.254C282.073 77.43 282.269 77.632 282.429 77.864C282.746 78.332 282.907 78.885 282.935 79.406C282.97 79.93 282.899 80.431 282.781 80.906C282.73 81.111 282.665 81.309 282.596 81.506C282.669 81.52 282.742 81.532 282.814 81.545C282.937 81.573 283.059 81.613 283.179 81.647C283.657 81.806 284.106 82.081 284.439 82.45C284.532 82.531 284.594 82.642 284.669 82.737L284.776 82.885L284.859 83.045C284.91 83.153 284.972 83.256 285.012 83.366L285.119 83.7C285.161 83.808 285.175 83.923 285.194 84.036L285.25 84.372C285.265 84.598 285.269 84.823 285.278 85.044C285.222 84.827 285.17 84.612 285.11 84.402L284.988 84.098C284.948 83.998 284.912 83.896 284.852 83.806L284.693 83.532C284.637 83.443 284.563 83.367 284.501 83.286L284.404 83.168L284.29 83.068C284.211 83.004 284.148 82.927 284.058 82.881C283.736 82.653 283.363 82.527 282.98 82.487C282.883 82.483 282.788 82.472 282.692 82.472C282.595 82.477 282.5 82.471 282.403 82.485C282.307 82.491 282.213 82.505 282.12 82.521C282.032 82.537 281.925 82.561 281.871 82.582L281.034 82.907L281.254 81.746C281.333 81.594 281.419 81.39 281.487 81.205C281.557 81.014 281.618 80.821 281.666 80.627C281.763 80.239 281.814 79.847 281.788 79.482C281.768 79.115 281.662 78.786 281.48 78.515C281.387 78.38 281.27 78.261 281.141 78.151C281.003 78.049 280.858 77.948 280.688 77.874C280.611 77.83 280.51 77.8 280.419 77.764C280.327 77.73 280.235 77.692 280.141 77.66L279.856 77.586L279.714 77.549L279.569 77.527C279.185 77.45 278.79 77.456 278.402 77.493C278.012 77.533 277.627 77.634 277.258 77.78C277.073 77.853 276.893 77.937 276.719 78.032C276.633 78.081 276.547 78.128 276.466 78.182C276.387 78.231 276.297 78.295 276.247 78.334L275.452 78.938L275.313 77.963C275.304 77.899 275.284 77.797 275.265 77.711C275.246 77.622 275.224 77.532 275.199 77.442C275.152 77.262 275.093 77.085 275.03 76.909C274.901 76.559 274.744 76.22 274.557 75.904C274.183 75.271 273.681 74.734 273.076 74.364C272.775 74.176 272.446 74.035 272.102 73.936C271.933 73.878 271.752 73.852 271.576 73.812C271.394 73.794 271.217 73.756 271.031 73.754C270.295 73.712 269.537 73.807 268.791 73.993C268.046 74.178 267.323 74.44 266.704 74.829C266.083 75.211 265.568 75.721 265.264 76.345C264.952 76.965 264.843 77.687 264.897 78.418C264.922 78.784 264.987 79.152 265.08 79.514C265.13 79.694 265.182 79.874 265.246 80.05C265.277 80.138 265.31 80.225 265.345 80.311C265.378 80.392 265.419 80.488 265.449 80.548L265.446 80.549C265.45 80.556 265.456 80.562 265.459 80.57L264.422 81.066C264.418 81.057 264.416 81.052 264.412 81.043L264.411 81.044C264.159 80.415 263.598 79.904 262.916 79.59C262.232 79.274 261.442 79.143 260.661 79.175C259.877 79.203 259.098 79.417 258.404 79.786C257.713 80.162 257.113 80.712 256.698 81.392C256.492 81.733 256.314 82.096 256.198 82.484C256.073 82.869 255.981 83.273 255.934 83.679C255.827 84.492 255.899 85.326 256.121 86.123C256.344 86.922 256.728 87.677 257.213 88.361C257.702 89.042 258.282 89.668 258.953 90.182C258.253 89.706 257.634 89.111 257.098 88.448C256.567 87.781 256.127 87.029 255.847 86.209C255.567 85.392 255.44 84.511 255.505 83.639C255.532 83.201 255.603 82.77 255.715 82.343C255.818 81.913 255.99 81.498 256.2 81.104C256.623 80.313 257.274 79.64 258.043 79.165C258.815 78.694 259.694 78.399 260.597 78.314C261.5 78.227 262.432 78.32 263.309 78.663C263.483 78.732 263.652 78.82 263.819 78.91C263.8 78.772 263.76 78.64 263.75 78.5C263.684 77.613 263.814 76.668 264.235 75.831C264.543 75.2 265.008 74.666 265.54 74.242C264.258 74.452 262.981 74.689 261.716 74.976C260.282 75.309 258.861 75.694 257.462 76.144C256.065 76.595 254.689 77.112 253.356 77.718C252.025 78.323 250.735 79.018 249.538 79.837C248.839 80.318 248.173 80.848 247.563 81.427C247.18 81.911 246.859 82.435 246.666 83.015C246.437 83.694 246.358 84.425 246.363 85.171C246.367 85.895 246.52 86.604 246.815 87.27C247.108 87.935 247.52 88.554 248.009 89.114C248.985 90.238 250.229 91.135 251.537 91.895C252.852 92.654 254.251 93.277 255.686 93.8C258.564 94.833 261.572 95.503 264.605 95.945C267.642 96.372 270.712 96.559 273.778 96.551C276.845 96.552 279.911 96.351 282.95 95.971C285.989 95.592 289.006 95.033 291.95 94.217C293.423 93.817 294.876 93.342 296.296 92.793C297.719 92.25 299.102 91.608 300.419 90.857C301.078 90.481 301.711 90.064 302.317 89.612C302.924 89.162 303.493 88.661 304.003 88.106C304.423 87.656 304.778 87.15 305.083 86.615C305.216 86.134 305.308 85.645 305.304 85.148C305.264 83.788 304.672 82.469 303.754 81.396ZM278.677 94.142C278.497 94.319 278.286 94.456 278.064 94.557C277.616 94.753 277.134 94.825 276.66 94.802L276.661 94.764C277.126 94.741 277.59 94.621 277.984 94.399C278.379 94.176 278.681 93.822 278.8 93.404C278.927 92.989 278.896 92.536 278.804 92.101C278.717 91.668 278.526 91.277 278.246 90.982C278.103 90.838 277.944 90.711 277.761 90.617C277.675 90.564 277.575 90.53 277.483 90.487C277.382 90.456 277.288 90.415 277.183 90.394C276.777 90.286 276.339 90.26 275.9 90.277C275.461 90.295 275.018 90.358 274.581 90.451C274.148 90.541 273.698 90.666 273.305 90.81L273.303 90.811L272.467 91.034L272.554 90.214C272.571 90.059 272.578 89.857 272.578 89.676C272.579 89.489 272.571 89.301 272.559 89.114C272.532 88.74 272.477 88.368 272.391 88.007C272.22 87.286 271.92 86.602 271.454 86.057C270.985 85.52 270.357 85.121 269.639 84.93C268.928 84.725 268.146 84.693 267.38 84.764C266.623 84.834 265.876 85.047 265.277 85.496C264.98 85.72 264.72 85.994 264.508 86.308C264.295 86.621 264.141 86.977 264.023 87.344C263.788 88.084 263.719 88.883 263.745 89.675C263.772 90.468 263.883 91.266 264.08 92.037L263.972 92.071C263.729 91.297 263.574 90.5 263.502 89.689C263.433 88.88 263.457 88.05 263.665 87.241C263.771 86.84 263.917 86.44 264.138 86.076C264.355 85.71 264.636 85.378 264.966 85.101C265.293 84.817 265.681 84.619 266.074 84.454L266.375 84.345C266.476 84.31 266.58 84.289 266.682 84.261C266.887 84.2 267.095 84.171 267.304 84.136C268.128 84.016 268.979 83.999 269.826 84.192C270.672 84.367 271.491 84.813 272.111 85.456C272.73 86.104 273.132 86.916 273.376 87.742C273.498 88.157 273.584 88.58 273.638 89.005C273.66 89.188 273.675 89.372 273.687 89.557C273.688 89.557 273.69 89.556 273.691 89.556C273.934 89.513 274.178 89.477 274.424 89.451C274.914 89.397 275.411 89.376 275.911 89.405C276.411 89.435 276.918 89.513 277.407 89.695C277.894 89.869 278.366 90.172 278.696 90.595C279.026 91.019 279.203 91.532 279.253 92.029C279.307 92.518 279.294 93.038 279.096 93.512C278.999 93.747 278.857 93.966 278.677 94.142ZM254.128 105.519C254.673 106.181 255.285 106.822 255.881 107.455C256.483 108.088 257.105 108.702 257.741 109.301C259.023 110.488 260.347 111.636 261.849 112.58C261.002 112.3 260.212 111.866 259.449 111.404C259.072 111.164 258.698 110.919 258.335 110.658C257.973 110.396 257.619 110.123 257.27 109.844C256.572 109.284 255.908 108.685 255.274 108.055C254.954 107.743 254.645 107.42 254.341 107.093L253.89 106.598C253.743 106.429 253.6 106.252 253.454 106.079C252.878 105.381 252.359 104.645 251.891 103.882C251.651 103.503 251.427 103.116 251.205 102.729C251.089 102.537 250.993 102.336 250.887 102.14C250.783 101.942 250.677 101.746 250.58 101.545C249.783 99.952 249.096 98.306 248.589 96.603C249.412 98.174 250.254 99.722 251.156 101.227C252.067 102.724 253.017 104.199 254.128 105.519ZM259.892 109.39C259.271 108.738 258.698 108.045 258.239 107.269C258.954 107.813 259.635 108.369 260.333 108.892C261.027 109.417 261.723 109.931 262.451 110.354C263.187 110.775 263.965 111.174 264.739 111.55C265.522 111.923 266.306 112.284 267.157 112.575C266.705 112.638 266.248 112.594 265.798 112.533C265.35 112.465 264.908 112.358 264.476 112.222C264.044 112.087 263.621 111.925 263.21 111.737C263.003 111.646 262.801 111.546 262.601 111.442L262.302 111.284L262.003 111.107C261.607 110.869 261.236 110.599 260.887 110.309C260.535 110.022 260.207 109.711 259.892 109.39Z" fill="white"/>
<path fill-rule="evenodd" clip-rule="evenodd" d="M175.884 101.712C175.884 101.712 172.178 107.406 187.5 110C202.598 112.556 244 122 244 122C249.5 125 268 52 268 43C268 43 268 39.5 264.5 34C260 25.5 258.641 23.4877 258.641 23.4877C258.652 23.4505 258.642 23.421 258.63 23.4024C258.619 23.3844 258.597 23.361 258.559 23.3543C258.559 23.3543 242.848 22.1807 227.162 19.7506C213.067 17.5674 204.842 14.9613 204.842 14.9613C204.81 14.9562 204.777 14.9752 204.767 15.0067L175.884 101.712Z" fill="#1985CC"/>
<path fill-rule="evenodd" clip-rule="evenodd" d="M231.626 114.128C231.539 114.128 231.451 114.121 231.363 114.106C231.363 114.106 220.583 110.487 205.437 107.923C190.15 105.335 174.792 103.802 174.792 103.802C174.44 103.742 174.131 103.534 173.945 103.228C173.759 102.923 173.716 102.552 173.826 102.212L202.717 13.7634C202.917 13.1435 203.551 12.7581 204.194 12.8689C204.194 12.8689 213.437 15.4997 227.624 17.697C243.235 20.1152 259.63 22.121 259.63 22.121C260.014 22.1869 260.352 22.4154 260.556 22.7477C260.76 23.08 260.811 23.4843 260.696 23.8568C260.696 23.8568 253.573 45.1862 246.84 66.9783C239.808 89.7376 233.154 113.002 233.154 113.002C232.946 113.678 232.315 114.128 231.626 114.128Z" fill="white"/>
<path fill-rule="evenodd" clip-rule="evenodd" d="M175.884 101.712C175.884 101.712 190.461 103.259 205.783 105.853C220.88 108.409 230.711 112.013 230.711 112.013C230.882 112.042 231.048 111.939 231.099 111.773C231.099 111.773 238.19 87.9532 245.416 64.5653C251.923 43.503 258.641 23.4878 258.641 23.4878C258.653 23.4506 258.642 23.4211 258.63 23.4025C258.619 23.3845 258.597 23.3611 258.559 23.3544C258.559 23.3544 242.848 22.1808 227.162 19.7508C213.067 17.5675 204.842 14.9614 204.842 14.9614C204.81 14.9563 204.778 14.9753 204.767 15.0068L175.884 101.712Z" fill="#1985CC"/>
<path fill-rule="evenodd" clip-rule="evenodd" d="M292.104 60.5075C293.398 60.2089 294.941 60.018 296.576 59.8158C298.043 59.6344 299.583 59.4439 301.081 59.1584C300.928 55.2552 300.811 51.1828 301.367 47.3072C301.401 47.0742 301.777 47.0909 301.784 47.3293C301.866 50.2008 301.688 53.1108 301.51 56.0022V56.0022V56.0022V56.0023V56.0023V56.0023V56.0024L301.51 56.0028C301.447 57.0417 301.383 58.0782 301.332 59.1096C302.164 58.9446 302.98 58.7486 303.762 58.5069C303.661 56.5291 303.681 54.55 303.701 52.5703C303.704 52.2596 303.708 51.9489 303.71 51.6382C303.715 51.048 303.71 50.454 303.704 49.8587C303.689 48.2891 303.674 46.7095 303.856 45.1624C303.878 44.9727 304.153 45.0071 304.177 45.1792C304.444 47.0804 304.399 49.0608 304.354 51.0004L304.354 51.0008C304.344 51.4243 304.334 51.8458 304.328 52.2641C304.296 54.3279 304.225 56.3849 303.988 58.4354C304.824 58.1651 305.617 57.84 306.343 57.4414C306.194 56.0061 306.223 54.5441 306.251 53.0909C306.263 52.4996 306.274 51.9099 306.274 51.3239C306.273 50.7413 306.25 50.148 306.226 49.5511C306.171 48.184 306.116 46.7983 306.337 45.4805C306.363 45.3271 306.618 45.291 306.657 45.4558C307.014 46.9785 306.984 48.6314 306.955 50.2325C306.947 50.6912 306.939 51.1457 306.94 51.5916C306.941 51.8442 306.942 52.0979 306.944 52.3523C306.954 53.9702 306.964 55.6199 306.729 57.2179C307.27 56.8893 307.768 56.5149 308.212 56.0862C308.235 55.2688 308.28 54.4516 308.325 53.6343L308.325 53.6343C308.375 52.7205 308.425 51.8066 308.444 50.892C308.457 50.2652 308.439 49.6309 308.42 48.9953C308.396 48.1281 308.371 47.2583 308.425 46.4014C307.694 45.7039 306.78 45.205 305.718 45.0238C302.319 44.4431 298.827 46.6696 296.795 49.2213C296.403 49.7137 295.658 49.3824 295.582 48.8236C295.145 45.5956 294.297 41.8628 291.872 39.5238C292.191 42.049 292.161 44.6661 292.131 47.2477C292.121 48.1626 292.11 49.0731 292.115 49.9734C292.12 50.7871 292.152 51.6227 292.184 52.4679C292.281 54.984 292.38 57.5855 291.772 59.9514C291.702 60.2217 291.289 60.1492 291.342 59.87C291.805 57.4119 291.656 54.7194 291.512 52.1075C291.454 51.0631 291.397 50.0316 291.38 49.0331C291.367 48.2525 291.342 47.4647 291.317 46.6734V46.6734V46.6734V46.6734C291.239 44.2124 291.16 41.7175 291.428 39.3013C291.434 39.2462 291.457 39.2056 291.489 39.1783C291.127 38.871 290.732 38.593 290.301 38.3495C289.512 37.9031 288.68 37.6528 287.848 37.5743C288.695 43.2009 288.899 49.0499 289.099 54.7728C289.129 55.6377 289.159 56.4997 289.191 57.3577C289.203 57.6901 288.705 57.7332 288.674 57.4C288.594 56.5528 288.512 55.7018 288.43 54.8481L288.43 54.8476L288.43 54.8472C287.877 49.1197 287.312 43.2658 287.422 37.5491C286.861 37.5353 286.304 37.5978 285.763 37.7292C285.777 38.7125 285.745 39.6948 285.714 40.6775C285.672 42.0004 285.63 43.324 285.696 44.6516C285.816 47.0549 286.114 49.4505 286.533 51.8184C286.598 52.1851 285.973 52.3237 285.889 51.957C284.88 47.5621 284.229 42.4716 285.046 37.9479C283.111 38.6589 281.491 40.269 280.871 42.3971C279.998 45.3899 280.815 47.8444 282.309 50.0898C281.804 47.593 281.458 44.7995 281.79 42.308C281.837 41.9546 282.347 42.0141 282.392 42.3398C282.627 44.05 282.706 45.8213 282.785 47.5829C282.831 48.5983 282.876 49.6105 282.951 50.6059C282.959 50.7056 282.907 50.7855 282.834 50.8347C283.73 52.0437 284.795 53.2008 285.863 54.3605C287.937 56.6123 290.02 58.8737 290.886 61.5433C291.203 62.5197 289.697 63.0551 289.381 62.0775C288.464 59.2388 286.491 57.1863 284.508 55.1228C283.108 53.6668 281.704 52.2054 280.661 50.4584C278.501 46.8393 278.199 41.8663 281.25 38.6241C283.935 35.7695 288.195 35.1163 291.492 37.2976C294.845 39.5158 296.197 43.4726 296.78 47.2989C296.424 47.6285 296.081 47.9683 295.75 48.3128L296.546 48.5735L296.964 48.7105C296.913 48.2444 296.852 47.7726 296.78 47.2989C299.104 45.1489 301.977 43.4336 305.258 43.6967C308.705 43.9734 311.195 46.8593 311.57 50.205C312.673 60.0419 298.928 60.9963 292.259 61.2295C291.861 61.2432 291.672 60.6071 292.104 60.5075ZM310.241 52.3473C310 53.5035 309.549 54.4661 308.937 55.2719C309.08 53.9085 309.122 52.5251 309.151 51.1645C309.157 50.8833 309.166 50.5989 309.174 50.3123L309.174 50.3122V50.3121V50.312V50.3119V50.3119V50.3118V50.3117C309.204 49.305 309.235 48.2721 309.165 47.2617C310.183 48.6997 310.605 50.6013 310.241 52.3473ZM298.381 58.7108C298.121 55.2258 298.016 51.5251 298.837 48.0982C298.9 47.8356 299.358 47.8235 299.343 48.1248C299.274 49.4305 299.163 50.7302 299.053 52.0293C298.864 54.2405 298.676 56.45 298.696 58.6848C298.698 58.8857 298.396 58.9153 298.381 58.7108ZM295.264 54.9754V54.9755V54.9756V54.9757V54.9758C295.267 56.0573 295.269 57.1384 295.243 58.2155C295.236 58.5118 295.74 58.5355 295.764 58.2428C295.982 55.6203 296.16 52.8846 295.857 50.2648C295.817 49.9233 295.357 49.9841 295.34 50.3075C295.257 51.8569 295.261 53.4165 295.264 54.9753V54.9754Z" fill="white"/>
<path fill-rule="evenodd" clip-rule="evenodd" d="M245.251 122.937C245.393 122.983 245.54 123.006 245.688 123.006C245.869 123.006 246.051 122.971 246.226 122.901C246.64 122.735 246.949 122.393 247.072 121.964C247.072 121.964 256.161 94.1326 262.653 71.6051C267.067 56.2895 269.706 43.4257 269.706 43.4257C269.886 42.8003 269.803 42.1179 269.479 41.5534L260.555 22.9399L258.635 23.603L266.359 39.7227L263.478 49.7214C263.171 50.7816 262.866 51.8421 262.561 52.9026L262.558 52.9129C261.807 55.5205 261.057 58.1282 260.288 60.7305L253.839 82.7287L253.962 82.7662L260.948 60.9311C261.793 58.3074 262.62 55.6779 263.448 53.0482L263.448 53.0478C263.767 52.0326 264.086 51.0174 264.407 50.0024L267.135 41.3406L267.54 42.1855C267.692 42.4557 267.73 42.781 267.643 43.0793C267.643 43.0793 264.953 56.122 260.499 71.5775C254.023 94.0477 245.87 120.758 245.87 120.758C245.848 120.835 245.791 120.868 245.759 120.881C245.727 120.893 245.664 120.909 245.595 120.869L237.986 116.337L241.061 105.668C241.368 104.604 241.675 103.539 241.981 102.474L241.982 102.472L241.982 102.472L241.982 102.471C242.732 99.8657 243.482 97.2598 244.25 94.6594L250.699 72.661L250.577 72.6236L243.591 94.4586C242.748 97.0724 241.924 99.6917 241.1 102.311L241.1 102.311C240.778 103.337 240.455 104.362 240.132 105.387L236.889 115.684L235.44 114.821L240.315 98.1706C240.785 96.5719 241.252 94.9727 241.72 93.3735L241.72 93.3733C242.894 89.3573 244.069 85.3415 245.271 81.3339L255.288 47.6925L255.166 47.6549L244.611 81.1331C243.352 85.098 242.121 89.0715 240.889 93.0449L240.889 93.0457L240.889 93.0468L240.888 93.048L240.884 93.0605L240.881 93.0729C240.383 94.6784 239.886 96.2839 239.386 97.8888L234.337 114.164L232.333 112.97L231.704 114.052L239.975 119.513C233.36 117.892 221.642 115.179 209.829 113.224C197.516 111.186 187.128 110.533 187.128 110.533C186.946 110.503 186.771 110.443 186.607 110.355L175.763 101.651L174.311 103.612L186.014 112.316C186.299 112.47 186.605 112.574 186.924 112.627C186.924 112.627 197.924 113.381 210.703 115.496C228.414 118.428 245.246 122.993 245.246 122.993L245.251 122.937Z" fill="white"/>
<path fill-rule="evenodd" clip-rule="evenodd" d="M207.08 5.25766L207.08 5.25768L207.08 5.25769C207.047 5.32165 207.011 5.3905 206.976 5.46761C206.898 5.45972 206.816 5.45954 206.735 5.45937C206.557 5.45898 206.384 5.4586 206.282 5.37565C206.103 5.23075 205.946 4.929 205.963 4.71007C206.018 3.97364 206.123 3.23721 206.28 2.51565C206.325 2.30936 206.578 2.05988 206.788 1.99863C207.097 1.9086 207.37 2.13328 207.489 2.42434C207.565 2.61081 207.588 2.83965 207.559 3.03842C207.469 3.66627 207.352 4.29043 207.224 4.91157C207.201 5.02508 207.146 5.13193 207.08 5.25766ZM202.428 6.60702C202.49 6.61643 202.558 6.63336 202.628 6.65091C202.792 6.69215 202.971 6.73681 203.123 6.69531C203.491 6.59503 203.594 6.26703 203.468 5.9245C203.274 5.39519 203.059 4.87292 202.844 4.35073L202.844 4.3507L202.844 4.35067L202.844 4.35064L202.729 4.07087C202.658 3.89895 202.579 3.72657 202.477 3.5716C202.223 3.18796 201.911 3.07009 201.591 3.21513C201.268 3.36114 201.141 3.67475 201.316 4.09661C201.551 4.66631 201.806 5.22893 202.076 5.82499L202.076 5.82511L202.076 5.82518L202.076 5.82527C202.191 6.07876 202.308 6.33831 202.428 6.60702ZM197.877 6.7967C197.99 6.93813 198.102 7.07991 198.215 7.22169L198.215 7.2217L198.215 7.22171L198.215 7.22172C198.503 7.58407 198.791 7.94641 199.086 8.30297C199.1 8.32045 199.115 8.33838 199.129 8.35655C199.253 8.50809 199.389 8.67573 199.554 8.72899C199.754 8.79457 200.068 8.79136 200.213 8.67605C200.357 8.56092 200.422 8.26283 200.395 8.05877C200.377 7.91297 200.263 7.77417 200.154 7.63969L200.154 7.63968C200.122 7.60057 200.09 7.56182 200.061 7.52337C199.177 6.34588 198.289 5.17095 197.4 3.99602C197.319 3.88936 197.236 3.78301 197.141 3.68802C196.78 3.32436 196.425 3.25225 196.142 3.47868C195.886 3.68275 195.863 4.01026 196.107 4.41101C196.329 4.77595 196.562 5.13625 196.818 5.47959C197.052 5.79318 197.299 6.09741 197.546 6.40174L197.546 6.40174L197.546 6.40175L197.546 6.40176C197.654 6.53509 197.762 6.66844 197.869 6.8026L197.877 6.7967ZM194.508 9.72652L194.508 9.72661C194.903 10.03 195.312 10.3429 195.733 10.6376C196.063 10.8681 196.414 10.811 196.6 10.5657C196.788 10.317 196.716 10.0261 196.381 9.76143C196.284 9.68468 196.187 9.60769 196.09 9.53069L196.09 9.53069C195.641 9.17384 195.191 8.81676 194.725 8.48239C194.373 8.23021 194.067 8.27642 193.881 8.55164C193.689 8.83614 193.749 9.09729 194.028 9.36099C194.186 9.47997 194.346 9.60244 194.508 9.72652ZM193.976 11.5556C194.251 11.7062 194.171 12.1058 193.86 12.3085C193.844 12.3128 193.823 12.3218 193.8 12.332C193.738 12.3585 193.659 12.3928 193.6 12.371C193.579 12.3632 193.558 12.3553 193.537 12.3475C192.909 12.1145 192.28 11.8809 191.678 11.593C191.573 11.5431 191.528 11.1817 191.598 11.0258C191.666 10.875 191.964 10.6757 192.079 10.7179C192.728 10.9552 193.372 11.2242 193.976 11.5556Z" fill="white"/>
<path fill-rule="evenodd" clip-rule="evenodd" d="M157.202 126.903C157.686 126.976 158.164 127.056 158.639 127.135H158.639C159.191 127.227 159.739 127.319 160.288 127.398C161.303 127.547 162.315 127.686 163.307 127.712C164.307 127.73 165.338 127.702 166.352 127.653C167.373 127.595 168.389 127.525 169.434 127.344C169.002 127.665 168.504 127.879 168.005 128.072C167.501 128.255 166.983 128.395 166.46 128.499C165.936 128.605 165.406 128.677 164.875 128.715C164.609 128.738 164.343 128.749 164.078 128.755L163.678 128.76L163.27 128.747C162.724 128.725 162.188 128.654 161.663 128.552C161.136 128.455 160.621 128.318 160.113 128.164C159.102 127.841 158.116 127.447 157.202 126.903ZM174.104 126.257C174.163 126.026 174.199 125.788 174.215 125.55C174.225 125.219 174.195 124.888 174.119 124.571C174.036 124.256 173.927 123.95 173.775 123.672C173.482 123.109 173.076 122.639 172.64 122.225C171.753 121.406 170.715 120.831 169.652 120.371C168.586 119.91 167.476 119.583 166.353 119.339C165.23 119.094 164.092 118.936 162.948 118.856C161.804 118.776 160.654 118.777 159.508 118.876C158.363 118.977 157.219 119.16 156.104 119.484C154.993 119.811 153.891 120.248 152.909 120.948C152.424 121.302 151.961 121.716 151.599 122.236C151.413 122.492 151.266 122.781 151.143 123.082C151.027 123.388 150.956 123.712 150.924 124.041C150.914 124.191 150.913 124.342 150.92 124.492L150.889 124.493C150.845 125.171 150.908 125.84 151.023 126.508C151.147 127.173 151.328 127.834 151.592 128.467C151.848 129.103 152.178 129.715 152.577 130.285C152.971 130.857 153.439 131.384 153.965 131.847C155.013 132.777 156.272 133.466 157.594 133.881C158.899 134.3 160.237 134.55 161.601 134.672C162.965 134.781 164.348 134.716 165.705 134.464C167.061 134.211 168.387 133.741 169.603 133.048C170.812 132.352 171.907 131.406 172.709 130.234C172.858 130.02 172.997 129.797 173.124 129.568L173.594 129.587C173.649 129.59 173.704 129.592 173.759 129.594C173.954 129.601 174.149 129.608 174.347 129.633L175.103 129.71L175.481 129.747L175.86 129.801C176.045 129.829 176.231 129.854 176.416 129.88C176.736 129.923 177.055 129.967 177.374 130.024L178.887 130.289C180.903 130.669 182.909 131.131 184.908 131.62C188.909 132.591 192.882 133.705 196.832 134.888L197.572 135.112C197.811 135.184 198.047 135.261 198.281 135.344C198.514 135.426 198.746 135.514 198.974 135.607L199.695 135.895L201.154 136.467C201.395 136.566 201.642 136.654 201.89 136.737L202.632 136.993L203.374 137.249L203.745 137.377L204.122 137.489L205.629 137.936C205.96 138.031 206.296 138.112 206.631 138.193C206.807 138.236 206.982 138.278 207.157 138.323C207.615 138.445 208.082 138.535 208.55 138.624C208.6 138.634 208.65 138.643 208.7 138.653C210.768 139.051 212.891 139.271 215.034 139.15C216.104 139.072 217.179 138.927 218.233 138.62C218.321 138.591 218.409 138.562 218.498 138.534C218.671 138.478 218.844 138.422 219.016 138.359L219.402 138.201L219.595 138.122L219.784 138.029C219.828 138.007 219.873 137.985 219.918 137.963C219.999 137.923 220.08 137.883 220.161 137.84L220.53 137.625C220.555 137.611 220.6 137.58 220.644 137.549C220.687 137.52 220.728 137.487 220.768 137.452C220.849 137.385 220.923 137.308 220.989 137.226C221.123 137.062 221.225 136.874 221.291 136.675C221.424 136.278 221.41 135.839 221.261 135.456L221.233 135.384L221.208 135.332L221.16 135.232L221.063 135.034C221.017 134.945 220.965 134.859 220.914 134.772C220.89 134.731 220.866 134.691 220.842 134.65C220.527 134.147 220.12 133.703 219.669 133.337C218.761 132.601 217.717 132.171 216.69 131.844C214.618 131.221 212.527 130.985 210.45 130.799C208.372 130.628 206.298 130.538 204.227 130.477C203.192 130.446 202.157 130.422 201.122 130.405C200.118 130.399 199.127 130.37 198.136 130.342L198.035 130.339L197.265 130.317L196.497 130.273L194.959 130.181C194.627 130.166 194.295 130.134 193.963 130.103C193.784 130.086 193.604 130.069 193.424 130.055C193.239 130.037 193.054 130.021 192.869 130.005C192.543 129.976 192.216 129.948 191.89 129.911C191.557 129.87 191.223 129.832 190.89 129.793C190.202 129.715 189.515 129.636 188.831 129.529L187.305 129.307L185.783 129.052C181.839 128.376 177.911 127.474 174.104 126.257ZM173.616 128.503C175.479 128.557 177.291 128.829 179.094 129.131C181.146 129.487 183.177 129.923 185.199 130.387C189.24 131.333 193.237 132.427 197.216 133.586L197.962 133.806C198.217 133.882 198.474 133.963 198.728 134.051C198.982 134.139 199.235 134.232 199.486 134.333L200.207 134.615L201.635 135.175C201.872 135.272 202.112 135.358 202.354 135.439L203.078 135.69L203.801 135.94L204.163 136.065L204.529 136.174L205.993 136.611C206.309 136.701 206.627 136.778 206.945 136.855C207.12 136.898 207.295 136.941 207.47 136.985C207.906 137.103 208.346 137.188 208.787 137.273C208.844 137.284 208.9 137.295 208.957 137.306C210.943 137.69 212.962 137.897 214.948 137.786C215.936 137.715 216.919 137.582 217.852 137.311C217.937 137.283 218.023 137.255 218.108 137.228C218.253 137.181 218.397 137.135 218.539 137.083L218.87 136.948L219.037 136.88L219.195 136.802C219.233 136.783 219.271 136.764 219.309 136.746C219.377 136.713 219.445 136.68 219.511 136.644L219.812 136.469C219.843 136.452 219.851 136.445 219.86 136.439C219.87 136.432 219.879 136.424 219.888 136.416C219.907 136.401 219.923 136.385 219.938 136.366C219.967 136.329 219.991 136.287 220.008 136.24C220.041 136.147 220.04 136.038 220.003 135.938L219.996 135.919L219.979 135.883L219.943 135.808L219.871 135.656C219.841 135.596 219.807 135.539 219.774 135.481C219.751 135.443 219.729 135.405 219.708 135.366C219.476 134.988 219.178 134.655 218.829 134.366C218.13 133.785 217.233 133.391 216.301 133.087C214.413 132.498 212.373 132.239 210.341 132.042C208.302 131.855 206.246 131.748 204.188 131.668C203.345 131.634 202.504 131.609 201.661 131.584C200.443 131.547 199.222 131.511 197.989 131.446L197.21 131.411L196.432 131.354L194.877 131.234C194.541 131.213 194.207 131.175 193.873 131.138C193.69 131.118 193.508 131.097 193.326 131.08C193.149 131.06 192.972 131.042 192.795 131.023C192.455 130.988 192.115 130.952 191.777 130.908C191.446 130.862 191.116 130.818 190.785 130.775C190.086 130.683 189.387 130.591 188.692 130.47L187.154 130.22L185.623 129.934C183.586 129.531 181.561 129.074 179.555 128.542C177.695 128.048 175.856 127.501 174.037 126.851C173.958 127.413 173.816 127.968 173.616 128.503ZM169.112 130.363C170.161 130.014 171.193 129.558 172.119 128.886C171.989 129.099 171.849 129.304 171.699 129.503C170.962 130.463 170.009 131.261 168.925 131.837C168.387 132.132 167.821 132.379 167.238 132.582C166.652 132.781 166.049 132.929 165.439 133.05C164.216 133.284 162.957 133.327 161.704 133.253C160.454 133.165 159.194 132.946 157.991 132.59C156.801 132.248 155.683 131.702 154.708 130.954C153.264 129.843 152.201 128.24 151.583 126.444C151.822 126.818 152.107 127.152 152.409 127.459C153.281 128.325 154.311 128.958 155.377 129.464C157.525 130.458 159.842 130.959 162.165 131.13C164.49 131.292 166.857 131.078 169.112 130.363ZM173.255 125.488C173.269 125.252 173.259 125.013 173.212 124.776C173.157 124.54 173.086 124.304 172.973 124.078C172.759 123.623 172.431 123.206 172.06 122.828C171.309 122.07 170.363 121.477 169.371 120.998C168.37 120.528 167.309 120.17 166.225 119.907C165.681 119.782 165.132 119.675 164.58 119.594C164.026 119.517 163.47 119.462 162.912 119.423C160.683 119.298 158.419 119.494 156.309 120.161C155.262 120.5 154.248 120.965 153.405 121.617C152.989 121.945 152.611 122.317 152.341 122.741C152.2 122.95 152.1 123.176 152.016 123.402C151.939 123.631 151.899 123.867 151.883 124.103C151.837 125.06 152.407 125.97 153.167 126.671C153.934 127.382 154.888 127.917 155.877 128.351C156.872 128.784 157.924 129.096 158.993 129.332C160.063 129.566 161.155 129.708 162.252 129.773C163.348 129.839 164.448 129.829 165.538 129.736C166.627 129.644 167.71 129.473 168.752 129.175C169.79 128.881 170.805 128.474 171.657 127.871C172.5 127.273 173.18 126.443 173.255 125.488Z" fill="white"/>
<path d="M225.06 64.8108C224.245 65.3264 223.496 65.8034 222.813 66.2418C222.131 66.6802 221.461 67.1784 220.803 67.7363C220.213 68.2556 219.686 68.8488 219.225 69.5159C218.764 70.183 218.373 71.01 218.052 71.997C218.212 73.5082 217.777 74.6057 216.746 75.2897C215.769 75.9878 214.705 76.2676 213.557 76.1292C212.408 75.9908 211.432 75.4186 210.628 74.4127C209.825 73.4068 209.677 71.9554 210.185 70.0585C210.637 68.3724 211.217 66.9465 211.925 65.7807C212.685 64.6291 213.522 63.6111 214.437 62.7267C215.352 61.8423 216.365 61.0125 217.476 60.2372C218.64 59.4761 219.852 58.643 221.111 57.738C222.384 56.7802 223.418 55.8714 224.213 55.0114C225.008 54.1515 225.625 52.9048 226.062 51.2714C226.401 50.0068 226.425 48.9685 226.135 48.1564C225.858 47.2917 225.219 46.7252 224.218 46.457C222.427 45.9769 220.826 45.9434 219.416 46.3563C218.007 46.7693 216.729 47.2175 215.583 47.7011C214.437 48.1846 213.393 48.4978 212.451 48.6408C211.509 48.7837 210.617 48.3188 209.775 47.2461C209.217 46.5883 208.927 45.7763 208.903 44.8099C208.894 43.7909 209.378 42.9324 210.356 42.2343C211.281 41.5221 212.383 40.8856 213.663 40.3249C214.995 39.7784 216.378 39.3584 217.812 39.0649C219.246 38.7715 220.671 38.6168 222.088 38.6009C223.57 38.5465 224.944 38.6887 226.209 39.0275C228 39.5076 229.489 40.2736 230.676 41.3257C231.876 42.325 232.776 43.498 233.375 44.8445C233.989 46.1383 234.323 47.5267 234.377 49.0096C234.484 50.5067 234.347 51.9665 233.966 53.3892C233.486 55.1806 232.911 56.6927 232.242 57.9252C231.587 59.1051 230.862 60.125 230.067 60.9849C229.339 61.8063 228.526 62.5204 227.629 63.1272C226.799 63.6955 225.943 64.2567 225.06 64.8108ZM207.591 83.849C207.867 82.3981 208.341 81.3674 209.013 80.7568C209.752 80.1076 210.808 79.8541 212.182 79.9963C213.819 80.2091 214.906 80.8956 215.442 82.0558C216.031 83.2302 216.208 84.4637 215.975 85.7566C215.741 87.0494 215.134 88.1573 214.153 89.0802C213.238 89.9646 212.122 90.2303 210.805 89.8774C209.751 89.595 208.863 88.9052 208.14 87.8081C207.47 86.725 207.287 85.4053 207.591 83.849Z" fill="#F7F40F"/>
</g>
<defs>
<filter id="filter0_d" x="17.793" y="12.2278" width="247.996" height="163.019" filterUnits="userSpaceOnUse" color-interpolation-filters="sRGB">
<feFlood flood-opacity="0" result="BackgroundImageFix"/>
<feColorMatrix in="SourceAlpha" type="matrix" values="0 0 0 0 0 0 0 0 0 0 0 0 0 0 0 0 0 0 127 0"/>
<feOffset dy="32"/>
<feGaussianBlur stdDeviation="15"/>
<feColorMatrix type="matrix" values="0 0 0 0 0.0588235 0 0 0 0 0.254902 0 0 0 0 0.470588 0 0 0 0.3 0"/>
<feBlend mode="normal" in2="BackgroundImageFix" result="effect1_dropShadow"/>
<feBlend mode="normal" in="SourceGraphic" in2="effect1_dropShadow" result="shape"/>
</filter>
<clipPath id="clip0">
<rect width="348" height="167" fill="white"/>
</clipPath>
</defs>
</svg>
