<svg width="75" height="130" viewBox="0 0 75 130" fill="none" xmlns="http://www.w3.org/2000/svg">
<path fill-rule="evenodd" clip-rule="evenodd" d="M74.3421 95.2941C73.8891 99.1681 73.5971 103.335 71.9731 106.932C69.0291 113.455 61.0871 114.728 56.8811 108.638C54.3041 104.905 53.5561 100.006 52.8751 95.6411C51.9731 89.8611 51.6741 83.9931 52.0091 78.1521C52.3181 72.7911 53.0451 67.6271 55.0401 62.6161C56.8201 58.1431 59.0891 53.6221 59.1491 48.7221C58.9661 48.7131 58.7821 48.7141 58.5991 48.7001C58.1971 49.4681 56.9071 49.6321 56.7531 48.5951C55.5181 40.2771 54.8431 31.8901 53.8821 23.5391C53.3661 19.0501 51.2011 8.95214 56.3701 6.25114C56.5011 6.18314 56.6501 6.13214 56.7891 6.07114C56.4771 4.96214 56.6351 3.36214 56.8531 2.35814C57.1211 1.12814 57.9311 0.182141 59.2281 0.0321407C62.6071 -0.360859 64.7091 2.92214 64.3741 5.94214C64.5851 6.02614 64.8011 6.10414 64.9951 6.20514C67.6681 7.59014 67.7741 10.2671 67.7731 12.9581C67.7661 24.7841 67.5761 36.9301 66.4521 48.7031C66.4101 49.1391 65.8531 49.1471 65.7591 48.7551C65.7421 48.7571 65.7311 48.7661 65.7131 48.7671C65.5531 48.7761 65.3912 48.7661 65.2311 48.7711C69.8761 58.7381 74.0941 68.9151 74.8071 79.9781C75.1371 85.0911 74.9371 90.2091 74.3421 95.2941ZM62.0771 77.0781C61.6261 73.3751 60.9341 69.7481 60.5951 66.0611C59.8931 70.7291 59.0961 75.3981 58.7691 80.1601C58.4021 85.5171 58.4851 90.9821 59.5991 96.2531C60.0911 98.5851 60.7311 100.899 61.6641 103.095C61.8341 103.494 62.3441 104.609 62.9321 105.755C62.8881 96.1901 63.2411 86.6371 62.0771 77.0781ZM57.1921 62.1401C54.8661 68.1761 54.1201 74.3571 54.0091 80.8081C53.9281 85.5341 54.6401 111.036 63.7601 110.62C63.7411 110.604 63.7241 110.593 63.7051 110.576C56.5351 104.104 56.0031 90.8011 56.5031 82.0231C56.8341 76.2112 57.9001 70.5361 58.9831 64.8271C59.9971 59.4811 60.3291 54.1491 60.8461 48.7531C60.5301 48.7531 60.2141 48.7571 59.8971 48.7511C60.1981 53.6111 58.9581 57.5571 57.1921 62.1401ZM62.2151 3.20214C61.6691 2.45114 60.3221 1.54614 59.3231 1.96714C58.3221 2.39014 58.6521 4.18614 58.6561 5.49714C60.1151 5.21714 61.7161 5.23214 63.1441 5.55714C62.9601 4.72314 62.7161 3.89014 62.2151 3.20214ZM65.6241 47.1201C65.0201 38.5821 65.7122 29.8361 65.8711 21.3011C65.9131 19.0661 65.9361 16.8311 65.9421 14.5961C65.9471 13.0171 66.2682 10.8701 65.5641 9.40614C63.8411 5.82014 56.8531 6.76814 55.7301 10.2371C54.0812 15.3321 55.7491 21.9241 56.3311 27.1031C57.1001 33.9451 57.6631 40.8041 58.6621 47.6191C60.7321 46.8171 63.5541 46.9871 65.6241 47.1201ZM63.1831 48.7791C63.2201 48.8651 63.2541 48.9531 63.2901 49.0391C63.2771 48.9521 63.2521 48.8671 63.2401 48.7801C63.2211 48.7801 63.2021 48.7801 63.1831 48.7791ZM62.0821 52.1111C62.1421 55.7661 61.9851 59.4171 62.1751 63.0771C62.4431 68.2421 63.6661 73.2571 64.3201 78.3731C65.0441 84.0361 65.2711 89.7211 65.3271 95.4241C65.3671 99.5971 66.3901 104.762 64.8991 108.811C64.9611 108.852 65.0191 108.877 65.0691 108.878C66.5091 108.9 67.5941 100.828 67.8781 98.9671C68.1841 96.9631 68.4341 94.9521 68.5851 92.9311C69.0221 87.0911 68.6761 81.2191 67.8141 75.4321C66.6231 67.4371 64.1121 59.8681 62.0821 52.1111ZM72.4671 79.9781C72.0651 73.7061 70.7131 68.3561 68.4581 62.5651C67.9131 61.1661 67.2611 59.7551 66.6031 58.3311C68.7621 65.6771 70.0991 73.4131 70.7641 80.7881C71.2791 86.4931 71.1481 92.1911 70.3691 97.8631C70.1412 99.5211 69.3811 105.576 67.7561 108.97C71.3181 105.973 71.5241 99.3661 71.9981 95.2941C72.5901 90.2071 72.7942 85.0921 72.4671 79.9781ZM37.1721 126.214C28.3281 130.911 17.3981 129.605 10.0441 122.928C2.18115 115.787 -2.72785 103.695 1.63215 93.4301C5.53415 84.2401 15.4271 75.8021 25.8301 75.5651C24.9491 69.9851 25.1451 63.9191 25.1591 58.2791C23.9711 58.3261 23.2091 56.8861 23.2261 55.7541C23.2311 55.4161 23.4521 55.1621 23.7631 55.0521C23.7851 55.0441 23.8101 55.0411 23.8331 55.0331C22.5971 47.8391 22.3731 40.2431 21.7781 32.9681C21.4571 29.0411 21.1791 25.1031 21.1371 21.1611C21.0981 17.5341 21.6111 13.9441 21.6331 10.3191C21.6351 9.96214 21.7891 9.71214 22.0051 9.55014C21.9031 9.26214 21.9501 8.93314 22.2551 8.67014C22.9371 8.08214 23.7701 7.79914 24.6451 7.68614C23.8731 6.43714 23.3981 4.92614 23.3131 3.57414C23.1981 1.74114 24.4371 -0.0288593 26.4611 0.247141C28.3361 0.502141 29.3121 2.52514 29.9061 4.09214C30.2591 5.02414 31.0681 6.99914 30.9591 8.33114C31.3421 8.46414 31.6921 8.63314 31.9801 8.85114C32.3871 8.94114 32.7521 9.25414 32.8131 9.81414C33.6331 17.4361 33.1411 25.2931 33.2471 32.9531C33.3551 40.6901 34.0391 48.7811 33.0181 56.4661C33.0081 56.5411 32.9761 56.6071 32.9361 56.6681C33.2151 57.3551 33.2071 58.1321 32.7441 58.7651C32.3461 59.3081 31.6801 59.6261 31.0051 59.6801C31.1771 61.2941 30.8871 63.1091 30.8351 64.4921C30.6881 68.4491 31.5781 72.3641 31.5621 76.2981C41.3922 78.3331 48.4991 87.3901 49.3631 97.4011C50.2811 108.036 47.4111 120.777 37.1721 126.214ZM28.4191 6.08514C28.0841 4.97514 27.6341 3.37714 26.6841 2.61314C25.4181 1.59414 25.2721 3.49814 25.4131 4.36914C25.5891 5.44814 25.8551 6.58714 26.2511 7.64114C26.6381 7.66114 27.0231 7.69514 27.3931 7.74014C27.7951 7.78814 28.2751 7.83214 28.7771 7.89114C28.6431 7.25514 28.5691 6.58014 28.4191 6.08514ZM31.1411 33.6241C31.0451 29.6051 30.9571 25.5851 30.9141 21.5651C30.8721 17.7121 30.3991 13.7151 30.7201 9.88114C29.9081 9.84714 29.0461 9.61914 28.3401 9.55414C26.7121 9.40314 25.1051 9.35214 23.6091 10.0431C23.6351 10.1311 23.6691 10.2141 23.6721 10.3191C23.7921 14.1591 23.1221 17.9711 23.1831 21.8211C23.2411 25.5431 23.4801 29.2581 23.7701 32.9681C24.3242 40.0701 25.5771 47.7401 24.5241 54.8441C26.0451 54.4481 27.7021 54.3841 29.2371 54.5291C30.1921 54.6191 31.1581 54.8221 31.9171 55.3771C31.0791 48.2221 31.3141 40.8041 31.1411 33.6241ZM31.3291 57.6421C31.5541 57.1501 30.6911 56.6251 30.3631 56.4831C29.4431 56.0871 28.2361 56.1181 27.2521 56.1061C26.3671 56.0951 25.4951 56.1771 24.6341 56.3651C24.6591 56.7851 24.8721 57.0681 25.1611 57.3241C25.1611 57.2901 25.1621 57.2561 25.1621 57.2231C25.1581 55.8931 27.2311 55.8951 27.2341 57.2231C27.2481 63.1531 27.9091 69.6261 27.0551 75.5601C27.1071 75.5621 27.1591 75.5571 27.2111 75.5601C27.5561 75.5761 27.8111 75.7081 27.9851 75.8951C28.8801 75.9211 29.7601 75.9951 30.6191 76.1311C29.6631 73.0131 29.2711 69.4561 29.1441 66.2661C29.0821 64.7191 29.2181 63.1691 29.1771 61.6211C29.1401 60.2281 28.7391 58.8541 28.8451 57.4751C28.8861 56.9501 29.5361 56.5891 29.9451 57.0211C30.2051 57.2961 30.3931 57.6161 30.5511 57.9551C30.9081 57.9111 31.2391 57.8411 31.3291 57.6421ZM47.0021 94.3461C45.5181 85.2641 36.9761 78.5821 28.1221 77.1091C27.9641 77.4221 27.6681 77.6761 27.2111 77.7211C16.2911 78.7831 5.21215 86.3851 2.63115 97.5491C0.352146 107.404 6.45315 118.408 14.5241 123.811C21.5561 128.52 32.4171 127.843 38.9561 122.548C47.1131 115.943 48.5921 104.08 47.0021 94.3461ZM41.7441 105.011C41.7941 104.864 41.8541 104.722 41.9241 104.583C42.2061 104.032 43.1081 104.032 43.3901 104.583C43.4611 104.722 43.5201 104.864 43.5691 105.011C43.7671 105.598 43.2451 106.204 42.6571 106.204C42.0691 106.204 41.5461 105.599 41.7441 105.011ZM42.1331 97.8421C41.3791 97.6121 41.0581 96.8951 41.3851 96.1881C41.5431 95.8471 42.0651 95.6501 42.4101 95.7721C42.4501 95.7871 42.4881 95.8101 42.5291 95.8261C42.5481 95.8301 42.5511 95.8311 42.5391 95.8311C42.5841 95.8491 42.6281 95.8671 42.6691 95.8901C43.1521 96.0421 43.5021 96.4181 43.4251 96.9851C43.3441 97.5781 42.7321 98.0241 42.1331 97.8421ZM42.1171 113.205C42.1171 113.995 41.2981 114.353 40.6441 114.047C40.6111 114.032 40.5771 114.016 40.5441 114.001C39.9391 113.718 39.9391 112.693 40.5441 112.41C40.5771 112.395 40.6111 112.379 40.6441 112.364C41.2981 112.058 42.1171 112.416 42.1171 113.205ZM39.6181 90.6711C38.4301 90.6711 38.4321 88.8351 39.6181 88.8351C40.8071 88.8351 40.8051 90.6711 39.6181 90.6711ZM35.0601 103.54C34.3611 103.54 34.0201 102.858 34.2181 102.29C34.2371 102.157 34.2861 102.027 34.3661 101.92C34.5641 101.655 34.8561 101.602 35.1631 101.649C35.3641 101.68 35.5891 101.803 35.7181 101.959C35.9841 102.281 36.0891 102.698 35.8631 103.082C35.7021 103.357 35.3811 103.54 35.0601 103.54ZM34.5541 86.0751C33.4391 86.0751 33.4411 84.3531 34.5541 84.3531C35.6691 84.3531 35.6671 86.0751 34.5541 86.0751ZM31.6421 110.243C30.5801 110.243 30.5821 108.602 31.6421 108.602C32.7041 108.602 32.7021 110.243 31.6421 110.243ZM31.9051 96.4511C31.6531 96.6251 31.2831 96.5971 31.0271 96.4511C31.0101 96.4411 30.9921 96.4321 30.9751 96.4211C30.6491 96.2361 30.5701 95.8911 30.6181 95.5481C30.6211 95.5231 30.6251 95.4991 30.6281 95.4741C30.6691 95.1751 30.9731 94.9561 31.2351 94.8691C31.5611 94.7601 31.8051 94.8371 32.1101 94.9711C32.3881 95.0931 32.4811 95.4681 32.4221 95.7331C32.3451 96.0711 32.1911 96.2551 31.9051 96.4511ZM27.2111 121.762C26.6711 121.762 26.2151 121.308 26.2151 120.771C26.2151 120.235 26.6731 119.78 27.2111 119.78C27.7501 119.78 28.2061 120.233 28.2061 120.771C28.2061 121.306 27.7481 121.762 27.2111 121.762ZM27.2111 84.8471C26.0541 84.8471 26.0561 83.0601 27.2111 83.0601C28.3671 83.0601 28.3651 84.8471 27.2111 84.8471ZM24.4081 95.3201C23.6541 95.0901 23.3331 94.3731 23.6601 93.6661C23.8171 93.3251 24.3401 93.1291 24.6851 93.2511C24.7251 93.2651 24.7631 93.2881 24.8041 93.3051C24.8221 93.3081 24.8261 93.3101 24.8141 93.3091C24.8591 93.3271 24.9031 93.3451 24.9441 93.3681C25.4271 93.5201 25.7771 93.8971 25.7001 94.4631C25.6191 95.0561 25.0071 95.5021 24.4081 95.3201ZM24.1721 109.941C25.2971 109.941 25.2951 111.679 24.1721 111.679C23.0471 111.679 23.0491 109.941 24.1721 109.941ZM19.4871 120.834C18.8841 120.834 18.4371 120.343 18.4111 119.762C18.3841 119.183 18.9241 118.69 19.4871 118.69C20.0911 118.69 20.5381 119.181 20.5641 119.762C20.5901 120.341 20.0511 120.834 19.4871 120.834ZM19.6231 86.3581C19.4021 86.6411 18.8151 86.6432 18.5921 86.3581C18.5741 86.3341 18.5551 86.3111 18.5361 86.2871C18.3121 86.0001 18.2111 85.6531 18.4101 85.3121C18.5511 85.0741 18.8301 84.9141 19.1081 84.9141C19.4311 84.9141 19.7221 85.1171 19.8461 85.4091C19.9821 85.7311 19.8841 86.0251 19.6791 86.2871C19.6601 86.3111 19.6421 86.3341 19.6231 86.3581ZM17.9681 97.7241C16.7901 97.7241 16.7921 95.9041 17.9681 95.9041C19.1461 95.9041 19.1441 97.7241 17.9681 97.7241ZM17.5881 106.636C16.4631 106.636 16.4651 104.897 17.5881 104.897C18.7131 104.897 18.7121 106.636 17.5881 106.636ZM26.4511 101.363C26.9951 101.363 27.4541 101.82 27.4541 102.362C27.4541 102.902 26.9931 103.361 26.4511 103.361C25.9071 103.361 25.4481 102.904 25.4481 102.362C25.4481 101.822 25.9091 101.363 26.4511 101.363ZM34.8071 118.123C34.8491 118.126 34.8921 118.129 34.9341 118.132C35.4771 118.172 35.9371 118.558 35.9371 119.132C35.9371 119.7 35.4741 120.091 34.9341 120.131C34.8921 120.134 34.8491 120.137 34.8071 120.14C34.2591 120.18 33.7951 119.646 33.7951 119.132C33.7951 118.615 34.2611 118.083 34.8071 118.123ZM13.1571 116.592C12.6171 116.592 12.1621 116.139 12.1621 115.601C12.1621 115.066 12.6191 114.61 13.1571 114.61C13.6971 114.61 14.1521 115.064 14.1521 115.601C14.1521 116.137 13.6951 116.592 13.1571 116.592ZM12.2921 89.4291C12.0331 89.0081 12.2821 88.4391 12.7491 88.3111C13.1481 88.2021 13.5791 88.4461 13.6891 88.8431C13.9221 89.6881 12.7401 90.1561 12.2921 89.4291ZM9.68615 109.808C9.67615 109.821 9.66815 109.835 9.65815 109.847C9.66315 109.839 9.66815 109.83 9.67315 109.821C9.65215 109.841 9.63815 109.866 9.61515 109.884C9.42715 110.076 9.16015 110.169 8.86515 110.064C8.54815 109.952 8.21415 109.643 8.25615 109.268C8.28015 109.063 8.30215 108.895 8.42315 108.721C8.73615 108.271 9.36715 108.139 9.77715 108.547C10.1681 108.937 10.0481 109.47 9.68615 109.808ZM9.64615 109.868C9.63515 109.875 9.62915 109.877 9.60315 109.896C9.60815 109.893 9.61015 109.887 9.61515 109.884C9.62815 109.87 9.64515 109.862 9.65815 109.847C9.65415 109.854 9.65015 109.861 9.64615 109.868ZM9.62915 109.897C9.63515 109.887 9.64015 109.877 9.64615 109.868C9.67115 109.853 9.67315 109.855 9.62915 109.897ZM8.17215 95.7261C8.15015 95.7061 8.12815 95.6861 8.10615 95.6661C7.83815 95.4151 7.83815 94.9351 8.10615 94.6851C8.12815 94.6641 8.15015 94.6441 8.17215 94.6241C8.66215 94.1671 9.50915 94.4851 9.50915 95.1751C9.50915 95.8671 8.66215 96.1841 8.17215 95.7261ZM7.96615 102.809C7.88215 102.814 7.79715 102.819 7.71315 102.825C6.78715 102.884 6.78915 101.336 7.71315 101.395C7.79715 101.4 7.88215 101.406 7.96615 101.411C8.87015 101.469 8.86815 102.751 7.96615 102.809Z" fill="#548DD1"/>
</svg>
