<svg xmlns="http://www.w3.org/2000/svg" width="514" height="153" viewBox="0 0 514 153"><g><g><path fill="#fff" d="M1.135 150.646h-.057l-.085-.028-.057-.029-.085-.028-.113-.057-.057-.028-.057-.028-.056-.057-.057-.028-.057-.057-.057-.028-.028-.056-.057-.057-.028-.057-.057-.056-.028-.057-.029-.056-.028-.057-.028-.057-.029-.084-.028-.057v-.057l-.028-.085v-.056L0 149.4v-.283l.029-.057v-.085l.028-.056v-.085l.085-.17.028-.085.057-.056.029-.057.028-.056.057-.057.028-.028.057-.057.056-.057.057-.028.057-.057.057-.028.057-.056.056-.028.114-.057.056-.028h.085l.114-.057h.227l.057-.029.085.029h.142l1.617.254 1.617.227 1.588.198.766.085.057.028h.085l.057.029.057.028.085.028h.057l.056.057.114.056.057.029.056.056.057.028.114.114.028.056.057.029.028.056.057.057.028.056.028.085.029.057.028.056.029.057v.085l.028.057v.056l.028.085v.34l-.028.084v.057l-.028.085v.056l-.029.085-.028.057-.029.057-.056.056-.029.057-.028.056-.057.057-.028.057-.057.056-.057.029-.028.056-.057.057-.056.028-.057.028-.057.029-.057.056-.085.028-.056.029H7.49l-.057.028-.085.029h-.057l-.085.028h-.34l-.738-.114-1.645-.197-1.646-.227-1.617-.255zm14.1 1.67l-.057-.029h-.085l-.057-.028-.057-.028-.085-.029-.113-.056-.057-.057-.057-.028-.056-.028-.057-.057-.029-.056-.056-.029-.057-.056-.028-.057-.057-.057-.029-.056-.028-.057-.057-.113-.028-.085-.028-.057-.029-.056v-.085l-.028-.057v-.509l.028-.057.029-.085v-.056l.028-.057.028-.085.029-.056.056-.057.029-.056.028-.057.057-.057.028-.056.057-.028.057-.057.028-.057.057-.028.057-.056.113-.057.085-.028.057-.029.057-.028.056-.028.085-.029h.057l.057-.028h.369l.425.028 1.589.114 1.56.113 1.59.085.453.028h.057l.085.028h.057l.085.029h.056l.086.028.056.028.057.028.057.029.056.028.057.057.057.028.057.057.056.028.057.056.029.057.056.028.029.057.056.056.029.057.028.057.028.085.029.056.028.057.029.056.028.085v.057l.028.085v.424l-.028.057v.085l-.028.056-.029.057-.028.085-.029.057-.028.056-.028.057-.057.056-.028.057-.029.056-.056.057-.057.057-.029.028-.056.057-.057.028-.057.056-.113.057-.057.028-.085.029-.114.056-.085.028h-.113l-.085.029h-.227l-.454-.029-1.589-.084-1.589-.114-1.617-.113-.454-.056zm14.213.65l-.085-.028-.057-.028h-.085l-.057-.028-.057-.029-.056-.028-.057-.028-.085-.029-.057-.056-.057-.029-.028-.056-.057-.028-.057-.057-.056-.057-.029-.056-.056-.028-.029-.057-.028-.057-.029-.085-.028-.056-.028-.057-.029-.056-.028-.085-.028-.057v-.056l-.029-.085v-.368l.029-.057v-.085l.028-.057v-.056l.028-.085.029-.056.028-.057.028-.057.057-.056.029-.057.028-.056.057-.057.028-.057.057-.056.057-.029.056-.056.057-.028.057-.057.057-.028.056-.029.057-.028.057-.028.056-.028.086-.029h.056l.085-.028h.057l.085-.028h.596l1.532.028 1.532-.028h1.532l.567-.029h.142l.085.029h.057l.085.028h.057l.057.028.085.029.056.028.114.056.057.029.056.056.057.029.057.056.057.028.028.057.113.113.057.113.057.057.028.057.029.056.028.057v.085l.028.056.029.057v.085l.028.056v.368l-.028.057v.085l-.029.056-.028.085-.028.057-.029.057-.028.056-.029.057-.028.056-.028.057-.057.056-.028.057-.057.057-.057.056-.057.029-.028.056-.057.028-.056.057-.057.028-.085.029-.057.028-.057.028-.056.028h-.086l-.056.029h-.085l-.057.028h-.142l-.567.028h-1.56l-1.561.029-1.56-.029zm14.27-.367l-.085-.029h-.057l-.057-.028h-.085l-.114-.057-.085-.028-.113-.056-.057-.029-.057-.056-.056-.029-.057-.056-.029-.057-.056-.028-.057-.057-.028-.056-.057-.057-.028-.056-.029-.057-.028-.057-.029-.056-.028-.085-.028-.057-.029-.056v-.085l-.028-.057v-.424l.028-.085v-.057l.029-.085.028-.056v-.057l.028-.057.057-.085.029-.056.028-.057.028-.056.057-.057.028-.028.057-.057.057-.056.057-.029.028-.056.057-.029.057-.056.085-.028.056-.029.057-.028.057-.028.085-.029h.057l.056-.028.085-.028h.256l1.503-.113 1.476-.114 1.503-.113 1.022-.085.056-.028h.142l.085.028h.057l.085.029h.057l.057.028.085.028.056.029.057.028.057.028.056.028.057.029.057.056.057.029.057.056.056.029.029.056.056.057.029.056.056.057.029.056.028.057.029.057.028.056.028.085.029.057.028.085v.056l.028.085v.34l-.028.085v.056l-.028.057v.085l-.029.056-.028.057-.028.085-.029.057-.028.056-.057.057-.028.056-.057.057-.028.028-.057.057-.057.056-.028.029-.057.056-.057.029-.057.028-.085.056-.056.029-.057.028-.057.028h-.085l-.057.029h-.085l-.057.028h-.085l-.992.085-1.532.141-1.504.113-1.532.114zm14.014-1.415l-.085-.029h-.057l-.057-.028-.085-.028-.056-.028-.057-.029-.057-.028-.056-.028-.057-.029-.057-.056-.057-.029-.056-.056-.057-.057-.029-.028-.056-.057-.029-.056-.056-.057-.029-.057-.028-.056-.029-.057-.028-.085-.028-.056-.029-.057v-.085l-.028-.056v-.085l-.028-.057v-.311l.028-.057v-.056l.028-.085.029-.057v-.056l.028-.085.028-.057.029-.056.057-.057.028-.057.028-.056.057-.057.057-.056.028-.029.057-.056.057-.028.056-.057.057-.028.057-.057.17-.085.085-.028.057-.028h.085l.057-.029h.085l.88-.113 1.446-.226 1.447-.199 1.447-.254.34-.057h.426l.057.029h.085l.056.028.057.028h.085l.057.028.057.029.056.056.114.057.057.056.057.029.056.057.029.056.056.028.029.057.056.056.029.057.056.057.029.056.028.085.029.057v.056l.028.085.028.057v.085l.029.056v.283l-.029.085v.142l-.056.113-.029.085-.028.056-.057.114-.028.056-.029.057-.056.056-.029.057-.056.057-.057.028-.057.056-.028.029-.057.056-.057.029-.085.028-.057.057-.056.028-.057.028h-.085l-.057.028-.085.029h-.057l-.34.056-1.447.227-1.475.226-1.475.227-.908.113zm14.412-2.406l-.057.029h-.284l-.056-.029h-.085l-.057-.028h-.085l-.057-.028-.057-.028-.056-.029-.057-.028-.085-.028-.057-.029-.057-.056-.028-.028-.057-.057-.057-.028-.056-.057-.029-.057-.057-.056-.028-.057-.057-.057-.028-.056-.028-.056-.029-.057-.028-.085-.028-.057-.029-.056v-.085l-.028-.085v-.396l.028-.085v-.057l.029-.085.028-.056.028-.057v-.056l.057-.057.028-.085.029-.057.028-.056.057-.028.028-.057.057-.057.057-.056.056-.028.029-.057.057-.028.056-.057.085-.028.057-.029.114-.056.085-.028.056-.029h.086l1.276-.283 1.39-.31 1.39-.312 1.39-.311h.029l.085-.029h.057l.085-.028h.198l.085.028h.142l.057.029.057.028h.085l.057.028.056.028.057.029.057.056.057.029.056.028.057.056.057.029.057.056.028.057.057.057.028.056.057.057.028.056.028.057.029.057.028.056.029.085.028.057.028.084v.057l.029.085v.34l-.029.056v.085l-.028.057v.084l-.028.057-.114.226-.057.057-.028.057-.057.056-.028.057-.057.057-.057.028-.028.056-.057.057-.113.057-.085.028-.057.056-.057.029h-.085l-.057.028-.056.028h-.057l-1.39.34-1.419.311-1.418.312-1.305.282zm13.873-3.395l-.057.028h-.142l-.085.028h-.057l-.057-.028h-.141l-.086-.028h-.056l-.057-.029-.085-.028-.057-.028-.057-.028-.056-.029-.057-.028-.057-.028-.057-.057-.056-.028-.057-.057-.057-.056-.085-.085-.028-.057-.057-.056-.028-.057-.029-.057-.028-.085-.029-.056-.028-.057-.028-.085v-.056l-.029-.085v-.057l-.028-.085v-.198l.028-.085v-.113l.029-.085.028-.056.028-.057v-.085l.029-.056.057-.057.028-.057.028-.056.057-.057.028-.056.057-.057.029-.028.056-.057.057-.056.057-.029.057-.028.056-.057.057-.028.057-.028.085-.029.056-.028.086-.028 1.276-.368 1.362-.396 1.305-.396 1.333-.397.114-.028.057-.028.085-.028h.142l.056-.029h.142l.085.029h.142l.057.028h.056l.057.028.085.028.057.029.057.028.057.028.056.029.057.056.057.029.056.056.057.029.029.056.056.057.057.056.029.057.028.057.057.056.028.057.028.085.029.056.028.057v.085l.028.056v.085l.029.057v.283l-.029.085v.056l-.028.057v.085l-.085.17-.028.056-.029.085-.028.057-.057.056-.028.057-.057.028-.028.057-.057.056-.057.028-.057.057-.056.028-.057.057-.057.028-.056.029-.057.028-.085.028-.057.029-.114.028-1.333.424-2.723.793-1.305.396zm13.617-4.358l-.085.028-.057.029h-.142l-.085.028h-.057l-.085-.028h-.198l-.057-.029-.057-.028h-.085l-.057-.028-.056-.029-.057-.028-.057-.056-.113-.057-.057-.057-.057-.028-.057-.057-.056-.056-.029-.028-.057-.057-.028-.057-.057-.056-.028-.085-.028-.057-.029-.056-.028-.085-.028-.057v-.057l-.029-.084v-.057l-.028-.085v-.283l.028-.056v-.057l.029-.085v-.056l.028-.057.028-.085.029-.057.028-.056.028-.057.057-.056.028-.057.029-.057.057-.056.056-.057.029-.028.057-.057.056-.028.057-.057.057-.028.056-.028.086-.057.056-.028.057-.028.965-.34 1.276-.453 1.248-.48 1.249-.482.539-.198.085-.028.057-.029.085-.028h.113l.085-.028h.199l.085.028h.113l.086.028.056.029h.057l.085.028.057.028.057.057.056.028.057.029.057.056.057.029.056.056.029.028.057.057.056.056.029.057.028.057.057.057.028.056.028.085.029.056.028.057.029.085v.057l.028.085v.48l-.028.057v.085l-.029.057-.028.056-.029.057-.028.056-.028.085-.029.057-.056.056-.029.057-.028.057-.057.028-.057.057-.056.056-.086.085-.056.028-.085.029-.057.056-.057.029-.085.028-.51.198-1.277.481-1.277.51-1.305.452-.964.368zm13.248-5.263l-.085.028h-.056l-.057.028h-.085l-.057.029h-.34l-.086-.029h-.056l-.057-.028-.085-.028-.057-.029h-.057l-.056-.028-.057-.057-.085-.028-.057-.028-.028-.057-.057-.028-.057-.057-.057-.056-.056-.028-.029-.057-.056-.057-.029-.056-.028-.085-.028-.057-.057-.056v-.085l-.029-.057-.028-.056-.028-.085v-.142l-.029-.056v-.142l.029-.056v-.142l.028-.085v-.056l.028-.057.029-.057.028-.084.029-.057.056-.113.057-.057.028-.056.057-.057.028-.057.057-.028.057-.057.057-.028.056-.057.057-.028.057-.057.057-.028.056-.028.256-.113 1.22-.538 1.191-.538 1.163-.537 1.192-.538.113-.056.057-.029.085-.028.113-.057h.086l.057-.028h.425l.057.028h.057l.085.029.056.028.057.028.085.029.114.056.056.029.057.028.057.056.057.057.085.085.056.057.029.056.057.057.028.056.028.057.029.056.028.085.028.057.029.085.028.056v.057l.028.085v.396l-.028.085v.056l-.028.057-.029.085-.028.057-.028.056-.029.057-.028.056-.028.057-.029.056-.057.057-.028.057-.057.057-.056.056-.057.028-.057.057-.057.028-.056.057-.057.028-.057.028-.113.057-1.192.566-1.22.538-1.191.566-1.22.537-.284.113zm12.852-6.197l-.057.028-.057.028-.085.029h-.057l-.085.028h-.113l-.085.028h-.142l-.057-.028h-.142l-.056-.028-.057-.029h-.085l-.057-.028-.113-.057-.057-.056-.057-.029-.057-.028-.056-.057-.057-.028-.057-.056-.057-.057-.028-.056-.057-.057-.028-.057-.057-.057-.028-.056-.029-.085-.028-.056-.028-.057-.029-.085v-.057l-.028-.056v-.481l.028-.085v-.057l.029-.056.028-.085.028-.057v-.056l.057-.057.029-.057.028-.056.028-.057.057-.056.057-.057.028-.056.057-.057.057-.028.056-.057.057-.028.057-.029.057-.056.368-.17 1.107-.594 1.106-.594 1.106-.623 1.107-.594.17-.113.057-.029.057-.028.085-.028.056-.029h.057l.085-.028h.057l.085-.028h.34l.057.028h.057l.085.028.057.029h.057l.056.028.085.028.057.029.057.056.057.028.057.029.056.056.085.085.057.057.057.056.028.057.028.057.057.056.029.085.056.113.029.085.028.057v.085l.029.056v.396l-.029.085v.057l-.028.056v.085l-.085.17-.029.085-.057.057-.028.056-.028.057-.057.028-.028.057-.057.056-.057.057-.056.028-.057.057-.057.028-.057.057-.17.085-1.106.622-1.135.594-1.107.623-1.134.594-.37.198zm12.397-7.075l-.057.029-.056.028-.057.028-.085.029-.057.028h-.085l-.057.028h-.397l-.085-.028h-.057l-.056-.028h-.085l-.114-.057-.057-.028-.056-.029-.086-.056-.056-.029-.057-.028-.028-.057-.057-.056-.057-.028-.057-.057-.028-.057-.057-.056-.028-.057-.028-.085-.057-.056-.029-.057-.028-.085v-.056l-.028-.057-.029-.085v-.113l-.028-.085v-.142l.028-.056v-.142l.029-.056v-.085l.028-.057.028-.056.029-.057.028-.056.029-.085.056-.113.057-.057.028-.057.057-.028.114-.113.056-.028.057-.057.057-.028.993-.651 1.021-.623 1.021-.65.993-.651.71-.481.056-.029.085-.028.057-.028.057-.029.057-.028.085-.028.056-.029h.142l.057-.028h.284l.056.028h.086l.056.029h.057l.085.028.114.057.056.028.057.028.057.057.057.028.056.028.057.057.114.113.028.057.057.056.028.057.057.057.028.056.028.057.029.085.028.056.029.057v.085l.028.056v.142l.028.056v.142l-.028.085v.113l-.028.085-.029.057v.056l-.028.057-.029.085-.028.056-.057.057-.028.056-.028.057-.057.057-.028.056-.057.057-.057.028-.057.057-.056.028-.057.057-.71.452-1.02.68-1.022.65-1.021.651-1.022.65zm11.859-7.951l-.057.028-.057.028-.085.028-.113.057-.086.028-.056.029h-.142l-.057.028h-.198l-.086-.028h-.141l-.057-.029-.057-.028h-.057l-.085-.028-.056-.029-.057-.028-.057-.028-.057-.057-.056-.028-.057-.057-.057-.028-.057-.056-.056-.057-.029-.057-.056-.056-.057-.113-.057-.057-.028-.085-.029-.057-.028-.056v-.085l-.028-.057v-.056l-.029-.085v-.396l.029-.085v-.057l.028-.056.028-.057.029-.085.028-.056.029-.057.028-.056.028-.057.057-.057.028-.056.057-.057.057-.057.057-.056.056-.029.057-.056.057-.056.936-.652.908-.707.908-.679.879-.679.794-.594.057-.057.057-.028.057-.057.085-.028.113-.057h.057l.085-.028.057-.028h.142l.056-.029h.199l.085.029h.057l.085.028h.057l.056.028.057.029.085.028.057.028.057.028.113.057.057.057.057.028.056.057.057.056.029.057.056.056.057.057.028.057.029.056.028.057.028.085.029.056.028.057.029.085v.056l.028.057v.481l-.028.056v.085l-.029.057-.028.057-.029.084-.028.057-.028.057-.029.056-.056.057-.029.056-.056.057-.029.057-.057.056-.056.028-.057.057-.794.594-.908.708-.908.679-.936.707-.936.68-.086.056zm11.206-8.857l-.057.028-.057.028-.057.057-.085.028-.056.028-.057.029-.057.028h-.085l-.057.028h-.085l-.057.029h-.34l-.057-.029h-.085l-.057-.028-.056-.028h-.085l-.057-.029-.057-.028-.057-.028-.056-.057-.057-.028-.057-.057-.057-.028-.113-.113-.057-.028-.028-.057-.057-.085-.028-.056-.029-.057-.056-.057-.029-.056-.028-.085v-.057l-.029-.056-.028-.085v-.113l-.028-.085v-.199l.028-.056v-.085l.028-.056v-.057l.029-.085.028-.057.029-.056.056-.113.029-.085.028-.057.057-.057.028-.056.057-.028.113-.113.34-.312.795-.679.794-.707.795-.708.766-.707.71-.623.027-.056.057-.057.085-.028.057-.029.057-.056.057-.029.056-.028.057-.028h.085l.057-.028h.085l.057-.029h.482l.057.029.056.028h.086l.056.028.057.028.057.029.056.028.086.057.056.028.057.057.057.028.028.056.057.057.057.057.028.056.057.057.028.056.028.057.057.057.029.056v.085l.028.057.028.057v.084l.029.057v.396l-.029.085v.057l-.028.084v.057l-.028.057-.029.056-.028.085-.029.057-.056.056-.029.057-.056.056-.029.057-.056.057-.057.028-.681.65-.794.708-.795.708-.794.735-.823.708-.369.311zm10.383-9.82l-.057.029-.057.056-.056.029-.057.056-.057.029-.056.028-.057.028-.057.028-.085.029h-.057l-.057.028h-.085l-.056.028h-.34l-.058-.028h-.085l-.056-.028h-.057l-.085-.029-.057-.028-.057-.028-.057-.028-.085-.057-.056-.028-.057-.029-.114-.113-.028-.056-.057-.029-.056-.056-.029-.057-.028-.085-.057-.056-.028-.057-.029-.057-.028-.056-.028-.085v-.057l-.029-.056v-.085l-.028-.057v-.34l.028-.056v-.085l.057-.113v-.085l.028-.056.029-.057.056-.057.029-.056.028-.085.057-.057.028-.057.057-.028.51-.537.682-.708.652-.707.624-.708.653-.707.624-.707.057-.057.028-.057.057-.056.056-.057.057-.028.057-.057.057-.028.056-.028.057-.028.085-.029.114-.057.056-.028h.085l.057-.028h.483l.056.028.085.028h.057l.057.029.085.028.057.029.056.028.057.056.057.028.057.029.056.056.057.057.057.057.057.056.028.057.057.057.028.056.028.056.029.057.057.113.028.085.028.057v.057l.029.084v.396l-.029.057v.085l-.028.057v.056l-.028.085-.029.057-.028.056-.029.057-.056.085-.029.056-.056.057-.029.057-.056.056-.653.708-.653.735-.652.708-.653.736-.68.707-.54.566zm9.333-10.894l-.056.057-.057.056-.057.028-.056.057-.057.057-.114.056-.056.029-.057.028-.057.028-.057.028-.085.029-.057.028h-.141l-.057.029h-.284l-.057-.029h-.085l-.056-.028h-.057l-.085-.029-.057-.028-.057-.028-.056-.028-.086-.029-.056-.056-.057-.029-.057-.056-.056-.029-.057-.056-.029-.057-.056-.056-.029-.057-.056-.057-.029-.056-.028-.057-.029-.056-.028-.085-.028-.057-.029-.056v-.057l-.028-.085v-.056l-.028-.085v-.198l.028-.057v-.141l.028-.057v-.085l.029-.057.028-.056.028-.085.029-.057.028-.056.057-.057.028-.056.312-.396.483-.68.51-.679.483-.68.453-.678.483-.68.425-.678.057-.085.057-.057.028-.056.17-.17.029-.029.056-.056.057-.029.057-.056.085-.028.057-.029.057-.028.056-.028h.057l.085-.028.057-.029h.142l.056-.028h.199l.085.028h.057l.085.029h.057l.056.028.086.028.056.028.057.029.085.028.057.028.057.057.056.056.057.029.057.056.028.057.057.057.028.028.057.056.028.085.029.057.028.056.029.057.028.057.028.085.029.056v.057l.028.085v.396l-.028.056v.085l-.029.057v.057l-.028.084-.028.057-.029.057-.057.085-.028.056-.057.085-.454.679-.482.708-.482.707-.51.707-.511.708-.511.707-.312.396zm7.66-12.196l-.057.057-.028.056-.028.057-.057.056-.057.057-.028.056-.057.057-.057.028-.056.057-.057.028-.057.029-.056.028-.057.028-.085.028-.057.029-.057.028h-.085l-.057.028h-.142l-.056.029h-.142l-.057-.029h-.142l-.085-.028-.113-.057-.085-.028-.114-.056-.085-.029-.057-.056-.057-.029-.056-.056-.029-.029-.056-.056-.057-.057-.028-.056-.057-.057-.057-.113-.028-.057-.029-.056-.028-.057-.028-.056-.029-.085-.028-.057v-.141l-.029-.057v-.283l.029-.057v-.084l.028-.057.029-.085v-.056l.028-.057.028-.085.284-.538.312-.65.284-.623.255-.623.284-.594.255-.622.227-.595.227-.622.057-.17.028-.085.029-.057.056-.056.029-.057.028-.056.057-.057.028-.056.057-.057.057-.057.028-.028.057-.057.056-.028.057-.056.057-.029.057-.028.056-.028.085-.029.114-.056h.057l.085-.028h.057l.085-.029h.255l.085.029h.057l.085.028h.057l.085.028.056.028.057.029.085.028.057.057.057.028.057.028.113.113.028.029.057.056.029.057.056.056.029.057.056.057.029.056.028.057.028.056.029.085v.057l.028.056v.085l.029.057v.424l-.029.057v.085l-.057.113-.056.198-.256.65-.255.624-.255.65-.284.651-.284.651-.312.68-.312.65-.283.594zm4.34-13.922v.085l-.028.056v.085l-.028.057-.028.056-.029.085-.056.113-.057.057-.029.056-.056.057-.029.057-.056.028-.057.057-.029.056-.056.028-.057.029-.057.056-.113.057-.085.028-.057.028-.057.029h-.085l-.057.028h-.056l-.085.028h-.284l-.085-.028h-.057l-.057-.028h-.085l-.057-.029-.085-.028-.057-.028-.056-.028-.057-.029-.057-.056-.056-.029-.057-.056-.057-.028-.057-.057-.028-.057-.057-.028-.028-.057-.057-.056-.028-.057-.057-.113-.028-.085-.029-.056-.028-.057v-.085l-.028-.056v-.057l-.029-.085v-.283l.029-.255.028-.509.028-.51v-.961l-.028-.481-.028-.453-.029-.481-.056-.453-.057-.424-.085-.453-.057-.255v-.141l-.028-.057v-.085l.028-.057v-.14l.028-.086v-.057l.029-.056.028-.085.028-.057.029-.056.028-.057.029-.056.028-.057.057-.057.028-.056.057-.057.028-.056.057-.029.057-.056.056-.029.057-.056.057-.028.056-.029.114-.056.085-.029.057-.028.085-.028h.057l.085-.028h.34l.085.028h.057l.057.028h.085l.057.028.056.029.057.028.085.028.057.029.057.056.056.028.029.029.057.056.056.057.057.028.028.057.057.056.028.057.029.057.057.056.028.085.028.057.029.056v.085l.028.057.028.085.029.254.113.51.057.538.057.509.056.537.029.538.028.566v1.104l-.028.566-.029.566-.028.339zm-4.68-14.092l.028.056.057.057.028.056.057.057.028.056.029.057.028.085.028.057.029.056v.085l.028.057v.056l.029.085v.34l-.029.056v.057l-.028.085-.029.056v.057l-.028.085-.028.056-.057.057-.028.057-.029.056-.057.057-.028.056-.113.114-.057.028-.057.057-.056.028-.057.057-.114.056-.085.028-.057.029-.056.028h-.057l-.085.028h-.057l-.085.028h-.34l-.057-.028h-.057l-.085-.028-.057-.028h-.057l-.056-.029-.085-.028-.057-.056-.057-.029-.057-.028-.056-.057-.057-.028-.057-.057-.028-.028-.312-.283-.34-.283-.341-.255-.369-.254-.397-.255-.397-.255-.397-.254-.426-.227-.426-.198-.453-.226-.483-.198-.056-.028-.086-.029-.056-.056-.057-.029-.057-.056-.056-.028-.057-.057-.029-.057-.056-.057-.029-.028-.056-.056-.029-.057-.028-.085-.029-.056-.028-.057-.028-.057-.029-.056-.028-.085v-.056l-.028-.057v-.142l-.029-.085v-.056l.029-.057v-.141l.028-.085v-.057l.028-.084.029-.057.028-.057.028-.085.029-.056.057-.057.028-.057.028-.056.057-.057.057-.056.028-.029.057-.056.057-.057.056-.028.114-.057.057-.056.085-.029h.056l.057-.028.057-.028.085-.028h.113l.086-.029h.198l.085.029h.114l.085.028.057.028.085.028.057.029.482.198 1.532.764.482.283.482.311.454.283.426.311.425.34.426.34.397.339.085.085zm-13.788-5.349l.057.029.057.028h.085l.057.028.056.029.057.056.085.029.057.028.056.028.029.057.057.056.056.029.057.056.029.057.056.056.029.057.028.057.057.056.028.057.028.056v.057l.029.085.028.056v.057l.029.085v.424l-.029.085v.057l-.028.056-.029.085-.085.17-.028.085-.028.056-.057.057-.028.028-.057.057-.029.057-.056.056-.057.028-.057.057-.113.057-.057.028-.057.057-.056.028h-.086l-.113.057h-.085l-.057.028h-.369l-.397-.028-.71-.057-.708-.057-.766-.028h-3.121l-.085-.028h-.057l-.085-.029-.057-.028h-.056l-.057-.028-.085-.029-.057-.056-.057-.028-.057-.029-.056-.056-.029-.029-.056-.056-.057-.057-.028-.028-.057-.057-.029-.056-.056-.057-.029-.056-.028-.057-.028-.085-.029-.057-.028-.056-.028-.085v-.057l-.029-.056v-.453l.029-.056v-.085l.028-.057v-.057l.028-.085.029-.056.028-.057.057-.056.028-.057.028-.056.057-.057.029-.057.056-.056.057-.028.028-.057.057-.028.057-.057.057-.028.056-.029.057-.056.085-.029h.057l.057-.028.056-.028.085-.029h.142l.057-.028h3.15l.765.057.795.028.737.057.482.056zm-14.525.651l.057-.028h.085l.057.028h.142l.085.028h.056l.057.029.085.028.057.028.113.057.057.028.057.057.057.028.056.029.057.056.028.057.057.056.057.029.028.056.029.057.056.056.029.085.028.057.028.056.029.057v.085l.028.056.029.085v.481l-.029.085v.057l-.028.056-.029.085-.028.057-.028.057-.029.056-.028.057-.057.056-.028.057-.057.056-.028.057-.057.028-.057.057-.056.057-.029.028-.056.028-.086.057-.056.028-.057.028-.057.029-.085.028-.057.028h-.056l-.085.029-.37.056-.567.114-.539.113-.539.113-.51.141-.54.114-.51.14-.482.143-.511.14-.482.17-.256.086-.056.028h-.085l-.057.028h-.426l-.056-.028h-.086l-.056-.028h-.057l-.085-.029-.057-.028-.057-.028-.056-.029-.057-.056-.057-.029-.057-.028-.056-.056-.057-.057-.057-.028-.028-.057-.057-.056-.028-.057-.057-.057-.028-.056-.029-.057-.028-.085-.029-.056-.028-.057-.028-.085v-.057l-.029-.084v-.481l.029-.057.028-.085v-.057l.028-.056.029-.057.028-.056.029-.085.028-.057.057-.056.028-.057.057-.028.028-.057.057-.056.057-.057.056-.028.057-.057.057-.028.057-.029.056-.028.057-.028.085-.028.057-.029.284-.085.51-.17.54-.169.538-.142.54-.17.567-.113.567-.141.568-.141.595-.114.568-.113.425-.085zm-13.73 5.461l.056-.028.085-.056.057-.029.056-.028.057-.028h.085l.057-.028h.085l.057-.029h.397l.085.029h.057l.057.028h.085l.057.028.056.028.057.029.057.056.056.028.057.029.057.056.057.029.056.056.057.057.057.057.028.056.057.057.028.056.029.057.028.085.029.057.028.056.028.085.029.056v.142l.028.057v.283l-.028.056v.057l-.029.085v.056l-.028.057-.028.085-.029.056-.028.057-.029.057-.028.056-.057.057-.028.056-.057.057-.057.057-.028.056-.057.028-.056.057-.057.028-.312.255-.284.226-.312.255-.255.255-.284.254-.255.255-.256.255-.255.283-.255.254-.227.283-.227.255-.227.283-.199.283-.198.283-.057.085-.057.056-.028.029-.057.056-.057.057-.056.028-.057.057-.057.028-.057.028-.056.057-.057.028-.057.029h-.085l-.057.028-.056.028h-.085l-.057.028h-.34l-.057-.028h-.086l-.056-.028h-.057l-.085-.028-.057-.029-.057-.028-.085-.028-.056-.057-.057-.028-.057-.057-.057-.028-.056-.057-.057-.056-.028-.029-.057-.056-.029-.057-.056-.056-.029-.057-.028-.085-.028-.056-.057-.114-.029-.085v-.056l-.028-.057v-.48l.028-.057v-.085l.029-.057.028-.057.029-.084.028-.057.028-.056.029-.057.056-.085.227-.34.256-.31.255-.34.255-.34.284-.311.284-.312.283-.31.312-.312.313-.283.312-.311.34-.283.312-.283.34-.283.37-.283.084-.085zm-7.462 12.876l.028-.085.029-.057v-.085l.028-.056.029-.057.028-.084.028-.057.057-.057.057-.113.056-.028.057-.057.029-.057.056-.056.057-.028.057-.057.057-.028.056-.028.114-.057.056-.028.086-.029.056-.028h.057l.085-.028h.142l.057-.029h.085l.057.029h.141l.085.028h.057l.085.028.057.029.057.028.085.028.057.029.056.028.057.057.057.028.028.056.057.028.057.057.056.057.029.056.057.057.028.057.028.056.029.057.028.056.028.057.029.085.028.056v.057l.029.085v.141l.028.057v.085l-.028.056v.199l-.029.34-.057.735-.028.34v1.103l.028.368.029.396.028.368.029.368.028.368.057.396.056.368v.368l-.028.056v.085l-.028.056v.057l-.029.085-.028.057-.028.056-.029.057-.028.056-.057.057-.028.057-.057.056-.028.057-.057.056-.057.029-.028.056-.057.029-.057.056-.056.028-.086.029-.056.028-.057.028-.057.029-.085.028h-.057l-.085.028h-.057l-.085.029h-.198l-.085-.029h-.142l-.057-.028-.057-.028h-.085l-.056-.029-.057-.028-.057-.057-.057-.028-.056-.028-.057-.057-.057-.028-.057-.057-.056-.028-.029-.056-.056-.057-.029-.057-.057-.056-.028-.057-.057-.113-.028-.057-.028-.085-.029-.056v-.085l-.028-.057v-.084l-.057-.368-.113-.85-.029-.424-.028-.424-.029-.425-.028-.424v-1.245l.028-.425.029-.424.028-.396.029-.425.028-.17zm2.695 14.488l-.028-.056-.029-.085-.028-.057v-.142l-.028-.084v-.198l.028-.057v-.085l.028-.057v-.056l.029-.085.028-.057.057-.113.028-.057.029-.084.028-.057.057-.056.028-.029.057-.056.028-.057.057-.057.057-.028.056-.057.057-.028.057-.028.085-.057.057-.028.056-.028.086-.029h.056l.057-.028h.085l.057-.028h.369l.056.028h.057l.085.028h.057l.114.057.085.028.056.029.057.028.057.056.056.029.057.056.029.029.056.056.057.057.029.057.056.056.029.057.056.056.029.057.028.057.114.282.198.397.199.424.198.396.227.425.199.396.227.424.227.396.255.425.227.396.255.425.256.396.028.028.028.057.029.085.057.113.028.085.028.056v.057l.029.085v.452l-.029.085-.028.057v.056l-.028.085-.029.057-.028.056-.029.057-.028.057-.057.056-.028.057-.057.056-.028.057-.057.057-.057.028-.056.057-.057.056-.114.057-.085.056-.056.029-.057.028h-.085l-.057.028-.057.029h-.142l-.056.028h-.227l-.057-.028h-.057l-.085-.029h-.057l-.056-.028-.086-.028-.056-.029-.057-.028-.057-.028-.113-.057-.057-.056-.057-.029-.113-.113-.028-.057-.057-.056-.057-.057-.028-.056-.029-.028-.51-.85-.284-.452-.227-.425-.255-.452-.256-.425-.227-.453-.227-.424-.226-.453-.2-.453-.226-.424-.114-.311zm8.029 12.111l-.057-.056-.028-.057-.057-.057-.028-.056-.029-.085-.028-.056-.029-.057v-.085l-.028-.057v-.056l-.028-.085v-.396l.028-.057v-.085l.028-.056.029-.057.028-.085.029-.056.028-.057.028-.057.029-.056.056-.057.029-.056.056-.057.057-.057.057-.056.057-.029.056-.056.057-.028.057-.029.057-.056.056-.028.085-.029.057-.028h.057l.085-.029h.057l.057-.028h.34l.085.028h.057l.056.029h.086l.056.028.057.029.057.028.085.028.057.028.056.057.057.028.057.057.057.028.056.057.029.056.283.312.37.396.368.396.369.396.369.396.397.397.369.367.397.396.425.397.397.396.142.113.029.057.056.056.057.028.029.057.056.085.029.056.028.057.028.057.029.056.028.085v.057l.028.056v.085l.029.057v.396l-.029.085v.057l-.028.056-.028.085-.029.056-.028.057-.028.057-.029.056-.056.085-.029.057-.057.056-.028.057-.057.028-.056.057-.057.056-.057.029-.057.057-.056.028-.057.028-.085.028-.114.057h-.056l-.085.028h-.057l-.085.028h-.397l-.057-.028h-.085l-.057-.028-.057-.028-.085-.029-.057-.028-.056-.028-.057-.028-.057-.057-.057-.029-.056-.056-.057-.028-.142-.142-.426-.396-.397-.396-.425-.425-.397-.396-.426-.424-.397-.396-.397-.425-.37-.424-.396-.425-.284-.311zm10.723 9.678l-.056-.057-.057-.056-.057-.028-.028-.057-.057-.057-.028-.056-.057-.057-.028-.056-.029-.085-.028-.057-.029-.057-.028-.056v-.085l-.028-.057v-.141l-.029-.057v-.141l.029-.057v-.141l.028-.057v-.085l.028-.056.029-.057.028-.085.029-.056.028-.057.057-.057.028-.056.057-.085.028-.029.057-.056.057-.057.056-.056.057-.028.057-.057.113-.057.114-.056.085-.029.057-.028h.056l.057-.028h.085l.057-.029h.284l.056.029h.085l.057.028h.057l.085.028.057.029.057.028.085.028.113.057.057.057.198.141.511.368.482.34.511.339.51.34.511.34.511.339.51.34.54.339.34.198.057.056.057.029.056.056.057.029.057.056.028.057.057.056.028.057.057.057.057.113.028.056.029.057.028.085v.057l.028.056.029.085v.453l-.029.085v.056l-.028.085-.028.057-.029.056-.028.085-.057.113-.057.057-.028.057-.057.056-.028.057-.057.056-.057.029-.056.056-.057.029-.057.056-.057.028-.056.029-.057.028-.057.028-.085.029-.057.028h-.056l-.086.028h-.113l-.085.029h-.057l-.085-.029h-.142l-.057-.028h-.056l-.085-.028-.057-.029h-.057l-.085-.056-.057-.029-.056-.028-.34-.198-.54-.368-.539-.34-.539-.339-.539-.368-.539-.34-.51-.367-.511-.368-.51-.368-.228-.17zm12.398 7.357l-.057-.056-.085-.029-.057-.028-.057-.057-.028-.056-.057-.028-.056-.057-.029-.057-.056-.056-.029-.057-.028-.056-.057-.057-.028-.057-.029-.056v-.085l-.028-.057-.028-.056v-.085l-.029-.057v-.424l.029-.057v-.056l.028-.085.028-.057.029-.085.028-.056.028-.057.029-.057.057-.084.028-.057.057-.028.028-.057.057-.057.056-.056.057-.028.057-.057.057-.028.056-.029.057-.056.057-.029.057-.028h.056l.085-.028.057-.028h.057l.085-.029h.397l.085.029h.057l.057.028.085.028.057.028.085.029.198.085.596.283.596.283.596.254.624.283.596.255.624.255.624.254.624.255h.028l.057.028.057.029.056.028.086.028.056.057.057.028.028.057.057.056.057.029.028.056.057.057.028.056.057.057.029.057.028.056.028.057.029.085.028.056v.057l.028.085.029.056v.481l-.029.057-.028.085v.056l-.028.085-.057.113-.057.086-.028.056-.029.057-.056.056-.029.057-.056.028-.057.057-.057.056-.028.029-.057.056-.057.029-.057.028-.085.028-.056.029-.057.028-.057.028-.085.028h-.057l-.056.028h-.483l-.085-.028h-.056l-.086-.028-.056-.028-.653-.255-.652-.255-.624-.283-.653-.283-.624-.254-.624-.283-.624-.283-.625-.283-.226-.113zm13.504 5.037l-.085-.028-.057-.028-.057-.029-.057-.028-.085-.057-.056-.028-.057-.028-.029-.057-.056-.056-.057-.029-.028-.056-.057-.057-.029-.056-.056-.057-.057-.113-.028-.057-.029-.056-.028-.085-.029-.057v-.057l-.028-.084v-.481l.028-.057v-.085l.029-.056.028-.085.029-.057.028-.057.028-.084.057-.057.028-.057.029-.056.057-.057.056-.028.029-.057.056-.056.057-.029.057-.056.057-.029.056-.028.114-.057.085-.028.057-.028.056-.028h.086l.056-.028h.483l.085.028h.056l.625.17.68.198.681.17.71.17.68.169.71.17.709.141.624.142h.085l.057.028.085.028.057.029.056.028.086.028.056.028.057.057.057.028.085.085.057.057.056.057.029.056.056.057.029.056.028.057.028.056.029.057.028.057.029.056.028.085.028.057v.141l.029.057v.283l-.029.085v.056l-.028.085-.028.057v.084l-.029.057-.028.057-.057.056-.028.057-.029.085-.056.028-.029.057-.056.056-.029.057-.057.028-.056.057-.057.028-.057.057-.113.056-.057.029-.085.028-.057.028-.057.029h-.056l-.085.028h-.057l-.085.028h-.199l-.085-.028h-.142l-.624-.142-1.475-.34-.71-.169-.709-.17-.737-.198-.71-.17-.624-.17zm14.128 2.717l-.057-.029h-.085l-.057-.028-.085-.028-.057-.028-.056-.029-.057-.028-.057-.028-.057-.057-.056-.028-.057-.029-.057-.056-.057-.057-.028-.056-.057-.029-.028-.056-.057-.057-.028-.056-.029-.057-.028-.085-.028-.056-.029-.057-.028-.057v-.085l-.028-.056v-.085l-.029-.057v-.283l.029-.084v-.057l.028-.085.028-.057v-.056l.029-.085.028-.057.028-.056.057-.057.029-.057.028-.056.057-.057.056-.056.029-.029.056-.056.057-.057.057-.028.057-.028.056-.057.057-.028.114-.057.085-.028.056-.028h.057l.085-.029h.114l.085-.028h.142l.085.028.567.057.766.056.766.085.766.057.766.057.766.028.766.056h.397l.085.029h.142l.114.056h.085l.057.029.056.028.057.028.057.057.113.057.057.056.057.028.057.057.056.056.029.057.056.028.029.057.028.057.028.085.057.056.028.057v.056l.029.057.028.085.029.056v.227l.028.056-.028.085v.198l-.029.085-.028.057v.085l-.029.056-.028.057-.028.056-.057.057-.028.057-.029.056-.056.057-.029.056-.056.057-.057.028-.057.057-.057.028-.028.057-.085.028-.057.028-.057.029-.056.028-.057.028-.085.029-.057.028h-.057l-.085.028h-.68l-.795-.056-.794-.029-.795-.056-.766-.085-.794-.057-.794-.085-.596-.056zm14.383.424l-.057-.028h-.227l-.056-.028-.057-.029-.085-.028h-.057l-.057-.028-.056-.029-.057-.056-.085-.029-.029-.028-.056-.056-.057-.029-.057-.056-.057-.057-.028-.056-.057-.057-.028-.028-.029-.085-.056-.057-.057-.113-.028-.057v-.084l-.029-.057-.028-.057v-.141l-.028-.085v-.085l.028-.056v-.227l.028-.057.029-.056v-.085l.028-.056.028-.057.029-.057.056-.056.029-.057.028-.057.057-.056.028-.057.057-.056.057-.029.057-.056.056-.057.029-.028.085-.029.057-.028.056-.056.057-.029h.057l.085-.028.057-.028h.056l.085-.028h.142l.766-.057.795-.057.822-.056.823-.057.823-.057.823-.084.737-.085h.34l.086.028h.056l.057.028.085.029.057.028.17.085.085.028.085.085.057.057.057.028.057.057.028.056.057.057.056.113.057.057.028.056.029.057.028.056v.085l.029.057.028.085v.056l.028.085v.283l-.028.057v.085l-.028.056v.057l-.029.085-.028.056-.029.057-.028.056-.028.057-.057.057-.028.056-.029.057-.057.056-.056.057-.029.057-.056.028-.057.056-.057.029-.057.028-.056.057-.057.028-.085.028-.057.029h-.057l-.085.028-.056.028h-.142l-.738.085-.85.085-.852.085-.851.057-.823.056-.85.057-.767.028zm14.298-1.783h-.482l-.085-.028-.057-.028h-.057l-.056-.029-.085-.028-.114-.056-.057-.028-.056-.057-.057-.028-.057-.057-.085-.085-.057-.057-.028-.056-.057-.057-.028-.056-.029-.057-.056-.056-.029-.057-.028-.085v-.057l-.028-.056-.029-.085v-.057l-.028-.085v-.283l.028-.056v-.142l.029-.056.028-.085.057-.113.028-.057.028-.085.029-.056.028-.057.057-.028.028-.057.057-.057.057-.056.028-.028.057-.057.057-.028.056-.057.057-.028.085-.028.057-.029.057-.028.056-.028.085-.029h.057l.37-.085.623-.17.596-.14.624-.17.596-.17.624-.198.624-.199.624-.226.596-.198.085-.028.057-.029h.085l.057-.028h.34l.085.028h.057l.085.029h.057l.056.028.057.028.085.029.057.028.057.028.057.029.056.056.057.029.028.056.057.056.057.029.028.056.057.057.028.057.057.056.028.057.029.085.028.056.029.057.028.085v.056l.028.085v.057l.029.085v.198l-.029.085v.113l-.028.085-.028.056v.057l-.029.057-.028.084-.029.057-.056.057-.029.056-.028.057-.057.056-.028.057-.057.028-.057.057-.056.057-.057.028-.057.056-.057.029-.056.028-.057.028-.057.029-.085.028-.596.227-.68.226-.653.198-.653.198-.652.198-.653.17-.652.17-.652.17-.398.084zm13.56-5.121l-.056.028-.057.028h-.085l-.056.029h-.086l-.056.028h-.34l-.086-.028h-.057l-.056-.029h-.085l-.057-.028-.114-.057-.056-.028-.057-.028-.057-.057-.057-.028-.056-.057-.057-.028-.057-.057-.028-.056-.057-.057-.057-.056-.028-.057-.028-.057-.029-.056-.057-.085-.028-.057v-.056l-.028-.085-.029-.057v-.085l-.028-.056v-.283l.028-.057v-.141l.029-.057.028-.085v-.056l.028-.057.029-.057.057-.056.028-.057.028-.056.057-.057.028-.056.057-.057.029-.057.056-.056.057-.029.057-.056.113-.057.085-.056.227-.114.681-.34.681-.367 1.362-.736.68-.396.71-.396.567-.311.057-.057.057-.028.056-.029h.086l.056-.028.085-.028h.057l.057-.028h.34l.085.028h.057l.085.028h.057l.057.028.056.029.086.028.056.028.057.029.057.056.057.029.056.056.057.028.028.057.114.113.028.057.057.056.028.057.029.057.028.085.028.056.029.057.028.085v.056l.029.057v.141l.028.085v.057l-.028.085v.113l-.029.085v.056l-.028.057-.029.085-.028.057-.028.056-.029.057-.028.056-.028.057-.057.056-.028.057-.057.057-.029.056-.056.028-.057.057-.057.056-.056.029-.086.028-.539.34-.709.396-.71.396-.708.396-.71.368-.709.368-.68.368-.256.141zm12.342-7.301l-.057.028-.057.029-.085.028-.057.028-.056.028-.086.029h-.056l-.057.028h-.369l-.057-.028h-.056l-.085-.029h-.057l-.057-.028-.057-.028-.085-.028-.057-.029-.056-.028-.057-.028-.057-.057-.056-.028-.114-.113-.028-.057-.057-.028-.028-.057-.057-.085-.029-.056-.056-.057-.029-.057-.028-.084v-.057l-.028-.057-.029-.085v-.056l-.028-.057v-.424l.028-.057v-.056l.029-.085.028-.057.028-.056.029-.085.028-.057.028-.057.029-.056.057-.057.028-.057.057-.056.056-.028.029-.057.057-.056.056-.029.057-.056.17-.085.738-.51.737-.48.738-.51.738-.51.766-.509.737-.537.029-.029.085-.028.056-.028.057-.057.057-.028.085-.029h.057l.057-.028.085-.028h.113l.085-.028h.199l.057.028h.085l.056.028h.057l.085.028.057.029.057.028.056.028.086.029.056.028.057.028.057.057.056.028.029.057.057.057.056.056.057.056.028.057.029.057.057.057.028.056.028.057.029.085.028.056v.057l.028.085v.056l.029.085v.34l-.029.056v.057l-.028.085v.056l-.057.113-.028.085-.028.057-.057.057-.057.113-.057.056-.085.085-.057.057-.056.056-.057.029-.057.028-.737.538-.766.51-.766.537-.738.509-.766.481-.738.51-.17.113zm11.66-8.206l-.057.056-.085.029-.057.028-.057.028-.057.029-.085.028h-.056l-.057.028h-.142l-.085.028h-.114l-.085-.028h-.142l-.056-.028h-.057l-.057-.028-.085-.029-.057-.028-.056-.028-.057-.029-.057-.056-.057-.029-.056-.056-.057-.028-.057-.057-.057-.057-.028-.056-.057-.057-.028-.056-.057-.057-.028-.057-.029-.056-.028-.085-.028-.057-.029-.056v-.085l-.028-.057v-.141l-.028-.057v-.141l.028-.057v-.141l.028-.085v-.057l.029-.056.028-.057.028-.085.029-.057.028-.056.057-.057.028-.056.057-.057.028-.057.057-.056.057-.029.057-.056.056-.057h.029l.794-.594 1.589-1.188 1.589-1.217.51-.368.057-.057.057-.028.085-.028.056-.028.057-.029.057-.028.085-.029.057-.028h.057l.085-.028h.397l.085.028h.057l.056.028h.085l.17.086.058.028.056.056.057.029.057.056.056.028.057.057.114.113.028.057.057.056.028.057.028.057.029.056.028.057.029.085.028.057.028.056v.085l.029.056v.425l-.029.057v.056l-.028.085v.057l-.028.056-.029.057-.028.085-.029.056-.056.057-.029.057-.056.056-.029.057-.056.056-.057.028-.057.057-.057.057-.482.368-1.617 1.216-1.617 1.189-.794.594-.029.028zm11.319-8.574l-.057.056-.057.029-.085.028-.056.028-.057.029-.085.028-.057.028h-.057l-.085.028h-.397l-.057-.028h-.085l-.057-.028h-.056l-.085-.028-.057-.029-.057-.028-.057-.028-.056-.057-.114-.057-.057-.056-.056-.057-.057-.028-.057-.057-.028-.056-.057-.057-.028-.057-.029-.084-.056-.057-.029-.057v-.056l-.028-.085-.057-.113v-.227l-.028-.056v-.057l.028-.085v-.141l.028-.057v-.056l.029-.085.028-.057.029-.057.028-.056.028-.057.029-.085.028-.056.057-.057.028-.028.17-.17.057-.028.993-.792 1.702-1.302 1.787-1.387.057-.028.057-.057.057-.028.056-.028.086-.028.056-.029.114-.056h.085l.057-.029h.482l.057.029h.085l.056.028.057.028.057.029.085.028.057.028.057.028.056.029.057.056.057.057.056.028.057.057.029.056.056.057.029.057.056.056.029.057.028.056.029.085.028.057.028.057.029.084v.057l.028.056v.482l-.028.056v.085l-.057.113-.028.085-.029.057-.028.056-.029.057-.056.057-.029.056-.056.057-.029.056-.057.057-.056.028-.057.057-1.787 1.386-1.702 1.302-.993.792zm11.206-8.688l-.057.057-.057.028-.085.029-.057.028-.056.028-.085.028-.057.029h-.057l-.085.028h-.454l-.085-.028h-.057l-.056-.029-.086-.028-.056-.028-.057-.028-.113-.057-.057-.057-.057-.028-.057-.057-.057-.028-.056-.056-.057-.057-.028-.057-.057-.056-.028-.057-.029-.056-.056-.085-.029-.057-.028-.056v-.057l-.029-.085-.028-.057v-.141l-.028-.057v-.198l.028-.085v-.141l.028-.057.029-.056v-.057l.028-.085.029-.056.056-.057.029-.057.028-.056.057-.057.028-.056.057-.057.056-.056.057-.029.029-.056.227-.17 1.787-1.387 1.815-1.386.681-.538.057-.028.057-.057.113-.057.085-.028.057-.028.057-.028h.085l.057-.029h.057l.085-.028h.34l.057.028h.056l.086.029h.056l.057.028.085.028.057.028.057.029.056.056.114.057.057.057.056.056.057.029.029.056.056.057.029.056.056.085.029.057.085.17.028.084.028.057v.057l.029.085v.48l-.029.057-.028.057v.085l-.028.056-.029.057-.028.056-.028.057-.029.085-.056.057-.029.056-.056.057-.029.028-.057.057-.056.056-.057.028-.681.538-1.816 1.387-1.787 1.386-.198.17zm11.234-8.602l-.085.028-.057.029-.056.056-.057.029-.057.028h-.085l-.057.028h-.085l-.057.028h-.482l-.057-.028h-.056l-.085-.028-.057-.028-.057-.029-.057-.028-.056-.028-.086-.029-.056-.056-.057-.029-.028-.056-.057-.057-.057-.028-.057-.057-.028-.056-.057-.057-.028-.085-.028-.056-.057-.057-.029-.056-.028-.057v-.085l-.028-.057-.029-.084v-.199l-.028-.056.028-.085v-.198l.029-.057v-.056l.028-.085.028-.057.029-.056.028-.057.029-.057.028-.085.057-.056.028-.057.057-.028.057-.057.028-.056.057-.057.056-.028 1.816-1.387 1.9-1.415.823-.622.057-.028.085-.057.057-.028.057-.029.057-.028.085-.028.056-.028h.057l.085-.029h.057l.057-.028h.283l.057.028h.085l.057.029h.057l.085.028.056.028.057.028.057.029.057.028.085.028.057.057.056.028.029.057.056.028.057.057.057.056.028.057.057.057.028.056.029.085.057.057.028.056v.057l.028.085.029.056v.085l.028.057v.396l-.028.085v.056l-.029.057-.028.085v.057l-.028.056-.029.057-.057.056-.056.113-.057.057-.028.057-.057.056-.114.114-.056.028-.823.622-1.873 1.415-1.815 1.358zm11.348-8.433l-.057.029-.057.056-.056.029-.085.028-.057.028h-.057l-.085.028h-.057l-.085.029h-.397l-.057-.029h-.085l-.057-.028-.056-.028-.057-.028-.085-.029-.057-.028-.057-.028-.056-.029-.057-.056-.057-.029-.057-.056-.056-.029-.029-.056-.056-.057-.057-.056-.029-.057-.028-.085-.057-.056-.028-.057-.028-.057-.029-.084v-.057l-.028-.057v-.084l-.029-.057v-.424l.029-.057v-.057l.028-.085.029-.056.028-.057.028-.056.029-.057.028-.085.028-.056.057-.057.029-.057.056-.028.057-.056.028-.057.057-.057.057-.028.085-.057.993-.735.993-.708 1.021-.707.993-.708.54-.396.084-.028.057-.057.057-.028.056-.028.057-.028.085-.029.057-.028h.085l.057-.028h.482l.057.028h.057l.085.028.056.029.057.028.057.028.085.028.057.029.057.056.056.028.057.029.028.056.057.057.057.057.057.056.028.057.057.056.028.057.028.057.029.084.028.057.028.057.029.085v.056l.028.057v.48l-.028.057v.085l-.029.057-.028.056-.028.085-.029.057-.028.056-.028.057-.029.057-.056.056-.029.057-.057.057-.056.056-.057.028-.057.057-.056.028-.54.396-.992.708-.993.707-.993.708-.993.735-.085.057zm11.575-8.12l-.057.056-.085.028-.057.028-.057.028h-.085l-.057.029-.056.028h-.142l-.085.028h-.114l-.085-.028h-.142l-.056-.028h-.057l-.085-.029-.057-.028-.113-.056-.057-.029-.057-.028-.057-.056-.056-.029-.057-.056-.057-.029-.057-.056-.028-.057-.057-.057-.056-.056-.029-.057-.028-.085-.029-.056-.028-.057-.028-.056-.029-.085-.028-.057v-.085l-.028-.056v-.396l.028-.085v-.057l.028-.056v-.085l.029-.057.028-.057.028-.056.029-.057.056-.085.029-.056.057-.029.028-.056.057-.057.057-.056.056-.057.057-.028.057-.057.624-.424 1.021-.68 1.05-.707 1.05-.707.964-.623.057-.056.085-.029.113-.057.085-.028.057-.028h.057l.085-.028h.114l.085-.028h.141l.057.028h.142l.057.028h.085l.057.028.056.028.114.057.085.029.057.056.056.029.057.056.029.028.056.057.057.057.057.056.028.057.057.056.028.057.029.057.028.056.028.085.029.057.028.056.028.085v.113l.029.085v.283l-.029.057v.056l-.028.085v.057l-.028.056-.029.057-.028.085-.028.056-.029.057-.028.057-.057.056-.028.057-.057.056-.057.057-.028.028-.057.057-.057.057-.056.028-.965.622-1.05.708-1.05.679-1.02.707-.625.425zm11.83-7.698l-.085.028-.057.029-.057.028-.057.028-.085.029h-.056l-.086.028h-.397l-.057-.028h-.085l-.056-.029h-.057l-.085-.028-.057-.028-.057-.029-.056-.028-.057-.028-.057-.057-.057-.028-.056-.057-.057-.028-.057-.056-.028-.057-.114-.113-.056-.113-.029-.085-.056-.057v-.056l-.029-.085-.028-.057-.029-.056v-.142l-.028-.085v-.113l.028-.085v-.142l.029-.056v-.057l.028-.084.029-.057.028-.057.028-.057.029-.056.028-.057.028-.056.057-.057.028-.056.17-.17.057-.029.057-.056.057-.028.426-.255 1.078-.68 2.212-1.357 1.078-.651.057-.029.057-.028.085-.057.057-.028h.056l.085-.028.057-.028h.057l.085-.028h.397l.085.028h.057l.057.028.085.028h.057l.056.028.057.029.057.056.057.029.056.028.057.057.057.028.057.057.056.056.029.057.056.056.029.057.057.057.028.056.028.057.029.085.028.056.028.057v.085l.029.056v.085l.028.057v.283l-.028.056v.057l-.029.085v.056l-.028.057-.028.085-.029.056-.028.057-.028.057-.029.056-.057.057-.028.056-.057.057-.028.057-.057.028-.057.056-.056.057-.057.028-.057.057h-.056l-1.107.68-1.078.65-1.078.68-1.106.678-.398.255zm12.142-7.187l-.085.028-.057.028h-.057l-.085.029-.057.028h-.141l-.085.028h-.199l-.057-.028h-.142l-.056-.028-.057-.029-.085-.028h-.057l-.057-.028-.056-.057-.057-.028-.057-.028-.057-.057-.056-.028-.057-.057-.057-.028-.057-.057-.028-.056-.057-.057-.028-.057-.028-.084-.057-.057-.029-.057-.028-.056v-.085l-.028-.057-.029-.085v-.056l-.028-.057v-.283l.028-.056v-.142l.029-.085.028-.057v-.056l.028-.057.029-.056.057-.085.028-.057.028-.056.057-.057.028-.057.057-.028.028-.056.057-.057.057-.028.057-.057.056-.028.086-.057.425-.226 1.135-.651 1.163-.623 1.135-.622 1.135-.594.056-.057.057-.028.085-.029h.057l.057-.028.085-.028h.198l.057-.028.085.028h.199l.057.028.085.028h.056l.057.029.057.028.085.028.057.029.056.056.114.057.057.057.028.056.057.029.056.056.029.056.057.057.028.057.028.085.057.056.028.057v.085l.057.113v.085l.029.056v.425l-.029.056v.057l-.028.085v.057l-.029.056-.028.057-.028.085-.029.056-.056.057-.029.056-.057.057-.028.057-.057.028-.056.056-.029.057-.056.028-.057.057-.085.028-.057.029-1.107.622-1.134.623-1.135.622-1.135.623-.425.226zm12.454-6.594l-.057.029-.085.028h-.057l-.085.028h-.056l-.057.029h-.34l-.086-.029h-.056l-.085-.028-.057-.028h-.057l-.057-.029-.056-.028-.086-.028-.056-.057-.057-.028-.057-.028-.056-.057-.029-.057-.057-.028-.056-.056-.029-.057-.056-.057-.029-.056-.028-.057-.057-.085-.057-.113-.028-.085v-.056l-.028-.085v-.057l-.029-.056v-.283l.029-.057v-.141l.028-.085.028-.057.029-.056v-.057l.028-.057.057-.085.028-.056.029-.057.056-.057.029-.056.056-.028.057-.057.029-.056.056-.029.057-.056.057-.029.085-.028.057-.057.652-.31 1.192-.595 1.22-.566 1.191-.566.88-.424.056-.029.085-.028h.057l.085-.028.057-.029h.482l.057.029h.085l.057.028h.056l.086.028.056.029.057.028.057.056.057.029.056.028.057.057.057.028.056.057.029.056.057.057.028.056.057.057.028.056.028.057.057.057.028.085.029.056v.057l.028.085v.056l.029.085v.396l-.029.085v.057l-.028.056-.029.057v.085l-.028.057-.057.056-.028.056-.028.057-.029.057-.056.056-.029.057-.057.057-.056.028-.057.057-.057.056-.113.057-.057.056-.057.029-.88.396-1.19.566-1.192.566-1.192.594-.652.311zm12.823-5.857l-.085.028h-.057l-.085.029h-.057l-.085.028h-.255l-.085-.028h-.057l-.057-.029h-.085l-.056-.028-.057-.028-.057-.029-.085-.028-.057-.028-.057-.029-.056-.056-.057-.029-.057-.056-.028-.028-.057-.057-.057-.057-.028-.056-.057-.057-.028-.056-.028-.057-.029-.057-.028-.084-.029-.057-.028-.085-.028-.057v-.056l-.029-.085v-.48l.029-.058.028-.056v-.085l.028-.057.029-.056.057-.114.056-.056.029-.057.056-.056.029-.057.057-.056.028-.057.057-.028.056-.057.057-.028.057-.057.085-.028.113-.057 1.107-.452 1.248-.538 1.248-.481 1.277-.51.426-.17.056-.028.057-.028h.085l.057-.028h.482l.085.028h.057l.057.028.085.029.113.056.057.029.057.028.056.028.057.057.057.028.113.113.029.029.057.056.028.057.057.056.028.057.028.085.057.113.029.085.028.057.028.084v.113l.029.086v.198l-.029.084v.114l-.028.085-.028.056v.057l-.029.056-.028.085-.029.057-.056.056-.029.057-.028.057-.057.056-.028.057-.057.028-.113.113-.114.057-.057.056-.056.029-.057.028-.085.028-.426.17-1.248.481-1.22.51-1.248.509-1.078.453zm13.135-5.037l-.057.028h-.141l-.057.029h-.284l-.085-.029h-.057l-.056-.028h-.086l-.056-.028-.057-.029-.114-.056-.085-.029-.056-.056-.057-.028-.028-.057-.057-.028-.057-.057-.057-.056-.028-.029-.057-.056-.028-.057-.057-.057-.028-.084-.029-.057-.028-.057-.028-.084-.029-.057v-.085l-.028-.057v-.141l-.029-.057v-.141l.029-.085v-.113l.028-.085.029-.057v-.056l.028-.085.028-.057.029-.056.057-.057.028-.057.028-.056.057-.057.028-.056.057-.029.057-.056.057-.057.056-.028.057-.057.057-.028.056-.029.057-.028.057-.028.085-.028.482-.17 1.305-.453 1.305-.424 1.305-.425 1.022-.311.085-.028.056-.029h.142l.057-.028h.142l.085.028h.142l.057.029h.056l.085.028.17.085.057.028.057.029.057.056.057.028.056.057.057.028.057.057.028.056.057.057.028.057.057.056.028.057.029.056.028.057.028.085.029.057.028.084v.057l.029.085v.396l-.029.085v.057l-.028.056v.085l-.029.056-.028.057-.028.057-.029.057-.056.056-.029.057-.028.056-.114.113-.028.057-.057.028-.056.057-.057.028-.057.057-.057.028-.056.028-.085.029-.057.028-.057.028-1.05.312-1.276.424-1.277.424-1.305.425-.454.17zm13.476-4.103h-.142l-.057.028h-.227l-.057-.028h-.085l-.057-.028h-.056l-.085-.029-.057-.028-.057-.028-.056-.029-.114-.056-.057-.028-.057-.057-.056-.028-.057-.057-.057-.057-.028-.028-.057-.056-.028-.057-.057-.057-.028-.056-.029-.085-.028-.057-.028-.056-.029-.085-.028-.057v-.085l-.029-.056v-.142l-.028-.056v-.085l.028-.057v-.142l.029-.084v-.057l.028-.056.029-.057.028-.085.028-.057.029-.056.028-.057.057-.056.028-.057.057-.057.028-.056.057-.029.057-.056.056-.057.029-.028.057-.028.085-.057.057-.028.056-.028.057-.029.085-.028h.057l.056-.028 1.362-.34 1.362-.368 1.362-.311 1.361-.34h.057l.085-.028h.057l.085-.028h.199l.057.028h.141l.085.028.114.057h.057l.085.028.057.057.056.028.057.029.057.056.056.028.029.057.057.028.056.057.029.057.056.056.029.057.057.056.028.057.028.056.029.085.028.057v.057l.028.085.029.056v.51l-.029.056v.056l-.028.085-.028.057-.029.057-.028.056-.028.085-.029.057-.028.056-.057.057-.085.085-.057.056-.028.057-.057.028-.057.057-.113.057-.057.056-.085.028-.057.029-.057.028h-.085l-.056.028-.057.029-1.362.31-1.333.312-1.333.34-1.334.368h-.028zm13.73-3.113l-.085.029h-.198l-.085-.029h-.142l-.057-.028-.057-.028h-.085l-.057-.029-.056-.028-.057-.057-.057-.028-.056-.028-.057-.029-.114-.113-.056-.028-.029-.057-.056-.056-.029-.057-.057-.056-.028-.057-.028-.057-.029-.056-.028-.057-.028-.085-.029-.056-.028-.085V4.66l-.029-.085v-.34l.029-.084v-.057l.028-.056v-.085l.029-.057.028-.056.057-.113.028-.085.057-.057.028-.028.057-.057.028-.056.057-.057.057-.057.056-.028.029-.057.057-.028.085-.028.056-.028.057-.057.057-.028h.057l.085-.029.056-.028h.086l1.248-.226 1.418-.255 1.419-.226 1.418-.227.142-.028h.057l.085-.028h.142l.057.028h.141l.057.028.085.028h.057l.057.029.085.028.057.028.056.029.057.056.114.057.056.056.029.057.056.028.057.057.028.056.029.057.057.057.028.056.028.057.029.085.028.056.028.057.029.085v.057l.028.084v.425l-.028.057v.084l-.029.057-.028.057-.028.056-.029.085-.028.057-.028.056-.029.057-.028.057-.057.056-.028.057-.057.028-.057.057-.056.056-.057.028-.057.057-.057.028-.056.029-.057.028-.057.028-.057.028-.085.029-.057.028h-.085l-.056.028-.142.029-1.39.198-1.39.226-1.39.255-1.249.226zm13.703-2.009l-.085-.028h-.057l-.057-.028h-.085l-.113-.057-.085-.028-.057-.029-.057-.028-.057-.028-.056-.057-.057-.028-.057-.057-.028-.028-.057-.057-.057-.056-.028-.057-.057-.056-.028-.057-.028-.057-.029-.056-.028-.057-.029-.085-.028-.056-.028-.057v-.085l-.029-.057V2.17l.029-.085V2.03l.028-.085.028-.057.029-.056v-.057l.057-.057.028-.085.028-.056.029-.057.056-.028.029-.057.113-.113.057-.028.028-.057.057-.028.057-.057.085-.028.057-.028.056-.028.057-.029.085-.028h.057l.057-.028h.085l.085-.029 1.418-.141 1.476-.142 1.446-.113 1.334-.085.085-.028h.057l.085.028h.142l.056.029h.057l.085.028.057.028.057.029.056.028.086.028.056.028.057.029.057.056.028.029.057.056.057.057.056.028.029.057.056.056.029.057.028.056.029.057.028.085.028.057.029.056.028.057.028.085v.056l.029.085v.368l-.029.056v.057l-.028.085-.028.057v.056l-.029.085-.028.057-.057.056-.028.057-.029.056-.028.057-.057.057-.056.056-.029.028-.057.057-.056.028-.057.057-.057.028-.056.057-.057.028-.057.029-.057.028-.085.028h-.056l-.086.028-.056.029h-.142l-1.334.113-1.446.113-1.419.142-1.418.141zm14.1-.905l-.057-.029h-.057l-.085-.028-.057-.028h-.085l-.057-.029-.056-.028-.057-.057-.057-.028-.056-.028-.057-.057-.057-.028-.057-.057-.028-.028-.057-.057-.057-.056-.028-.057-.028-.056-.057-.057-.028-.057-.029-.056-.028-.057-.029-.084v-.057l-.028-.085-.028-.057v-.509l.028-.057v-.056l.028-.085.029-.057.028-.056.029-.085.028-.057L439.5.7l.057-.057.028-.056.057-.057.028-.028.057-.057.057-.057.028-.028.057-.057.057-.028.057-.028.085-.028.056-.057h.057l.057-.028.085-.028.057-.029h.057l.085-.028h.141l.54-.029h1.503l1.532-.028h2.213l.085.028h.142l.057.029.085.028h.056l.057.029.057.028.085.028.057.057.113.056.057.057.028.028.057.057.057.056.028.057.057.057.028.056.029.057.056.056.029.057.028.056.028.057v.085l.029.057.028.056v.227l.029.084-.029.057v.141l-.028.085v.057l-.029.057-.028.085v.056l-.028.057-.057.056-.028.057-.029.056-.057.057-.028.057-.057.056-.028.057-.057.028-.056.057-.057.056-.057.028-.113.057-.057.028-.057.029-.057.028-.085.028-.056.029h-.086l-.056.028h-2.355l-1.475.028h-1.504l-.51.029zm14.213.198h-.142l-.114-.057h-.085l-.057-.028-.113-.057-.057-.028-.085-.057-.028-.028-.057-.057-.057-.028-.056-.057-.057-.056-.028-.029-.057-.056-.029-.057-.028-.056-.057-.057-.028-.085-.028-.056-.029-.057v-.057l-.028-.084-.029-.057V1.83l-.028-.085v-.142l.028-.056v-.142l.029-.085.028-.056v-.057l.029-.085.028-.056.028-.057.057-.057.028-.056.029-.057.057-.056.028-.057.057-.057.056-.028.057-.056.028-.029.057-.056.057-.029.057-.028.085-.028.056-.029.057-.028.057-.028.085-.029h.057l.085-.028h.34l1.56.085 1.561.113 1.56.114.965.084h.057l.085.028h.057l.085.029.056.028h.085l.057.029.057.028.057.056.056.029.057.028.057.057.057.028.056.057.029.056.056.028.029.057.057.057.028.056.028.057.057.056.028.085.029.057v.056l.028.057.029.085v.057l.028.085v.282l-.028.057v.141l-.029.085-.028.057-.029.085-.028.056-.028.057-.029.057-.028.056-.057.057-.028.056-.057.057-.028.057-.057.028-.057.057-.057.028-.056.056-.057.029-.057.028-.056.057-.057.028-.057.028h-.057l-.085.029-.057.028h-.141l-.085.028h-.199l-.965-.085-1.532-.113-1.56-.113-1.532-.085h-.028zm14.014 1.33l-.056-.029-.086-.028h-.056l-.057-.028-.085-.028-.057-.029-.057-.028-.056-.057-.114-.056-.057-.057-.056-.056-.029-.029-.057-.056-.028-.057-.057-.057-.028-.056-.028-.057-.057-.056-.028-.057v-.057l-.029-.084-.028-.057-.029-.057v-.085l-.028-.056V2.82l.028-.057V2.68l.029-.056.028-.085.029-.057.028-.056.028-.057.029-.085.028-.056.028-.057.057-.057.028-.028.057-.056.057-.057.028-.056.114-.057.057-.057.113-.056.085-.029.057-.028.057-.028.056-.029h.086l.056-.028h.142l.085-.028h.057l.085.028h.142l1.617.227 1.617.226 1.617.255.738.113.056.028h.086l.056.028.085.029.057.028.057.028.057.028.113.057.057.057.057.028.056.057.057.056.028.028.057.057.028.057.057.056.029.057.028.057.028.084.029.057.028.056.028.057V3.5l.029.057v.056l.028.085v.283l-.028.057v.085l-.029.056v.085l-.028.057-.028.085-.029.056-.028.057-.057.056-.028.057-.029.057-.056.056-.057.057-.028.028-.057.057-.057.056-.057.029-.056.028-.057.056-.057.029-.056.028-.057.028-.057.029-.085.028h-.057l-.057.028h-.141l-.086.029h-.141l-.057-.029h-.085l-.71-.113-1.617-.255-1.588-.226-1.589-.226zm13.873 2.348l-.057-.028-.057-.028-.085-.028-.17-.086-.057-.056-.056-.029-.057-.028-.057-.056-.057-.057-.028-.028-.057-.057-.028-.056-.057-.057-.028-.057-.029-.056-.028-.057-.028-.085-.029-.056-.028-.057-.028-.085v-.056l-.029-.057V5.17l.029-.085v-.057l.028-.085.028-.056.029-.057.028-.085.028-.056.029-.057.057-.057.028-.056.057-.057.028-.056.057-.029.056-.056.029-.057.057-.028.056-.029.057-.056.057-.029.057-.028.085-.028.056-.028.057-.028h.085l.057-.029h.057l.085-.028h.284l.056.028h.085l.71.141 1.673.368 1.674.368 1.504.368h.085l.057.029.085.028.057.028.056.028.114.057.056.057.057.028.057.056.057.029.056.056.029.057.057.057.056.113.057.056.028.057.029.056.028.057.028.085v.057l.029.056v.085l.028.057v.34l-.028.084v.085l-.029.057v.056l-.028.085-.057.113-.056.085-.057.113-.057.057-.028.028-.057.057-.057.056-.028.029-.057.056-.057.029-.056.056-.057.029-.057.028-.085.028-.057.029-.056.028-.057.028h-.085l-.057.028h-.482l-.085-.028-1.532-.34-1.646-.368-1.645-.367-.681-.142zm13.702 3.311l-.056-.028-.085-.029-.057-.028-.057-.028-.057-.057-.056-.028-.057-.028-.114-.113-.056-.029-.029-.056-.057-.057-.028-.057-.057-.056-.028-.057-.028-.056-.029-.057-.028-.057-.029-.084v-.057l-.028-.057-.028-.085v-.48l.028-.057v-.085l.028-.057.029-.084.028-.057.029-.057.028-.056.028-.085.057-.057.028-.056.057-.029.029-.056.113-.113.057-.029.057-.056.056-.029.057-.028.057-.028.113-.057.085-.028.057-.028h.057l.085-.029h.057l.056-.028h.227l.057.028h.142l.085.029.312.084 1.702.482 1.73.509 1.731.537.085.029h.057l.057.056.085.029.057.028.057.028.056.057.057.028.057.057.028.056.057.029.028.056.057.057.028.056.057.057.028.057.057.113.029.085v.056l.028.057.028.085v.198l.029.057v.084l-.029.057v.142l-.028.084-.028.057v.085l-.029.056-.028.057-.057.085-.028.056-.029.057-.056.057-.029.056-.057.029-.028.056-.057.057-.056.028-.057.057-.057.028-.057.057-.056.028-.057.028-.057.028-.085.029h-.057l-.056.028-.085.028h-.199l-.057.029-.085-.029h-.198l-.086-.028-.056-.028h-.029l-1.702-.51-1.674-.509-1.702-.48-.284-.058zm13.448 4.188l-.057-.028-.085-.028-.114-.057-.057-.057-.056-.028-.057-.057-.028-.028-.114-.113-.028-.057-.057-.056-.057-.113-.028-.057-.028-.057-.029-.056-.028-.085-.029-.057v-.056l-.028-.085v-.481l.028-.057.029-.085V12.5l.028-.085.029-.057.028-.056.057-.057.028-.057.028-.084.057-.029.029-.056.056-.057.057-.057.057-.028.028-.056.057-.029.057-.056.056-.029.085-.028.057-.028.057-.029.057-.028h.085l.056-.028h.057l.085-.028h.34l.058.028h.085l.056.028.085.028.54.17 1.758.623.085.028.057.028.057.057.057.028.056.029.057.056.057.028.057.057.056.028.057.057.028.056.057.057.085.17.029.056.028.057.028.085.057.113v.085l.029.057v.424l-.029.057v.085l-.028.056-.029.057-.028.085-.028.056-.029.057-.028.085-.028.056-.057.057-.029.057-.056.028-.057.056-.028.057-.057.028-.057.057-.057.028-.056.029-.057.056-.057.028-.085.029-.057.028h-.056l-.057.028-.085.029h-.199l-.057.028-.085-.028h-.198l-.085-.029-.057-.028h-.085l-1.73-.622-.54-.198z"/></g></g></svg>