<svg width="170" height="83" viewBox="0 0 170 83" fill="none" xmlns="http://www.w3.org/2000/svg">
<g clip-path="url(#clip0)">
<path fill-rule="evenodd" clip-rule="evenodd" d="M28.3813 47.9235C27.0126 47.9235 26.2203 47.8513 25.4279 47.7791C24.9237 47.707 24.5635 47.707 24.2754 47.707C23.7711 47.707 23.1948 47.7791 23.1948 48.4287C23.1948 49.0783 23.6271 48.7896 23.8432 49.2226C24.0593 49.7278 23.9872 50.9548 23.9872 51.7487V75.4939C23.9872 78.8139 24.2754 79.68 23.9152 80.1852C23.6271 80.6183 23.0508 80.6183 23.0508 81.34C23.0508 82.7835 24.4915 82.0617 25.8601 82.0617H34.072C34.9364 82.0617 35.7287 81.9896 36.3771 82.2783C37.0254 82.4948 37.1694 82.7835 38.2499 82.7835C39.0423 82.7835 39.1864 82.6391 39.1864 81.4844C39.1143 79.4635 39.3304 78.6696 39.9067 76.7931C40.483 74.9165 39.4025 74.7722 38.8982 74.7722C37.3135 74.7722 37.0254 76.5044 36.5932 77.8757C36.0889 79.8244 34.8643 80.6183 33.9279 80.6183C31.4067 80.6183 32.3432 77.8035 32.3432 75.9991V66.8331C32.3432 65.5339 31.9109 63.0078 34.216 63.0078C35.2245 63.0078 35.8008 63.4409 36.233 64.2348C36.7372 65.1009 36.8813 66.5444 38.2499 66.5444C39.4025 66.5444 39.6906 65.7504 39.6906 65.1009C39.6906 64.2348 38.7542 63.6574 38.322 61.3478C38.0338 59.9044 37.5296 59.9044 36.8813 59.9044C35.5847 59.9044 35.8728 60.2652 35.5847 60.9148C35.3686 61.2757 35.0804 61.6365 34.2881 61.6365C32.3432 61.6365 32.4152 59.6878 32.4152 58.9661V52.687C32.4152 51.3878 31.6948 49.367 33.6398 49.367C34.7923 49.367 36.0169 50.7383 36.4491 52.1818C36.7372 53.1922 36.8093 54.78 38.394 54.78C39.6906 54.78 39.5465 53.9139 39.5465 53.4809C39.5465 52.4704 39.1864 51.6044 38.9703 50.6661C38.8262 50.0165 38.7542 49.6557 38.7542 48.9339C38.6821 47.6348 38.394 47.5626 37.4576 47.5626C37.0974 47.5626 36.7372 47.5626 36.3771 47.6348C36.0169 47.707 35.7287 47.9957 35.3686 47.9957H28.3813V47.9235Z" fill="#003DA6"/>
<path fill-rule="evenodd" clip-rule="evenodd" d="M45.5971 47.9236C44.5166 47.9236 43.7963 47.7071 43.292 47.7071C42.7157 47.7071 42.2115 48.0679 42.2115 48.3566C42.2115 48.8618 42.5717 49.0062 42.8598 49.3671C43.3641 49.8723 43.0759 50.594 43.0759 52.9758V76.1436C43.0759 78.814 43.292 79.4636 43.0759 79.9688C43.0039 80.2575 42.7878 80.474 42.5717 80.6905C42.3556 80.9071 42.0674 81.0514 42.0674 81.3401C42.0674 81.5566 41.8513 82.3505 42.9319 82.3505C43.7242 82.3505 44.2285 82.0618 45.0929 82.0618H49.703C50.2073 82.0618 50.7835 82.2784 51.9361 82.2784C52.2963 82.2784 53.0886 82.4227 53.0886 81.5566C53.0886 80.9792 52.5844 80.6905 52.2242 80.474C51.3598 79.9688 51.5759 79.8245 51.5759 78.8862V74.1949C51.5759 68.854 55.5378 71.6688 58.8513 70.2975C61.2285 69.2871 64.1819 66.1114 64.1819 59.3271C64.1819 56.3679 63.5335 51.5323 58.7073 48.7897C57.2666 47.9958 55.898 47.6349 54.5293 47.6349C53.881 47.6349 53.4488 47.7071 52.3683 47.7792C51.2878 47.8514 50.7835 47.8514 50.3513 47.8514H45.5971V47.9236ZM55.0335 63.5853C55.0335 65.7505 55.1776 69.5758 52.8005 69.5758C50.8556 69.5758 51.5039 66.4723 51.5039 64.0905V54.4192C51.5039 53.6253 51.4319 52.8314 51.2878 52.1097C51.2158 51.7488 51.0717 51.3158 51.0717 50.8827C51.0717 49.7279 51.8641 49.2949 52.8725 49.2949C53.3768 49.2949 54.3132 49.6558 54.6734 51.0271C54.7454 51.3879 54.9615 52.1818 54.9615 54.7079V63.5853H55.0335Z" fill="#003DA6"/>
<path fill-rule="evenodd" clip-rule="evenodd" d="M69.0086 47.9236C68.0721 47.9236 66.4874 47.4905 66.4874 48.4288C66.4874 48.934 67.4959 48.6453 67.5679 50.3053C67.6399 51.6766 67.4959 52.1818 67.4959 55.574V58.2444C67.4959 60.2653 67.4238 62.214 67.4238 64.2349C67.4238 76.5044 67.6399 77.4427 67.4959 79.1027C67.3518 80.5462 66.8475 80.3296 66.4874 80.6905C65.9831 81.0514 65.9831 82.2783 67.0637 82.2783C67.712 82.2783 68.0001 81.9896 69.0806 81.9896H73.8351C74.9877 81.9896 74.4834 82.134 75.8521 82.134C77.2928 82.134 77.0767 80.907 76.5004 80.474C76.0682 80.1131 75.8521 80.4018 75.8521 79.1027V64.2349C75.8521 63.6575 75.8521 63.0079 75.708 62.4305C75.636 62.0696 75.4919 61.7809 75.4919 61.3479C75.4919 60.7705 75.9961 60.1931 76.7165 60.1931C77.9411 60.1931 78.4453 61.2757 78.6614 62.214C79.5258 65.4618 80.2461 75.494 80.2461 79.5357C80.2461 80.6905 79.958 80.474 79.5978 80.8349C79.0936 81.3401 79.3817 82.3505 80.4622 82.3505C80.8944 82.3505 81.2546 82.2783 81.7589 82.2062C82.1911 82.134 82.6233 82.0618 83.0555 82.0618H87.3055C88.2419 82.0618 89.3945 82.4227 89.8987 82.0618C90.3309 81.7731 90.3309 80.9792 89.8987 80.6905C89.5385 80.474 89.1784 80.6183 88.9622 79.5357C88.7461 77.9479 88.8182 76.5766 88.6021 72.8957C87.9538 64.2349 86.297 60.7705 84.7122 57.8114C82.5512 53.7696 84.3521 52.1096 85.2885 52.1096C85.7928 52.1096 86.297 52.687 87.0894 52.687C88.2419 52.687 89.6106 51.8931 89.6106 50.0888C89.6106 47.9236 88.0978 47.1296 86.8012 47.1296C83.4877 47.1296 82.5512 50.4496 82.047 52.6149C81.5428 54.9244 80.8945 56.8009 78.8055 58.1001C78.3733 58.3888 77.797 58.6053 77.2928 58.6053C76.9326 58.6053 76.2843 58.4609 75.9961 57.8114C75.78 57.1618 76.0682 56.1514 76.0682 55.574V51.2435C76.0682 50.3775 75.78 49.5114 76.4283 49.0062C76.6444 48.8618 76.9326 48.7175 76.9326 48.2122C76.9326 47.5627 76.1402 47.5627 75.9241 47.5627C75.5639 47.5627 75.2758 47.6349 74.9877 47.6349C74.6275 47.707 74.3394 47.707 73.9792 47.707H69.0086V47.9236Z" fill="#003DA6"/>
<path fill-rule="evenodd" clip-rule="evenodd" d="M93.6441 47.9236C92.4916 47.9236 90.4746 47.1296 90.4746 48.3566C90.4746 49.0062 91.1229 48.934 91.4831 49.4392C91.8433 49.9444 91.6992 50.6662 92.6356 54.347C96.6695 70.6583 98.1102 72.8957 99.3348 76.6488C100.055 78.7418 100.775 80.907 98.9746 80.907C98.2543 80.907 97.678 80.0409 97.2458 79.5357C96.3094 78.3809 95.3729 78.3088 94.8687 78.3088C93.9322 78.3088 92.7797 79.1027 92.7797 80.8349C92.7797 82.4227 94.0763 83.9383 96.5255 83.9383C102.504 83.9383 104.161 77.2983 105.314 72.1018C106.466 66.8331 106.682 67.0496 109.275 57.3783C110.068 54.4192 110.572 52.7592 110.572 51.2435C110.572 49.1505 109.564 47.1296 107.186 47.1296C104.809 47.1296 103.945 48.6453 103.945 49.8001C103.945 51.3157 105.025 52.3262 105.674 53.6253C106.322 54.9244 106.322 56.2235 106.322 57.8835C106.322 59.6157 106.25 64.9566 104.521 64.9566C103.513 64.9566 103.657 63.5131 103.513 62.2862C103.009 59.3992 102.144 56.9453 100.992 52.6149C100.415 50.4496 100.415 50.0166 100.415 49.7279C100.415 49.2227 101.424 49.2949 101.424 48.5731C101.424 47.274 99.1907 47.9957 97.8941 47.9957H93.6441V47.9236Z" fill="#003DA6"/>
<path fill-rule="evenodd" clip-rule="evenodd" d="M127.645 82.1339C128.221 82.1339 128.798 82.1339 129.374 82.2783C129.878 82.3504 130.454 82.4948 131.103 82.4948C131.463 82.4948 132.183 82.4226 132.183 81.4844C132.183 80.8348 131.607 80.7626 131.175 80.4739C130.526 80.0409 130.238 78.9583 130.166 78.1644C129.95 76.8652 129.878 75.3496 129.518 72.1017C129.086 68.4209 128.726 65.5339 128.365 63.1522C126.781 52.9757 125.916 50.0165 125.484 48.9339C124.98 47.6348 124.476 47.3461 121.45 47.7791C120.946 47.8513 120.37 47.9235 119.865 47.9957C119.505 48.0678 119.073 48.0678 118.713 48.0678C117.848 48.0678 117.128 47.8513 116.264 47.8513C115.183 47.8513 114.823 48.3565 114.823 48.7896C114.823 49.4391 115.255 49.8722 115.687 50.0887C116.552 50.4496 117.416 50.8104 116.696 54.2026C115.903 57.8113 113.887 63.2965 112.734 72.3904C112.59 73.4009 112.518 74.267 112.374 75.2052C112.302 75.7104 112.23 76.2157 112.158 76.6487C112.014 77.8035 111.942 78.3809 111.87 78.8139C111.581 80.5461 110.789 80.113 110.069 80.6183C109.565 80.9791 109.348 82.2783 110.573 82.2783C111.293 82.2783 111.149 82.0617 112.662 82.0617C114.391 82.0617 114.679 82.3504 115.615 82.3504C116.048 82.3504 116.768 82.3504 116.768 81.7009C116.768 80.9791 116.336 80.7626 115.976 80.6904C114.679 80.3296 114.535 79.3913 114.535 78.5252C114.535 75.2052 116.12 66.1835 116.624 63.8017C116.912 62.2139 117.416 59.0383 118.929 59.0383C120.226 59.0383 120.081 60.6261 120.081 61.4922C120.009 63.513 120.442 65.8948 121.162 70.6583C121.954 76.0713 122.315 77.1539 122.315 78.453C122.315 80.4739 121.666 80.4739 121.162 80.7626C120.009 81.4122 120.37 82.6391 121.666 82.6391C122.315 82.6391 122.891 82.4948 123.467 82.4226C123.971 82.3504 124.403 82.2783 124.908 82.2783H127.645V82.1339Z" fill="#003DA6"/>
<path fill-rule="evenodd" clip-rule="evenodd" d="M139.096 47.9235C137.727 47.9235 136.935 47.8513 136.143 47.7791C135.638 47.707 135.278 47.707 134.99 47.707C134.486 47.707 133.91 47.7791 133.91 48.4287C133.91 49.0783 134.342 48.7896 134.558 49.2226C134.774 49.7278 134.702 50.9548 134.702 51.7487V75.4939C134.702 78.8139 134.99 79.68 134.63 80.1852C134.342 80.6183 133.766 80.6183 133.766 81.34C133.766 82.7835 135.206 82.0617 136.575 82.0617H144.787C145.651 82.0617 146.444 81.9896 147.092 82.2783C147.74 82.4948 147.884 82.7835 148.965 82.7835C149.757 82.7835 149.901 82.6391 149.901 81.4844C149.829 79.4635 150.045 78.6696 150.622 76.7931C151.198 74.9165 150.117 74.7722 149.613 74.7722C148.028 74.7722 147.74 76.5044 147.308 77.8757C146.804 79.8244 145.579 80.6183 144.643 80.6183C142.194 80.6183 143.058 77.8035 143.058 75.9991V66.8331C143.058 65.5339 142.626 63.0078 144.931 63.0078C145.867 63.0078 146.516 63.4409 146.948 64.2348C147.452 65.1009 147.596 66.5444 148.965 66.5444C150.117 66.5444 150.405 65.7504 150.405 65.1009C150.405 64.2348 149.469 63.6574 149.037 61.3478C148.749 59.9044 148.244 59.9044 147.596 59.9044C146.3 59.9044 146.588 60.2652 146.3 60.9148C146.083 61.2757 145.795 61.6365 145.003 61.6365C143.058 61.6365 143.13 59.6878 143.13 58.9661V52.687C143.13 51.3878 142.41 49.367 144.355 49.367C145.507 49.367 146.732 50.7383 147.164 52.1818C147.452 53.1922 147.524 54.78 149.109 54.78C150.405 54.78 150.261 53.9139 150.261 53.4809C150.261 52.4704 149.901 51.6044 149.685 50.6661C149.541 50.0165 149.469 49.6557 149.469 48.9339C149.397 47.6348 149.109 47.5626 148.172 47.5626C147.812 47.5626 147.452 47.5626 147.092 47.6348C146.732 47.707 146.444 47.9957 146.083 47.9957H139.096V47.9235Z" fill="#003DA6"/>
<path fill-rule="evenodd" clip-rule="evenodd" d="M156.387 50.7383C153.649 54.9244 153.289 61.1313 153.289 63.8018C153.289 76.5044 158.476 82.567 163.59 82.567C166.975 82.567 169.857 79.3192 169.857 77.3705C169.857 75.7105 168.848 75.3496 168.2 75.3496C166.831 75.3496 166.183 76.5766 166.183 77.5148C166.183 77.9479 166.399 78.3087 166.399 78.8139C166.399 80.0409 165.751 81.1957 164.598 81.1957C161.645 81.1957 162.437 78.2366 162.509 74.9166C162.581 69.287 162.581 56.8731 162.509 52.5427C162.509 51.3879 162.437 51.0992 162.365 50.3774C162.293 50.0166 162.293 49.7279 162.365 49.367C162.437 49.0061 162.87 48.5731 163.518 48.5731C164.598 48.5731 166.039 49.6557 166.903 52.687C167.48 54.5635 167.12 56.1513 168.848 56.1513C169.353 56.1513 170.145 55.6461 170.145 53.6253C170.145 51.8931 169.497 50.3053 169.137 48.7174C168.776 46.9853 169.209 46.6244 167.336 46.6244C166.399 46.6244 166.759 47.7792 165.607 47.7792C164.959 47.7792 164.454 47.4905 163.878 47.274C163.302 47.0574 162.653 46.9131 162.005 46.9131C159.988 46.7687 157.827 48.5731 156.387 50.7383Z" fill="#003DA6"/>
<path fill-rule="evenodd" clip-rule="evenodd" d="M9.58033 82.1339C10.3727 82.1339 11.1651 82.0618 11.9574 82.2061C12.6058 82.2783 13.3261 82.4948 14.0464 82.4948C15.0549 82.4948 15.6312 82.1339 15.6312 81.1957C15.6312 80.1852 14.9829 80.1131 14.5507 79.8965C12.7498 78.8861 13.6142 75.3496 13.6142 69.287V42.8713C13.6142 41.5 13.6142 40.0565 13.5422 38.6852C13.4702 37.9635 13.3981 37.3139 13.3981 36.5922C13.3981 35.5096 13.6142 33.9939 15.4151 33.9939C16.3515 33.9939 18.2244 34.5713 18.7286 38.6131C18.9447 40.2731 19.2329 43.3044 21.7541 43.3044C24.3473 43.3044 23.4108 40.7061 22.9066 38.5409C22.6185 37.3861 22.4024 34.3548 22.3303 32.767C22.2583 31.1791 21.9702 31.2513 21.1057 31.2513C20.6015 31.2513 20.1693 31.1791 19.7371 31.2513C19.0888 31.3957 18.8007 31.7565 17.2159 31.7565H7.49134C3.81761 31.7565 3.67355 31.3957 1.4405 31.3957C0.720157 31.3957 -0.144251 31.54 -0.144251 32.4783C-0.144251 33.3444 0.359986 33.1278 0.792191 33.4165C1.4405 33.8496 1.22439 35.1487 1.22439 35.8704V77.8757C1.22439 79.3913 1.00829 79.5357 0.504056 79.8965C0.143886 80.1852 -0.360352 80.5461 -0.360352 81.2678C-0.360352 83.2165 2.37694 82.1339 4.75406 82.1339H9.58033Z" fill="#003DA6"/>
<path d="M72.251 18.6931C72.251 11.6922 77.9417 5.99048 84.9289 5.99048C91.9162 5.99048 97.6069 11.6922 97.6069 18.6931C97.6069 25.694 91.9162 31.3957 84.9289 31.3957C77.8696 31.3957 72.251 25.694 72.251 18.6931Z" fill="white"/>
<path d="M66.4873 18.6931C66.4873 8.51656 74.6993 0.216553 84.9281 0.216553C95.0849 0.216553 103.369 8.44439 103.369 18.6931C103.369 28.8696 95.1569 37.1696 84.9281 37.1696C74.6993 37.1696 66.4873 28.8696 66.4873 18.6931ZM84.8561 36.0148L87.0891 32.9835L90.1866 35.2209L91.4112 31.6122L95.0129 32.767V28.9418H98.8307L97.6781 25.3331L101.28 24.1061L99.0468 21.0026L102.072 18.7653L99.0468 16.5279L101.28 13.4244L97.6781 12.1974L98.8307 8.58873H95.0129V4.76351L91.4112 5.91829L90.1866 2.3096L87.0891 4.54699L84.8561 1.51568L82.623 4.54699L79.5256 2.3096L78.301 5.91829L74.6993 4.76351V8.58873H70.8814L72.0341 12.1974L68.4322 13.4244L70.6653 16.5279L67.6399 18.7653L70.6653 21.0026L68.4322 24.1061L72.0341 25.3331L70.8814 28.9418H74.6993V32.767L78.301 31.6122L79.5256 35.2209L82.623 32.9835L84.8561 36.0148Z" fill="#E30613"/>
<path d="M82.6224 32.9113L79.525 35.1487L78.3004 31.54L74.6987 32.6948V28.8696H70.8812L72.0334 25.2609L68.432 24.0339L70.6651 20.9304L67.6396 18.693L70.6651 16.4557L68.432 13.3522L72.0334 12.1252L70.8812 8.51652H74.6987V4.69131L78.3004 5.84609L79.525 2.23739L82.6224 4.47479L84.8555 1.44348L87.0885 4.47479L90.186 2.23739L91.4105 5.84609L95.0122 4.69131V8.51652H98.83L97.6775 12.1252L101.279 13.3522L99.0461 16.4557L102.072 18.693L99.0461 20.9304L101.279 24.0339L97.6775 25.2609L98.83 28.8696H95.0122V32.6948L91.4105 31.54L90.186 35.1487L87.0885 32.9113L84.8555 35.9426L82.6224 32.9113ZM84.8555 35.2209L87.0165 32.3339L89.9699 34.427L91.1224 30.9626L94.58 32.0452V28.4365H98.1817L97.1012 24.9722L100.559 23.8174L98.4699 20.8583L101.351 18.693L98.4699 16.5278L100.559 13.5687L97.1012 12.4139L98.1817 8.94957H94.58V5.34087L91.1224 6.42348L89.9699 2.95913L87.0165 5.05218L84.8555 2.16522L82.6944 5.05218L79.7411 2.95913L78.5885 6.42348L75.1309 5.34087V8.94957H71.5295L72.6097 12.4139L69.1524 13.5687L71.2413 16.5278L68.36 18.693L71.2413 20.8583L69.1524 23.8174L72.6097 24.9722L71.5295 28.4365H75.1309V32.0452L78.5885 30.9626L79.7411 34.427L82.6944 32.3339L84.8555 35.2209Z" fill="white"/>
<path d="M82.7664 32.2617L79.813 34.3548L78.6605 30.8904L75.2028 31.973V28.3644H71.6011L72.6816 24.9L69.224 23.7452L71.313 20.7861L68.4316 18.6209L71.313 16.4557L69.224 13.4965L72.6816 12.3417L71.6011 8.87739H75.2028V5.26867L78.6605 6.35128L79.813 2.88693L82.7664 4.97997L84.9274 2.09302L87.0884 4.97997L90.0418 2.88693L91.1944 6.35128L94.652 5.26867V8.87739H98.2537L97.1732 12.3417L100.631 13.4965L98.5418 16.4557L101.423 18.6209L98.5418 20.7861L100.631 23.7452L97.1732 24.9L98.2537 28.3644H94.652V31.973L91.1944 30.8904L90.0418 34.3548L87.0884 32.2617L84.9274 35.1487L82.7664 32.2617ZM71.6732 18.693C71.6732 25.9826 77.5799 31.973 84.9274 31.973C92.2028 31.973 98.1816 26.0548 98.1816 18.693C98.1816 11.4035 92.2749 5.41302 84.9274 5.41302C77.5799 5.41302 71.6732 11.4035 71.6732 18.693Z" fill="#FFEB00"/>
<path d="M71.6738 18.6931C71.6738 11.4035 77.5806 5.41309 84.9281 5.41309C92.2755 5.41309 98.1823 11.3313 98.1823 18.6931C98.1823 25.9827 92.2755 31.9731 84.9281 31.9731C77.5806 31.9731 71.6738 25.9827 71.6738 18.6931ZM72.2501 18.6931C72.2501 25.694 77.9408 31.3957 84.9281 31.3957C91.9153 31.3957 97.606 25.694 97.606 18.6931C97.606 11.6922 91.9153 5.99048 84.9281 5.99048C77.8687 5.99048 72.2501 11.6922 72.2501 18.6931Z" fill="white"/>
<path d="M96.7101 17.8794C96.7843 18.3224 96.7843 18.7652 96.7843 19.2081C96.7843 24.0061 93.7553 28.1396 89.3965 29.6898C93.3115 27.0324 96.0452 22.7512 96.7101 17.8794ZM73.3639 18.2485C73.3639 13.4506 76.3929 9.31702 80.7524 7.76694C76.9102 10.4981 74.1765 14.7054 73.5116 19.651C73.3639 19.1343 73.3639 18.6914 73.3639 18.2485ZM72.0342 18.7652C72.0342 25.9252 77.8711 31.7565 85.037 31.7565C92.2037 31.7565 98.0406 25.9252 98.0406 18.7652C97.9664 11.6052 92.2037 5.77393 85.037 5.77393C77.8711 5.77393 72.0342 11.6052 72.0342 18.7652Z" fill="url(#paint0_radial)"/>
<path d="M123.754 11.8366C124.691 11.8366 125.483 11.1149 125.483 10.1766C125.483 9.23834 124.691 8.5166 123.754 8.5166C122.746 8.5166 122.025 9.23834 122.025 10.1766C122.025 11.0427 122.746 11.8366 123.754 11.8366ZM123.754 8.73312C124.547 8.73312 125.195 9.38269 125.195 10.1766C125.195 10.9705 124.547 11.6201 123.754 11.6201C122.962 11.6201 122.314 10.9705 122.314 10.1766C122.314 9.38269 122.962 8.73312 123.754 8.73312Z" fill="#E30613"/>
<path d="M122.962 10.8983H122.89C122.818 10.8983 122.818 10.9705 122.89 10.9705C123.034 10.9705 123.178 10.9705 123.25 10.9705C123.394 10.9705 123.538 10.9705 123.61 10.9705C123.682 10.9705 123.682 10.8983 123.61 10.8983H123.538C123.394 10.8261 123.394 10.754 123.394 10.4653V10.3209C123.394 10.2487 123.394 10.2487 123.466 10.2487H123.538C123.61 10.2487 123.682 10.2487 123.682 10.3209C123.754 10.3931 123.826 10.6096 123.97 10.6818C124.043 10.8261 124.115 10.8983 124.187 10.8983C124.259 10.9705 124.331 10.9705 124.475 10.9705C124.547 10.9705 124.619 10.9705 124.691 10.9705C124.691 10.9705 124.691 10.9705 124.691 10.8983C124.619 10.8983 124.547 10.8261 124.475 10.754C124.331 10.6096 124.115 10.3931 124.043 10.1766C124.043 10.1044 124.043 10.1044 124.043 10.1044C124.187 10.0322 124.403 9.88788 124.403 9.67136C124.403 9.31049 124.115 9.16614 123.682 9.16614C123.394 9.16614 123.106 9.16614 122.962 9.16614C122.89 9.16614 122.89 9.23831 122.962 9.23831H123.034C123.178 9.31049 123.178 9.38266 123.178 9.67136V10.3931C123.106 10.8261 123.106 10.8983 122.962 10.8983ZM123.466 9.59918C123.466 9.52701 123.466 9.45483 123.466 9.45483C123.466 9.38266 123.538 9.38266 123.61 9.38266C123.826 9.38266 124.043 9.52701 124.043 9.74353C124.043 9.88788 123.97 10.0322 123.898 10.1044C123.826 10.1044 123.754 10.1044 123.682 10.1044C123.61 10.1044 123.61 10.1044 123.538 10.1044C123.466 10.1044 123.466 10.1044 123.466 10.0322V9.59918Z" fill="#E30613"/>
<path d="M125.482 13.1357H44.2285V24.1784H125.482V13.1357Z" fill="#E30613"/>
<path d="M107.547 22.2297C107.547 22.1575 107.547 22.1575 107.475 22.1575C107.403 22.0853 107.403 22.0853 107.331 22.0853H107.259H107.187C107.115 22.0853 106.971 22.0853 106.971 21.941C106.971 21.941 106.971 21.7244 106.971 21.6523C106.899 21.0027 106.827 20.5697 106.755 19.5592C106.611 18.621 106.467 17.6105 106.323 16.6723C106.179 15.9505 106.179 15.3731 106.107 15.2288C106.107 15.1566 106.035 15.1566 105.963 15.1566H104.234C104.09 15.1566 104.018 15.2288 104.018 15.3731C104.018 15.5897 104.234 15.734 104.306 15.734C104.378 15.8062 104.45 15.8784 104.45 15.9505C104.45 16.0227 104.378 16.1671 104.378 16.2392C104.306 16.3836 104.306 16.5279 104.234 16.7444C104.018 17.394 103.874 18.0436 103.729 18.621C103.513 19.6314 103.369 20.281 103.297 21.2192C103.297 21.3636 103.225 21.6523 103.153 21.7966C103.153 21.7966 103.153 21.8688 103.081 21.8688C103.081 21.941 103.009 21.941 103.009 21.941H102.937H102.721C102.577 21.941 102.505 22.0853 102.505 22.2297C102.505 22.3018 102.577 22.5905 102.649 22.9514C102.649 23.0957 102.721 23.2401 102.721 23.3123C102.793 23.3844 102.865 23.3844 102.937 23.3844C103.153 23.3844 103.225 23.2401 103.225 23.0236V22.7349C103.225 22.6627 103.225 22.5184 103.225 22.5184C103.225 22.4462 103.297 22.374 103.369 22.374H103.729H104.882C104.954 22.374 104.954 22.374 105.026 22.374H106.683C106.755 22.374 106.899 22.4462 106.899 22.5905C106.899 22.5905 106.899 22.8071 106.827 22.8792C106.827 22.9514 106.827 23.0236 106.827 23.0236C106.827 23.1679 106.827 23.2401 106.899 23.3123C106.971 23.3844 107.043 23.4566 107.115 23.4566C107.259 23.4566 107.331 23.3844 107.403 23.1679C107.475 23.0236 107.475 22.8792 107.547 22.8071C107.619 22.6627 107.619 22.5905 107.691 22.4462C107.691 22.374 107.763 22.3018 107.763 22.3018C107.547 22.3018 107.547 22.3018 107.547 22.2297C107.547 22.3018 107.547 22.2297 107.547 22.2297ZM105.026 22.0131C104.954 22.0853 104.738 22.0853 104.45 22.0853C104.09 22.0853 103.874 22.0853 103.729 22.0131C103.657 21.941 103.585 21.7966 103.585 21.5079C103.585 21.147 103.657 20.714 103.729 20.2088C103.802 19.8479 103.874 19.3427 104.018 18.7653C104.162 18.3323 104.234 17.9714 104.306 17.8271C104.378 17.6827 104.522 17.6105 104.594 17.6105C104.666 17.6105 104.738 17.6827 104.738 17.7549C104.738 17.8271 104.738 17.9714 104.738 18.0436V18.4044C104.738 18.621 104.738 19.054 104.81 19.5592C104.882 20.0644 104.954 20.5697 104.954 21.0027C104.954 21.2192 105.026 21.4357 105.026 21.5079C105.17 21.7966 105.098 21.941 105.026 22.0131Z" fill="white"/>
<path d="M51.9375 22.1575C51.9375 21.7966 52.1536 21.5801 52.4417 21.5801C52.5858 21.5801 52.6578 21.6522 52.8019 21.7244L52.8739 21.7966L52.9459 21.8688L53.018 21.9409C53.09 22.0131 53.162 22.0853 53.3061 22.0853C53.4502 22.0853 53.5222 22.0131 53.5222 21.7966C53.5222 21.7244 53.5222 21.6522 53.4502 21.5079C53.4502 21.4357 53.3781 21.2914 53.3061 21.147C53.09 20.4975 51.7214 15.8783 51.7214 15.8783C51.6493 15.5896 51.5773 15.5896 51.4332 15.5175C51.3612 15.5175 51.2171 15.4453 51.2892 15.3009C51.2892 15.2288 51.3612 15.1566 51.4332 15.1566H51.5053H53.4502C53.5222 15.1566 53.5942 15.2288 53.5942 15.3009C53.5942 15.4453 53.5222 15.5175 53.4502 15.5175C53.3781 15.5175 53.3781 15.5896 53.3781 15.6618L53.4502 15.8061C53.4502 15.8061 53.4502 15.8783 53.5222 15.9505C53.5222 16.0227 53.5942 16.0948 53.5942 16.2392C53.5942 16.3114 53.5942 16.3835 53.6663 16.3835L54.1705 18.2601C54.1705 18.2601 54.2426 18.4766 54.2426 18.5488C54.2426 18.6209 54.3146 18.6209 54.4587 18.6209C54.6027 18.6209 54.6027 18.4766 54.6748 18.2601C54.6748 18.2601 55.179 16.8888 55.107 16.5279C55.107 16.167 54.9629 16.0227 54.7468 15.9505C54.6027 15.8783 54.3866 15.6618 54.3866 15.4453C54.3866 15.3009 54.4587 15.1566 54.5307 15.0844C54.6748 14.9401 54.8909 14.9401 54.9629 14.9401C55.179 14.9401 55.3231 15.0122 55.4671 15.1566C55.4671 15.1566 55.4671 15.1566 55.4671 15.2288C55.6112 15.3731 55.6832 15.5896 55.6832 15.8061C55.6832 15.9505 55.6112 16.167 55.5392 16.4557C55.4671 16.7444 55.3951 16.9609 55.3951 17.1053C55.179 17.827 55.0349 18.3322 54.9629 18.6931C54.7468 19.3427 54.6027 19.8479 54.5307 20.2088C54.3866 20.7862 54.2426 21.2192 54.1705 21.4357C53.8104 22.2296 53.3061 22.6627 52.6578 22.6627C52.3697 22.6627 52.2256 22.5905 52.0815 22.4462C52.0095 22.5183 51.9375 22.3018 51.9375 22.1575Z" fill="white"/>
<path d="M108.196 22.1574C108.196 21.7965 108.412 21.58 108.7 21.58C108.844 21.58 108.916 21.6521 109.06 21.7243L109.132 21.7965L109.204 21.8687L109.276 21.9408C109.348 22.013 109.42 22.0852 109.565 22.0852C109.709 22.0852 109.781 22.013 109.781 21.7965C109.781 21.7243 109.781 21.6521 109.709 21.5078C109.709 21.4356 109.637 21.2913 109.565 21.1469C109.348 20.4974 107.98 15.8782 107.98 15.8782C107.908 15.5895 107.836 15.5895 107.692 15.5174C107.62 15.5174 107.476 15.4452 107.476 15.3008C107.476 15.2287 107.548 15.1565 107.62 15.1565H107.692H109.637C109.709 15.1565 109.781 15.2287 109.781 15.3008C109.781 15.4452 109.709 15.5174 109.637 15.5174C109.565 15.5174 109.565 15.5895 109.565 15.6617V15.8061C109.565 15.8061 109.565 15.8782 109.637 15.9504C109.637 16.0226 109.709 16.0948 109.709 16.2391C109.709 16.3113 109.709 16.3835 109.781 16.3835L110.285 18.26C110.285 18.26 110.357 18.4765 110.357 18.5487C110.357 18.6208 110.429 18.6208 110.573 18.6208C110.717 18.6208 110.789 18.4765 110.861 18.26C110.861 18.26 111.293 16.8887 111.293 16.4556C111.293 16.0948 111.149 15.9504 110.933 15.8782C110.789 15.8061 110.573 15.5895 110.573 15.373C110.573 15.2287 110.645 15.0843 110.717 15.0121C110.861 14.8678 111.077 14.8678 111.149 14.8678C111.365 14.8678 111.509 14.94 111.654 15.0843C111.654 15.0843 111.654 15.0843 111.654 15.1565C111.798 15.3008 111.87 15.5174 111.87 15.7339C111.87 15.8782 111.798 16.0948 111.726 16.3835C111.654 16.6721 111.582 16.8887 111.582 17.033C111.365 17.7548 111.221 18.26 111.149 18.6208C110.933 19.2704 110.789 19.7756 110.717 20.1365C110.573 20.7139 110.429 21.1469 110.357 21.3634C109.997 22.1574 109.493 22.5904 108.844 22.5904C108.556 22.5904 108.412 22.5182 108.268 22.3739C108.268 22.5182 108.196 22.3017 108.196 22.1574Z" fill="white"/>
<path d="M79.381 14.7957C79.453 14.7957 79.525 14.7957 79.6691 14.8679C79.7411 14.8679 79.8852 14.8679 79.9572 14.8679C80.0293 14.8679 80.0293 14.8679 80.1013 14.8679C80.1733 14.8679 80.1733 14.8679 80.2454 14.8679C80.3174 14.8679 80.3894 14.8679 80.5335 14.8679C80.6055 14.8679 80.7496 14.8679 80.8216 14.7957C81.1818 14.7235 81.3979 14.6514 81.542 14.507C81.614 14.4348 81.686 14.2905 81.686 14.2183C81.686 14.074 81.614 14.0018 81.542 13.9296C81.3979 13.7853 81.2538 13.7853 80.9657 13.7853C80.7496 13.7853 80.6055 13.8575 80.5335 13.9296C80.4615 14.0018 80.3894 14.074 80.3894 14.2183C80.3894 14.2905 80.4615 14.3627 80.5335 14.3627C80.6055 14.3627 80.6776 14.4348 80.6776 14.4348C80.6776 14.507 80.5335 14.5792 80.2454 14.5792C79.9572 14.5792 79.8132 14.507 79.8132 14.4348C79.8132 14.3627 79.8852 14.3627 79.9572 14.3627C80.0293 14.3627 80.1013 14.2905 80.1013 14.2183C80.1013 14.1461 80.0293 14.0018 79.9572 13.9296C79.8852 13.8575 79.6691 13.7853 79.525 13.7853C79.3089 13.7853 79.0928 13.8575 78.9488 13.9296C78.8767 14.0018 78.8047 14.1461 78.8047 14.2183C78.8047 14.3627 78.8767 14.4348 78.9488 14.507C78.8047 14.5792 79.0208 14.7235 79.381 14.7957Z" fill="white"/>
<path d="M118.064 22.3017C118.064 22.3739 117.992 22.4461 117.92 22.4461H115.903C115.831 22.4461 115.759 22.3739 115.759 22.3017C115.759 22.1574 115.903 22.0852 115.903 22.0852C116.047 22.013 116.047 22.013 116.047 21.9409V21.7244C116.047 21.2913 116.047 20.7139 115.975 19.9922C115.903 19.1983 115.831 18.9096 115.759 18.5487C115.759 18.4044 115.542 18.1157 115.11 18.1157C114.966 18.1157 114.822 18.1878 114.822 18.3322C114.822 18.4044 114.822 18.4044 114.822 18.4765C114.822 18.5487 114.822 18.5487 114.822 18.5487C114.822 18.5487 114.822 18.6209 114.822 18.693C114.822 18.7652 114.822 18.8374 114.822 18.9096V21.8687C114.822 21.9409 114.822 22.013 114.966 22.013C115.038 22.013 115.182 22.0852 115.11 22.2296C115.11 22.3017 115.038 22.3739 114.966 22.3739H114.822H113.093C113.021 22.3739 112.949 22.3017 112.949 22.2296C112.949 22.0852 113.093 22.013 113.165 22.013C113.309 21.9409 113.309 21.9409 113.309 21.8687V15.6617C113.309 15.5896 113.309 15.5174 113.165 15.5174C113.093 15.5174 112.949 15.4452 112.949 15.3009C112.949 15.2287 113.021 15.1565 113.093 15.1565H115.11C115.182 15.1565 115.254 15.2287 115.254 15.3009C115.254 15.4452 115.11 15.5174 115.11 15.5174C115.038 15.5896 114.966 15.5896 114.966 15.6617V17.2496C114.966 17.5383 115.11 17.6104 115.182 17.6104C115.254 17.6104 115.254 17.6104 115.326 17.5383C115.398 17.5383 115.398 17.4661 115.47 17.4661C115.687 17.3217 115.831 17.1774 115.975 16.9609C116.047 16.8165 116.407 15.8061 116.479 15.5896C116.695 15.1565 116.983 15.0844 117.343 15.0844C117.487 15.0844 117.631 15.1565 117.775 15.2287C117.92 15.3009 117.992 15.4452 117.992 15.6617C117.992 15.8061 117.848 16.167 117.487 16.167C117.271 16.167 117.199 16.0948 117.127 16.0948C117.055 16.0948 116.839 16.0948 116.767 16.2391C116.695 16.3835 116.623 16.5278 116.551 16.6722C116.479 16.8887 116.407 16.9609 116.551 17.1774C116.695 17.4661 117.199 17.7548 117.415 18.3322C117.631 18.9096 117.703 19.5591 117.703 20.353C117.703 20.5696 117.775 21.7965 117.775 21.7965C117.775 21.8687 117.848 21.8687 117.92 21.9409C117.92 22.1574 118.064 22.1574 118.064 22.3017Z" fill="white"/>
<path d="M76.2121 22.0853C76.1401 22.0131 76.068 22.0131 76.068 21.9409V16.2392V15.734C76.068 15.6618 76.1401 15.5896 76.2121 15.5896C76.2841 15.5896 76.4282 15.5175 76.3562 15.3731C76.3562 15.3009 76.2841 15.2288 76.2121 15.2288H76.068H74.3392H74.1951C74.1231 15.2288 74.0511 15.3009 74.0511 15.3731C74.0511 15.5175 74.1951 15.5896 74.2672 15.5896C74.3392 15.6618 74.4112 15.6618 74.4112 15.734V16.2392V16.3114C74.4112 16.3835 74.4112 16.4557 74.4112 16.4557L73.6189 18.3322C73.6189 18.3322 73.6189 18.4044 73.5468 18.4044C73.5468 18.4044 73.4748 18.4766 73.4748 18.4044V15.8062C73.4748 15.734 73.4748 15.6618 73.6189 15.6618C73.6909 15.6618 73.835 15.5896 73.7629 15.4453C73.7629 15.3731 73.6909 15.3009 73.6189 15.3009H73.4748H71.7461H71.6021C71.53 15.3009 71.458 15.3731 71.458 15.4453C71.458 15.5896 71.6021 15.6618 71.6741 15.6618C71.7461 15.734 71.8182 15.734 71.8182 15.8062V15.8783V22.0853C71.8182 22.0853 71.8182 22.1575 71.6741 22.2296C71.6021 22.2296 71.458 22.3018 71.458 22.4461C71.458 22.5183 71.53 22.5905 71.6021 22.5905H73.6189C73.6909 22.5905 73.7629 22.5183 73.7629 22.4461C73.7629 22.3018 73.6189 22.2296 73.6189 22.2296C73.5468 22.1575 73.4748 22.1575 73.4748 22.0853V20.4253C73.4748 20.4253 73.4748 20.3531 73.4748 20.2809C73.4748 20.2088 73.7629 19.6314 73.979 19.054C74.0511 18.9096 74.0511 18.7653 74.1231 18.6931C74.1231 18.6931 74.1951 18.5488 74.1951 18.4044C74.1951 18.3322 74.2672 18.2601 74.2672 18.1879L74.3392 18.1157H74.4112C74.4833 18.1157 74.5553 18.1879 74.5553 18.2601C74.5553 18.2601 74.5553 18.3322 74.5553 18.4044C74.5553 18.4766 74.5553 18.4766 74.5553 18.5488C74.5553 18.6931 74.4833 18.8375 74.4833 19.1261C74.4833 19.4148 74.4833 19.6314 74.4833 19.7757V22.1575V22.2296C74.4833 22.2296 74.4112 22.3018 74.3392 22.3018C74.2672 22.3018 74.1231 22.374 74.1231 22.5183C74.1231 22.5905 74.1951 22.6627 74.2672 22.6627H76.2841C76.3562 22.6627 76.4282 22.5905 76.4282 22.5183C76.4282 22.1575 76.2841 22.0853 76.2121 22.0853Z" fill="white"/>
<path d="M82.4062 22.0853C82.3342 22.0131 82.2621 22.0131 82.2621 21.9409V16.2392V15.734C82.2621 15.6618 82.3342 15.5896 82.4062 15.5896C82.4783 15.5896 82.6223 15.5175 82.6223 15.3731C82.6223 15.3009 82.5503 15.2288 82.4782 15.2288H82.3342H80.6054H80.4613C80.3893 15.2288 80.3172 15.3009 80.3172 15.3731C80.3172 15.5175 80.4613 15.5896 80.4613 15.5896C80.5333 15.6618 80.6054 15.6618 80.6054 15.734V16.2392V16.3114C80.6054 16.3835 80.6054 16.4557 80.6054 16.4557L79.813 18.3322C79.813 18.3322 79.813 18.4044 79.741 18.4044C79.741 18.4044 79.6689 18.4766 79.6689 18.4044V15.8062C79.6689 15.734 79.6689 15.6618 79.813 15.6618C79.885 15.6618 80.0291 15.5896 79.9571 15.4453C79.9571 15.3731 79.885 15.3009 79.813 15.3009H79.6689H77.796H77.652C77.58 15.3009 77.5079 15.3731 77.5079 15.4453C77.5079 15.5896 77.652 15.6618 77.652 15.6618C77.724 15.734 77.796 15.734 77.796 15.8062C77.796 15.8062 77.796 15.8062 77.796 15.8783V22.0853C77.796 22.0853 77.724 22.1575 77.652 22.2296C77.58 22.2296 77.4359 22.3018 77.5079 22.4461C77.5079 22.5183 77.58 22.5905 77.652 22.5905H79.6689C79.741 22.5905 79.813 22.5183 79.813 22.4461C79.813 22.3018 79.6689 22.2296 79.5969 22.2296C79.5249 22.1575 79.4528 22.1575 79.4528 22.0853V20.4253C79.4528 20.4253 79.4528 20.3531 79.4528 20.2809C79.4528 20.2088 79.741 19.6314 79.9571 19.054C80.0291 18.9096 80.0291 18.7653 80.1011 18.6931C80.1011 18.6931 80.1732 18.5488 80.1732 18.4044C80.1732 18.3322 80.2452 18.2601 80.2452 18.1879L80.3172 18.1157H80.3893C80.4613 18.1157 80.5333 18.1879 80.5333 18.2601C80.5333 18.2601 80.5333 18.3322 80.5333 18.4044C80.5333 18.4766 80.5333 18.4766 80.5333 18.5488C80.5333 18.6931 80.4613 18.8375 80.4613 19.1261C80.4613 19.4148 80.4613 19.6314 80.4613 19.7757V22.1575V22.2296C80.4613 22.2296 80.3893 22.3018 80.3172 22.3018C80.2452 22.3018 80.1011 22.374 80.1732 22.5183C80.1732 22.5905 80.2452 22.6627 80.3172 22.6627H82.3342C82.4062 22.6627 82.4782 22.5905 82.4782 22.5183C82.5503 22.1575 82.4062 22.0853 82.4062 22.0853Z" fill="white"/>
<path d="M58.2755 21.4357C58.2755 22.3017 59.2839 22.0852 59.356 21.7244C59.356 21.6522 59.356 21.58 59.356 21.5078C59.356 21.5078 59.2839 21.3635 59.2839 21.2913C59.2839 21.0748 59.428 20.9304 59.7161 20.9304H59.7882C59.9322 21.0026 60.0763 21.0748 60.0763 21.2913C60.0763 21.3635 60.0763 21.7244 59.6441 22.0852C59.356 22.3017 59.0678 22.4461 58.7077 22.4461C58.1314 22.4461 57.6272 22.1574 57.1949 21.5078C56.6907 20.7861 56.4746 19.92 56.4746 18.693C56.4746 18.26 56.4746 17.827 56.5466 17.4661C56.6907 16.8887 56.8348 16.3835 57.1229 16.0226C57.267 15.8061 57.4831 15.5896 57.6992 15.4452C57.9153 15.3009 58.1314 15.2287 58.3475 15.2287C58.4916 15.2287 58.6356 15.2287 58.7077 15.3009C58.8517 15.373 58.9238 15.373 58.9238 15.373C58.9958 15.373 58.9958 15.373 59.0678 15.373C59.1399 15.373 59.2119 15.3009 59.2839 15.2287C59.356 15.1565 59.356 15.0844 59.5721 15.0844C59.7161 15.0844 59.7882 15.1565 59.7882 15.3009C59.7882 15.373 59.8602 15.5174 59.8602 15.5896C59.9322 15.8061 60.0043 15.9504 60.0043 16.0948C60.0763 16.3113 60.0763 16.4557 60.0763 16.6C60.0763 16.8165 60.0763 16.9609 60.0043 17.033C59.9322 17.1052 59.8602 17.1774 59.7882 17.1774C59.7161 17.1774 59.6441 17.1774 59.6441 17.1052C59.5721 17.1052 59.5721 17.033 59.5721 16.9609C59.5 16.8165 59.428 16.4557 59.2839 16.0226C59.2119 15.8061 58.9958 15.6617 58.7797 15.6617C58.6356 15.6617 58.4195 15.7339 58.4195 16.2391V21.4357H58.2755Z" fill="white"/>
<path d="M62.5975 21.4357C62.5975 22.3017 63.606 22.0852 63.606 21.7244C63.606 21.6522 63.606 21.58 63.606 21.5078C63.606 21.5078 63.5339 21.3635 63.5339 21.2913C63.5339 21.0748 63.678 20.9304 63.9661 20.9304H64.0382C64.1822 21.0026 64.3263 21.0748 64.3263 21.2913C64.3263 21.3635 64.3263 21.7244 63.8941 22.0852C63.606 22.3017 63.3178 22.4461 62.9577 22.4461C62.3814 22.4461 61.8772 22.1574 61.445 21.5078C60.9407 20.7861 60.7246 19.92 60.7246 18.693C60.7246 18.26 60.7246 17.827 60.7966 17.4661C60.9407 16.8887 61.0848 16.3835 61.3729 16.0226C61.517 15.8061 61.7331 15.5896 61.9492 15.4452C62.1653 15.3009 62.3814 15.2287 62.5975 15.2287C62.7416 15.2287 62.8856 15.2287 62.9577 15.3009C63.1017 15.373 63.1738 15.373 63.1738 15.373C63.2458 15.373 63.2458 15.373 63.3178 15.373C63.3899 15.373 63.4619 15.3009 63.5339 15.2287C63.606 15.1565 63.606 15.0844 63.8221 15.0844C63.9661 15.0844 64.0382 15.1565 64.0382 15.3009C64.0382 15.373 64.1102 15.5174 64.1102 15.5896C64.1822 15.8061 64.1822 15.9504 64.2543 16.0948C64.3263 16.3113 64.3263 16.4557 64.3263 16.6C64.3263 16.8165 64.3263 16.9609 64.2543 17.033C64.1822 17.1052 64.1102 17.1774 64.0382 17.1774C63.9661 17.1774 63.8941 17.1774 63.8941 17.1052C63.8221 17.1052 63.8221 17.033 63.8221 16.9609C63.75 16.8165 63.678 16.4557 63.5339 16.0226C63.4619 15.8061 63.2458 15.6617 63.0297 15.6617C62.8856 15.6617 62.6695 15.7339 62.6695 16.2391V21.4357H62.5975Z" fill="white"/>
<path d="M102.072 17.394C101.928 16.7444 101.712 16.2392 101.352 15.8062C101.136 15.5897 100.92 15.4453 100.631 15.301H100.559C100.487 15.301 100.487 15.301 100.415 15.2288C100.199 15.1566 99.9831 15.1566 99.767 15.1566C99.5509 15.1566 99.3348 15.1566 99.1907 15.2288C98.7585 15.3731 98.3984 15.6618 98.1102 16.0949C97.678 16.7444 97.4619 17.5384 97.4619 18.621C97.4619 19.6314 97.606 20.4975 97.9662 21.147C98.2543 21.6523 98.5424 22.0131 98.9746 22.2297C99.2628 22.374 99.6229 22.4462 99.9111 22.4462C100.271 22.4462 100.631 22.3018 100.992 22.0853C101.424 21.7966 101.712 21.2914 101.928 20.714C102.072 20.2088 102.144 19.5592 102.144 18.7653C102.216 18.2601 102.216 17.7549 102.072 17.394ZM100.487 21.7244C100.487 21.7966 100.415 21.941 100.343 22.0131C100.271 22.0853 100.127 22.1575 99.9831 22.1575C99.767 22.1575 99.6229 22.0853 99.5509 21.941C99.4789 21.7966 99.4068 21.5801 99.4068 21.2192V18.7653V16.961C99.4068 16.7444 99.4068 16.5279 99.4068 16.4557C99.4068 16.3836 99.4068 16.3114 99.4068 16.3114C99.4068 16.2392 99.3348 16.1671 99.3348 16.0949C99.3348 16.0227 99.4068 15.8784 99.4789 15.8062C99.5509 15.734 99.695 15.6618 99.839 15.6618C100.055 15.6618 100.199 15.734 100.271 15.8784C100.343 16.0227 100.415 16.2392 100.415 16.6001V18.7653V20.7862C100.415 21.0027 100.415 21.2192 100.415 21.2914C100.415 21.3636 100.415 21.4357 100.415 21.4357C100.415 21.5079 100.415 21.5801 100.487 21.7244Z" fill="white"/>
<path d="M96.6691 16.4557C96.453 16.0227 96.2369 15.6618 95.7327 15.4453C95.4445 15.3009 95.3005 15.2288 94.8683 15.2288H92.4191H92.275C92.203 15.2288 92.131 15.3009 92.131 15.3731C92.131 15.5175 92.275 15.5896 92.275 15.5896C92.4191 15.6618 92.4191 15.6618 92.4191 15.734V21.9409C92.4191 22.0131 92.3471 22.0853 92.275 22.0853C92.203 22.0853 92.0589 22.1575 92.131 22.3018C92.131 22.374 92.203 22.4462 92.275 22.4462H94.292C94.364 22.4462 94.4361 22.374 94.4361 22.3018C94.4361 22.1575 94.292 22.0853 94.292 22.0853C94.2199 22.0131 94.1479 22.0131 94.1479 21.9409V20.4975C94.1479 20.2088 94.436 19.9201 94.7242 19.9201C95.0123 19.9201 95.3005 19.9201 95.3725 19.9201C95.5166 19.9201 95.6606 19.8479 95.8047 19.8479C96.0928 19.7035 96.381 19.487 96.5971 19.1262C96.8852 18.6931 96.9572 18.1879 96.9572 17.5383C96.8852 17.1775 96.8132 16.7444 96.6691 16.4557ZM95.0844 18.6931C95.0844 19.2705 94.7242 19.5592 94.2199 19.5592C94.1479 19.5592 94.1479 19.487 94.1479 19.487V18.4766V15.6618C94.1479 15.5896 94.2199 15.5896 94.2199 15.5896C94.7242 15.5896 95.0844 15.8062 95.0844 16.3114V16.6001V18.6931Z" fill="white"/>
<path d="M50.8566 16.4557C50.6405 16.0227 50.4244 15.6618 49.9202 15.4453C49.632 15.3009 49.488 15.2288 49.0557 15.2288H46.6066H46.4625C46.3905 15.2288 46.3185 15.3009 46.3185 15.3731C46.3185 15.5175 46.4625 15.5896 46.4625 15.5896C46.6066 15.6618 46.6066 15.6618 46.6066 15.734V21.9409C46.6066 22.0131 46.5346 22.0853 46.4625 22.0853C46.3905 22.0853 46.2464 22.1575 46.3185 22.3018C46.3185 22.374 46.3905 22.4462 46.4625 22.4462H48.4795C48.5515 22.4462 48.6235 22.374 48.6235 22.3018C48.6235 22.1575 48.4795 22.0853 48.4795 22.0853C48.4074 22.0131 48.3354 22.0131 48.3354 21.9409V20.4975C48.3354 20.2088 48.6235 19.9201 48.9117 19.9201C49.1998 19.9201 49.488 19.9201 49.56 19.9201C49.7041 19.9201 49.8481 19.8479 49.9922 19.8479C50.2803 19.7035 50.5685 19.487 50.7846 19.1262C51.0727 18.6931 51.1447 18.1879 51.1447 17.5383C51.0727 17.1775 51.0007 16.7444 50.8566 16.4557ZM49.1998 18.6931C49.1998 19.2705 48.8396 19.5592 48.3354 19.5592C48.2634 19.5592 48.2634 19.487 48.2634 19.487V18.4766V15.6618C48.2634 15.5896 48.3354 15.5896 48.3354 15.5896C48.8396 15.5896 49.1998 15.8062 49.1998 16.3114V16.6001V18.6931Z" fill="white"/>
<path d="M90.9078 22.0853C90.8357 22.0131 90.7637 22.0131 90.7637 21.941V15.6618C90.7637 15.5897 90.8357 15.5897 90.9078 15.5175C90.9798 15.5175 91.1239 15.4453 91.0519 15.301C91.0519 15.2288 90.9798 15.1566 90.9078 15.1566H90.7637H90.0434H87.5222H86.5137H86.3697C86.2976 15.1566 86.2256 15.2288 86.2256 15.301C86.2256 15.4453 86.3697 15.5175 86.4417 15.5175C86.5137 15.5897 86.5858 15.5897 86.5858 15.6618V19.9201V21.941C86.5858 22.0131 86.5137 22.0853 86.4417 22.0853C86.3697 22.0853 86.2256 22.1575 86.2976 22.3018C86.2976 22.374 86.3697 22.4462 86.4417 22.4462H86.5858H88.2425H88.3866C88.4586 22.4462 88.5307 22.374 88.5307 22.3018C88.5307 22.1575 88.3866 22.0853 88.3866 22.0853C88.3146 22.0131 88.2425 22.0131 88.2425 21.941V16.3836V15.8784C88.2425 15.734 88.3866 15.5897 88.5307 15.5897H88.8908C89.0349 15.5897 89.179 15.734 89.179 15.8784V16.3836V18.1157V21.941C89.179 22.0131 89.1069 22.0853 89.0349 22.0853C88.9629 22.0853 88.8188 22.1575 88.8908 22.3018C88.8908 22.374 88.9629 22.4462 89.0349 22.4462H89.179H90.8357H90.9798C91.0519 22.4462 91.1239 22.374 91.1239 22.3018C91.0519 22.1575 90.9078 22.0853 90.9078 22.0853Z" fill="white"/>
<path d="M123.537 16.0949C123.537 16.0227 123.465 15.5897 123.393 15.3731C123.393 15.2288 123.249 15.1566 123.177 15.1566H122.457H122.097H121.016H119.936H119.576H118.855C118.711 15.1566 118.639 15.2288 118.639 15.3731C118.567 15.5897 118.495 16.0227 118.495 16.0949C118.495 16.0949 118.495 16.0949 118.495 16.1671C118.495 16.3836 118.711 16.5279 118.927 16.5279C119.071 16.5279 119.215 16.4557 119.287 16.3114C119.36 16.0949 119.287 15.9505 119.36 15.734C119.432 15.6618 119.504 15.5897 119.648 15.5897H120.008C120.152 15.5897 120.296 15.734 120.296 15.8784C120.296 16.0949 120.224 16.3114 120.224 16.7444V21.941C120.224 22.0131 120.152 22.0853 120.08 22.0853C120.008 22.0853 119.864 22.1575 119.864 22.3018C119.864 22.374 119.936 22.4462 120.008 22.4462H121.016H122.025C122.097 22.4462 122.169 22.374 122.169 22.3018C122.169 22.1575 122.025 22.0853 122.025 22.0853C121.953 22.0131 121.881 22.0131 121.881 21.941V16.7444C121.881 16.3114 121.809 16.0949 121.809 15.8784C121.809 15.734 121.953 15.5897 122.097 15.5897H122.457C122.601 15.5897 122.673 15.6618 122.745 15.734C122.889 15.9505 122.745 16.0949 122.817 16.3114C122.889 16.4557 123.033 16.5279 123.177 16.5279C123.321 16.5279 123.537 16.3836 123.537 16.0949C123.537 16.1671 123.537 16.1671 123.537 16.0949Z" fill="white"/>
<path d="M70.3771 22.3018C70.3771 22.3739 70.3051 22.4461 70.233 22.4461H68.2161C68.144 22.4461 68.072 22.3739 68.072 22.3018C68.072 22.1574 68.2161 22.0852 68.2881 22.0852C68.4322 22.0131 68.4322 22.0131 68.4322 21.9409V21.6522C68.4322 21.2192 68.4322 20.6418 68.3601 19.92C68.2881 19.1261 68.2161 18.8374 68.144 18.4766C68.072 18.3322 67.9279 18.0435 67.4957 18.0435C67.3517 18.0435 67.2076 18.1157 67.2076 18.26C67.2076 18.3322 67.2076 18.3322 67.2076 18.4044C67.2076 18.4766 67.2076 18.4766 67.2076 18.4766C67.2076 18.4766 67.2076 18.5487 67.2076 18.6209C67.2076 18.6931 67.2076 18.7653 67.2076 18.8374V21.7966C67.2076 21.8687 67.2076 21.9409 67.3517 21.9409C67.4237 21.9409 67.5678 22.0131 67.5678 22.1574C67.5678 22.2296 67.4957 22.3018 67.4237 22.3018H67.2796H65.4068C65.3347 22.3018 65.2627 22.2296 65.2627 22.1574C65.2627 22.0131 65.4068 21.9409 65.4788 21.9409C65.5508 21.8687 65.6229 21.8687 65.6229 21.7966V15.5896C65.6229 15.5174 65.5508 15.4453 65.4788 15.4453C65.4068 15.4453 65.2627 15.3731 65.3347 15.2287C65.3347 15.1566 65.4068 15.0844 65.4788 15.0844H67.4957C67.5678 15.0844 67.6398 15.1566 67.6398 15.2287C67.6398 15.3731 67.4957 15.4453 67.4237 15.4453C67.3517 15.5174 67.2796 15.5174 67.2796 15.5896V17.1774C67.2796 17.4661 67.4237 17.5383 67.4957 17.5383C67.5678 17.5383 67.6398 17.5383 67.6398 17.4661C67.7118 17.4661 67.7118 17.3939 67.7839 17.3939C68 17.2496 68.144 17.1053 68.2881 16.8887C68.3601 16.7444 68.7203 15.7339 68.7924 15.5174C69.0085 15.0844 69.2966 15.0122 69.6568 15.0122C69.8008 15.0122 69.9449 15.0844 70.089 15.1566C70.233 15.2287 70.3051 15.3731 70.3051 15.5896C70.3051 15.7339 70.161 16.0948 69.8008 16.0948C69.5847 16.0948 69.5127 16.0226 69.4407 16.0226C69.3686 16.0226 69.1525 16.0226 69.0805 16.167C69.0085 16.3113 68.9364 16.4557 68.8644 16.6C68.7924 16.8166 68.7203 16.8887 68.8644 17.1053C69.0085 17.3939 69.5127 17.6826 69.7288 18.26C69.9449 18.8374 70.0169 19.487 70.0169 20.2809C70.0169 20.4974 70.089 21.7244 70.089 21.7244C70.089 21.7966 70.161 21.7966 70.233 21.8687C70.233 22.0852 70.3771 22.1574 70.3771 22.3018Z" fill="white"/>
</g>
<defs>
<radialGradient id="paint0_radial" cx="0" cy="0" r="1" gradientUnits="userSpaceOnUse" gradientTransform="translate(84.9592 18.6794) scale(13.0147 12.966)">
<stop stop-color="#FFEB00"/>
<stop offset="0.5787" stop-color="#FFEB00"/>
<stop offset="0.7349" stop-color="#FFEA00"/>
<stop offset="0.7996" stop-color="#FEE912"/>
<stop offset="0.8473" stop-color="#FEE531"/>
<stop offset="0.8867" stop-color="#FDE04B"/>
<stop offset="0.921" stop-color="#FCDA65"/>
<stop offset="0.9517" stop-color="#FBD27F"/>
<stop offset="0.9791" stop-color="#F9C896"/>
<stop offset="1" stop-color="#F7BEA7"/>
</radialGradient>
<clipPath id="clip0">
<rect width="170" height="83" fill="white"/>
</clipPath>
</defs>
</svg>
