<svg width="30" height="30" viewBox="0 0 30 30" fill="none" xmlns="http://www.w3.org/2000/svg">
<path fill-rule="evenodd" clip-rule="evenodd" d="M5.0245 7.44753C10.3498 13.6209 15.6912 19.813 23.6651 22.8735L29.5004 24C22.0004 20.5 18.6187 17.692 14.5004 14C10.5565 10.4643 5.71716 5.72876 1.50036 0C1.52154 0.0919833 1.54247 0.183133 1.56322 0.273473C2.12812 2.73349 2.55506 4.59272 4.04993 6.31915C4.37512 6.69473 4.69978 7.07109 5.0245 7.44753ZM0.0380859 15.2845C6.33921 25.7351 14.128 31.1509 21.3578 29.6773C14.0525 28.5467 9.61359 24.23 5.28256 20.018C3.57406 18.3565 1.88235 16.7114 0.0380859 15.2845Z" fill="white"/>
</svg>
