<svg width="32" height="29" viewBox="0 0 32 29" fill="none" xmlns="http://www.w3.org/2000/svg">
<path fill-rule="evenodd" clip-rule="evenodd" d="M14.9999 1.99974C15.6263 -0.30944 18 0.37712 18 2.99987C18 5.62214 18 12.9998 18 12.9998C18 12.9998 25.9469 13.9999 28.9999 13.9999C32.053 13.9999 31.3876 16.9998 28.9999 16.9998C26.6122 16.9998 18 16.9998 18 16.9998C18 16.9998 18 25.121 18 26.9997C18 28.8785 14.9999 28.0351 14.9999 25.9998C14.9999 23.9643 13.9999 15.9997 13.9999 15.9997C13.9999 15.9997 3.36996 14.9998 1.99999 14.9998C0.629915 14.9998 0.590785 11.9999 1.99999 11.9999C3.40912 11.9999 13.9999 11.9999 13.9999 11.9999C13.9999 11.9999 14.3737 4.30915 14.9999 1.99974Z" fill="white"/>
</svg>
