<svg width="514" height="54" viewBox="0 0 514 54" fill="none" xmlns="http://www.w3.org/2000/svg">
<path fill-rule="evenodd" clip-rule="evenodd" d="M440.498 51.798C438.106 48.333 438.752 33.752 438.752 28.536C407.691 28.764 376.459 29.544 345.361 29.982C315.097 30.401 283.049 31.658 252.938 30.801C237.996 30.363 222.314 30.668 207.41 30.801C191.785 30.934 175.742 31.03 160.098 30.801C144.72 30.592 131.098 30.801 115.098 30.801C99.0984 30.801 79.3322 27.692 67.2192 29.5C66.5742 44.044 71.1927 51.052 59.0227 50.5C56.5212 50.3865 54.0227 44 51.1832 39.833C48.3438 35.666 47.0227 33 46.0122 30.268L1.83221 29.335C1.71821 28.878 1.58524 28.421 1.54724 28.517C0.864241 30.211 0.37025 16.086 0.29425 15.458C-0.44575 -1.123 -2.13576 5.627 49.2972 3L119.278 0.495L171.584 0H179.33C179.368 0 179.406 0.019 179.444 0.019V0H185.994L194.025 0.076C194.044 0.057 194.082 0.019 194.101 0H194.633C194.69 0.038 194.709 0.057 194.709 0H196.569C196.569 0.038 196.569 0.076 196.569 0.096L234.94 0H270.766L270.747 0.096L281.758 0H510.461C513.84 1.485 512.986 4.969 512.758 12.773C512.227 32.076 515.986 26.917 463.3 28.402C460.471 33.904 458.155 38.568 454.927 44.031C454.149 45.345 451.301 50.618 450.333 51.512C448.093 53.644 442.928 53.283 440.498 51.798ZM443 28.402C441.551 30.7876 441.794 44.1432 442.5 49C443.006 52.4761 448 51 449 49.5L460 28.402H443ZM129.72 26.851C191.234 28.393 157.269 25.49 189.45 18.922C199.512 16.866 207.201 14.715 218.118 14.106C228.655 13.497 239.173 12.983 249.691 12.45C294.213 10.166 334.292 16.371 378.206 17.152C389.617 17.361 400.97 17.904 412.361 18C423.183 18.076 435.754 18.386 446.5 18.5C467.612 18.729 489.134 18.027 510.17 15.629L510.625 9.804L450.5 11C427.812 12.047 401.597 13.402 378.89 11.441C358.366 9.67 337.216 10.337 318.002 5.35C298.618 0.324 277.24 4.626 257.001 5.901L194.006 10.146C144.7 13.782 116.386 16.989 64.7452 14.382C54.2452 13.848 45.7842 13.897 35.2662 13.307C26.4762 12.812 11.2022 10.472 3.00024 11.5V18.142C6.24624 18.694 15.1792 17.704 19.8502 18.142C35.8742 19.646 51.3282 20.76 67.2192 22.169C77.2252 23.082 87.1922 23.586 97.5582 24.424C108.134 25.28 118.898 26.585 129.72 26.851ZM103.337 26.927C89.1362 25.595 12.3612 17.335 3.00024 20L3.50024 27.746C17.9482 28.793 35.3612 27.67 50.0182 27.746C64.6942 27.822 89.3262 26.509 103.337 26.927ZM344.051 28.803C365.41 28.803 387.147 26.942 409 27L505.5 25.5C483.971 24.243 429.606 22.448 408 23C386.755 23.552 362.888 25.905 342.023 26C288.5 23.5 234 18 207.41 27.251C210.683 28.3873 223.289 28.2292 239.098 28.5C275.476 29.1231 330.962 28.803 344.051 28.803ZM339.361 24.576C367.384 24.557 395.426 21.625 423.753 21.492C438.087 21.435 452.307 21.587 466.604 22.12C480.615 22.634 495.532 23.514 509.714 23L510.461 18.5C496.412 18.862 479.97 20.083 465.958 19.969C451.453 19.855 436.853 19.626 422.443 19.056C407.862 18.484 392.882 19.284 378.206 19.056C364.157 18.827 350.05 17.199 336.058 16.266C306.725 14.324 281.398 13.002 251.571 14.506C238.566 15.153 222.162 15.267 209.631 17.076C202.664 18.085 178.71 23.787 174.571 27.08C180.077 27.975 191.329 27.27 197.367 27.251C205.739 27.232 208.701 24.9 216.163 23.529C260.988 15.343 293.492 24.614 339.361 24.576ZM69.0612 12.621C108.551 15.324 159.528 12.24 199.056 7.691C212.195 6.187 232.376 5.939 247.603 4.855C250.888 4.607 268.102 3.588 270 2.179L167.901 2.446C157.838 2.389 128.664 2.105 116 3C99.2742 4.161 87.6292 4.33 71.4532 4.35L35.3042 4.978L27.2637 5.311L19.2232 5.644C16.4892 5.777 13.7742 5.91 11.0782 5.987C2.45922 6.234 3.72224 7.825 3.00024 9.5C5.88624 10.985 16.9072 10.138 21.2362 10.442L69.0612 12.621ZM484.678 7.596C492.102 7.348 503.81 8.605 510.758 7.52L510.461 2C505.373 1.276 491.385 1.695 485.5 2C461.54 3.18 437.663 1.081 414.5 1.5C398.97 1.785 382.929 1.843 367 1.5C351.716 1.176 327.824 1.437 312.768 2.179C313.337 2.617 320.223 3.579 321.249 4.017L330.134 5.883C341.64 7.919 403.457 11.726 412.361 11.441L484.678 7.596ZM64.7452 47.5L64.5002 29.5L49.2972 30.211C49.3916 30.5064 54.1335 41.6074 58.0002 46.5C60.3649 49.4921 63.751 47.0162 64.7452 47.5Z" fill="#548DD1"/>
</svg>
