<svg width="514" height="54" viewBox="0 0 514 54" fill="none" xmlns="http://www.w3.org/2000/svg">
<path fill-rule="evenodd" clip-rule="evenodd" d="M72.6002 51.798C74.9922 48.333 74.3462 33.752 74.3462 28.536C105.407 28.764 136.639 29.544 167.737 29.982C198.001 30.401 230.049 31.658 260.16 30.801C275.102 30.363 290.784 30.668 305.688 30.801C321.313 30.934 337.356 31.03 353 30.801C368.378 30.592 382 30.801 398 30.801C414 30.801 433.766 27.692 445.879 29.5C446.524 44.044 441.906 51.052 454.076 50.5C456.577 50.3865 459.076 44 461.915 39.833C464.755 35.666 466.076 33 467.086 30.268L511.266 29.335C511.38 28.878 511.513 28.421 511.551 28.517C512.234 30.211 512.728 16.086 512.804 15.458C513.544 -1.123 515.234 5.627 463.801 3L393.82 0.495L341.514 0H333.768C333.73 0 333.692 0.019 333.654 0.019V0H327.104L319.073 0.076C319.054 0.057 319.016 0.019 318.997 0H318.465C318.408 0.038 318.389 0.057 318.389 0H316.529C316.529 0.038 316.529 0.076 316.529 0.096L278.158 0H242.332L242.351 0.096L231.34 0H2.63717C-0.741833 1.485 0.112166 4.969 0.340166 12.773C0.871166 32.076 -2.88783 26.917 49.7982 28.402C52.6272 33.904 54.9432 38.568 58.1712 44.031C58.9492 45.345 61.7972 50.618 62.7652 51.512C65.0052 53.644 70.1702 53.283 72.6002 51.798ZM70.0981 28.402C71.5477 30.7876 71.3045 44.1432 70.5981 49C70.0926 52.4761 65.0981 51 64.0981 49.5L53.0981 28.402H70.0981ZM383.378 26.851C321.864 28.393 355.829 25.49 323.648 18.922C313.586 16.866 305.897 14.715 294.98 14.106C284.443 13.497 273.925 12.983 263.407 12.45C218.885 10.166 178.806 16.371 134.892 17.152C123.481 17.361 112.128 17.904 100.737 18C89.9152 18.076 77.3441 18.386 66.5981 18.5C45.4861 18.729 23.9642 18.027 2.92817 15.629L2.47317 9.804L62.5981 11C85.2861 12.047 111.501 13.402 134.208 11.441C154.732 9.67 175.882 10.337 195.096 5.35C214.48 0.324 235.858 4.626 256.097 5.901L319.092 10.146C368.398 13.782 396.712 16.989 448.353 14.382C458.853 13.848 467.314 13.897 477.832 13.307C486.622 12.812 501.896 10.472 510.098 11.5V18.142C506.852 18.694 497.919 17.704 493.248 18.142C477.224 19.646 461.77 20.76 445.879 22.169C435.873 23.082 425.906 23.586 415.54 24.424C404.964 25.28 394.2 26.585 383.378 26.851ZM409.761 26.927C423.962 25.595 500.737 17.335 510.098 20L509.598 27.746C495.15 28.793 477.737 27.67 463.08 27.746C448.404 27.822 423.772 26.509 409.761 26.927ZM169.047 28.803C147.688 28.803 125.951 26.942 104.098 27L7.59814 25.5C29.1271 24.243 83.4921 22.448 105.098 23C126.343 23.552 150.211 25.905 171.076 26C224.598 23.5 279.098 18 305.688 27.251C302.416 28.3873 289.809 28.2292 274 28.5C237.622 29.1231 182.136 28.803 169.047 28.803ZM173.737 24.576C145.714 24.557 117.672 21.625 89.3452 21.492C75.0112 21.435 60.7912 21.587 46.4942 22.12C32.4832 22.634 17.5662 23.514 3.38417 23L2.63717 18.5C16.6862 18.862 33.1282 20.083 47.1402 19.969C61.6452 19.855 76.2452 19.626 90.6552 19.056C105.236 18.484 120.216 19.284 134.892 19.056C148.941 18.827 163.048 17.199 177.04 16.266C206.373 14.324 231.7 13.002 261.527 14.506C274.532 15.153 290.936 15.267 303.467 17.076C310.434 18.085 334.388 23.787 338.527 27.08C333.021 27.975 321.769 27.27 315.731 27.251C307.359 27.232 304.397 24.9 296.935 23.529C252.11 15.343 219.606 24.614 173.737 24.576ZM444.037 12.621C404.547 15.324 353.57 12.24 314.042 7.691C300.903 6.187 280.722 5.939 265.495 4.855C262.21 4.607 244.996 3.588 243.098 2.179L345.197 2.446C355.26 2.389 384.434 2.105 397.098 3C413.824 4.161 425.469 4.33 441.645 4.35L477.794 4.978L485.835 5.311L493.875 5.644C496.609 5.777 499.324 5.91 502.02 5.987C510.639 6.234 509.376 7.825 510.098 9.5C507.212 10.985 496.191 10.138 491.862 10.442L444.037 12.621ZM28.4202 7.596C20.9962 7.348 9.28817 8.605 2.34017 7.52L2.63717 2C7.72517 1.276 21.7131 1.695 27.5981 2C51.5581 3.18 75.4351 1.081 98.5981 1.5C114.128 1.785 130.169 1.843 146.098 1.5C161.382 1.176 185.274 1.437 200.33 2.179C199.761 2.617 192.875 3.579 191.849 4.017L182.964 5.883C171.458 7.919 109.641 11.726 100.737 11.441L28.4202 7.596ZM448.353 47.5L448.598 29.5L463.801 30.211C463.707 30.5064 458.965 41.6074 455.098 46.5C452.733 49.4921 449.347 47.0162 448.353 47.5Z" fill="#548DD1"/>
</svg>
